<svg width="48" height="48" viewBox="0 0 48 48" fill="none" xmlns="http://www.w3.org/2000/svg">
<circle cx="24" cy="24" r="24" fill="#AAB4C0"/>
<g clip-path="url(#clip0)">
<path d="M32.9845 16.4778C32.4738 15.9668 31.8673 15.5614 31.1999 15.2849C30.5324 15.0083 29.817 14.866 29.0945 14.866C28.372 14.866 27.6566 15.0083 26.9892 15.2849C26.3217 15.5614 25.7153 15.9668 25.2045 16.4778L24.1445 17.5378L23.0845 16.4778C22.0528 15.4461 20.6536 14.8665 19.1945 14.8665C17.7355 14.8665 16.3362 15.4461 15.3045 16.4778C14.2728 17.5095 13.6932 18.9088 13.6932 20.3678C13.6932 21.8268 14.2728 23.2261 15.3045 24.2578L16.3645 25.3178L24.1445 33.0978L31.9245 25.3178L32.9845 24.2578C33.4955 23.747 33.9009 23.1406 34.1774 22.4731C34.454 21.8057 34.5964 21.0903 34.5964 20.3678C34.5964 19.6453 34.454 18.9299 34.1774 18.2624C33.9009 17.595 33.4955 16.9885 32.9845 16.4778V16.4778Z" stroke="white" stroke-width="2" stroke-linecap="round" stroke-linejoin="round"/>
</g>
<defs>
<clipPath id="clip0">
<rect width="24" height="24" fill="white" transform="translate(12.1445 11.8677)"/>
</clipPath>
</defs>
</svg>
