<svg width="43" height="43" viewBox="0 0 304 302" fill="none" xmlns="http://www.w3.org/2000/svg">
<circle cx="150" cy="150" r="150" fill="#60809D"/>
<path d="M133.008 142.569C127.657 142.569 123.432 147.361 123.432 153.207C123.432 159.053 127.751 163.844 133.008 163.844C138.359 163.844 142.583 159.053 142.583 153.207C142.677 147.361 138.359 142.569 133.008 142.569ZM167.273 142.569C161.922 142.569 157.698 147.361 157.698 153.207C157.698 159.053 162.016 163.844 167.273 163.844C172.624 163.844 176.849 159.053 176.849 153.207C176.849 147.361 172.624 142.569 167.273 142.569Z" fill="white"/>
<path d="M212.897 62.1665H87.1016C76.4934 62.1665 67.8567 70.9832 67.8567 81.9082V211.475C67.8567 222.4 76.4934 231.216 87.1016 231.216H193.559L188.583 213.487L200.6 224.891L211.959 235.625L232.142 253.833V81.9082C232.142 70.9832 223.506 62.1665 212.897 62.1665ZM176.661 187.325C176.661 187.325 173.281 183.204 170.465 179.562C182.763 176.016 187.457 168.158 187.457 168.158C183.608 170.746 179.946 172.566 176.661 173.812C171.967 175.825 167.461 177.166 163.048 177.933C154.036 179.658 145.775 179.179 138.734 177.837C133.383 176.783 128.783 175.25 124.934 173.716C122.775 172.854 120.428 171.8 118.081 170.458C117.8 170.266 117.518 170.171 117.236 169.979C117.049 169.883 116.955 169.787 116.861 169.691C115.171 168.733 114.232 168.062 114.232 168.062C114.232 168.062 118.738 175.729 130.661 179.371C127.844 183.012 124.371 187.325 124.371 187.325C103.624 186.654 95.7383 172.758 95.7383 172.758C95.7383 141.9 109.257 116.887 109.257 116.887C122.775 106.537 135.636 106.825 135.636 106.825L136.575 107.975C119.677 112.958 111.885 120.529 111.885 120.529C111.885 120.529 113.951 119.379 117.424 117.75C127.469 113.246 135.449 112 138.734 111.712C139.297 111.616 139.767 111.521 140.33 111.521C146.057 110.754 152.534 110.562 159.293 111.329C168.212 112.383 177.787 115.067 187.551 120.529C187.551 120.529 180.134 113.341 164.175 108.358L165.489 106.825C165.489 106.825 178.351 106.537 191.869 116.887C191.869 116.887 205.387 141.9 205.387 172.758C205.387 172.758 197.408 186.654 176.661 187.325V187.325Z" fill="white"/>
</svg>
