<svg width="43" height="43" viewBox="0 0 43 43" fill="none" xmlns="http://www.w3.org/2000/svg">
<circle cx="21.5" cy="21.5" r="21.5" fill="#60809D"/>
<path d="M33.9981 20.9991C33.9981 14.3722 28.626 9 21.9991 9C15.3722 9 10 14.3722 10 20.9991C10 26.9882 14.3879 31.9522 20.1242 32.8524V24.4676H17.0776V20.9991H20.1242V18.3555C20.1242 15.3483 21.9156 13.6871 24.6564 13.6871C25.9692 13.6871 27.3424 13.9215 27.3424 13.9215V16.8744H25.8294C24.3388 16.8744 23.8739 17.7993 23.8739 18.7482V20.9991H27.2018L26.6698 24.4676H23.8739V32.8524C29.6103 31.9522 33.9981 26.9882 33.9981 20.9991Z" fill="white"/>
</svg>
