<svg width="43" height="43" viewBox="0 0 43 43" fill="none" xmlns="http://www.w3.org/2000/svg">
<circle cx="21.5" cy="21.5" r="21.5" fill="#60809D"/>
<path d="M22 9C18.74 9 18.333 9.015 17.053 9.072C15.775 9.132 14.905 9.333 14.14 9.63C13.351 9.936 12.681 10.347 12.014 11.014C11.347 11.681 10.935 12.35 10.63 13.14C10.333 13.905 10.131 14.775 10.072 16.053C10.012 17.333 10 17.74 10 21C10 24.26 10.015 24.667 10.072 25.947C10.132 27.224 10.333 28.095 10.63 28.86C10.936 29.648 11.347 30.319 12.014 30.986C12.681 31.652 13.35 32.065 14.14 32.37C14.906 32.666 15.776 32.869 17.053 32.928C18.333 32.988 18.74 33 22 33C25.26 33 25.667 32.985 26.947 32.928C28.224 32.868 29.095 32.666 29.86 32.37C30.648 32.064 31.319 31.652 31.986 30.986C32.652 30.319 33.065 29.651 33.37 28.86C33.666 28.095 33.869 27.224 33.928 25.947C33.988 24.667 34 24.26 34 21C34 17.74 33.985 17.333 33.928 16.053C33.868 14.776 33.666 13.904 33.37 13.14C33.064 12.351 32.652 11.681 31.986 11.014C31.319 10.347 30.651 9.935 29.86 9.63C29.095 9.333 28.224 9.131 26.947 9.072C25.667 9.012 25.26 9 22 9ZM22 11.16C25.203 11.16 25.585 11.176 26.85 11.231C28.02 11.286 28.655 11.48 29.077 11.646C29.639 11.863 30.037 12.123 30.459 12.542C30.878 12.962 31.138 13.361 31.355 13.923C31.519 14.345 31.715 14.98 31.768 16.15C31.825 17.416 31.838 17.796 31.838 21C31.838 24.204 31.823 24.585 31.764 25.85C31.703 27.02 31.508 27.655 31.343 28.077C31.119 28.639 30.864 29.037 30.444 29.459C30.025 29.878 29.62 30.138 29.064 30.355C28.644 30.519 27.999 30.715 26.829 30.768C25.555 30.825 25.18 30.838 21.97 30.838C18.759 30.838 18.384 30.823 17.111 30.764C15.94 30.703 15.295 30.508 14.875 30.343C14.306 30.119 13.915 29.864 13.496 29.444C13.075 29.025 12.806 28.62 12.596 28.064C12.431 27.644 12.237 26.999 12.176 25.829C12.131 24.569 12.115 24.18 12.115 20.985C12.115 17.789 12.131 17.399 12.176 16.124C12.237 14.954 12.431 14.31 12.596 13.89C12.806 13.32 13.075 12.93 13.496 12.509C13.915 12.09 14.306 11.82 14.875 11.611C15.295 11.445 15.926 11.25 17.096 11.19C18.371 11.145 18.746 11.13 21.955 11.13L22 11.16V11.16ZM22 14.838C18.595 14.838 15.838 17.598 15.838 21C15.838 24.405 18.598 27.162 22 27.162C25.405 27.162 28.162 24.402 28.162 21C28.162 17.595 25.402 14.838 22 14.838ZM22 25C19.79 25 18 23.21 18 21C18 18.79 19.79 17 22 17C24.21 17 26 18.79 26 21C26 23.21 24.21 25 22 25ZM29.846 14.595C29.846 15.39 29.2 16.035 28.406 16.035C27.611 16.035 26.966 15.389 26.966 14.595C26.966 13.801 27.612 13.156 28.406 13.156C29.199 13.155 29.846 13.801 29.846 14.595Z" fill="white"/>
</svg>
