<svg width="43" height="43" viewBox="0 0 43 43" fill="none" xmlns="http://www.w3.org/2000/svg">
<circle cx="21.5" cy="21.5" r="21.5" fill="#60809D"/>
<path d="M29.0392 28.0433H26.0775V23.4025C26.0775 22.2958 26.055 20.8717 24.5342 20.8717C22.99 20.8717 22.7542 22.0758 22.7542 23.3208V28.0433H19.7925V18.5H22.6375V19.8008H22.6758C23.0733 19.0508 24.04 18.2592 25.4842 18.2592C28.485 18.2592 29.04 20.2342 29.04 22.805V28.0433H29.0392ZM16.4475 17.1942C15.4942 17.1942 14.7283 16.4225 14.7283 15.4733C14.7283 14.525 15.495 13.7542 16.4475 13.7542C17.3975 13.7542 18.1675 14.525 18.1675 15.4733C18.1675 16.4225 17.3967 17.1942 16.4475 17.1942ZM17.9325 28.0433H14.9625V18.5H17.9325V28.0433ZM30.5208 11H13.4758C12.66 11 12 11.645 12 12.4408V29.5592C12 30.3558 12.66 31 13.4758 31H30.5183C31.3333 31 32 30.3558 32 29.5592V12.4408C32 11.645 31.3333 11 30.5183 11H30.5208Z" fill="white"/>
</svg>
