<svg width="43" height="43" viewBox="0 0 43 43" fill="none" xmlns="http://www.w3.org/2000/svg">
<circle cx="21.5" cy="21.5" r="21.5" fill="#60809D"/>
<g clip-path="url(#clip0)">
<path d="M15.042 24.165C15.0407 24.8332 14.7749 25.4737 14.3026 25.9465C13.8304 26.4193 13.1902 26.6859 12.522 26.688C11.8534 26.6864 11.2127 26.4201 10.7401 25.9472C10.2674 25.4744 10.0013 24.8336 10 24.165C10.0018 23.4969 10.2682 22.8567 10.7408 22.3844C11.2135 21.9122 11.8539 21.6463 12.522 21.645H15.042V24.165ZM16.313 24.165C16.3148 23.497 16.5811 22.857 17.0535 22.3848C17.5259 21.9126 18.166 21.6466 18.834 21.645C19.502 21.6466 20.1421 21.9126 20.6145 22.3848C21.0869 22.857 21.3532 23.497 21.355 24.165V30.478C21.3534 31.1462 21.0873 31.7866 20.6149 32.2592C20.1425 32.7318 19.5022 32.9982 18.834 33C18.1658 32.9982 17.5255 32.7318 17.0531 32.2592C16.5807 31.7866 16.3146 31.1462 16.313 30.478V24.165V24.165ZM18.834 14.042C18.1661 14.0402 17.5261 13.7741 17.0538 13.3019C16.5814 12.8298 16.3151 12.1899 16.313 11.522C16.3146 10.8538 16.5807 10.2134 17.0531 9.74078C17.5255 9.26818 18.1658 9.00185 18.834 9C19.5022 9.00185 20.1425 9.26818 20.6149 9.74078C21.0873 10.2134 21.3534 10.8538 21.355 11.522V14.042H18.834ZM18.834 15.313C19.502 15.3148 20.1422 15.581 20.6146 16.0534C21.087 16.5258 21.3532 17.166 21.355 17.834C21.3532 18.502 21.087 19.1422 20.6146 19.6146C20.1422 20.087 19.502 20.3532 18.834 20.355H12.522C11.8538 20.3534 11.2134 20.0873 10.7408 19.6149C10.2682 19.1425 10.0018 18.5022 10 17.834C10.0018 17.1658 10.2682 16.5255 10.7408 16.0531C11.2134 15.5807 11.8538 15.3146 12.522 15.313H18.834ZM28.956 17.834C28.9578 17.1658 29.2242 16.5255 29.6968 16.0531C30.1694 15.5807 30.8098 15.3146 31.478 15.313C32.1462 15.3146 32.7866 15.5807 33.2592 16.0531C33.7318 16.5255 33.9982 17.1658 34 17.834C33.9982 18.5022 33.7318 19.1425 33.2592 19.6149C32.7866 20.0873 32.1462 20.3534 31.478 20.355H28.956V17.834V17.834ZM27.688 17.834C27.6862 18.5024 27.4197 19.1428 26.9469 19.6153C26.4741 20.0877 25.8334 20.3537 25.165 20.355C24.497 20.3532 23.857 20.0869 23.3848 19.6145C22.9126 19.1421 22.6466 18.502 22.645 17.834V11.522C22.6463 10.8539 22.9122 10.2135 23.3844 9.74084C23.8567 9.26822 24.4969 9.00185 25.165 9C25.8336 9.00132 26.4744 9.26742 26.9472 9.74007C27.4201 10.2127 27.6864 10.8534 27.688 11.522V17.834ZM25.165 27.956C25.8336 27.9573 26.4744 28.2234 26.9472 28.6961C27.4201 29.1687 27.6864 29.8094 27.688 30.478C27.6864 31.1466 27.4201 31.7873 26.9472 32.2599C26.4744 32.7326 25.8336 32.9987 25.165 33C24.4969 32.9982 23.8567 32.7318 23.3844 32.2592C22.9122 31.7865 22.6463 31.1461 22.645 30.478V27.956H25.165V27.956ZM25.165 26.688C24.4967 26.6861 23.8564 26.4196 23.3841 25.9468C22.9118 25.474 22.6461 24.8333 22.645 24.165C22.6466 23.4971 22.9126 22.8571 23.3848 22.3848C23.8571 21.9126 24.4971 21.6466 25.165 21.645H31.478C32.1461 21.6463 32.7865 21.9122 33.2592 22.3844C33.7318 22.8567 33.9982 23.4969 34 24.165C33.9987 24.8336 33.7326 25.4744 33.2599 25.9472C32.7873 26.4201 32.1466 26.6864 31.478 26.688H25.165V26.688Z" fill="white"/>
</g>
<defs>
<clipPath id="clip0">
<rect width="24" height="24" fill="white" transform="translate(10 9)"/>
</clipPath>
</defs>
</svg>
