<svg width="241" height="73" viewBox="0 0 241 73" fill="none" xmlns="http://www.w3.org/2000/svg">
<g clip-path="url(#clip0)">
<path fill-rule="evenodd" clip-rule="evenodd" d="M149.512 56.7963C135.507 67.119 115.208 72.6266 97.7307 72.6266C73.2247 72.6266 51.163 63.5627 34.4725 48.4878C33.1612 47.3023 34.3361 45.6868 35.9097 46.6099C53.922 57.09 76.1935 63.3949 99.1994 63.3949C114.715 63.3949 131.783 60.1848 147.477 53.5232C149.848 52.5161 151.831 55.0758 149.512 56.7963" fill="#FF9900"/>
<path fill-rule="evenodd" clip-rule="evenodd" d="M155.334 50.1345C153.551 47.8475 143.501 49.0539 138.99 49.589C137.616 49.7568 137.406 48.5609 138.644 47.7006C146.648 42.0672 159.782 43.6932 161.314 45.5815C162.845 47.4803 160.915 60.646 153.393 66.9299C152.239 67.895 151.138 67.381 151.652 66.1011C153.341 61.8839 157.128 52.4319 155.334 50.1345" fill="#FF9900"/>
<path fill-rule="evenodd" clip-rule="evenodd" d="M139.305 7.93115V2.45507C139.305 1.62631 139.934 1.07031 140.69 1.07031H165.206C165.993 1.07031 166.622 1.6368 166.622 2.45507V7.14436C166.612 7.93115 165.951 8.95922 164.776 10.5853L152.072 28.7235C156.793 28.6081 161.776 29.3109 166.056 31.7238C167.021 32.2693 167.283 33.0666 167.357 33.8534V39.6966C167.357 40.4939 166.475 41.4276 165.552 40.945C158.01 36.99 147.991 36.5599 139.651 40.987C138.801 41.4485 137.91 40.5254 137.91 39.7281V34.1786C137.91 33.2869 137.92 31.7657 138.812 30.4125L153.53 9.30541H140.721C139.934 9.30541 139.305 8.74942 139.305 7.93115" fill="black"/>
<path fill-rule="evenodd" clip-rule="evenodd" d="M49.8722 42.0989H42.4134C41.7 42.0465 41.1335 41.5115 41.0811 40.8296V2.54948C41.0811 1.78367 41.721 1.17521 42.5183 1.17521H49.4735C50.1974 1.20666 50.7743 1.76268 50.8268 2.45506V7.45907H50.9632C52.7781 2.62291 56.1875 0.367432 60.7824 0.367432C65.4507 0.367432 68.367 2.62291 70.4652 7.45907C72.2695 2.62291 76.3714 0.367432 80.7669 0.367432C83.8931 0.367432 87.313 1.65777 89.4007 4.55317C91.761 7.77378 91.2785 12.4526 91.2785 16.5544L91.268 40.7142C91.268 41.48 90.6281 42.0989 89.8308 42.0989H82.3825C81.6376 42.0465 81.0397 41.4485 81.0397 40.7142V20.4254C81.0397 18.8099 81.1865 14.7815 80.8299 13.2499C80.2739 10.6797 78.6059 9.95582 76.4448 9.95582C74.6404 9.95582 72.7521 11.1622 71.9863 13.0925C71.2205 15.0228 71.2939 18.2539 71.2939 20.4254V40.7142C71.2939 41.48 70.654 42.0989 69.8567 42.0989H62.4084C61.6531 42.0465 61.0656 41.4485 61.0656 40.7142L61.0551 20.4254C61.0551 16.1558 61.758 9.87189 56.4603 9.87189C51.0996 9.87189 51.3094 15.9984 51.3094 20.4254V40.7142C51.3094 41.48 50.6694 42.0989 49.8722 42.0989" fill="black"/>
<path fill-rule="evenodd" clip-rule="evenodd" d="M187.729 0.367432C198.796 0.367432 204.786 9.87189 204.786 21.957C204.786 33.633 198.167 42.8962 187.729 42.8962C176.861 42.8962 170.944 33.3918 170.944 21.5479C170.944 9.63061 176.934 0.367432 187.729 0.367432V0.367432ZM187.792 8.18291C182.295 8.18291 181.948 15.6732 181.948 20.3415C181.948 25.0203 181.875 35.0073 187.729 35.0073C193.509 35.0073 193.782 26.9506 193.782 22.041C193.782 18.8099 193.645 14.9493 192.67 11.8861C191.831 9.22148 190.163 8.18291 187.792 8.18291" fill="black"/>
<path fill-rule="evenodd" clip-rule="evenodd" d="M219.138 42.0989H211.711C210.966 42.0465 210.368 41.4485 210.368 40.7142L210.357 2.42358C210.42 1.72072 211.039 1.17521 211.795 1.17521H218.708C219.358 1.20666 219.893 1.64728 220.04 2.24525V8.09898H220.177C222.264 2.86419 225.191 0.367432 230.342 0.367432C233.688 0.367432 236.951 1.57385 239.049 4.87838C241 7.94163 241 13.0925 241 16.7957V40.8925C240.916 41.5639 240.298 42.0989 239.563 42.0989H232.083C231.402 42.0465 230.835 41.5429 230.762 40.8925V20.1002C230.762 15.9145 231.244 9.78797 226.093 9.78797C224.278 9.78797 222.61 11.0049 221.782 12.8512C220.733 15.1906 220.596 17.5195 220.596 20.1002V40.7142C220.586 41.48 219.935 42.0989 219.138 42.0989" fill="black"/>
<path fill-rule="evenodd" clip-rule="evenodd" d="M119.761 23.8136C119.761 26.7195 119.834 29.1428 118.366 31.7235C117.18 33.8216 115.292 35.112 113.204 35.112C110.34 35.112 108.662 32.9299 108.662 29.7093C108.662 23.352 114.358 22.1981 119.761 22.1981V23.8136V23.8136ZM127.283 41.9938C126.79 42.4344 126.076 42.4658 125.52 42.1721C123.045 40.116 122.593 39.1613 121.24 37.1996C117.149 41.3748 114.243 42.6232 108.945 42.6232C102.661 42.6232 97.7832 38.7522 97.7832 30.9997C97.7832 24.9466 101.056 20.8238 105.735 18.8096C109.784 17.0262 115.439 16.7115 119.761 16.2184V15.2533C119.761 13.4804 119.897 11.3823 118.848 9.85066C117.946 8.47638 116.205 7.90989 114.663 7.90989C111.82 7.90989 109.291 9.36808 108.672 12.3894C108.547 13.0608 108.053 13.7217 107.372 13.7531L100.144 12.9768C99.5351 12.8405 98.8532 12.3474 99.0316 11.4138C100.689 2.64363 108.62 0 115.712 0C119.341 0 124.083 0.965135 126.947 3.71366C130.577 7.10212 130.231 11.6236 130.231 16.5436V28.1672C130.231 31.6606 131.678 33.1922 133.042 35.0805C133.514 35.7519 133.619 36.5597 133.011 37.0632C131.489 38.3326 128.783 40.6929 127.293 42.0148L127.283 41.9937" fill="black"/>
<path fill-rule="evenodd" clip-rule="evenodd" d="M21.9778 23.8139C21.9778 26.7197 22.0512 29.1431 20.5825 31.7237C19.3971 33.8219 17.5193 35.1122 15.4211 35.1122C12.5572 35.1122 10.8892 32.9302 10.8892 29.7096C10.8892 23.3523 16.5856 22.1983 21.9778 22.1983V23.8139V23.8139ZM29.4995 41.994C29.0064 42.4346 28.2931 42.4661 27.7371 42.1724C25.2613 40.1162 24.8207 39.1616 23.4569 37.1998C19.3656 41.3751 16.4702 42.6235 11.162 42.6235C4.8886 42.6235 0 38.7524 0 30.9999C0 24.9468 3.28355 20.824 7.95185 18.8098C12.0012 17.0264 17.6556 16.7117 21.9778 16.2187V15.2535C21.9778 13.4806 22.1141 11.3825 21.0756 9.8509C20.1629 8.47663 18.4215 7.91014 16.8898 7.91014C14.0469 7.91014 11.5082 9.36833 10.8892 12.3896C10.7633 13.061 10.2703 13.7219 9.59888 13.7534L2.36038 12.9771C1.75193 12.8407 1.08053 12.3476 1.24838 11.414C2.91638 2.64388 10.8368 0.000244141 17.9284 0.000244141C21.5581 0.000244141 26.2999 0.965379 29.1638 3.71391C32.7935 7.10236 32.4473 11.6238 32.4473 16.5439V28.1674C32.4473 31.6608 33.8951 33.1924 35.2588 35.0807C35.7414 35.7521 35.8463 36.5599 35.2378 37.0634C33.7167 38.3328 31.0101 40.6932 29.5205 42.015L29.4995 41.994" fill="black"/>
</g>
<defs>
<clipPath id="clip0">
<rect width="241" height="72.6263" fill="white"/>
</clipPath>
</defs>
</svg>
