<svg version="1.1" id="Layer_1" xmlns="http://www.w3.org/2000/svg" xmlns:xlink="http://www.w3.org/1999/xlink" x="0px" y="0px"
	 width="250" viewBox="0 0 900 500" enable-background="new 0 0 900 500" xml:space="preserve">
<path fill="#FFFFFF" opacity="1.000000" stroke="none" 
	d="
M600.000000,501.000000 
	C400.000000,501.000000 200.500000,501.000000 1.000000,501.000000 
	C1.000000,334.333344 1.000000,167.666672 1.000000,1.000000 
	C301.000000,1.000000 601.000000,1.000000 901.000000,1.000000 
	C901.000000,167.666672 901.000000,334.333344 901.000000,501.000000 
	C800.833313,501.000000 700.666687,501.000000 600.000000,501.000000 
M63.399178,200.252960 
	C60.930481,205.166672 58.461788,210.080399 55.473927,215.416641 
	C45.951515,232.100571 37.406448,249.512085 21.070778,261.093811 
	C20.321054,261.625336 19.811293,263.421997 20.097317,264.349609 
	C24.863247,279.806122 30.703613,294.741425 41.832996,306.961578 
	C58.308762,325.052124 78.782639,327.950348 98.630486,315.148621 
	C109.056595,326.320099 119.275330,337.694733 129.964859,348.608215 
	C141.556549,360.442719 158.370621,363.033752 171.208725,354.095062 
	C178.284546,349.168396 183.779282,341.970886 190.566971,335.517914 
	C205.680435,316.420654 220.825073,297.347839 235.852219,278.182922 
	C237.151779,276.525513 238.848648,273.902008 238.371109,272.332886 
	C234.858765,260.792358 230.839752,249.406036 226.878876,237.241135 
	C223.157578,230.240540 220.058502,222.808441 215.571930,216.338531 
	C208.503830,206.145935 199.181488,198.522995 185.762955,200.188980 
	C180.403229,200.854446 175.329025,203.819641 169.921097,204.953583 
	C168.148483,201.376633 166.518372,197.720139 164.574402,194.238876 
	C160.162781,186.338486 155.596710,178.524338 151.049942,169.989395 
	C147.897278,165.367233 144.892502,160.635513 141.564026,156.143631 
	C131.850632,143.035049 117.370651,138.010071 104.800529,144.120773 
	C92.991440,149.861526 85.092361,159.786118 78.565086,171.670731 
	C73.677162,181.041565 68.789246,190.412384 63.399178,200.252960 
M790.630676,312.700287 
	C790.630676,274.952515 790.630676,237.204742 790.630676,199.425156 
	C783.869202,199.425156 777.643188,199.425156 770.941284,199.425156 
	C770.941284,210.167435 770.941284,220.564117 770.941284,231.279587 
	C769.121948,230.939331 767.838684,230.644470 766.539490,230.464798 
	C752.698914,228.550751 739.400146,229.826187 728.527283,239.487762 
	C712.648987,253.597000 710.627625,271.663971 715.676697,291.047211 
	C718.608398,302.301697 725.828552,310.150452 736.803528,314.555176 
	C748.640259,319.305725 760.866211,319.032654 773.108398,317.536194 
	C778.961304,316.820740 784.666748,314.899353 790.630676,312.700287 
M877.149536,247.363342 
	C865.113464,222.957382 829.922363,225.311813 816.917847,241.614822 
	C810.178345,250.063660 806.963745,259.606628 806.442017,270.080933 
	C805.817505,282.619049 807.847534,294.534546 816.224426,304.685211 
	C829.744690,321.068085 860.612854,320.559021 876.641846,312.641785 
	C876.014343,308.162811 875.376892,303.612671 874.714478,298.884369 
	C870.249756,299.750824 866.095459,300.803345 861.875549,301.307190 
	C857.601807,301.817383 853.257568,302.040100 848.954163,301.942963 
	C835.235901,301.633331 826.247192,292.528381 827.405151,279.767883 
	C845.405640,279.767883 863.462463,279.767883 881.760925,279.767883 
	C882.204834,268.566956 882.129761,258.009308 877.149536,247.363342 
M519.931152,298.494568 
	C519.843506,285.009949 520.047607,271.515076 519.574890,258.043945 
	C519.204773,247.497894 515.337158,238.274490 505.085815,233.707626 
	C489.623444,226.819321 474.095306,228.762024 458.390167,234.451996 
	C458.953400,239.505081 459.473389,244.170319 460.001099,248.904785 
	C470.577881,245.877579 480.513672,244.285873 490.664062,246.939072 
	C498.334106,248.943954 501.939880,255.465729 499.829285,263.443024 
	C498.886017,263.352600 497.915131,263.248047 496.942200,263.167999 
	C486.402130,262.300812 475.938507,262.301483 466.191162,267.190399 
	C456.166138,272.218597 451.073242,280.468933 451.374908,291.708038 
	C451.700623,303.841583 456.846344,311.218262 468.068695,315.037720 
	C485.481903,320.964233 502.666687,317.898682 519.931152,313.491180 
	C519.931152,308.465729 519.931152,303.978668 519.931152,298.494568 
M694.971558,245.746811 
	C692.007751,239.198563 687.188293,234.537872 680.356140,232.347733 
	C666.765137,227.990921 653.179871,228.681747 639.822693,233.379272 
	C638.496948,233.845535 637.045105,236.181778 637.018616,237.674377 
	C636.953003,241.372696 637.679688,245.085052 638.097351,248.876831 
	C649.575439,245.565628 660.161987,244.793655 667.641724,246.600418 
	C676.028015,248.626175 679.764526,254.580505 678.041321,263.437469 
	C677.099854,263.368042 676.133789,263.304871 675.169189,263.224426 
	C663.950867,262.288849 652.869507,262.312866 642.654358,268.065247 
	C633.509949,273.214661 629.174255,281.303375 629.441406,291.551941 
	C629.735535,302.834625 634.695740,311.333710 645.972351,315.045624 
	C663.437500,320.794617 680.600769,317.890076 697.818787,313.525269 
	C697.818787,294.714294 697.966064,276.409576 697.700562,258.110840 
	C697.644165,254.223312 696.082703,250.357605 694.971558,245.746811 
M287.457520,301.680817 
	C290.006042,308.131409 294.834564,312.361938 301.158417,314.625702 
	C318.196350,320.724670 335.234497,318.157349 352.173218,313.948761 
	C353.031036,313.735626 354.113129,312.076904 354.109985,311.094360 
	C354.049896,292.293396 354.401215,273.464935 353.463470,254.702362 
	C352.868530,242.799377 345.742828,234.867126 334.008026,231.589600 
	C322.866516,228.477798 311.638428,228.867844 300.636597,231.839188 
	C291.460724,234.317352 292.399353,233.825363 293.716064,242.658386 
	C293.997040,244.543274 294.034821,246.464401 294.101196,247.308136 
	C303.732025,246.880493 312.835602,245.792679 321.858124,246.262421 
	C331.427277,246.760635 336.234375,254.033005 334.344147,262.800018 
	C329.309875,262.800018 324.333466,262.696655 319.362854,262.822784 
	C310.547485,263.046417 302.054626,264.855591 295.134338,270.575378 
	C285.359344,278.654633 284.126221,289.309967 287.457520,301.680817 
M575.540771,246.197021 
	C576.701477,246.266434 577.871155,246.266891 579.021545,246.415985 
	C590.049316,247.845261 593.087830,250.719681 594.302124,261.725708 
	C594.847351,266.667145 594.761475,271.688995 594.784302,276.675171 
	C594.843445,289.627563 594.804138,302.580383 594.804138,315.689758 
	C601.483765,315.689758 607.707336,315.689758 614.011169,315.689758 
	C614.011169,296.234772 614.420105,277.080475 613.884888,257.952606 
	C613.437622,241.966919 603.359619,231.991867 587.463928,229.950562 
	C573.343506,228.137238 559.701477,230.231445 546.148315,234.082611 
	C542.516418,235.114639 541.706360,236.928284 541.727966,240.432739 
	C541.874146,264.097015 541.799316,287.762604 541.816223,311.427765 
	C541.817261,312.858490 541.991699,314.289093 542.088562,315.767700 
	C548.550720,315.767700 554.645691,315.767700 561.195862,315.767700 
	C561.195862,313.920013 561.195862,312.300598 561.195862,310.681213 
	C561.195862,294.348907 561.195862,278.016632 561.195862,261.684326 
	C561.195862,248.045609 561.195862,248.045609 575.540771,246.197021 
M383.819214,285.773071 
	C386.002106,291.688660 388.244049,297.583282 390.355682,303.524200 
	C394.858490,316.192413 394.830780,316.202271 408.436401,316.201721 
	C409.769653,316.201660 411.244141,316.561432 412.400208,316.108582 
	C413.830811,315.548187 415.638489,314.583740 416.169739,313.324219 
	C418.876099,306.907562 421.232178,300.342712 423.693726,293.823303 
	C431.423035,273.352295 439.144775,252.878464 447.098633,231.798203 
	C441.637573,231.798203 436.662018,232.119400 431.749878,231.699493 
	C427.606964,231.345337 426.045074,232.938950 424.843872,236.762238 
	C418.673187,256.402679 412.180206,275.941864 405.569550,296.222839 
	C404.655548,293.877869 403.915466,292.247650 403.375916,290.553589 
	C397.536865,272.219360 391.769196,253.862152 385.835876,235.558609 
	C385.371674,234.126648 383.867279,232.038803 382.750000,231.976273 
	C376.515503,231.627304 370.251343,231.808578 363.211761,231.808578 
	C370.155762,250.091278 376.802521,267.591400 383.819214,285.773071 
z"/>
<path fill="#FF5B05" opacity="1.000000" stroke="none" 
	d="
M790.534851,313.112213 
	C784.666748,314.899353 778.961304,316.820740 773.108398,317.536194 
	C760.866211,319.032654 748.640259,319.305725 736.803528,314.555176 
	C725.828552,310.150452 718.608398,302.301697 715.676697,291.047211 
	C710.627625,271.663971 712.648987,253.597000 728.527283,239.487762 
	C739.400146,229.826187 752.698914,228.550751 766.539490,230.464798 
	C767.838684,230.644470 769.121948,230.939331 770.941284,231.279587 
	C770.941284,220.564117 770.941284,210.167435 770.941284,199.425156 
	C777.643188,199.425156 783.869202,199.425156 790.630676,199.425156 
	C790.630676,237.204742 790.630676,274.952515 790.534851,313.112213 
M738.557068,292.791779 
	C747.238525,303.898651 758.997498,302.057373 770.991394,301.024902 
	C770.991394,283.814728 771.030396,267.195007 770.907532,250.576416 
	C770.898987,249.412109 769.982727,247.682510 768.998657,247.185272 
	C758.264221,241.761444 742.699524,246.774765 737.596558,257.639740 
	C732.213623,269.100891 732.509216,280.748596 738.557068,292.791779 
z"/>
<path fill="#FF5B04" opacity="1.000000" stroke="none" 
	d="
M877.299011,247.707275 
	C882.129761,258.009308 882.204834,268.566956 881.760925,279.767883 
	C863.462463,279.767883 845.405640,279.767883 827.405151,279.767883 
	C826.247192,292.528381 835.235901,301.633331 848.954163,301.942963 
	C853.257568,302.040100 857.601807,301.817383 861.875549,301.307190 
	C866.095459,300.803345 870.249756,299.750824 874.714478,298.884369 
	C875.376892,303.612671 876.014343,308.162811 876.641846,312.641785 
	C860.612854,320.559021 829.744690,321.068085 816.224426,304.685211 
	C807.847534,294.534546 805.817505,282.619049 806.442017,270.080933 
	C806.963745,259.606628 810.178345,250.063660 816.917847,241.614822 
	C829.922363,225.311813 865.113464,222.957382 877.299011,247.707275 
M833.599426,265.071777 
	C843.209412,265.071777 852.819397,265.071777 862.380432,265.071777 
	C863.287720,253.453842 856.079102,244.776886 845.891785,244.663574 
	C835.029236,244.542740 826.686279,253.471649 827.267761,265.071808 
	C829.039001,265.071808 830.836426,265.071808 833.599426,265.071777 
z"/>
<path fill="#FF5B04" opacity="1.000000" stroke="none" 
	d="
M519.931152,298.993073 
	C519.931152,303.978668 519.931152,308.465729 519.931152,313.491180 
	C502.666687,317.898682 485.481903,320.964233 468.068695,315.037720 
	C456.846344,311.218262 451.700623,303.841583 451.374908,291.708038 
	C451.073242,280.468933 456.166138,272.218597 466.191162,267.190399 
	C475.938507,262.301483 486.402130,262.300812 496.942200,263.167999 
	C497.915131,263.248047 498.886017,263.352600 499.829285,263.443024 
	C501.939880,255.465729 498.334106,248.943954 490.664062,246.939072 
	C480.513672,244.285873 470.577881,245.877579 460.001099,248.904785 
	C459.473389,244.170319 458.953400,239.505081 458.390167,234.451996 
	C474.095306,228.762024 489.623444,226.819321 505.085815,233.707626 
	C515.337158,238.274490 519.204773,247.497894 519.574890,258.043945 
	C520.047607,271.515076 519.843506,285.009949 519.931152,298.993073 
M473.563171,298.814880 
	C481.952393,305.496887 491.215515,303.366699 500.807343,301.998077 
	C500.807343,297.684845 500.807343,293.884064 500.807343,290.083252 
	C500.807343,286.310944 500.807343,282.538635 500.807343,278.085480 
	C494.473969,278.085480 488.676575,277.571320 483.004456,278.195496 
	C472.139709,279.391174 467.834320,288.457336 473.563171,298.814880 
z"/>
<path fill="#FF5B04" opacity="1.000000" stroke="none" 
	d="
M695.093140,246.114319 
	C696.082703,250.357605 697.644165,254.223312 697.700562,258.110840 
	C697.966064,276.409576 697.818787,294.714294 697.818787,313.525269 
	C680.600769,317.890076 663.437500,320.794617 645.972351,315.045624 
	C634.695740,311.333710 629.735535,302.834625 629.441406,291.551941 
	C629.174255,281.303375 633.509949,273.214661 642.654358,268.065247 
	C652.869507,262.312866 663.950867,262.288849 675.169189,263.224426 
	C676.133789,263.304871 677.099854,263.368042 678.041321,263.437469 
	C679.764526,254.580505 676.028015,248.626175 667.641724,246.600418 
	C660.161987,244.793655 649.575439,245.565628 638.097351,248.876831 
	C637.679688,245.085052 636.953003,241.372696 637.018616,237.674377 
	C637.045105,236.181778 638.496948,233.845535 639.822693,233.379272 
	C653.179871,228.681747 666.765137,227.990921 680.356140,232.347733 
	C687.188293,234.537872 692.007751,239.198563 695.093140,246.114319 
M674.022461,302.907227 
	C677.639954,302.799255 679.203125,301.279663 678.903259,297.347290 
	C678.513428,292.236298 678.943237,287.067047 678.713318,281.936646 
	C678.654724,280.629059 677.393005,278.242157 676.760254,278.267303 
	C669.741089,278.546021 662.550842,278.411896 655.787170,280.004547 
	C650.310242,281.294220 648.499023,286.084961 649.001160,292.330963 
	C649.399231,297.282471 652.447021,301.164154 657.871338,302.069794 
	C662.863220,302.903198 668.023926,302.725037 674.022461,302.907227 
z"/>
<path fill="#FF5A03" opacity="1.000000" stroke="none" 
	d="
M287.319733,301.303284 
	C284.126221,289.309967 285.359344,278.654633 295.134338,270.575378 
	C302.054626,264.855591 310.547485,263.046417 319.362854,262.822784 
	C324.333466,262.696655 329.309875,262.800018 334.344147,262.800018 
	C336.234375,254.033005 331.427277,246.760635 321.858124,246.262421 
	C312.835602,245.792679 303.732025,246.880493 294.101196,247.308136 
	C294.034821,246.464401 293.997040,244.543274 293.716064,242.658386 
	C292.399353,233.825363 291.460724,234.317352 300.636597,231.839188 
	C311.638428,228.867844 322.866516,228.477798 334.008026,231.589600 
	C345.742828,234.867126 352.868530,242.799377 353.463470,254.702362 
	C354.401215,273.464935 354.049896,292.293396 354.109985,311.094360 
	C354.113129,312.076904 353.031036,313.735626 352.173218,313.948761 
	C335.234497,318.157349 318.196350,320.724670 301.158417,314.625702 
	C294.834564,312.361938 290.006042,308.131409 287.319733,301.303284 
M319.762939,303.311157 
	C324.794312,303.003418 329.825684,302.695679 334.744843,302.394806 
	C334.744843,293.835571 334.744843,286.248932 334.744843,277.367676 
	C327.733734,277.897522 321.001251,278.048767 314.389862,279.022369 
	C309.361572,279.762848 306.413666,283.232819 305.525726,288.428040 
	C304.130035,296.593872 308.706757,301.736145 319.762939,303.311157 
z"/>
<path fill="#FF5901" opacity="1.000000" stroke="none" 
	d="
M575.104370,246.199982 
	C561.195862,248.045609 561.195862,248.045609 561.195862,261.684326 
	C561.195862,278.016632 561.195862,294.348907 561.195862,310.681213 
	C561.195862,312.300598 561.195862,313.920013 561.195862,315.767700 
	C554.645691,315.767700 548.550720,315.767700 542.088562,315.767700 
	C541.991699,314.289093 541.817261,312.858490 541.816223,311.427765 
	C541.799316,287.762604 541.874146,264.097015 541.727966,240.432739 
	C541.706360,236.928284 542.516418,235.114639 546.148315,234.082611 
	C559.701477,230.231445 573.343506,228.137238 587.463928,229.950562 
	C603.359619,231.991867 613.437622,241.966919 613.884888,257.952606 
	C614.420105,277.080475 614.011169,296.234772 614.011169,315.689758 
	C607.707336,315.689758 601.483765,315.689758 594.804138,315.689758 
	C594.804138,302.580383 594.843445,289.627563 594.784302,276.675171 
	C594.761475,271.688995 594.847351,266.667145 594.302124,261.725708 
	C593.087830,250.719681 590.049316,247.845261 579.021545,246.415985 
	C577.871155,246.266891 576.701477,246.266434 575.104370,246.199982 
z"/>
<path fill="#FF5B04" opacity="1.000000" stroke="none" 
	d="
M383.634247,285.432312 
	C376.802521,267.591400 370.155762,250.091278 363.211761,231.808578 
	C370.251343,231.808578 376.515503,231.627304 382.750000,231.976273 
	C383.867279,232.038803 385.371674,234.126648 385.835876,235.558609 
	C391.769196,253.862152 397.536865,272.219360 403.375916,290.553589 
	C403.915466,292.247650 404.655548,293.877869 405.569550,296.222839 
	C412.180206,275.941864 418.673187,256.402679 424.843872,236.762238 
	C426.045074,232.938950 427.606964,231.345337 431.749878,231.699493 
	C436.662018,232.119400 441.637573,231.798203 447.098633,231.798203 
	C439.144775,252.878464 431.423035,273.352295 423.693726,293.823303 
	C421.232178,300.342712 418.876099,306.907562 416.169739,313.324219 
	C415.638489,314.583740 413.830811,315.548187 412.400208,316.108582 
	C411.244141,316.561432 409.769653,316.201660 408.436401,316.201721 
	C394.830780,316.202271 394.858490,316.192413 390.355682,303.524200 
	C388.244049,297.583282 386.002106,291.688660 383.634247,285.432312 
z"/>
<path fill="#FF5D08" opacity="1.000000" stroke="none" 
	d="
M97.989288,314.908630 
	C78.782639,327.950348 58.308762,325.052124 41.832996,306.961578 
	C30.703613,294.741425 24.863247,279.806122 20.097317,264.349609 
	C19.811293,263.421997 20.321054,261.625336 21.070778,261.093811 
	C37.406448,249.512085 45.951515,232.100571 56.021935,215.442017 
	C57.381466,219.647018 58.192986,223.826660 58.907131,228.341537 
	C53.463894,236.709244 48.118031,244.741714 42.498795,252.896698 
	C42.217834,253.271133 42.210251,253.523056 42.202667,253.774963 
	C42.626118,253.692764 43.049564,253.610565 43.852287,253.471222 
	C46.991779,252.803146 49.751987,252.192215 52.852547,251.843109 
	C54.504936,254.952209 54.890594,257.656586 51.608757,259.950012 
	C46.612293,261.118652 42.004555,262.192505 38.923157,262.910645 
	C48.017059,266.310486 58.111866,270.084534 67.881927,274.084961 
	C67.687790,277.769531 67.818405,281.227753 67.644012,284.575867 
	C56.604248,277.471375 45.230572,272.252319 31.468571,271.379944 
	C37.003559,284.226318 43.245285,295.800842 53.441513,304.734955 
	C60.415466,310.845642 68.353516,315.013672 77.952019,312.905212 
	C82.710968,311.859833 87.192558,309.551880 92.112045,307.974915 
	C94.279404,310.392700 96.134346,312.650665 97.989288,314.908630 
z"/>
<path fill="#D81E27" opacity="1.000000" stroke="none" 
	d="
M67.949005,284.685974 
	C67.818405,281.227753 67.687790,277.769531 68.211288,274.174835 
	C80.572563,281.104004 89.944237,290.790100 99.098770,301.184082 
	C101.499939,303.696106 103.769806,305.891144 106.087753,308.418701 
	C117.228127,320.380676 127.939110,332.408356 139.534866,343.512115 
	C148.605164,352.197510 160.785309,351.869598 169.978622,343.175964 
	C176.569885,336.942932 182.232422,329.727783 188.533081,323.258759 
	C189.166870,327.643524 189.576859,331.720337 189.986816,335.797150 
	C183.779282,341.970886 178.284546,349.168396 171.208725,354.095062 
	C158.370621,363.033752 141.556549,360.442719 129.964859,348.608215 
	C119.275330,337.694733 109.056595,326.320099 98.309891,315.028625 
	C96.134346,312.650665 94.279404,310.392700 91.980331,307.689850 
	C83.673805,299.725311 75.811401,292.205658 67.949005,284.685974 
z"/>
<path fill="#FF5E08" opacity="1.000000" stroke="none" 
	d="
M190.276901,335.657532 
	C189.576859,331.720337 189.166870,327.643524 188.650391,322.963409 
	C198.288788,310.447418 208.033691,298.534698 218.015228,286.426331 
	C218.388565,285.854950 218.525269,285.479218 218.661957,285.103455 
	C217.951004,285.218628 217.240051,285.333832 216.148468,285.515442 
	C204.520813,287.007965 193.273788,288.434052 182.009796,289.428833 
	C182.023666,286.186676 182.054474,283.375732 182.523926,280.469543 
	C185.979279,280.359436 188.995987,280.344574 192.188263,280.498413 
	C192.910797,280.492645 193.457733,280.318146 194.428009,280.073334 
	C204.784439,278.489563 214.717545,276.976166 224.910522,275.423157 
	C217.454544,272.116241 210.698059,269.119568 203.952271,265.707092 
	C203.331436,261.753143 202.699875,258.215057 202.383606,254.827866 
	C209.922653,261.029999 218.072540,265.103363 227.961395,267.393097 
	C226.152420,261.989899 224.644333,257.485413 223.411499,252.725739 
	C224.784607,247.637421 225.882477,242.804291 226.980347,237.971146 
	C230.839752,249.406036 234.858765,260.792358 238.371109,272.332886 
	C238.848648,273.902008 237.151779,276.525513 235.852219,278.182922 
	C220.825073,297.347839 205.680435,316.420654 190.276901,335.657532 
z"/>
<path fill="#D82029" opacity="1.000000" stroke="none" 
	d="
M226.929611,237.606140 
	C225.882477,242.804291 224.784607,247.637421 223.235641,252.407654 
	C217.839828,239.464188 213.034592,226.475494 203.183655,216.300461 
	C194.812790,207.654221 184.373001,207.348770 175.027893,215.243958 
	C172.768051,217.551575 170.780746,219.835327 168.440186,222.233429 
	C160.105484,233.453552 152.124054,244.559311 144.107651,255.278412 
	C144.446381,253.138306 144.887817,251.396118 145.181091,249.629318 
	C146.060455,244.331497 146.881912,239.024063 147.692230,233.777237 
	C147.658463,233.834091 147.681931,233.703934 147.889252,233.759552 
	C148.228577,233.764008 148.475601,233.707703 148.473557,233.662582 
	C148.461899,233.402206 148.391373,233.144470 148.479202,232.599670 
	C153.451904,225.828827 158.286194,219.344162 163.400909,212.711121 
	C165.829178,210.287811 167.977005,208.012894 170.124832,205.737976 
	C175.329025,203.819641 180.403229,200.854446 185.762955,200.188980 
	C199.181488,198.522995 208.503830,206.145935 215.571930,216.338531 
	C220.058502,222.808441 223.157578,230.240540 226.929611,237.606140 
z"/>
<path fill="#FFC407" opacity="1.000000" stroke="none" 
	d="
M79.062668,171.254135 
	C85.092361,159.786118 92.991440,149.861526 104.800529,144.120773 
	C117.370651,138.010071 131.850632,143.035049 141.564026,156.143631 
	C144.892502,160.635513 147.897278,165.367233 151.050385,170.748352 
	C152.418884,176.707626 153.857712,181.890625 155.135361,187.113037 
	C156.444962,192.466110 157.596893,197.857773 158.534760,203.024323 
	C150.128067,188.869415 142.806183,174.364044 133.609222,161.165268 
	C127.083214,151.799652 120.286804,148.829269 110.125320,152.162354 
	C103.535202,154.323975 99.276299,159.550720 95.270271,164.777298 
	C90.685600,170.758850 86.527100,177.067032 82.097519,182.833832 
	C81.028618,178.707626 80.045639,174.980881 79.062668,171.254135 
z"/>
<path fill="#FF9F0C" opacity="1.000000" stroke="none" 
	d="
M78.813873,171.462433 
	C80.045639,174.980881 81.028618,178.707626 82.043335,183.186584 
	C77.105354,193.381485 72.135628,202.824203 67.086784,211.867371 
	C65.972214,207.572952 64.936768,203.678070 63.901321,199.783203 
	C68.789246,190.412384 73.677162,181.041565 78.813873,171.462433 
z"/>
<path fill="#FF9F0C" opacity="1.000000" stroke="none" 
	d="
M158.817825,203.232544 
	C157.596893,197.857773 156.444962,192.466110 155.135361,187.113037 
	C153.857712,181.890625 152.418884,176.707626 151.072128,171.091217 
	C155.596710,178.524338 160.162781,186.338486 164.574402,194.238876 
	C166.518372,197.720139 168.148483,201.376633 170.022964,205.345764 
	C167.977005,208.012894 165.829178,210.287811 163.307251,212.375565 
	C161.561386,209.203110 160.189606,206.217834 158.817825,203.232544 
z"/>
<path fill="#FE7A24" opacity="1.000000" stroke="none" 
	d="
M63.650246,200.018082 
	C64.936768,203.678070 65.972214,207.572952 67.044846,212.218292 
	C64.389511,217.981262 61.697006,222.993774 59.004505,228.006287 
	C58.192986,223.826660 57.381466,219.647018 56.281517,215.230743 
	C58.461788,210.080399 60.930481,205.166672 63.650246,200.018082 
z"/>
<path fill="#FFFEFE" opacity="1.000000" stroke="none" 
	d="
M738.349609,292.483154 
	C732.509216,280.748596 732.213623,269.100891 737.596558,257.639740 
	C742.699524,246.774765 758.264221,241.761444 768.998657,247.185272 
	C769.982727,247.682510 770.898987,249.412109 770.907532,250.576416 
	C771.030396,267.195007 770.991394,283.814728 770.991394,301.024902 
	C758.997498,302.057373 747.238525,303.898651 738.349609,292.483154 
z"/>
<path fill="#FFFEFD" opacity="1.000000" stroke="none" 
	d="
M833.116699,265.071777 
	C830.836426,265.071808 829.039001,265.071808 827.267761,265.071808 
	C826.686279,253.471649 835.029236,244.542740 845.891785,244.663574 
	C856.079102,244.776886 863.287720,253.453842 862.380432,265.071777 
	C852.819397,265.071777 843.209412,265.071777 833.116699,265.071777 
z"/>
<path fill="#FFFDFB" opacity="1.000000" stroke="none" 
	d="
M473.320099,298.511780 
	C467.834320,288.457336 472.139709,279.391174 483.004456,278.195496 
	C488.676575,277.571320 494.473969,278.085480 500.807343,278.085480 
	C500.807343,282.538635 500.807343,286.310944 500.807343,290.083252 
	C500.807343,293.884064 500.807343,297.684845 500.807343,301.998077 
	C491.215515,303.366699 481.952393,305.496887 473.320099,298.511780 
z"/>
<path fill="#FFFDFB" opacity="1.000000" stroke="none" 
	d="
M673.566406,302.949829 
	C668.023926,302.725037 662.863220,302.903198 657.871338,302.069794 
	C652.447021,301.164154 649.399231,297.282471 649.001160,292.330963 
	C648.499023,286.084961 650.310242,281.294220 655.787170,280.004547 
	C662.550842,278.411896 669.741089,278.546021 676.760254,278.267303 
	C677.393005,278.242157 678.654724,280.629059 678.713318,281.936646 
	C678.943237,287.067047 678.513428,292.236298 678.903259,297.347290 
	C679.203125,301.279663 677.639954,302.799255 673.566406,302.949829 
z"/>
<path fill="#FFFEFD" opacity="1.000000" stroke="none" 
	d="
M319.311127,303.232666 
	C308.706757,301.736145 304.130035,296.593872 305.525726,288.428040 
	C306.413666,283.232819 309.361572,279.762848 314.389862,279.022369 
	C321.001251,278.048767 327.733734,277.897522 334.744843,277.367676 
	C334.744843,286.248932 334.744843,293.835571 334.744843,302.394806 
	C329.825684,302.695679 324.794312,303.003418 319.311127,303.232666 
z"/>
<path fill="#FFFEFE" opacity="1.000000" stroke="none" 
	d="
M58.907131,228.341537 
	C61.697006,222.993774 64.389511,217.981262 67.123962,212.617828 
	C72.135628,202.824203 77.105354,193.381485 82.129257,183.586044 
	C86.527100,177.067032 90.685600,170.758850 95.270271,164.777298 
	C99.276299,159.550720 103.535202,154.323975 110.125320,152.162354 
	C120.286804,148.829269 127.083214,151.799652 133.609222,161.165268 
	C142.806183,174.364044 150.128067,188.869415 158.534760,203.024323 
	C160.189606,206.217834 161.561386,209.203110 163.026825,212.523941 
	C158.286194,219.344162 153.451904,225.828827 148.239212,232.744537 
	C147.801178,233.351700 147.741547,233.527817 147.681931,233.703934 
	C147.681931,233.703934 147.658463,233.834091 147.389297,233.934875 
	C140.543610,244.200180 133.991882,254.380966 127.359207,264.508728 
	C126.529480,265.775665 125.272133,266.762573 124.016670,267.576324 
	C121.255127,266.088501 118.689827,264.903595 115.906822,263.453094 
	C104.644043,257.219788 93.517471,251.468338 80.414223,249.867676 
	C70.878479,250.333176 61.695339,250.957230 52.512199,251.581299 
	C49.751987,252.192215 46.991779,252.803146 43.681488,253.278564 
	C43.011665,253.020096 42.891914,252.897141 42.772163,252.774170 
	C48.118031,244.741714 53.463894,236.709244 58.907131,228.341537 
z"/>
<path fill="#FFFDFC" opacity="1.000000" stroke="none" 
	d="
M98.967461,300.867126 
	C89.944237,290.790100 80.572563,281.104004 68.536041,273.948486 
	C58.111866,270.084534 48.017059,266.310486 38.923157,262.910645 
	C42.004555,262.192505 46.612293,261.118652 52.031746,260.013245 
	C60.549564,259.556244 68.255661,259.130768 76.369965,258.829407 
	C82.190666,260.300812 87.798805,261.136688 92.969933,263.114929 
	C100.781197,266.103210 108.287689,269.888153 116.117920,273.581482 
	C117.486603,274.268219 118.661079,274.707977 119.823624,275.489014 
	C117.750565,278.974823 115.997856,282.385620 113.562233,285.206818 
	C108.902565,290.604126 103.854401,295.666046 98.967461,300.867126 
z"/>
<path fill="#FFFDFC" opacity="1.000000" stroke="none" 
	d="
M67.644012,284.575867 
	C75.811401,292.205658 83.673805,299.725311 91.667923,307.530029 
	C87.192558,309.551880 82.710968,311.859833 77.952019,312.905212 
	C68.353516,315.013672 60.415466,310.845642 53.441513,304.734955 
	C43.245285,295.800842 37.003559,284.226318 31.468571,271.379944 
	C45.230572,272.252319 56.604248,277.471375 67.644012,284.575867 
z"/>
<path fill="#FE7C28" opacity="1.000000" stroke="none" 
	d="
M75.961761,258.705292 
	C68.255661,259.130768 60.549564,259.556244 52.420475,259.918457 
	C54.890594,257.656586 54.504936,254.952209 52.852543,251.843109 
	C61.695339,250.957230 70.878479,250.333176 80.002319,249.867004 
	C78.374748,250.140396 76.806496,250.255936 74.586586,250.419479 
	C75.117294,253.617126 75.539528,256.161194 75.961761,258.705292 
z"/>
<path fill="#FFFEFE" opacity="1.000000" stroke="none" 
	d="
M43.302212,253.335724 
	C43.049564,253.610565 42.626118,253.692764 42.202667,253.774963 
	C42.210251,253.523056 42.217834,253.271133 42.498795,252.896698 
	C42.891914,252.897141 43.011665,253.020096 43.302212,253.335724 
z"/>
<path fill="#FFFEFE" opacity="1.000000" stroke="none" 
	d="
M182.026749,289.860107 
	C193.273788,288.434052 204.520813,287.007965 216.447479,285.822937 
	C217.344269,286.250000 217.561432,286.435974 217.778595,286.621979 
	C208.033691,298.534698 198.288788,310.447418 188.426575,322.655457 
	C182.232422,329.727783 176.569885,336.942932 169.978622,343.175964 
	C160.785309,351.869598 148.605164,352.197510 139.534866,343.512115 
	C127.939110,332.408356 117.228127,320.380676 106.390503,308.266113 
	C114.122543,298.556824 121.599907,289.332611 129.430237,280.169189 
	C140.529404,283.127960 151.275604,286.025879 162.388123,289.096008 
	C169.178528,289.465485 175.602631,289.662811 182.026749,289.860107 
z"/>
<path fill="#FF5D08" opacity="1.000000" stroke="none" 
	d="
M129.077271,280.108398 
	C121.599907,289.332611 114.122543,298.556824 106.342422,307.933624 
	C103.769806,305.891144 101.499939,303.696106 99.098770,301.184082 
	C103.854401,295.666046 108.902565,290.604126 113.562233,285.206818 
	C115.997856,282.385620 117.750565,278.974823 120.153687,275.341370 
	C121.734756,272.528015 122.973839,270.203613 124.212921,267.879242 
	C125.272133,266.762573 126.529480,265.775665 127.359207,264.508728 
	C133.991882,254.380966 140.543610,244.200180 147.423065,233.878021 
	C146.881912,239.024063 146.060455,244.331497 145.181091,249.629318 
	C144.887817,251.396118 144.446381,253.138306 144.030487,255.656799 
	C140.925293,261.631226 137.862289,266.840637 134.515991,272.206848 
	C132.514221,274.945282 130.795746,277.526825 129.077271,280.108398 
z"/>
<path fill="#FFFEFD" opacity="1.000000" stroke="none" 
	d="
M134.799271,272.050018 
	C137.862289,266.840637 140.925293,261.631226 144.065460,256.043457 
	C152.124054,244.559311 160.105484,233.453552 168.515961,222.651245 
	C172.838104,229.688232 176.420853,236.628983 180.730865,243.084122 
	C183.721771,247.563644 187.713715,251.374771 191.316299,255.486710 
	C191.374176,255.488907 191.486877,255.515594 191.493546,255.810471 
	C191.949356,256.497406 192.398499,256.889496 192.990601,257.578705 
	C196.736237,260.624878 200.338898,263.373901 203.941559,266.122925 
	C210.698059,269.119568 217.454544,272.116241 224.910522,275.423157 
	C214.717545,276.976166 204.784439,278.489563 194.089523,280.011353 
	C192.889374,280.123077 192.451035,280.226410 192.012680,280.329712 
	C188.995987,280.344574 185.979279,280.359436 182.068665,280.328369 
	C174.777359,280.122375 168.379974,279.962341 161.671310,279.577454 
	C152.506439,276.918365 143.652863,274.484192 134.799271,272.050018 
z"/>
<path fill="#FFFDFC" opacity="1.000000" stroke="none" 
	d="
M175.300415,215.220108 
	C184.373001,207.348770 194.812790,207.654221 203.183655,216.300461 
	C213.034592,226.475494 217.839828,239.464188 222.960388,252.662811 
	C224.644333,257.485413 226.152420,261.989899 227.961395,267.393097 
	C218.072540,265.103363 209.922653,261.029999 202.212555,254.558151 
	C197.483337,249.415329 193.240433,244.693146 188.925018,239.635468 
	C184.335144,231.273361 179.817780,223.246735 175.300415,215.220108 
z"/>
<path fill="#FE7C28" opacity="1.000000" stroke="none" 
	d="
M161.982605,279.802307 
	C168.379974,279.962341 174.777359,280.122375 181.630005,280.423615 
	C182.054474,283.375732 182.023666,286.186676 182.009796,289.428864 
	C175.602631,289.662811 169.178528,289.465485 162.527588,288.787659 
	C162.194702,285.472168 162.088654,282.637207 161.982605,279.802307 
z"/>
<path fill="#FE7A24" opacity="1.000000" stroke="none" 
	d="
M188.997513,239.970978 
	C193.240433,244.693146 197.483337,249.415329 201.897278,254.407227 
	C202.699875,258.215057 203.331436,261.753143 203.952271,265.707092 
	C200.338898,263.373901 196.736237,260.624878 193.011108,257.223938 
	C192.421371,256.219879 191.954132,255.867737 191.486877,255.515594 
	C191.486877,255.515594 191.374176,255.488907 191.555817,255.091614 
	C190.824158,249.786545 189.910843,244.878769 188.997513,239.970978 
z"/>
<path fill="#FE7C28" opacity="1.000000" stroke="none" 
	d="
M192.188263,280.498413 
	C192.451035,280.226410 192.889374,280.123077 193.666199,280.081726 
	C193.457733,280.318146 192.910797,280.492645 192.188263,280.498413 
z"/>
<path fill="#FFFEFE" opacity="1.000000" stroke="none" 
	d="
M216.828094,285.756500 
	C217.240051,285.333832 217.951004,285.218628 218.661957,285.103455 
	C218.525269,285.479218 218.388565,285.854950 218.015228,286.426331 
	C217.561432,286.435974 217.344269,286.250000 216.828094,285.756500 
z"/>
<path fill="#FF9F0C" opacity="1.000000" stroke="none" 
	d="
M188.925018,239.635468 
	C189.910843,244.878769 190.824158,249.786545 191.497955,255.089417 
	C187.713715,251.374771 183.721771,247.563644 180.730865,243.084122 
	C176.420853,236.628983 172.838104,229.688232 168.869217,222.536896 
	C170.780746,219.835327 172.768051,217.551575 175.027893,215.243958 
	C179.817780,223.246735 184.335144,231.273361 188.925018,239.635468 
z"/>
<path fill="#FF5D08" opacity="1.000000" stroke="none" 
	d="
M147.889252,233.759552 
	C147.741547,233.527817 147.801178,233.351700 148.100800,233.030716 
	C148.391373,233.144470 148.461899,233.402206 148.473557,233.662582 
	C148.475601,233.707703 148.228577,233.764008 147.889252,233.759552 
z"/>
<path fill="#FF9F0C" opacity="1.000000" stroke="none" 
	d="
M76.369965,258.829407 
	C75.539528,256.161194 75.117294,253.617126 74.586586,250.419479 
	C76.806496,250.255936 78.374748,250.140396 80.354919,250.025543 
	C93.517471,251.468338 104.644043,257.219788 115.853226,263.804077 
	C115.986130,267.391907 115.954918,270.363220 115.923706,273.334503 
	C108.287689,269.888153 100.781197,266.103210 92.969933,263.114929 
	C87.798805,261.136688 82.190666,260.300812 76.369965,258.829407 
z"/>
<path fill="#FFC407" opacity="1.000000" stroke="none" 
	d="
M116.117920,273.581482 
	C115.954918,270.363220 115.986130,267.391907 116.070938,264.069641 
	C118.689827,264.903595 121.255127,266.088501 124.016678,267.576324 
	C122.973839,270.203613 121.734756,272.528015 120.165619,275.000061 
	C118.661079,274.707977 117.486603,274.268219 116.117920,273.581482 
z"/>
<path fill="#FF9F0C" opacity="1.000000" stroke="none" 
	d="
M161.671310,279.577423 
	C162.088654,282.637207 162.194702,285.472168 162.161285,288.615448 
	C151.275604,286.025879 140.529404,283.127960 129.430237,280.169189 
	C130.795746,277.526825 132.514221,274.945282 134.515991,272.206848 
	C143.652863,274.484192 152.506439,276.918365 161.671310,279.577423 
z"/>
<path fill="#FF9F0C" opacity="1.000000" stroke="none" 
	d="
M191.493546,255.810471 
	C191.954132,255.867737 192.421371,256.219879 192.868134,256.926788 
	C192.398499,256.889496 191.949356,256.497406 191.493546,255.810471 
z"/>
</svg>