<svg xmlns="http://www.w3.org/2000/svg" width="250" height="65" viewBox="0 0 697 189" version="1.1">
<path d="M 45 49.899 C 45 51.484, 45.626 52, 47.550 52 C 51.314 52, 55.951 54.742, 57.043 57.613 C 57.579 59.024, 58 74.070, 58 91.843 C 58 127.744, 58.113 127.187, 50.443 129.119 C 48 129.734, 46 130.812, 46 131.515 C 46 134.430, 94.912 134.735, 103.500 131.874 C 109.356 129.922, 116.379 122.523, 117.825 116.779 C 120.357 106.724, 118.645 100.420, 111.788 94.550 C 109.546 92.632, 105.249 90.392, 101.865 89.378 L 95.895 87.590 101.375 84.978 C 108.120 81.762, 109.700 80.481, 111.709 76.596 C 113.604 72.932, 113.775 64.350, 112.021 60.951 C 109.683 56.422, 105.669 53.021, 100.066 50.821 C 95.005 48.834, 92.254 48.597, 69.750 48.217 C 45.136 47.800, 45 47.809, 45 49.899 M 546.250 49.495 C 543.998 51.115, 543.342 54.417, 544.814 56.732 C 545.244 57.410, 547.375 58.580, 549.548 59.332 C 554.265 60.964, 555.540 64, 551.508 64 C 550.056 64, 548.045 63.559, 547.039 63.021 C 545.722 62.316, 544.881 62.439, 544.034 63.459 C 542.256 65.602, 548.146 68.383, 552.668 67.535 C 559.917 66.175, 559.534 58.375, 552.108 56.151 C 549.539 55.381, 548 54.325, 548 53.332 C 548 52.044, 548.743 51.863, 551.940 52.374 C 554.367 52.763, 556.138 52.586, 556.553 51.915 C 558.394 48.935, 549.827 46.923, 546.250 49.495 M 192.930 54.697 C 186.323 71.045, 164.046 122.281, 162.558 124.552 C 161.616 125.990, 159.304 127.811, 157.422 128.597 C 155.154 129.545, 154 130.697, 154 132.013 C 154 133.904, 154.699 134, 168.500 134 C 182.133 134, 183 133.885, 183 132.079 C 183 130.718, 182.053 129.962, 179.750 129.481 C 174.902 128.470, 172 126.270, 172 123.605 C 172 120.275, 176.895 105.687, 178.315 104.784 C 180.403 103.456, 206.433 103.861, 208.280 105.250 C 209.194 105.938, 211.516 110.870, 213.439 116.211 C 217.396 127.199, 217.163 128.184, 210.301 129.471 C 206.798 130.128, 205.054 131.376, 205.015 133.250 C 205.007 133.662, 213.100 134, 223 134 C 239.818 134, 241 133.879, 241 132.158 C 241 130.889, 239.807 129.959, 237.163 129.167 C 235.052 128.535, 232.649 127.226, 231.823 126.259 C 230.996 125.291, 227.054 116.278, 223.062 106.229 C 202.581 54.669, 200.292 49.519, 197.709 49.197 C 195.588 48.933, 194.974 49.640, 192.930 54.697 M 277 50.971 C 277 52.662, 277.648 53, 280.889 53 C 283.104 53, 285.709 53.754, 286.940 54.751 C 289.070 56.475, 289.101 56.937, 289.032 85.722 C 288.961 115.076, 288.723 119.138, 286.775 124.297 C 285.656 127.260, 281.464 130, 278.050 130 C 276.667 130, 276 130.651, 276 132 C 276 133.914, 276.667 134, 291.500 134 C 306.333 134, 307 133.914, 307 132 C 307 130.544, 306.333 130, 304.547 130 C 300.692 130, 296.984 127.870, 295.355 124.719 C 294.111 122.314, 293.903 117.033, 294.117 93.357 C 294.258 77.699, 294.636 64.725, 294.957 64.526 C 295.278 64.328, 300.448 76.166, 306.447 90.833 C 324.629 135.290, 324.046 134, 325.930 134 C 327.289 134, 330.539 126.296, 341.080 98.087 L 354.500 62.175 355.127 72.337 C 356.296 91.264, 356.044 124.360, 354.718 126.087 C 353.083 128.217, 349.596 130, 347.066 130 C 345.667 130, 345 130.645, 345 132 C 345 133.926, 345.667 134, 363 134 C 380.333 134, 381 133.926, 381 132 C 381 130.651, 380.333 130, 378.950 130 C 375.214 130, 371.206 127.162, 370.149 123.767 C 368.906 119.775, 367.574 57.940, 368.697 56.400 C 370.074 54.513, 373.739 53, 376.934 53 C 379.333 53, 380 52.565, 380 51 C 380 49.103, 379.333 49, 367.117 49 L 354.234 49 349.266 61.750 C 346.534 68.763, 341.014 83.162, 336.999 93.750 C 332.984 104.337, 329.430 112.995, 329.100 112.988 C 328.770 112.982, 322.811 98.695, 315.859 81.238 L 303.218 49.500 290.109 49.221 C 277.512 48.953, 277 49.021, 277 50.971 M 453 58.500 L 453 68 458.500 68 C 462.667 68, 464.485 67.515, 466 66 C 468.150 63.850, 468.645 60.517, 466.969 59.481 C 466.385 59.120, 466.204 57.428, 466.552 55.576 C 467.445 50.816, 465.201 49, 458.429 49 L 453 49 453 58.500 M 476.709 53.250 C 475.896 55.587, 474.286 59.862, 473.130 62.750 L 471.029 68 473.108 68 C 474.346 68, 475.399 67.191, 475.710 66 C 476.116 64.447, 477.074 64, 480 64 C 482.926 64, 483.884 64.447, 484.290 66 C 484.598 67.179, 485.654 68, 486.862 68 C 488.875 68, 488.867 67.885, 486.343 61.250 C 484.930 57.538, 483.331 53.263, 482.790 51.750 C 481.272 47.514, 478.464 48.206, 476.709 53.250 M 492 58.500 L 492 68 499 68 C 505.333 68, 506 67.810, 506 66 C 506 64.267, 505.333 64, 501 64 L 496 64 496 56.500 C 496 49.667, 495.822 49, 494 49 C 492.140 49, 492 49.667, 492 58.500 M 508.512 54.452 C 511.024 58.378, 512 61.037, 512 63.952 C 512 67.333, 512.329 68, 514 68 C 515.665 68, 516 67.333, 516 64.019 C 516 61.162, 517.010 58.459, 519.582 54.439 C 523.025 49.057, 523.075 48.852, 520.859 49.170 C 519.404 49.378, 517.746 50.944, 516.363 53.415 L 514.171 57.330 512.089 53.915 C 510.944 52.037, 510.006 50.163, 510.004 49.750 C 510.002 49.337, 508.881 49, 507.512 49 L 505.025 49 508.512 54.452 M 528.210 51.750 C 527.669 53.263, 526.070 57.538, 524.657 61.250 C 522.133 67.885, 522.125 68, 524.138 68 C 525.327 68, 526.401 67.183, 526.696 66.054 C 527.578 62.680, 534.431 62.716, 535.316 66.099 C 535.600 67.187, 536.689 68, 537.862 68 C 539.875 68, 539.867 67.885, 537.343 61.250 C 535.930 57.538, 534.331 53.263, 533.790 51.750 C 533.209 50.130, 532.063 49, 531 49 C 529.937 49, 528.791 50.130, 528.210 51.750 M 562 58.500 C 562 67.333, 562.140 68, 564 68 C 565.785 68, 566 67.333, 566 61.793 L 566 55.586 570.250 61.790 C 572.727 65.405, 575.230 67.995, 576.250 67.997 C 577.794 68, 578 66.882, 578 58.500 C 578 49.748, 577.847 49, 576.050 49 C 574.380 49, 574.057 49.818, 573.800 54.698 L 573.500 60.396 569.584 54.698 C 567.223 51.263, 564.939 49, 563.834 49 C 562.184 49, 562 49.954, 562 58.500 M 584.512 54.452 C 587.024 58.378, 588 61.037, 588 63.952 C 588 67.333, 588.329 68, 590 68 C 591.665 68, 592 67.333, 592 64.019 C 592 61.162, 593.010 58.459, 595.582 54.439 C 599.025 49.057, 599.075 48.852, 596.859 49.170 C 595.404 49.378, 593.746 50.944, 592.363 53.415 L 590.171 57.330 588.089 53.915 C 586.944 52.037, 586.006 50.163, 586.004 49.750 C 586.002 49.337, 584.881 49, 583.512 49 L 581.025 49 584.512 54.452 M 457 54 C 457 55.547, 457.667 56, 459.941 56 C 463.584 56, 464.714 54.452, 462.094 53.050 C 459.029 51.410, 457 51.789, 457 54 M 74 53.694 C 70.571 54.920, 70 57.261, 70 70.109 C 70 77.109, 70.273 83.548, 70.607 84.418 C 71.466 86.658, 85.720 86.520, 92.500 84.206 C 99.218 81.914, 101.238 78.148, 100.772 68.782 C 100.209 57.458, 94.955 52.943, 82.500 53.081 C 78.650 53.123, 74.825 53.399, 74 53.694 M 479 55.918 C 479 56.423, 478.727 57.548, 478.393 58.418 C 477.952 59.567, 478.392 60, 480 60 C 481.608 60, 482.048 59.567, 481.607 58.418 C 481.273 57.548, 481 56.423, 481 55.918 C 481 55.413, 480.550 55, 480 55 C 479.450 55, 479 55.413, 479 55.918 M 530 55.918 C 530 56.423, 529.727 57.548, 529.393 58.418 C 528.952 59.567, 529.392 60, 531 60 C 532.608 60, 533.048 59.567, 532.607 58.418 C 532.273 57.548, 532 56.423, 532 55.918 C 532 55.413, 531.550 55, 531 55 C 530.450 55, 530 55.413, 530 55.918 M 457 61.333 C 457 64.418, 457.440 64.736, 460.994 64.214 C 466.258 63.442, 464.490 59, 458.918 59 C 457.575 59, 457 59.700, 457 61.333 M 187.196 81.151 C 183.728 89.469, 181.127 96.888, 181.414 97.637 C 181.815 98.683, 184.727 99, 193.910 99 C 200.494 99, 206.109 98.633, 206.386 98.185 C 206.943 97.283, 194.957 65.992, 194.062 66.014 C 193.753 66.021, 190.663 72.833, 187.196 81.151 M 394 85.500 L 388.545 91.023 394.045 96.523 L 399.545 102.023 405 96.500 L 410.455 90.977 404.955 85.477 L 399.455 79.977 394 85.500 M 475.250 82.495 C 472.998 84.115, 472.342 87.417, 473.814 89.732 C 474.244 90.410, 476.375 91.580, 478.548 92.332 C 483.387 94.006, 484.532 97.008, 480.323 96.985 C 478.770 96.976, 476.840 96.552, 476.034 96.042 C 473.944 94.720, 471.575 96.783, 473.088 98.606 C 476.152 102.298, 485.478 100.928, 486.557 96.629 C 487.474 92.974, 485.447 90.197, 480.983 88.995 C 478.460 88.316, 477 87.340, 477 86.334 C 477 85.044, 477.742 84.863, 480.940 85.374 C 483.367 85.763, 485.138 85.586, 485.553 84.915 C 487.394 81.935, 478.827 79.923, 475.250 82.495 M 494.250 82.505 C 492.780 83.555, 492 85.146, 492 87.092 C 492 89.670, 492.605 90.331, 496.500 92 C 501.649 94.207, 502.599 97, 498.200 97 C 496.660 97, 494.931 96.531, 494.358 95.958 C 493.634 95.234, 492.946 95.360, 492.110 96.368 C 491.136 97.541, 491.340 98.125, 493.175 99.410 C 497.846 102.682, 505 100.014, 505 95 C 505 92.477, 501.594 89, 499.122 89 C 498.090 89, 496.689 88.330, 496.010 87.512 C 495.010 86.307, 495.082 85.906, 496.390 85.404 C 497.278 85.063, 499.101 85.059, 500.441 85.396 C 501.790 85.734, 503.178 85.521, 503.552 84.917 C 505.331 82.037, 497.679 80.053, 494.250 82.505 M 457.709 86.250 C 456.896 88.588, 455.286 92.862, 454.130 95.750 C 452.085 100.862, 452.080 101, 453.947 101 C 455.002 101, 456.151 100.100, 456.500 99 C 456.989 97.460, 458.013 97, 460.951 97 C 463.926 97, 464.882 97.441, 465.290 99 C 465.598 100.179, 466.654 101, 467.862 101 C 469.875 101, 469.867 100.885, 467.343 94.250 C 465.930 90.537, 464.331 86.263, 463.790 84.750 C 462.272 80.514, 459.464 81.206, 457.709 86.250 M 510 91.500 L 510 101 516.500 101 C 522.333 101, 523 100.795, 523 99 C 523 97.272, 522.333 97, 518.094 97 C 513.680 97, 513.240 96.799, 513.710 95 C 514.049 93.706, 515.074 93, 516.617 93 C 518.333 93, 519 92.441, 519 91 C 519 89.444, 518.333 89, 516 89 C 514.051 89, 513 88.494, 513 87.555 C 513 86.541, 514.414 86.019, 517.741 85.805 C 521.313 85.575, 522.564 85.069, 522.814 83.750 C 523.104 82.227, 522.294 82, 516.573 82 L 510 82 510 91.500 M 526 84 C 526 85.556, 526.667 86, 529 86 L 532 86 532 93.500 C 532 99.500, 532.300 101, 533.500 101 C 534.700 101, 535 99.500, 535 93.500 L 535 86 538 86 C 540.333 86, 541 85.556, 541 84 C 541 82.178, 540.333 82, 533.500 82 C 526.667 82, 526 82.178, 526 84 M 460 88.918 C 460 89.423, 459.727 90.548, 459.393 91.418 C 458.952 92.567, 459.392 93, 461 93 C 462.608 93, 463.048 92.567, 462.607 91.418 C 462.273 90.548, 462 89.423, 462 88.918 C 462 88.413, 461.550 88, 461 88 C 460.450 88, 460 88.413, 460 88.918 M 72 91.901 C 70.796 92.722, 70.437 96.075, 70.182 108.894 C 69.780 129.085, 69.727 129, 82.788 129 C 96.853 129, 103.783 124.310, 104.762 114.130 C 105.905 102.226, 102.578 95.688, 94.079 93.142 C 88.397 91.440, 73.875 90.624, 72 91.901 M 130.719 116.779 L 124.998 122.560 130.779 128.281 L 136.560 134.002 142.281 128.221 L 148.002 122.440 142.221 116.719 L 136.440 110.998 130.719 116.779 M 393.719 116.779 L 387.998 122.560 393.779 128.281 L 399.560 134.002 405.281 128.221 L 411.002 122.440 405.221 116.719 L 399.440 110.998 393.719 116.779 M 251.216 117.281 L 246 122.563 251.780 128.283 L 257.560 134.002 263.283 128.220 L 269.005 122.437 263.721 117.218 C 260.815 114.348, 257.986 112, 257.434 112 C 256.883 112, 254.085 114.377, 251.216 117.281 M 539.299 115.503 C 536.550 117.428, 534.656 123.155, 535.498 126.991 C 536.278 130.541, 540.315 134, 543.680 134 C 546.842 134, 551 129.765, 551 126.545 C 551 124.303, 550.583 124, 547.500 124 C 545.056 124, 544 124.452, 544 125.500 C 544 126.325, 544.712 127, 545.583 127 C 546.454 127, 546.979 127.563, 546.750 128.250 C 546.521 128.938, 545.032 129.500, 543.441 129.500 C 541.186 129.500, 540.335 128.893, 539.581 126.750 C 537.548 120.969, 542.435 115.627, 546.597 119.081 C 547.773 120.057, 548.338 120.058, 549.292 119.087 C 550.239 118.124, 549.990 117.441, 548.139 115.929 C 545.306 113.614, 542.209 113.465, 539.299 115.503 M 453 123.833 C 453 133.092, 453.304 134.204, 455.598 133.324 C 456.500 132.978, 457.036 131.130, 457.100 128.143 L 457.199 123.500 459.285 128.250 C 460.432 130.863, 461.654 133, 462 133 C 462.346 133, 463.568 130.863, 464.715 128.250 L 466.801 123.500 466.900 128.143 C 466.990 132.327, 468.041 134, 470.582 134 C 470.812 134, 471 129.725, 471 124.500 C 471 115.912, 470.822 115, 469.144 115 C 467.855 115, 466.502 116.735, 464.719 120.676 L 462.151 126.352 459.367 120.676 C 457.526 116.923, 455.977 115, 454.792 115 C 453.205 115, 453 116.009, 453 123.833 M 479.709 119.250 C 478.896 121.588, 477.286 125.862, 476.130 128.750 C 474.085 133.862, 474.080 134, 475.947 134 C 477.002 134, 478.151 133.100, 478.500 132 C 478.989 130.460, 480.013 130, 482.951 130 C 485.926 130, 486.882 130.441, 487.290 132 C 487.598 133.179, 488.654 134, 489.862 134 C 491.875 134, 491.867 133.885, 489.343 127.250 C 487.930 123.537, 486.331 119.263, 485.790 117.750 C 484.272 113.514, 481.464 114.206, 479.709 119.250 M 496 124.500 C 496 133.513, 496.109 134, 498.120 134 C 500.101 134, 500.207 133.605, 499.736 128.012 C 499.458 124.719, 499.614 122.262, 500.083 122.551 C 500.551 122.841, 502.404 125.535, 504.201 128.539 C 506.187 131.860, 508.160 134, 509.234 134 C 510.798 134, 511 132.914, 511 124.500 C 511 115.540, 510.882 115, 508.917 115 C 507.018 115, 506.877 115.442, 507.328 119.996 C 507.601 122.743, 507.511 125.184, 507.128 125.421 C 506.746 125.657, 504.873 123.411, 502.967 120.430 C 500.942 117.265, 498.772 115.008, 497.750 115.005 C 496.206 115.001, 496 116.117, 496 124.500 M 520.709 119.250 C 519.896 121.588, 518.286 125.862, 517.130 128.750 L 515.029 134 517.108 134 C 518.346 134, 519.399 133.191, 519.710 132 C 520.116 130.447, 521.074 130, 524 130 C 526.926 130, 527.884 130.447, 528.290 132 C 528.598 133.179, 529.654 134, 530.862 134 C 532.875 134, 532.867 133.885, 530.343 127.250 C 528.930 123.537, 527.331 119.263, 526.790 117.750 C 525.272 113.514, 522.464 114.206, 520.709 119.250 M 556 124.500 L 556 134 562.500 134 C 568.272 134, 569 133.782, 569 132.055 C 569 130.444, 568.184 130.057, 564.250 129.805 C 560.830 129.585, 559.500 129.080, 559.500 128 C 559.500 127.107, 560.613 126.372, 562.250 126.184 C 566.029 125.749, 566.091 122.262, 562.327 121.816 C 557.533 121.249, 558.479 119.140, 563.677 118.807 C 567.309 118.575, 568.563 118.073, 568.814 116.750 C 569.104 115.227, 568.294 115, 562.573 115 L 556 115 556 124.500 M 573.212 124.250 C 573.443 131.678, 573.795 133.500, 575 133.500 C 576.067 133.500, 576.644 132.056, 577 128.500 L 577.500 123.500 579.386 128.250 C 580.423 130.863, 581.577 133, 581.951 133 C 582.324 133, 583.568 130.863, 584.715 128.250 L 586.801 123.500 586.900 128.143 C 586.990 132.327, 588.041 134, 590.582 134 C 590.812 134, 591 129.725, 591 124.500 C 591 115.912, 590.822 115, 589.144 115 C 587.855 115, 586.502 116.735, 584.719 120.676 L 582.151 126.352 579.367 120.676 C 577.495 116.858, 575.985 115, 574.754 115 C 573.093 115, 572.951 115.850, 573.212 124.250 M 596 124.500 L 596 134 603 134 C 609.333 134, 610 133.810, 610 132 C 610 130.267, 609.333 130, 605 130 C 600.667 130, 600 129.733, 600 128 C 600 126.533, 600.667 126, 602.500 126 C 604.333 126, 605 125.467, 605 124 C 605 122.533, 604.333 122, 602.500 122 C 600.987 122, 600 121.430, 600 120.555 C 600 119.541, 601.414 119.019, 604.741 118.805 C 608.313 118.575, 609.564 118.069, 609.814 116.750 C 610.105 115.217, 609.270 115, 603.073 115 L 596 115 596 124.500 M 614 124.500 C 614 133.333, 614.140 134, 616 134 C 617.785 134, 618 133.333, 618 127.793 L 618 121.586 622.250 127.790 C 624.727 131.405, 627.230 133.995, 628.250 133.997 C 629.794 134, 630 132.882, 630 124.500 C 630 115.748, 629.847 115, 628.050 115 C 626.383 115, 626.056 115.817, 625.800 120.634 L 625.500 126.268 621.628 120.634 C 619.243 117.163, 617.035 115, 615.878 115 C 614.172 115, 614 115.872, 614 124.500 M 633 117 C 633 118.556, 633.667 119, 636 119 L 639 119 639 126.500 C 639 132.500, 639.300 134, 640.500 134 C 641.700 134, 642 132.500, 642 126.500 L 642 119 645 119 C 647.333 119, 648 118.556, 648 117 C 648 115.178, 647.333 115, 640.500 115 C 633.667 115, 633 115.178, 633 117 M 482 121.918 C 482 122.423, 481.727 123.548, 481.393 124.418 C 480.952 125.567, 481.392 126, 483 126 C 484.608 126, 485.048 125.567, 484.607 124.418 C 484.273 123.548, 484 122.423, 484 121.918 C 484 121.413, 483.550 121, 483 121 C 482.450 121, 482 121.413, 482 121.918 M 523 121.918 C 523 122.423, 522.727 123.548, 522.393 124.418 C 521.952 125.567, 522.392 126, 524 126 C 525.608 126, 526.048 125.567, 525.607 124.418 C 525.273 123.548, 525 122.423, 525 121.918 C 525 121.413, 524.550 121, 524 121 C 523.450 121, 523 121.413, 523 121.918" stroke="none" fill="#fcfefe" fill-rule="evenodd"/><path d="M 0 94.501 L 0 189.003 348.750 188.751 L 697.500 188.500 697.755 94.250 L 698.010 0 349.005 0 L 0 0 0 94.501 M 0.480 95 C 0.480 146.975, 0.601 168.237, 0.750 142.250 C 0.898 116.262, 0.898 73.737, 0.750 47.750 C 0.601 21.762, 0.480 43.025, 0.480 95 M 45 49.795 C 45 51.286, 45.913 51.890, 48.880 52.365 C 51.014 52.706, 53.827 53.849, 55.130 54.904 L 57.500 56.823 57.500 90.875 C 57.500 129.290, 57.790 127.860, 49.786 128.928 C 46.357 129.386, 45.500 129.900, 45.500 131.500 C 45.500 133.452, 46.167 133.500, 73 133.500 L 100.500 133.500 106.091 130.878 C 114.323 127.018, 119.025 119.080, 118.978 109.124 C 118.931 99.157, 112.419 91.830, 101.011 88.906 L 96.189 87.670 101.964 84.939 C 111.679 80.345, 115.575 72.697, 112.959 63.353 C 111.327 57.523, 106.535 52.844, 99.755 50.458 C 95.329 48.900, 90.596 48.549, 69.750 48.227 C 45.752 47.858, 45 47.905, 45 49.795 M 546.223 49.557 C 544.758 50.583, 544 52.146, 544 54.143 C 544 56.831, 544.565 57.411, 549.015 59.291 C 551.773 60.456, 553.876 61.880, 553.687 62.455 C 553.177 64.006, 549.105 64.332, 547.445 62.954 C 546.315 62.016, 545.651 62.045, 544.397 63.085 C 542.946 64.290, 543.004 64.585, 545.008 66.208 C 546.226 67.193, 548.647 68, 550.388 68 C 559.569 68, 560.847 58.382, 551.983 55.995 C 549.645 55.366, 548 54.319, 548 53.461 C 548 51.768, 552.066 51.466, 553.642 53.042 C 554.366 53.766, 555.104 53.579, 556.055 52.434 C 559.026 48.853, 550.704 46.418, 546.223 49.557 M 186.008 70.698 C 180.904 82.689, 175.939 94.300, 174.975 96.500 C 174.012 98.700, 171.149 105.379, 168.614 111.342 C 163.035 124.467, 160.708 127.908, 156.900 128.670 C 154.677 129.115, 154 129.804, 154 131.625 L 154 134 168.500 134 L 183 134 183 131.500 C 183 129.342, 182.552 129, 179.723 129 C 175.540 129, 172 126.533, 172 123.618 C 172 120.830, 176.543 107.256, 178.107 105.372 C 178.970 104.331, 182.560 104, 192.967 104 C 209.119 104, 208.594 103.696, 213.060 115.649 C 217.514 127.572, 217.372 128.030, 208.750 129.558 C 205.975 130.050, 205 130.714, 205 132.111 C 205 133.893, 206.020 134, 223 134 C 240.215 134, 241 133.915, 241 132.039 C 241 130.606, 239.952 129.795, 237.116 129.031 C 234.981 128.456, 232.770 127.426, 232.205 126.743 C 231.639 126.059, 225.714 112, 219.039 95.500 C 198.972 45.900, 200.640 49.538, 197.805 49.198 C 195.419 48.911, 194.810 50.022, 186.008 70.698 M 276 50.845 C 276 52.393, 276.920 52.834, 280.967 53.223 C 289.141 54.008, 289.001 53.621, 288.996 75.372 C 288.994 85.893, 288.697 100.964, 288.336 108.864 C 287.732 122.061, 287.483 123.461, 285.279 126.080 C 283.888 127.734, 281.434 129.203, 279.440 129.577 C 276.962 130.042, 276 130.751, 276 132.111 C 276 133.882, 276.971 134, 291.500 134 C 305.981 134, 307 133.877, 307 132.128 C 307 130.733, 306.030 130.100, 303.192 129.647 C 300.970 129.291, 298.367 127.955, 296.942 126.439 C 294.563 123.908, 294.501 123.436, 294.539 108.170 C 294.561 99.552, 294.683 85.975, 294.811 78 L 295.044 63.500 306.573 91.500 C 312.914 106.900, 319.327 122.650, 320.823 126.500 C 322.856 131.733, 324.069 133.576, 325.628 133.801 C 327.886 134.126, 326.410 137.617, 346.824 83.657 L 354.709 62.815 355.426 92.157 C 355.821 108.296, 355.818 122.400, 355.420 123.500 C 354.187 126.907, 351.861 128.935, 348.455 129.574 C 346.407 129.959, 344.998 130.901, 344.686 132.094 C 344.209 133.918, 344.982 134, 362.594 134 C 380.333 134, 381 133.928, 381 132 C 381 130.683, 380.333 130, 379.047 130 C 376.078 130, 372.552 128.107, 370.997 125.679 C 369.929 124.011, 369.388 115.796, 368.688 90.641 C 367.798 58.663, 367.826 57.729, 369.740 55.816 C 370.822 54.734, 373.573 53.599, 375.853 53.293 C 379.063 52.862, 380 52.308, 380 50.839 C 380 49.058, 379.195 48.959, 366.874 49.221 L 353.747 49.500 349.078 61.500 C 346.510 68.100, 341.055 82.415, 336.955 93.310 C 331.853 106.868, 329.224 112.689, 328.626 111.753 C 328.146 111, 322.273 96.686, 315.576 79.942 L 303.399 49.500 289.700 49.222 C 276.807 48.960, 276 49.056, 276 50.845 M 393.984 54.516 L 388.545 60.023 394.023 65.502 L 399.502 70.980 404.751 65.867 C 407.638 63.054, 409.986 60.471, 409.968 60.127 C 409.922 59.223, 407.968 57.023, 403.417 52.754 L 399.424 49.008 393.984 54.516 M 453 58.500 L 453 68 458.845 68 C 463.238 68, 465.101 67.546, 466.345 66.171 C 468.150 64.177, 468.554 60.460, 467.066 59.541 C 466.552 59.223, 466.397 57.329, 466.721 55.332 C 467.491 50.588, 465.382 49, 458.309 49 L 453 49 453 58.500 M 477.536 50.697 C 477.141 51.689, 475.520 55.987, 473.934 60.250 C 471.116 67.823, 471.098 68, 473.119 68 C 474.346 68, 475.400 67.187, 475.710 66 C 476.116 64.447, 477.074 64, 480 64 C 482.926 64, 483.884 64.447, 484.290 66 C 484.603 67.197, 485.654 68, 486.906 68 C 488.058 68, 488.997 67.888, 488.993 67.750 C 488.989 67.612, 487.461 63.450, 485.597 58.500 C 483.056 51.748, 481.715 49.424, 480.232 49.197 C 479.058 49.017, 477.963 49.627, 477.536 50.697 M 492 58.500 L 492 68 499 68 C 505.333 68, 506 67.810, 506 66 C 506 64.267, 505.333 64, 501 64 L 496 64 496 56.500 C 496 49.667, 495.822 49, 494 49 C 492.140 49, 492 49.667, 492 58.500 M 508.528 54.750 C 510.842 58.589, 511.996 61.747, 511.997 64.250 C 512 67.332, 512.356 68, 514 68 C 515.650 68, 516 67.333, 516 64.196 C 516 61.752, 517.003 58.801, 518.803 55.946 C 520.344 53.501, 521.946 50.938, 522.362 50.250 C 522.881 49.391, 522.388 49, 520.786 49 C 519.147 49, 517.895 50.040, 516.570 52.500 C 515.533 54.425, 514.408 56, 514.070 56 C 513.732 56, 512.607 54.425, 511.570 52.500 C 510.252 50.052, 508.990 49, 507.373 49 C 505.090 49, 505.105 49.074, 508.528 54.750 M 528.536 50.697 C 528.141 51.689, 526.520 55.987, 524.934 60.250 C 522.116 67.823, 522.098 68, 524.119 68 C 525.346 68, 526.400 67.187, 526.710 66 C 527.116 64.447, 528.074 64, 531 64 C 533.926 64, 534.884 64.447, 535.290 66 C 535.603 67.197, 536.654 68, 537.906 68 C 539.058 68, 539.997 67.888, 539.993 67.750 C 539.989 67.612, 538.461 63.450, 536.597 58.500 C 534.056 51.748, 532.715 49.424, 531.232 49.197 C 530.058 49.017, 528.963 49.627, 528.536 50.697 M 562 58.500 C 562 67.252, 562.153 68, 563.950 68 C 565.617 68, 565.944 67.183, 566.200 62.366 L 566.500 56.732 570.372 62.366 C 572.757 65.837, 574.965 68, 576.122 68 C 577.828 68, 578 67.128, 578 58.500 C 578 49.667, 577.860 49, 576 49 C 574.232 49, 574 49.667, 574 54.750 L 574 60.500 569.921 54.750 C 567.375 51.161, 565.120 49, 563.921 49 C 562.161 49, 562 49.797, 562 58.500 M 584.528 54.750 C 586.842 58.589, 587.996 61.747, 587.997 64.250 C 588 67.332, 588.356 68, 590 68 C 591.644 68, 592 67.332, 592.003 64.250 C 592.004 61.747, 593.158 58.589, 595.472 54.750 C 598.845 49.157, 598.878 49, 596.697 49 C 595.160 49, 593.862 50.101, 592.570 52.500 C 591.533 54.425, 590.377 56, 590 56 C 589.623 56, 588.467 54.425, 587.430 52.500 C 586.138 50.101, 584.840 49, 583.303 49 C 581.122 49, 581.155 49.157, 584.528 54.750 M 74.307 53.640 C 72.934 53.943, 71.730 55.316, 71.088 57.312 C 69.879 61.069, 70.125 82.879, 71.399 84.879 C 72.079 85.946, 74.337 86.150, 81.394 85.781 C 95.445 85.046, 99.829 81.974, 100.711 72.247 C 101.409 64.551, 98.709 57.938, 93.838 55.410 C 90.539 53.698, 78.849 52.639, 74.307 53.640 M 457 54.500 C 457 55.500, 458 56, 460 56 C 462 56, 463 55.500, 463 54.500 C 463 53.500, 462 53, 460 53 C 458 53, 457 53.500, 457 54.500 M 478.710 58 C 478.329 59.457, 478.680 60, 480 60 C 481.320 60, 481.671 59.457, 481.290 58 C 481.002 56.900, 480.422 56, 480 56 C 479.578 56, 478.998 56.900, 478.710 58 M 529.710 58 C 529.329 59.457, 529.680 60, 531 60 C 532.320 60, 532.671 59.457, 532.290 58 C 532.002 56.900, 531.422 56, 531 56 C 530.578 56, 529.998 56.900, 529.710 58 M 457 62 C 457 63.619, 457.667 64, 460.500 64 C 463.333 64, 464 63.619, 464 62 C 464 60.381, 463.333 60, 460.500 60 C 457.667 60, 457 60.381, 457 62 M 187.077 82.131 C 182.111 94.111, 181.086 97.440, 182.153 98.116 C 182.894 98.585, 188.563 98.976, 194.750 98.985 C 204.770 98.998, 206 98.810, 206 97.264 C 206 95.068, 194.866 67, 193.995 67 C 193.640 67, 190.527 73.809, 187.077 82.131 M 252.099 85.400 C 248.434 89.111, 247.018 91.227, 247.580 92.152 C 248.876 94.284, 256.796 101.154, 257.691 100.923 C 258.136 100.808, 260.853 98.617, 263.728 96.054 L 268.957 91.394 263.197 85.695 L 257.437 79.995 252.099 85.400 M 393.750 85.640 C 390.587 88.705, 388 91.322, 388 91.456 C 388 91.590, 390.609 93.969, 393.797 96.742 L 399.594 101.785 405.472 96.401 C 408.705 93.439, 411.148 90.900, 410.902 90.758 C 410.655 90.616, 407.989 88.153, 404.977 85.284 L 399.500 80.068 393.750 85.640 M 475.223 82.557 C 473.766 83.577, 473 85.147, 473 87.112 C 473 89.770, 473.573 90.349, 478.034 92.203 C 480.803 93.354, 482.905 94.791, 482.706 95.398 C 482.180 96.996, 478.133 97.356, 476.445 95.954 C 475.315 95.016, 474.651 95.045, 473.397 96.085 C 471.946 97.290, 472.004 97.585, 474.008 99.208 C 478.798 103.086, 487 100.408, 487 94.966 C 487 91.815, 484.586 89.648, 479.750 88.459 C 478.238 88.087, 477 87.368, 477 86.860 C 477 85.292, 480.170 84.625, 482.047 85.797 C 483.432 86.662, 484.119 86.562, 485.127 85.347 C 488.032 81.846, 479.620 79.477, 475.223 82.557 M 493.655 82.829 C 491.698 84.991, 491.481 89.324, 493.256 90.797 C 493.946 91.370, 495.750 92.150, 497.265 92.530 C 500.572 93.360, 501.631 94.769, 500.099 96.301 C 499.268 97.132, 498.198 97.136, 496.024 96.315 C 493.735 95.451, 492.834 95.495, 491.991 96.511 C 491.172 97.498, 491.463 98.211, 493.175 99.410 C 498.298 102.999, 505.337 100.121, 504.806 94.654 C 504.552 92.040, 503.773 91.162, 500.250 89.526 C 494.633 86.917, 494.488 84.569, 500 85.500 C 503.239 86.047, 504 85.881, 504 84.623 C 504 81.075, 496.431 79.762, 493.655 82.829 M 456.205 89.695 C 454.548 93.988, 452.876 98.287, 452.489 99.250 C 451.947 100.600, 452.290 101, 453.987 101 C 455.346 101, 456.387 100.236, 456.710 99 C 457.116 97.447, 458.074 97, 461 97 C 463.926 97, 464.884 97.447, 465.290 99 C 465.609 100.222, 466.654 101, 467.974 101 C 470.427 101, 470.478 101.304, 466.141 90 C 464.009 84.445, 462.738 82.421, 461.240 82.195 C 459.555 81.940, 458.715 83.191, 456.205 89.695 M 510 91.500 L 510 101 516.500 101 C 522.333 101, 523 100.795, 523 99 C 523 97.296, 522.333 97, 518.500 97 C 514.667 97, 514 96.704, 514 95 C 514 93.533, 514.667 93, 516.500 93 C 518.333 93, 519 92.467, 519 91 C 519 89.533, 518.333 89, 516.500 89 C 514.944 89, 514 88.433, 514 87.500 C 514 86.389, 515.167 86, 518.500 86 C 522.333 86, 523 85.704, 523 84 C 523 82.205, 522.333 82, 516.500 82 L 510 82 510 91.500 M 526 84 C 526 85.467, 526.667 86, 528.500 86 C 530.946 86, 531 86.162, 531 93.570 C 531 100.845, 531.087 101.127, 533.248 100.820 C 535.343 100.522, 535.494 100.010, 535.481 93.250 L 535.468 86 538.234 86 C 540.333 86, 541 85.518, 541 84 C 541 82.178, 540.333 82, 533.500 82 C 526.667 82, 526 82.178, 526 84 M 459.710 91 C 459.329 92.457, 459.680 93, 461 93 C 462.320 93, 462.671 92.457, 462.290 91 C 462.002 89.900, 461.422 89, 461 89 C 460.578 89, 459.998 89.900, 459.710 91 M 73.269 92.096 C 70.339 93.180, 69.767 97.002, 70.167 112.799 C 70.397 121.851, 70.903 126.307, 71.802 127.203 C 72.700 128.097, 76.296 128.500, 83.377 128.500 C 92.826 128.500, 93.971 128.287, 97.668 125.839 C 102.743 122.479, 105 117.779, 105 110.567 C 105 100.875, 101.071 95.097, 93.119 93.096 C 87.869 91.775, 75.784 91.166, 73.269 92.096 M 130.719 116.779 L 124.998 122.560 130.779 128.281 L 136.560 134.002 142.281 128.221 L 148.002 122.440 142.221 116.719 L 136.440 110.998 130.719 116.779 M 251.719 116.779 L 245.998 122.560 251.779 128.281 L 257.560 134.002 263.281 128.221 L 269.002 122.440 263.221 116.719 L 257.440 110.998 251.719 116.779 M 393.719 116.779 L 387.998 122.560 393.779 128.281 L 399.560 134.002 405.281 128.221 L 411.002 122.440 405.221 116.719 L 399.440 110.998 393.719 116.779 M 537.589 117.077 C 533.675 121.728, 534.307 129.181, 538.913 132.718 C 541.775 134.916, 546.653 134.256, 548.927 131.365 C 552.684 126.589, 551.129 122.369, 546.096 123.685 C 543.659 124.322, 543.245 127, 545.583 127 C 547.858 127, 546.737 129.442, 544.296 129.803 C 539.516 130.511, 537.124 123.008, 541.010 119.491 C 542.768 117.900, 543.333 117.840, 545.530 119.016 C 549.101 120.927, 551.126 118.902, 548.521 116.024 C 545.665 112.868, 540.730 113.343, 537.589 117.077 M 453 124.573 C 453 133.151, 453.182 134.112, 454.750 133.814 C 456.010 133.575, 456.640 132.227, 457 128.997 L 457.500 124.511 459.402 128.755 C 460.448 131.090, 461.597 133, 461.955 133 C 462.313 133, 463.567 131.088, 464.741 128.750 L 466.876 124.500 466.938 129.250 C 466.991 133.313, 467.289 134, 469 134 C 470.860 134, 471 133.333, 471 124.500 C 471 115.711, 470.852 115, 469.028 115 C 467.615 115, 466.446 116.417, 464.905 120 C 463.722 122.750, 462.443 125, 462.064 125 C 461.685 125, 460.392 122.750, 459.192 120 C 457.615 116.389, 456.451 115, 455.004 115 C 453.138 115, 453 115.660, 453 124.573 M 477.732 124.200 C 474.641 132.250, 474.381 133.549, 475.798 133.865 C 476.698 134.066, 478.067 133.279, 478.839 132.115 C 480.757 129.228, 486.544 129.149, 487.290 132 C 487.603 133.197, 488.654 134, 489.906 134 C 491.058 134, 491.997 133.887, 491.993 133.750 C 491.989 133.613, 490.461 129.450, 488.597 124.500 C 483.877 111.962, 482.447 111.922, 477.732 124.200 M 496 124.500 C 496 133.333, 496.140 134, 498 134 C 499.767 134, 500.001 133.330, 500.011 128.250 L 500.023 122.500 503.761 128.237 C 505.942 131.583, 508.229 133.979, 509.250 133.987 C 510.795 133.998, 511 132.886, 511 124.500 C 511 115.752, 510.846 115, 509.052 115 C 507.408 115, 507.057 115.817, 506.802 120.241 L 506.500 125.483 503.146 120.241 C 501.034 116.942, 499.089 115, 497.896 115 C 496.168 115, 496 115.841, 496 124.500 M 519.205 122.695 C 517.548 126.988, 515.876 131.287, 515.489 132.250 C 514.947 133.600, 515.290 134, 516.987 134 C 518.346 134, 519.387 133.236, 519.710 132 C 520.116 130.447, 521.074 130, 524 130 C 526.926 130, 527.884 130.447, 528.290 132 C 528.598 133.179, 529.654 134, 530.862 134 C 532.834 134, 532.786 133.654, 529.573 124.750 C 527.010 117.649, 525.768 115.429, 524.226 115.195 C 522.558 114.941, 521.707 116.213, 519.205 122.695 M 556 124.500 L 556 134 562.500 134 C 568.333 134, 569 133.795, 569 132 C 569 130.296, 568.333 130, 564.500 130 C 560.667 130, 560 129.704, 560 128 C 560 126.533, 560.667 126, 562.500 126 C 564.333 126, 565 125.467, 565 124 C 565 122.533, 564.333 122, 562.500 122 C 560.944 122, 560 121.433, 560 120.500 C 560 119.389, 561.167 119, 564.500 119 C 568.333 119, 569 118.704, 569 117 C 569 115.205, 568.333 115, 562.500 115 L 556 115 556 124.500 M 573 124.573 C 573 133.151, 573.182 134.112, 574.750 133.814 C 576.010 133.575, 576.640 132.227, 577 128.997 L 577.500 124.511 579.402 128.755 C 580.448 131.090, 581.597 133, 581.955 133 C 582.313 133, 583.567 131.088, 584.741 128.750 L 586.876 124.500 586.938 129.250 C 586.991 133.313, 587.289 134, 589 134 C 590.860 134, 591 133.333, 591 124.500 C 591 115.711, 590.852 115, 589.028 115 C 587.615 115, 586.446 116.417, 584.905 120 C 583.722 122.750, 582.465 125, 582.113 125 C 581.761 125, 580.404 122.750, 579.098 120 C 577.503 116.640, 576.114 115, 574.862 115 C 573.176 115, 573 115.903, 573 124.573 M 596 124.500 L 596 134 603 134 C 609.333 134, 610 133.810, 610 132 C 610 130.267, 609.333 130, 605 130 C 600.667 130, 600 129.733, 600 128 C 600 126.444, 600.667 126, 603 126 C 605.333 126, 606 125.556, 606 124 C 606 122.444, 605.333 122, 603 122 C 601.051 122, 600 121.494, 600 120.555 C 600 119.541, 601.414 119.019, 604.741 118.805 C 608.313 118.575, 609.564 118.069, 609.814 116.750 C 610.105 115.217, 609.270 115, 603.073 115 L 596 115 596 124.500 M 614 124.500 C 614 133.252, 614.153 134, 615.950 134 C 617.620 134, 617.943 133.182, 618.200 128.302 L 618.500 122.604 622.416 128.302 C 624.777 131.737, 627.061 134, 628.166 134 C 629.816 134, 630 133.046, 630 124.500 C 630 115.667, 629.860 115, 628 115 C 626.232 115, 626 115.667, 626 120.750 L 626 126.500 621.921 120.750 C 619.375 117.161, 617.120 115, 615.921 115 C 614.161 115, 614 115.797, 614 124.500 M 633 117 C 633 118.467, 633.667 119, 635.500 119 C 637.946 119, 638 119.162, 638 126.570 C 638 133.847, 638.087 134.127, 640.250 133.820 C 642.339 133.523, 642.500 132.998, 642.500 126.500 C 642.500 119.607, 642.542 119.495, 645.250 119.184 C 647.193 118.960, 648 118.300, 648 116.934 C 648 115.194, 647.247 115, 640.500 115 C 633.667 115, 633 115.178, 633 117 M 481.607 123.582 C 480.730 125.867, 480.802 126, 482.906 126 C 484.320 126, 484.678 125.483, 484.290 124 C 483.662 121.599, 482.441 121.408, 481.607 123.582 M 522.710 124 C 522.329 125.457, 522.680 126, 524 126 C 525.320 126, 525.671 125.457, 525.290 124 C 525.002 122.900, 524.422 122, 524 122 C 523.578 122, 522.998 122.900, 522.710 124" stroke="none" fill="#012d57" fill-rule="evenodd"/><path d="M 393.984 54.516 L 388.545 60.023 394.023 65.502 L 399.502 70.980 404.751 65.867 C 407.638 63.054, 409.986 60.471, 409.968 60.127 C 409.922 59.223, 407.968 57.023, 403.417 52.754 L 399.424 49.008 393.984 54.516 M 294.355 83.500 C 294.352 88.450, 294.521 90.601, 294.731 88.280 C 294.940 85.959, 294.943 81.909, 294.736 79.280 C 294.530 76.651, 294.358 78.550, 294.355 83.500 M 252.099 85.400 C 248.434 89.111, 247.018 91.227, 247.580 92.152 C 248.876 94.284, 256.796 101.154, 257.691 100.923 C 258.136 100.808, 260.853 98.617, 263.728 96.054 L 268.957 91.394 263.197 85.695 L 257.437 79.995 252.099 85.400 M 355.349 88 C 355.349 92.675, 355.522 94.587, 355.732 92.250 C 355.943 89.912, 355.943 86.087, 355.732 83.750 C 355.522 81.412, 355.349 83.325, 355.349 88 M 531.343 93.500 C 531.346 97.900, 531.522 99.576, 531.733 97.224 C 531.945 94.872, 531.942 91.272, 531.727 89.224 C 531.512 87.176, 531.339 89.100, 531.343 93.500 M 79.762 91.707 C 81.006 91.946, 82.806 91.937, 83.762 91.687 C 84.718 91.437, 83.700 91.241, 81.500 91.252 C 79.300 91.263, 78.518 91.468, 79.762 91.707 M 288.328 110.500 C 288.333 114.350, 288.513 115.802, 288.730 113.728 C 288.946 111.653, 288.943 108.503, 288.722 106.728 C 288.501 104.952, 288.324 106.650, 288.328 110.500 M 638.343 126.500 C 638.346 130.900, 638.522 132.576, 638.733 130.224 C 638.945 127.872, 638.942 124.272, 638.727 122.224 C 638.512 120.176, 638.339 122.100, 638.343 126.500 M 45.336 130.567 C 44.297 133.273, 46.472 134.110, 53.599 133.745 L 60.500 133.392 53.250 133.196 C 47.729 133.047, 46 132.660, 46 131.573 C 46 130.789, 46.788 129.941, 47.750 129.689 C 49.390 129.261, 49.388 129.225, 47.719 129.116 C 46.739 129.052, 45.667 129.705, 45.336 130.567" stroke="none" fill="#f56435" fill-rule="evenodd"/>
</svg>