<svg xmlns="http://www.w3.org/2000/svg" width="270" height="80" viewBox="0 0 2072 647" version="1.1"><path d="M 776 53.994 L 776 107.989 689.250 108.250 L 602.500 108.511 689.750 108.756 L 777 109 777 54.500 C 777 24.525, 776.775 0, 776.500 0 C 776.225 0, 776 24.298, 776 53.994 M 1295.241 54.250 L 1295 109 1382.250 108.756 L 1469.500 108.511 1382.759 108.250 L 1296.017 107.989 1295.750 53.744 L 1295.482 -0.500 1295.241 54.250 M 992.250 108.750 C 1016.313 108.899, 1055.688 108.899, 1079.750 108.750 C 1103.813 108.601, 1084.125 108.478, 1036 108.478 C 987.875 108.478, 968.188 108.601, 992.250 108.750 M 811.741 133.749 L 1020.983 134.005 1021.254 187.752 L 1021.526 241.500 1021.513 187.500 L 1021.500 133.500 812 133.496 L 602.500 133.493 811.741 133.749 M 1050.459 134.250 C 1050.196 134.938, 1050.101 159.575, 1050.249 189 L 1050.518 242.500 1050.759 188.252 L 1051 134.005 1260.250 133.750 L 1469.500 133.495 1260.219 133.248 C 1093.532 133.050, 1050.840 133.254, 1050.459 134.250 M 819.250 267.750 C 938.462 267.890, 1133.537 267.890, 1252.750 267.750 C 1371.962 267.610, 1274.425 267.495, 1036 267.495 C 797.575 267.495, 700.037 267.610, 819.250 267.750 M 713.743 517.705 L 715.985 518.137 716.250 582.819 L 716.515 647.500 716.757 582.250 L 717 517 714.250 517.136 C 711.903 517.252, 711.829 517.336, 713.743 517.705 M 1546.400 546.500 C 1546.401 554.750, 1546.556 557.992, 1546.744 553.704 C 1546.932 549.417, 1546.931 542.667, 1546.742 538.704 C 1546.552 534.742, 1546.399 538.250, 1546.400 546.500 M 204.667 536.667 C 203.752 537.581, 203.848 622.213, 204.765 623.656 C 205.169 624.292, 205.374 605.075, 205.220 580.952 L 204.940 537.093 211.720 536.742 L 218.500 536.392 211.917 536.196 C 208.296 536.088, 205.033 536.300, 204.667 536.667 M 468.425 557 C 468.425 568.825, 468.569 573.663, 468.746 567.750 C 468.923 561.837, 468.923 552.163, 468.746 546.250 C 468.569 540.337, 468.425 545.175, 468.425 557 M 1174.458 537.250 C 1174.194 537.938, 1174.101 558.750, 1174.250 583.500 L 1174.521 628.500 1174.761 582.794 L 1175 537.088 1182.250 536.743 L 1189.500 536.397 1182.219 536.199 C 1177.161 536.061, 1174.791 536.382, 1174.458 537.250 M 1887 541.110 C 1885.726 542.026, 1885.759 542.106, 1887.219 541.638 C 1888.767 541.142, 1888.965 542.249, 1889.219 552.793 L 1889.500 564.500 1900 564.551 L 1910.500 564.601 1900.250 564.267 L 1890 563.932 1890 551.966 C 1890 545.385, 1889.662 540.007, 1889.250 540.015 C 1888.838 540.024, 1887.825 540.516, 1887 541.110 M 111.457 582.500 C 111.456 605.050, 111.588 614.418, 111.749 603.317 C 111.909 592.216, 111.910 573.766, 111.749 562.317 C 111.589 550.868, 111.457 559.950, 111.457 582.500 M 921.456 581.500 C 921.456 603.500, 921.588 612.358, 921.749 601.183 C 921.910 590.009, 921.910 572.009, 921.749 561.183 C 921.587 550.358, 921.455 559.500, 921.456 581.500 M 1263.456 582 C 1263.456 604.275, 1263.588 613.388, 1263.749 602.250 C 1263.910 591.113, 1263.910 572.888, 1263.749 561.750 C 1263.588 550.613, 1263.456 559.725, 1263.456 582 M 1379.458 584.500 C 1379.459 608.150, 1379.590 617.682, 1379.749 605.682 C 1379.909 593.683, 1379.909 574.333, 1379.749 562.682 C 1379.589 551.032, 1379.458 560.850, 1379.458 584.500 M 349.999 583.701 C 349.725 605.811, 349.843 623.558, 350.262 623.139 C 350.681 622.720, 350.905 604.629, 350.761 582.938 L 350.499 543.500 349.999 583.701 M 569.458 585.500 C 569.458 608.600, 569.589 617.907, 569.749 606.183 C 569.909 594.458, 569.909 575.558, 569.749 564.183 C 569.588 552.807, 569.457 562.400, 569.458 585.500 M 1306.150 562 C 1304.891 565.611, 1305.648 566.056, 1307 562.500 C 1309.261 556.554, 1309.967 560.516, 1310.251 580.750 L 1310.543 601.500 1310.771 580.250 C 1310.990 559.951, 1310.915 559, 1309.098 559 C 1307.883 559, 1306.818 560.085, 1306.150 562 M 1754.235 593.168 C 1754.106 609.486, 1754.273 623.548, 1754.607 624.418 C 1754.941 625.288, 1755.671 626, 1756.229 626 C 1756.871 626, 1756.837 625.508, 1756.138 624.666 C 1755.397 623.773, 1754.937 613.429, 1754.750 593.416 L 1754.469 563.500 1754.235 593.168 M 1794.180 569.896 L 1794 576.291 1797.368 572.896 C 1801.162 569.070, 1801.322 567.409, 1797.556 570.948 L 1795.119 573.237 1794.740 568.368 C 1794.394 563.927, 1794.345 564.061, 1794.180 569.896 M 1853.443 593.500 C 1853.443 610, 1853.580 616.890, 1853.748 608.812 C 1853.915 600.733, 1853.916 587.233, 1853.748 578.812 C 1853.581 570.390, 1853.444 577, 1853.443 593.500 M 1918.667 564.667 C 1917.692 565.641, 1917.851 570, 1918.861 570 C 1919.335 570, 1919.511 568.894, 1919.253 567.542 C 1918.788 565.111, 1918.873 565.081, 1927.141 564.746 L 1935.500 564.407 1927.417 564.204 C 1922.971 564.092, 1919.033 564.300, 1918.667 564.667 M 1889.448 572.276 C 1889.178 572.978, 1889.090 582.990, 1889.250 594.526 L 1889.543 615.500 1889.771 593.784 L 1890 572.068 1900.750 571.746 L 1911.500 571.425 1900.719 571.212 C 1892.740 571.055, 1889.810 571.332, 1889.448 572.276 M 1699.428 596 C 1699.428 608.375, 1699.571 613.438, 1699.747 607.250 C 1699.922 601.063, 1699.922 590.938, 1699.747 584.750 C 1699.571 578.563, 1699.428 583.625, 1699.428 596 M 1929.429 599.500 C 1929.429 612.150, 1929.573 617.187, 1929.747 610.694 C 1929.922 604.200, 1929.921 593.850, 1929.746 587.694 C 1929.571 581.537, 1929.428 586.850, 1929.429 599.500 M 1794.425 601 C 1794.425 612.825, 1794.569 617.663, 1794.746 611.750 C 1794.923 605.837, 1794.923 596.163, 1794.746 590.250 C 1794.569 584.337, 1794.425 589.175, 1794.425 601 M 468.429 604.500 C 468.429 617.150, 468.573 622.187, 468.747 615.694 C 468.922 609.200, 468.921 598.850, 468.746 592.694 C 468.571 586.537, 468.428 591.850, 468.429 604.500 M 261.278 595.250 C 259.397 597.682, 258.854 599.467, 260.663 597.270 C 262.412 595.147, 263.313 595.026, 279.500 594.744 L 296.500 594.448 279.372 594.224 C 266.631 594.057, 261.997 594.320, 261.278 595.250 M 1087.428 594.749 C 1098.845 594.952, 1104.867 595.449, 1105.928 596.275 C 1107.314 597.355, 1107.338 597.293, 1106.128 595.750 C 1104.903 594.188, 1102.913 594.024, 1087.628 594.224 L 1070.500 594.448 1087.428 594.749 M 1583.250 596.747 C 1589.713 596.921, 1600.287 596.921, 1606.750 596.747 C 1613.213 596.573, 1607.925 596.430, 1595 596.430 C 1582.075 596.430, 1576.787 596.573, 1583.250 596.747 M 1979.250 596.747 C 1985.713 596.921, 1996.287 596.921, 2002.750 596.747 C 2009.213 596.573, 2003.925 596.430, 1991 596.430 C 1978.075 596.430, 1972.787 596.573, 1979.250 596.747 M 1485.407 619 C 1485.407 628.075, 1485.559 631.788, 1485.744 627.250 C 1485.929 622.712, 1485.929 615.288, 1485.744 610.750 C 1485.559 606.212, 1485.407 609.925, 1485.407 619 M 2024.214 621.750 L 2024.428 633.500 2024.746 622.315 C 2025.049 611.679, 2025.173 611.110, 2027.282 610.702 C 2029.145 610.341, 2029.059 610.251, 2026.750 610.136 L 2024 610 2024.214 621.750 M 1140.250 628.410 C 1144.485 631.582, 1142.309 632, 1121.573 632 C 1104.173 632, 1101.077 631.775, 1100.675 630.480 C 1100.345 629.417, 1100.252 629.492, 1100.365 630.730 C 1100.513 632.353, 1102.287 632.522, 1121.763 632.770 L 1143 633.040 1143 630.637 C 1143 628.979, 1142.302 628.057, 1140.750 627.666 C 1138.703 627.151, 1138.658 627.218, 1140.250 628.410 M 1333 629.500 L 1333 632 1290.383 632 C 1248.259 632, 1247.773 631.977, 1248.290 630 C 1248.577 628.900, 1248.405 628, 1247.906 628 C 1247.408 628, 1247 629.125, 1247 630.500 L 1247 633 1290.500 633 L 1334 633 1334 630 C 1334 628.350, 1333.775 627, 1333.500 627 C 1333.225 627, 1333 628.125, 1333 629.500 M 95 630.518 L 95 633.036 118.750 632.768 C 141.744 632.509, 142.500 632.436, 142.500 630.500 C 142.500 629.077, 141.779 628.453, 140 628.336 C 137.797 628.192, 137.767 628.230, 139.750 628.656 C 140.988 628.922, 142 629.783, 142 630.570 C 142 631.769, 138.265 632, 118.883 632 C 96.259 632, 95.778 631.957, 96.290 630 C 96.577 628.900, 96.405 628, 95.906 628 C 95.408 628, 95 629.133, 95 630.518 M 218.750 628.706 C 219.988 628.944, 221 629.775, 221 630.552 C 221 631.722, 216.837 632.014, 196.750 632.251 L 172.500 632.537 197.250 632.769 L 222 633 222 630.500 C 222 628.406, 221.553 628.022, 219.250 628.136 C 216.892 628.253, 216.821 628.334, 218.750 628.706 M 231.667 628.667 C 231.300 629.033, 231 630.158, 231 631.167 C 231 632.882, 232.108 632.986, 248.250 632.776 L 265.500 632.552 248.640 632.251 C 232.414 631.962, 231.799 631.876, 232.296 629.975 C 232.848 627.865, 232.725 627.608, 231.667 628.667 M 336.180 630.250 L 336.500 632.500 360 632.527 L 383.500 632.554 360.250 632.259 C 341.140 632.016, 337 631.715, 337 630.565 C 337 629.796, 337.563 628.940, 338.250 628.662 C 338.971 628.371, 338.731 628.125, 337.680 628.079 C 336.349 628.021, 335.947 628.603, 336.180 630.250 M 437.336 629.567 C 437.005 630.429, 437.159 631.559, 437.678 632.078 C 438.249 632.649, 455.587 632.914, 481.561 632.750 L 524.500 632.478 481.250 632.239 C 444.518 632.036, 438 631.784, 438 630.570 C 438 629.783, 439.012 628.944, 440.250 628.706 L 442.500 628.272 440.219 628.136 C 438.964 628.061, 437.667 628.705, 437.336 629.567 M 1028.750 628.656 C 1029.987 628.922, 1031 629.775, 1031 630.552 C 1031 631.722, 1026.833 632.015, 1006.750 632.260 L 982.500 632.556 1007 632.528 C 1030.824 632.501, 1031.500 632.445, 1031.500 630.500 C 1031.500 629.077, 1030.779 628.453, 1029 628.336 C 1026.797 628.192, 1026.767 628.230, 1028.750 628.656 M 1072.975 628.658 C 1073.539 628.938, 1074 629.793, 1074 630.559 C 1074 631.682, 1070.754 632.010, 1057.250 632.252 L 1040.500 632.552 1057.820 632.776 C 1075.085 632.999, 1075.138 632.993, 1074.820 630.828 C 1074.644 629.634, 1073.926 628.543, 1073.225 628.403 C 1072.524 628.264, 1072.411 628.379, 1072.975 628.658 M 1146 630.500 L 1146 633 1170.250 632.769 L 1194.500 632.538 1170.638 632.251 C 1147.412 631.971, 1146.790 631.910, 1147.295 629.982 C 1147.580 628.892, 1147.405 628, 1146.906 628 C 1146.408 628, 1146 629.125, 1146 630.500 M 1429 630.989 C 1429 631.619, 1414.425 632.076, 1388.750 632.250 L 1348.500 632.523 1389.250 632.762 C 1424.911 632.970, 1430 632.813, 1430 631.500 C 1430 630.675, 1429.775 630, 1429.500 630 C 1429.225 630, 1429 630.445, 1429 630.989 M 301.250 632.746 C 307.163 632.923, 316.837 632.923, 322.750 632.746 C 328.663 632.569, 323.825 632.425, 312 632.425 C 300.175 632.425, 295.337 632.569, 301.250 632.746 M 559.317 632.749 C 570.766 632.910, 589.216 632.909, 600.317 632.749 C 611.418 632.588, 602.050 632.456, 579.500 632.457 C 556.950 632.457, 547.868 632.589, 559.317 632.749 M 916.807 632.747 C 923.576 632.921, 934.376 632.920, 940.807 632.746 C 947.238 632.572, 941.700 632.431, 928.500 632.431 C 915.300 632.432, 910.038 632.574, 916.807 632.747" stroke="none" fill="#143464" fill-rule="evenodd"/><path d="M 603 54 L 603 108 689.500 108 L 776 108 776 54 L 776 0 689.500 0 L 603 0 603 54 M 949 54 L 949 108 1036 108 L 1123 108 1123 54 L 1123 0 1036 0 L 949 0 949 54 M 1296 54 L 1296 108 1382.500 108 L 1469 108 1469 54 L 1469 0 1382.500 0 L 1296 0 1296 54 M 603 188 L 603 242 812 242 L 1021 242 1021 188 L 1021 134 812 134 L 603 134 603 188 M 1051 188 L 1051 242 1260 242 L 1469 242 1469 188 L 1469 134 1260 134 L 1051 134 1051 188 M 603 322 L 603 376 1036 376 L 1469 376 1469 322 L 1469 268 1036 268 L 603 268 603 322 M 712 582.500 C 712 646.333, 712.021 647, 714 647 C 715.979 647, 716 646.333, 716 582.500 C 716 518.667, 715.979 518, 714 518 C 712.021 518, 712 518.667, 712 582.500 M 42.771 530.562 C 42.497 530.836, 40.874 531.238, 39.164 531.454 C 35.593 531.906, 23.585 537.590, 21.892 539.630 C 21.267 540.384, 20.223 541, 19.574 541 C 18.303 541, 12 547.107, 12 548.338 C 12 549.138, 7.936 555.169, 6.830 556.010 C 6.461 556.290, 4.906 560.115, 3.372 564.510 C 1.100 571.023, 0.577 574.256, 0.543 582 C 0.496 592.497, 1.546 600.748, 3.180 602.717 C 3.766 603.423, 3.957 604, 3.606 604 C 2.614 604, 7.647 613.462, 9.422 614.935 C 10.290 615.656, 11 616.699, 11 617.254 C 11 617.810, 12.558 619.667, 14.462 621.382 C 19.953 626.327, 20.851 627, 21.958 627 C 22.531 627, 23 627.395, 23 627.879 C 23 628.680, 28.523 631.468, 29.207 631.012 C 29.368 630.904, 31.370 631.564, 33.656 632.479 C 40.563 635.243, 57.377 635.009, 62.862 632.074 C 64.038 631.444, 65 631.182, 65 631.490 C 65 631.799, 66.298 631.380, 67.884 630.560 C 70.722 629.092, 81.394 619.015, 80.142 618.985 C 79.789 618.976, 79.950 618.639, 80.500 618.235 C 81.980 617.148, 86.656 607.736, 86.572 606.014 C 86.485 604.211, 83 603.330, 83 605.111 C 83 606.957, 78.956 615, 78.027 615 C 77.591 615, 76.989 615.933, 76.691 617.074 C 76.393 618.215, 75.215 619.393, 74.074 619.691 C 72.933 619.989, 72 620.642, 72 621.141 C 72 621.641, 70.881 622.475, 69.514 622.995 C 68.146 623.515, 65.208 624.819, 62.984 625.894 C 59.866 627.400, 57.287 627.779, 51.720 627.548 C 43.592 627.211, 43.057 627.093, 37.514 624.421 C 32.264 621.891, 28.862 619.179, 25.472 614.822 C 23.606 612.423, 18.905 604, 19.433 604 C 19.718 604, 19.467 602.763, 18.875 601.250 C 16.920 596.251, 16.513 592.624, 16.545 580.500 C 16.564 573.301, 17.100 566.976, 17.885 564.690 C 18.605 562.595, 19.341 560.120, 19.521 559.190 C 19.700 558.261, 19.938 557.388, 20.048 557.250 C 20.159 557.112, 20.357 556.663, 20.488 556.250 C 21.521 552.999, 23.579 549, 24.219 549 C 24.649 549, 25 548.551, 25 548.001 C 25 546.624, 33.090 538.441, 34.146 538.750 C 34.616 538.888, 35 538.550, 35 538 C 35 537.450, 35.563 536.997, 36.250 536.994 C 36.938 536.990, 38.841 536.288, 40.481 535.433 C 44.518 533.328, 55.158 533.766, 61 536.278 C 66.434 538.615, 72.793 545.267, 76.871 552.882 C 81.323 561.195, 82.740 562.838, 83.915 561.048 C 84.439 560.249, 84.676 559.285, 84.442 558.906 C 83.937 558.090, 83.440 554.258, 82.485 543.847 L 81.783 536.193 78.142 535.598 C 76.139 535.271, 73.938 534.927, 73.250 534.835 C 72.563 534.742, 72 534.217, 72 533.667 C 72 533.117, 71.704 532.963, 71.342 533.325 C 70.980 533.687, 70.145 533.535, 69.486 532.989 C 68.827 532.442, 66.761 531.734, 64.894 531.415 C 60.151 530.605, 43.375 529.958, 42.771 530.562 M 279.707 535.897 C 276.486 543.115, 256.842 592.109, 256.610 593.500 C 256.519 594.050, 256.092 595.063, 255.663 595.750 C 255.233 596.438, 255.185 597, 255.556 597 C 255.927 597, 255.493 598.125, 254.592 599.500 C 253.691 600.875, 253.241 602, 253.592 602 C 253.943 602, 253.493 603.125, 252.592 604.500 C 251.691 605.875, 251.302 607.007, 251.727 607.015 C 252.152 607.024, 252.050 607.361, 251.500 607.765 C 250.950 608.169, 248.710 612.027, 246.522 616.337 C 242.562 624.138, 241.212 625.516, 235.500 627.589 C 233.850 628.187, 232.355 629.425, 232.177 630.339 C 231.886 631.833, 233.516 632, 248.427 632 C 262.492 632, 265 631.773, 265 630.500 C 265 629.663, 264.110 629, 262.986 629 C 261.879 629, 259.966 628.480, 258.736 627.845 C 257.506 627.209, 255.825 626.373, 255 625.987 C 253.037 625.068, 252.734 616.068, 254.548 612.571 C 255.281 611.157, 255.628 610, 255.318 610 C 255.009 610, 255.315 609.325, 256 608.500 C 256.685 607.675, 256.913 607, 256.507 607 C 256.102 607, 256.481 605.915, 257.349 604.590 C 258.218 603.264, 259.147 600.975, 259.414 599.503 C 260.384 594.150, 260.917 594, 279.006 594 C 295.504 594, 295.778 594.035, 296.499 596.250 C 297.496 599.315, 297.709 599.919, 298 600.500 C 298.137 600.775, 298.344 601.337, 298.459 601.750 C 298.574 602.163, 299.192 603.767, 299.834 605.315 C 300.475 606.863, 301 608.701, 301 609.398 C 301 610.096, 301.337 611.004, 301.750 611.417 C 302.163 611.829, 302.556 612.579, 302.625 613.083 C 302.694 613.588, 302.841 614.112, 302.952 614.250 C 303.383 614.785, 304.125 618.673, 304.480 622.255 C 304.921 626.719, 303.494 627.799, 295.971 628.690 C 292.734 629.073, 291 629.753, 291 630.639 C 291 631.744, 294.955 632, 312 632 C 329.618 632, 333 631.768, 333 630.559 C 333 628.821, 332.176 628.252, 328.761 627.633 C 324.450 626.851, 319.433 620.780, 318.348 615.031 C 318.091 613.673, 317.403 611.986, 316.818 611.281 C 316.234 610.576, 316.090 610, 316.500 610 C 316.910 610, 316.723 609.371, 316.085 608.602 C 315.447 607.833, 314.753 606.371, 314.543 605.352 C 314.334 604.333, 313.403 601.712, 312.474 599.527 C 311.546 597.341, 310.612 594.589, 310.398 593.410 C 310.184 592.231, 309.373 589.744, 308.596 587.883 C 307.818 586.022, 307.103 584.050, 307.006 583.500 C 306.909 582.950, 306.363 581.938, 305.793 581.250 C 305.222 580.563, 305.090 580, 305.500 580 C 305.910 580, 305.717 579.364, 305.072 578.587 C 304.427 577.809, 303.670 575.911, 303.390 574.368 C 303.110 572.825, 302.403 570.986, 301.818 570.281 C 301.234 569.576, 301.090 569, 301.500 569 C 301.910 569, 301.717 568.364, 301.072 567.587 C 300.427 566.809, 299.670 564.911, 299.390 563.368 C 299.110 561.825, 298.403 559.986, 297.818 559.281 C 297.234 558.576, 297.090 558, 297.500 558 C 297.910 558, 297.723 557.371, 297.085 556.602 C 296.447 555.833, 295.753 554.371, 295.543 553.352 C 295.334 552.333, 294.403 549.712, 293.474 547.527 C 292.546 545.341, 291.612 542.589, 291.398 541.410 C 291.184 540.231, 290.248 537.519, 289.319 535.383 C 288.389 533.247, 287.712 531.163, 287.814 530.750 C 287.916 530.337, 286.726 530, 285.169 530 C 282.678 530, 282.021 530.709, 279.707 535.897 M 849 531.123 C 847.625 531.698, 845.825 532.311, 845 532.485 C 841.674 533.188, 835 536.273, 835 537.109 C 835 537.599, 834.325 538, 833.500 538 C 832.675 538, 832 538.450, 832 539 C 832 539.550, 831.609 540, 831.132 540 C 830.073 540, 821 548.963, 821 550.009 C 821 550.419, 820.290 551.344, 819.422 552.065 C 817.569 553.603, 813.635 561.210, 812.475 565.500 C 812.028 567.150, 811.600 568.725, 811.522 569 C 809.835 575.001, 809.295 587.695, 810.502 593 C 810.815 594.375, 811.256 596.807, 811.482 598.405 C 812.028 602.262, 816.016 612, 817.049 612 C 817.498 612, 818.142 612.873, 818.481 613.940 C 819.468 617.050, 830.073 626.956, 835.250 629.604 C 837.862 630.940, 840 631.746, 840 631.394 C 840 631.043, 840.627 631.276, 841.393 631.912 C 842.752 633.039, 844.176 633.330, 854.500 634.589 C 858.643 635.095, 864.146 634.484, 871.663 632.686 C 873.665 632.208, 880.484 628.537, 880.833 627.750 C 881.017 627.337, 881.624 627, 882.182 627 C 883.418 627, 889 621.156, 889 619.863 C 889 619.354, 889.672 618.679, 890.494 618.364 C 891.316 618.048, 891.740 617.388, 891.435 616.895 C 891.131 616.403, 891.328 616, 891.874 616 C 892.800 616, 894.064 613.294, 894.620 610.119 C 894.753 609.360, 895.307 608.293, 895.853 607.747 C 896.398 607.202, 896.609 606.144, 896.322 605.396 C 895.926 604.365, 895.321 604.293, 893.814 605.099 C 892.722 605.684, 892.074 606.408, 892.374 606.708 C 893.404 607.738, 889.924 613.045, 885.214 617.626 C 880.791 621.928, 874.403 626, 871 626.687 C 864.926 627.914, 857.815 628.094, 854.796 627.098 C 852.869 626.462, 850.216 625.734, 848.900 625.481 C 847.584 625.227, 846.355 624.565, 846.170 624.010 C 845.985 623.454, 845.277 623, 844.597 623 C 842.757 623, 835 616.067, 835 614.422 C 835 613.640, 834.550 613, 834 613 C 833.450 613, 833 612.325, 833 611.500 C 833 610.675, 832.606 610, 832.125 610 C 831.052 610, 827.282 598.149, 826.400 592 C 825.315 584.440, 825.733 573.324, 827.396 565.500 C 828.613 559.776, 832.495 549.945, 834.315 547.975 C 835.573 546.614, 836.883 544.765, 837.225 543.867 C 837.738 542.521, 848.304 535.600, 850 535.499 C 850.275 535.483, 850.950 535.184, 851.500 534.836 C 853.823 533.365, 867.522 534.675, 871.500 536.748 C 876.343 539.271, 882 544.509, 883.924 548.250 C 884.702 549.763, 885.676 551, 886.090 551 C 886.503 551, 887.138 552.350, 887.500 554 C 887.862 555.650, 888.648 557, 889.246 557 C 889.844 557, 890.049 557.284, 889.702 557.631 C 888.701 558.632, 890.914 562, 892.572 562 C 893.818 562, 893.971 560.852, 893.474 555.250 C 893.144 551.538, 892.694 547.825, 892.474 547 C 892.253 546.175, 891.973 543.362, 891.850 540.750 C 891.641 536.315, 891.448 536, 888.935 536 C 887.455 536, 884.502 535.245, 882.372 534.323 C 878.137 532.489, 878.120 532.484, 872.877 531.173 C 867.792 529.903, 852 529.869, 849 531.123 M 1091.255 530.588 C 1091.669 531.002, 1091.320 532.389, 1090.480 533.670 C 1089.641 534.952, 1089.241 536, 1089.592 536 C 1089.943 536, 1089.493 537.125, 1088.592 538.500 C 1087.691 539.875, 1087.241 541, 1087.592 541 C 1087.943 541, 1087.493 542.125, 1086.592 543.500 C 1085.691 544.875, 1085.241 546, 1085.592 546 C 1085.943 546, 1085.493 547.125, 1084.592 548.500 C 1083.691 549.875, 1083.241 551, 1083.592 551 C 1083.943 551, 1083.493 552.125, 1082.592 553.500 C 1081.691 554.875, 1081.205 556, 1081.512 556 C 1081.819 556, 1081.508 557.013, 1080.821 558.250 C 1080.133 559.487, 1079.539 560.725, 1079.500 561 C 1079.461 561.275, 1078.867 562.513, 1078.179 563.750 C 1077.492 564.987, 1077.181 566, 1077.488 566 C 1077.795 566, 1077.309 567.125, 1076.408 568.500 C 1075.507 569.875, 1075.057 571, 1075.408 571 C 1075.759 571, 1075.309 572.125, 1074.408 573.500 C 1073.507 574.875, 1073.057 576, 1073.408 576 C 1073.759 576, 1073.309 577.125, 1072.408 578.500 C 1071.507 579.875, 1071.057 581, 1071.408 581 C 1071.759 581, 1071.309 582.125, 1070.408 583.500 C 1069.507 584.875, 1069.057 586, 1069.408 586 C 1069.759 586, 1069.309 587.125, 1068.408 588.500 C 1067.507 589.875, 1067.057 591, 1067.408 591 C 1067.759 591, 1067.309 592.125, 1066.408 593.500 C 1065.507 594.875, 1065.057 596, 1065.408 596 C 1065.759 596, 1065.309 597.125, 1064.408 598.500 C 1063.507 599.875, 1063.057 601, 1063.408 601 C 1063.759 601, 1063.309 602.125, 1062.408 603.500 C 1061.507 604.875, 1061.102 606, 1061.507 606 C 1061.913 606, 1061.775 606.566, 1061.201 607.258 C 1060.627 607.950, 1059.520 610.366, 1058.741 612.626 C 1057.962 614.887, 1056.689 617.484, 1055.912 618.397 C 1053.378 621.377, 1048.512 626.516, 1048 626.753 C 1047.725 626.881, 1046.037 627.537, 1044.250 628.212 C 1042.463 628.886, 1041 630.015, 1041 630.719 C 1041 631.709, 1044.755 632, 1057.500 632 C 1071.500 632, 1074 631.773, 1074 630.500 C 1074 629.179, 1073.455 628.866, 1071.473 629.049 C 1070.235 629.163, 1062.990 624.538, 1062.884 623.566 C 1062.457 619.641, 1063.146 614.619, 1064.458 612.082 C 1065.304 610.445, 1066.148 608.295, 1066.333 607.303 C 1066.518 606.311, 1067.161 604.375, 1067.760 603 C 1068.360 601.625, 1069.444 599.038, 1070.170 597.250 L 1071.488 594 1088.122 594 C 1101.687 594, 1104.985 594.277, 1106 595.500 C 1106.685 596.325, 1106.910 597, 1106.500 597 C 1106.090 597, 1106.315 597.675, 1107 598.500 C 1107.685 599.325, 1107.990 600, 1107.677 600 C 1107.365 600, 1108.206 602.477, 1109.544 605.505 C 1110.883 608.532, 1111.984 611.232, 1111.989 611.505 C 1111.995 611.777, 1112.034 612.112, 1112.077 612.250 C 1112.119 612.388, 1112.309 613.323, 1112.499 614.328 C 1112.690 615.334, 1113.173 616.909, 1113.573 617.828 C 1114.996 621.099, 1114.899 622.606, 1113.087 625.368 C 1112.077 626.906, 1110.970 628.128, 1110.626 628.083 C 1110.282 628.037, 1109.775 628.056, 1109.500 628.125 C 1108.666 628.333, 1105.122 628.742, 1103 628.875 C 1101.900 628.944, 1101 629.675, 1101 630.500 C 1101 631.785, 1103.944 632, 1121.500 632 C 1138.334 632, 1142 631.751, 1142 630.610 C 1142 629.846, 1140.088 628.320, 1137.750 627.220 C 1131.526 624.290, 1128.768 620.528, 1127.349 613.031 C 1127.092 611.673, 1126.435 610.025, 1125.890 609.368 C 1125.345 608.711, 1124.670 606.911, 1124.390 605.368 C 1124.110 603.825, 1123.403 601.986, 1122.818 601.281 C 1122.234 600.576, 1122.090 600, 1122.500 600 C 1122.910 600, 1122.717 599.364, 1122.072 598.587 C 1121.427 597.809, 1120.670 595.911, 1120.390 594.368 C 1120.110 592.825, 1119.403 590.986, 1118.818 590.281 C 1118.234 589.576, 1118.090 589, 1118.500 589 C 1118.910 589, 1118.723 588.371, 1118.085 587.602 C 1117.447 586.833, 1116.753 585.371, 1116.543 584.352 C 1116.334 583.333, 1115.403 580.712, 1114.474 578.527 C 1113.546 576.341, 1112.612 573.589, 1112.398 572.410 C 1112.184 571.231, 1111.253 568.519, 1110.329 566.383 C 1109.404 564.247, 1108.493 561.635, 1108.304 560.578 C 1108.115 559.522, 1107.496 558.098, 1106.930 557.415 C 1106.363 556.732, 1105.670 554.911, 1105.390 553.368 C 1105.110 551.825, 1104.403 549.986, 1103.818 549.281 C 1103.234 548.576, 1103.090 548, 1103.500 548 C 1103.910 548, 1103.717 547.364, 1103.072 546.587 C 1102.427 545.809, 1101.670 543.911, 1101.390 542.368 C 1101.110 540.825, 1100.403 538.986, 1099.818 538.281 C 1099.234 537.576, 1099.046 537, 1099.401 537 C 1099.756 537, 1099.248 535.782, 1098.273 534.294 C 1097.298 532.806, 1096.725 531.343, 1097 531.044 C 1097.275 530.745, 1095.926 530.351, 1094.001 530.168 C 1092.077 529.986, 1090.841 530.175, 1091.255 530.588 M 1841.798 532.319 C 1836.470 537.274, 1839.328 546.858, 1846.327 547.508 C 1850.150 547.864, 1850.959 547.460, 1853.308 544.027 C 1855.689 540.548, 1855.412 536.643, 1852.540 533.230 C 1849.479 529.592, 1845.127 529.223, 1841.798 532.319 M 1932 530.940 C 1932 531.523, 1931.397 532, 1930.660 532 C 1928.865 532, 1926.579 539.185, 1927.370 542.338 C 1928.008 544.882, 1932.772 548, 1936.019 548 C 1938.787 548, 1942.793 544.218, 1943.517 540.922 C 1944.374 537.019, 1942.470 532.379, 1939.668 531.544 C 1934.986 530.149, 1932 529.914, 1932 530.940 M 96.188 533.750 C 96.428 535.004, 97.795 535.650, 101.011 536.030 C 103.480 536.322, 106.943 537.420, 108.708 538.471 L 111.915 540.381 111.978 580.685 C 112.012 602.853, 111.762 622.101, 111.421 623.459 C 110.685 626.390, 107.337 627.830, 100.002 628.369 C 97.649 628.542, 96.397 629.179, 96.178 630.313 C 95.881 631.856, 97.820 632, 118.927 632 C 138.529 632, 142 631.780, 142 630.534 C 142 629.527, 140.359 628.838, 136.750 628.330 C 133.863 627.924, 131.162 627.684, 130.750 627.796 C 130.338 627.908, 130 627.475, 130 626.833 C 130 626.192, 129.704 625.963, 129.342 626.325 C 128.980 626.687, 128.099 626.497, 127.383 625.903 C 126.355 625.050, 126.070 616.051, 126.022 583.003 C 125.968 545.974, 126.144 540.999, 127.558 539.584 C 130.291 536.852, 133.016 535.833, 137.590 535.833 C 141.269 535.833, 142 535.516, 142 533.917 C 142 532.083, 140.999 532, 118.927 532 C 97.491 532, 95.877 532.124, 96.188 533.750 M 154.714 537.750 C 154.415 540.913, 154.109 545.862, 154.036 548.750 C 153.916 553.404, 154.132 554, 155.932 554 C 157.306 554, 158.182 553.123, 158.644 551.283 C 159.019 549.789, 160.137 547.696, 161.128 546.632 C 162.120 545.568, 162.720 544.356, 162.463 543.940 C 162.013 543.212, 167.441 538.081, 168.827 537.923 C 169.197 537.881, 170.400 537.620, 171.500 537.343 C 172.600 537.066, 177.208 536.603, 181.739 536.314 L 189.979 535.788 190.239 579.144 C 190.448 613.832, 190.234 622.940, 189.169 624.698 C 188.133 626.410, 186.193 627.173, 180.419 628.143 C 175.620 628.950, 173 629.851, 173 630.695 C 173 631.732, 177.927 632, 197 632 C 217.667 632, 221 631.792, 221 630.500 C 221 629.675, 220.213 628.943, 219.250 628.872 C 218.287 628.802, 216.488 628.577, 215.250 628.372 C 214.012 628.168, 212.135 627.888, 211.078 627.750 C 210.021 627.612, 207.991 626.486, 206.567 625.247 L 203.979 622.995 204.239 579.747 L 204.500 536.500 213 536.530 C 217.675 536.547, 222.400 536.956, 223.500 537.439 C 224.600 537.922, 225.838 538.246, 226.250 538.159 C 226.662 538.071, 227 538.398, 227 538.883 C 227 539.369, 227.849 539.989, 228.886 540.260 C 230.733 540.743, 232.057 542.691, 235.676 550.250 C 236.825 552.649, 238.160 554, 239.383 554 C 241.154 554, 241.246 553.440, 240.647 546.349 C 240.291 542.141, 240 537.191, 240 535.349 L 240 532 197.629 532 L 155.258 532 154.714 537.750 M 337 533.941 C 337 535.493, 337.678 536.028, 339.750 536.115 C 344.985 536.335, 349.449 538.121, 350.299 540.336 C 350.613 541.156, 350.913 559.999, 350.966 582.210 L 351.061 622.594 348.781 624.723 C 347.526 625.894, 345.150 627.152, 343.500 627.519 C 337.723 628.803, 337 629.146, 337 630.599 C 337 631.847, 340.634 632.045, 361.750 631.943 C 386.378 631.825, 396.337 631.002, 400.380 628.751 C 401.546 628.102, 402.725 627.533, 403 627.486 C 405.232 627.109, 408 625.695, 408 624.933 C 408 624.420, 408.675 624, 409.500 624 C 410.325 624, 411 623.550, 411 623 C 411 622.450, 411.397 622, 411.882 622 C 412.891 622, 420.931 614.319, 422.475 611.881 C 425.412 607.242, 427.224 603.494, 427.640 601.199 C 427.896 599.792, 428.406 598.159, 428.774 597.570 C 429.926 595.730, 430.149 593.844, 430.703 581.248 C 431.027 573.869, 430.851 568.500, 430.259 567.748 C 429.718 567.062, 428.913 565.150, 428.469 563.500 C 428.026 561.850, 427.570 560.163, 427.457 559.750 C 427.343 559.337, 427.194 558.648, 427.125 558.217 C 427.056 557.786, 426.120 556.324, 425.044 554.967 C 423.967 553.610, 422.038 550.925, 420.756 549 C 419.474 547.075, 417.205 544.913, 415.713 544.195 C 414.221 543.478, 413 542.465, 413 541.945 C 413 541.425, 412.325 541, 411.500 541 C 410.675 541, 410 540.523, 410 539.941 C 410 539.359, 409.586 539.138, 409.081 539.450 C 408.575 539.763, 407.562 539.436, 406.831 538.723 C 405.806 537.726, 397.493 534.637, 396.272 534.800 C 396.147 534.817, 393.871 534.257, 391.214 533.556 C 388.046 532.721, 377.884 532.213, 361.691 532.082 C 337.366 531.885, 337 531.912, 337 533.941 M 438 533.937 C 438 535.515, 438.696 535.869, 441.750 535.843 C 446.285 535.806, 450.874 537.469, 452.637 539.789 C 453.652 541.126, 453.940 550.251, 453.955 581.500 C 453.965 603.500, 453.711 622.476, 453.391 623.668 C 452.588 626.663, 448.218 628.334, 439.750 628.886 C 438.788 628.949, 438 629.675, 438 630.500 C 438 631.810, 443.433 632, 480.898 632 L 523.796 632 523.931 620.420 C 524.054 609.905, 523.906 608.871, 522.322 609.176 C 521.359 609.362, 519.909 611.300, 519.082 613.506 C 518.259 615.703, 517.226 617.651, 516.787 617.835 C 516.347 618.020, 516.201 618.517, 516.463 618.940 C 517.127 620.014, 513.192 623.272, 508.892 625.208 C 506.016 626.502, 501.502 626.857, 486.642 626.955 L 468 627.078 467.999 604.789 L 467.999 582.500 477.249 583.096 C 482.337 583.423, 487.718 584.192, 489.207 584.804 C 492.473 586.148, 496.872 594.325, 497.247 599.750 C 497.294 600.438, 498.158 601, 499.167 601 C 500.885 601, 501 599.712, 501 580.500 C 501 560.667, 500.935 560, 499 560 C 497.900 560, 496.944 560.675, 496.875 561.500 C 496.572 565.130, 493.844 570.822, 490.660 574.463 C 488.168 577.314, 487.689 577.442, 478.035 577.825 L 468 578.223 468 557.362 L 467.999 536.500 485.543 536.716 C 502.984 536.931, 503.109 536.948, 506.963 539.716 C 510.339 542.140, 515.250 549.549, 515.437 552.500 C 515.472 553.050, 516.400 553.629, 517.500 553.787 C 519.348 554.053, 519.485 553.558, 519.301 547.287 C 519.192 543.554, 519.079 538.587, 519.051 536.250 L 519 532 478.500 532 C 439.103 532, 438 532.053, 438 533.937 M 539.189 533.750 C 539.408 534.893, 540.561 535.568, 542.512 535.695 C 544.156 535.803, 547.525 536.498, 550 537.239 L 554.500 538.588 554.772 580.544 C 554.965 610.414, 554.716 623.119, 553.907 624.648 C 553.283 625.829, 551.360 627.130, 549.636 627.538 C 547.911 627.946, 546.163 628.385, 545.750 628.515 C 545.337 628.644, 543.650 628.806, 542 628.875 C 540.056 628.956, 539 629.528, 539 630.500 C 539 631.809, 544.167 632, 579.500 632 L 620 632 620.093 623.250 C 620.145 618.438, 620.383 611.237, 620.622 607.250 C 621.218 597.322, 619.261 597.479, 614.370 607.750 C 612.341 612.013, 610.640 615.760, 610.590 616.077 C 610.413 617.213, 604.132 623, 603.077 623 C 602.485 623, 602 623.525, 602 624.167 C 602 624.808, 601.704 625.037, 601.342 624.675 C 600.980 624.313, 600.042 624.550, 599.258 625.201 C 598.365 625.942, 592.420 626.547, 583.366 626.820 L 568.901 627.255 569.200 583.646 L 569.500 540.037 572 538.268 C 574.800 536.288, 574.850 536.275, 580.750 536.115 C 584.295 536.019, 585 535.668, 585 534 C 585 532.058, 584.333 532, 561.927 532 C 540.491 532, 538.877 532.124, 539.189 533.750 M 905.189 533.750 C 905.403 534.861, 906.499 535.536, 908.191 535.600 C 913.867 535.813, 919.747 538.150, 920.884 540.645 C 922.065 543.237, 922.541 616.099, 921.413 621.625 C 920.457 626.309, 916.033 628.670, 907.750 628.918 C 906.009 628.970, 905 629.550, 905 630.500 C 905 631.791, 908.278 632, 928.500 632 C 948.722 632, 952 631.791, 952 630.500 C 952 629.528, 950.944 628.956, 949 628.875 C 947.350 628.806, 945.663 628.657, 945.250 628.543 C 944.837 628.430, 943.150 627.963, 941.500 627.507 C 935.827 625.937, 935.910 626.630, 935.978 581.316 C 936.027 549.473, 936.333 539.404, 937.271 538.796 C 939.426 537.399, 946.405 535.692, 949.250 535.865 C 951.396 535.995, 952 535.589, 952 534.016 C 952 532.052, 951.395 532, 928.427 532 C 906.515 532, 904.877 532.123, 905.189 533.750 M 964.077 542.888 C 963.997 551.354, 964.284 553.895, 965.369 554.312 C 966.291 554.665, 967.390 553.430, 968.605 550.674 C 969.617 548.378, 970.907 546.169, 971.472 545.765 C 972.038 545.361, 972.130 545.024, 971.679 545.015 C 970.222 544.988, 977.969 538.245, 980.272 537.535 C 981.498 537.157, 986.438 536.608, 991.250 536.315 L 1000 535.782 999.986 578.641 C 999.979 602.213, 999.717 622.452, 999.405 623.616 C 998.810 625.832, 995.116 627.342, 987.250 628.584 C 984.641 628.996, 983 629.785, 983 630.628 C 983 631.753, 987.327 632, 1007 632 C 1027.212 632, 1031 631.773, 1031 630.561 C 1031 629.609, 1029.392 628.886, 1026.250 628.425 C 1020.293 627.550, 1017.756 626.613, 1015.655 624.512 C 1014.166 623.023, 1014 618.498, 1014 579.278 L 1014 535.698 1023.494 536.322 C 1033.258 536.963, 1036.212 538.044, 1040.750 542.636 C 1041.987 543.888, 1043 545.382, 1043 545.956 C 1043 546.530, 1043.420 547, 1043.933 547 C 1044.804 547, 1046.072 549.764, 1046.614 552.842 C 1046.962 554.819, 1047.520 555.122, 1049.453 554.380 C 1050.777 553.872, 1051.050 553, 1050.596 550.731 C 1050.268 549.091, 1050 544.206, 1050 539.875 L 1050 532 1007.090 532 L 964.180 532 964.077 542.888 M 1147 533.745 C 1147 535.301, 1147.846 535.850, 1150.862 536.255 C 1152.986 536.539, 1155.911 537.550, 1157.362 538.501 L 1160 540.230 1160 582.493 C 1160 615.629, 1159.723 624.985, 1158.719 625.818 C 1157.463 626.861, 1153.453 627.948, 1149.513 628.315 C 1148.421 628.417, 1147.371 629.308, 1147.181 630.296 C 1146.854 631.997, 1148.264 632.070, 1173.668 631.675 C 1200.501 631.257, 1203.460 631.070, 1205.768 629.644 C 1206.445 629.225, 1207 629.189, 1207 629.563 C 1207 629.938, 1207.675 629.685, 1208.500 629 C 1209.325 628.315, 1210 628.050, 1210 628.410 C 1210 628.770, 1211.912 627.991, 1214.250 626.680 C 1222.629 621.979, 1227.849 617.926, 1230.155 614.331 C 1234.432 607.665, 1237.194 602.525, 1237.586 600.500 C 1237.799 599.400, 1238.541 597.150, 1239.235 595.500 C 1240.016 593.640, 1240.489 587.941, 1240.479 580.500 C 1240.462 568.837, 1239.401 563.355, 1235.890 556.795 C 1233.612 552.537, 1223.747 542, 1222.039 542 C 1221.468 542, 1221 541.618, 1221 541.152 C 1221 540.230, 1212.647 536.180, 1212.436 537 C 1212.365 537.275, 1211.563 536.882, 1210.654 536.128 C 1209.744 535.373, 1209 535.012, 1209 535.327 C 1209 535.641, 1207.313 535.170, 1205.250 534.281 C 1202.202 532.967, 1196.395 532.579, 1174.250 532.209 C 1147.553 531.763, 1147 531.794, 1147 533.745 M 1248 533.441 C 1248 535.374, 1248.795 535.757, 1253.500 536.086 C 1255.700 536.240, 1257.950 536.614, 1258.500 536.917 C 1259.050 537.221, 1259.937 537.476, 1260.470 537.485 C 1263.659 537.535, 1264.004 542.355, 1263.751 583.393 L 1263.500 624.285 1261 626.094 C 1259.625 627.088, 1256.250 628.074, 1253.500 628.283 C 1249.825 628.564, 1248.414 629.107, 1248.177 630.332 C 1247.879 631.868, 1251.211 632, 1290.313 632 L 1332.773 632 1333.341 627.750 C 1333.653 625.413, 1333.928 620.237, 1333.951 616.250 C 1333.991 609.471, 1333.853 609, 1331.830 609 C 1330.640 609, 1329.932 609.265, 1330.255 609.589 C 1330.579 609.912, 1329.614 612.275, 1328.111 614.839 C 1326.608 617.402, 1325.080 620.294, 1324.715 621.265 C 1324.125 622.833, 1321.610 624.309, 1317 625.789 C 1316.175 626.054, 1307.079 626.471, 1296.787 626.717 L 1278.074 627.162 1277.787 604.831 L 1277.500 582.500 1285.500 582.743 C 1289.900 582.877, 1294.232 583.120, 1295.126 583.284 C 1297.239 583.670, 1304.054 589.103, 1303.517 589.973 C 1303.290 590.340, 1303.980 592.083, 1305.052 593.845 C 1306.123 595.607, 1307 597.937, 1307 599.024 C 1307 600.114, 1307.673 601, 1308.500 601 C 1309.785 601, 1310 598.056, 1310 580.500 C 1310 560.062, 1309.372 556.562, 1306.814 562.750 C 1306.189 564.263, 1305.712 565.726, 1305.756 566.002 C 1305.799 566.277, 1304.622 568.302, 1303.141 570.502 C 1299.313 576.184, 1295.117 577.997, 1285.789 577.998 L 1278.077 578 1277.789 557.250 L 1277.500 536.500 1295.500 537 C 1314.373 537.524, 1318.112 538.344, 1320.408 542.458 C 1321.008 543.535, 1322.045 545.012, 1322.711 545.740 C 1323.377 546.468, 1324.214 548.625, 1324.572 550.532 C 1325.042 553.036, 1325.748 554, 1327.111 554 C 1328.848 554, 1329 553.117, 1329 543 L 1329 532 1288.500 532 C 1253.904 532, 1248 532.210, 1248 533.441 M 1349 533.917 C 1349 535.516, 1349.731 535.833, 1353.410 535.833 C 1357.975 535.833, 1360.710 536.853, 1363.422 539.565 C 1364.809 540.952, 1365 546.203, 1365 582.949 C 1365 627.510, 1365.107 626.516, 1360.192 627.463 C 1359.086 627.676, 1356.115 628.160, 1353.590 628.539 C 1350.675 628.976, 1349 629.733, 1349 630.614 C 1349 632.644, 1428.522 632.687, 1429.301 630.657 C 1429.585 629.918, 1429.862 624.181, 1429.918 617.907 C 1429.973 611.633, 1430.289 605.038, 1430.621 603.250 C 1431.125 600.529, 1430.919 600, 1429.355 600 C 1427.438 600, 1426.315 601.940, 1423.610 609.929 C 1422.785 612.366, 1421.401 614.756, 1420.534 615.241 C 1419.667 615.726, 1419.176 616.476, 1419.443 616.908 C 1419.710 617.340, 1418.595 618.972, 1416.964 620.534 C 1415.334 622.096, 1414 623.055, 1414 622.664 C 1414 622.273, 1412.807 622.735, 1411.350 623.690 C 1407.694 626.086, 1407.207 626.163, 1392.250 626.707 L 1379 627.189 1379 585.045 C 1379 538.309, 1379.059 537.838, 1385.082 536.634 C 1386.824 536.285, 1389.544 536, 1391.125 536 C 1393.333 536, 1394 535.536, 1394 534 C 1394 532.059, 1393.333 532, 1371.500 532 C 1349.993 532, 1349 532.085, 1349 533.917 M 1540.728 534.552 C 1539.060 536.098, 1537.488 536.799, 1536.738 536.330 C 1535.421 535.507, 1535.389 535.497, 1530 534.300 C 1524.587 533.097, 1511.068 533.538, 1507 535.051 C 1506.725 535.153, 1506.162 535.184, 1505.750 535.118 C 1505.338 535.053, 1505 535.477, 1505 536.059 C 1505 536.641, 1504.601 536.871, 1504.113 536.570 C 1503.626 536.269, 1502.671 536.692, 1501.991 537.511 C 1501.311 538.330, 1500.346 539, 1499.847 539 C 1498.585 539, 1492.985 545.499, 1490.097 550.315 C 1486.368 556.535, 1486.605 570.748, 1490.504 574.647 C 1491.402 575.545, 1492.835 577.345, 1493.688 578.646 C 1495.034 580.701, 1506.143 586.893, 1509.363 587.383 C 1509.988 587.478, 1511.063 587.908, 1511.750 588.337 C 1512.438 588.767, 1513 588.851, 1513 588.524 C 1513 588.197, 1514.013 588.492, 1515.250 589.179 C 1516.487 589.867, 1517.838 590.501, 1518.250 590.590 C 1518.662 590.678, 1519.225 590.862, 1519.500 591 C 1519.775 591.138, 1520.338 591.322, 1520.750 591.410 C 1521.162 591.499, 1522.513 592.133, 1523.750 592.821 C 1524.987 593.508, 1526 593.814, 1526 593.500 C 1526 592.840, 1529.758 594.747, 1531.685 596.385 C 1539.138 602.721, 1539.495 603.307, 1539.667 609.476 C 1539.760 612.766, 1539.541 615.917, 1539.183 616.479 C 1538.824 617.041, 1538.524 617.834, 1538.515 618.243 C 1538.489 619.528, 1532.704 626, 1531.576 626.006 C 1530.984 626.010, 1529.275 626.651, 1527.778 627.432 C 1525.199 628.778, 1516.544 628.892, 1511.500 627.647 C 1510.400 627.375, 1509.254 627.119, 1508.953 627.077 C 1508.150 626.964, 1504.028 623.807, 1501.606 621.450 C 1497.698 617.646, 1494.846 613.526, 1492.473 608.250 C 1490.734 604.386, 1489.567 603, 1488.055 603 C 1486.067 603, 1486 603.524, 1486 619 C 1486 636.208, 1486.363 637.238, 1491.021 633.250 C 1492.145 632.288, 1493.206 631.725, 1493.379 632 C 1493.551 632.275, 1494.382 631.928, 1495.225 631.229 C 1496.366 630.281, 1497.460 630.224, 1499.515 631.006 C 1508.301 634.346, 1532.652 634.305, 1533.833 630.947 C 1534.017 630.426, 1534.748 630, 1535.458 630 C 1537.146 630, 1545.145 622.209, 1546.751 619 C 1550.807 610.897, 1552.104 599.579, 1549.651 593.706 C 1547.824 589.335, 1541.429 582.902, 1536.250 580.227 C 1533.912 579.020, 1532 578.266, 1532 578.551 C 1532 578.837, 1530.987 578.508, 1529.750 577.821 C 1528.513 577.133, 1527.162 576.499, 1526.750 576.410 C 1526.338 576.322, 1525.888 576.159, 1525.750 576.048 C 1525.612 575.938, 1524.825 575.693, 1524 575.505 C 1521.111 574.846, 1509.468 569.795, 1506.132 567.753 C 1502.297 565.405, 1499.096 559.217, 1499.639 555.198 C 1500.429 549.342, 1501.652 546.134, 1503.910 543.992 C 1506.211 541.810, 1511 538.843, 1511 539.599 C 1511 539.954, 1511.563 539.783, 1512.250 539.217 C 1513.355 538.309, 1518.726 538.340, 1523 539.279 C 1525.997 539.938, 1531.553 543.347, 1533.778 545.893 C 1537.050 549.636, 1537.249 549.955, 1539.921 555.750 C 1541.552 559.287, 1542.939 561, 1544.171 561 C 1545.859 561, 1546 559.882, 1546 546.500 C 1546 530.645, 1545.693 529.948, 1540.728 534.552 M 364.770 581.764 C 364.621 607.089, 364.764 627.647, 365.086 627.447 C 365.409 627.247, 370.809 627.019, 377.086 626.939 C 384.350 626.847, 389.954 626.256, 392.500 625.315 C 394.700 624.502, 397.512 623.596, 398.750 623.301 C 399.988 623.007, 401 622.369, 401 621.883 C 401 621.398, 401.637 621, 402.416 621 C 403.195 621, 405.107 619.313, 406.666 617.250 C 411.561 610.773, 411.731 610.350, 414.615 597.500 C 415.128 595.214, 415.092 573.020, 414.568 568.500 C 414.376 566.850, 413.752 564.038, 413.180 562.250 C 412.608 560.462, 412.388 559, 412.692 559 C 412.996 559, 412.685 558.325, 412 557.500 C 411.315 556.675, 411.066 556, 411.446 556 C 411.825 556, 411.206 554.693, 410.068 553.096 C 408.931 551.498, 408 549.879, 408 549.497 C 408 548.512, 401.971 543, 400.894 543 C 400.402 543, 400 542.550, 400 542 C 400 541.450, 399.579 541, 399.065 541 C 398.551 541, 397.088 540.604, 395.815 540.120 C 394.542 539.636, 393.232 539.298, 392.904 539.370 C 392.576 539.441, 391.596 538.909, 390.726 538.187 C 389.715 537.348, 384.794 536.666, 377.092 536.297 L 365.040 535.719 364.770 581.764 M 1174.750 536.562 C 1174.338 536.986, 1173.999 557.621, 1173.999 582.417 L 1173.998 627.500 1182.704 627.297 C 1192.800 627.061, 1202.470 625.984, 1203.750 624.952 C 1203.888 624.841, 1204.338 624.673, 1204.750 624.578 C 1208.615 623.691, 1216.221 618.469, 1217.617 615.745 C 1218.531 613.960, 1219.779 612.169, 1220.390 611.765 C 1221 611.361, 1221.151 611.024, 1220.724 611.015 C 1220.298 611.007, 1220.644 609.655, 1221.495 608.010 C 1222.345 606.366, 1223.031 604.791, 1223.020 604.510 C 1223.009 604.230, 1223.034 603.888, 1223.077 603.750 C 1224.666 598.555, 1225.236 570.866, 1223.874 565 C 1222.804 560.392, 1221.585 557.033, 1219.699 553.500 C 1219.112 552.400, 1217.998 550.245, 1217.224 548.712 C 1215.831 545.955, 1210.633 541.410, 1209.695 542.128 C 1209.428 542.333, 1208.263 541.643, 1207.105 540.595 C 1205.947 539.547, 1205 538.941, 1205 539.247 C 1205 539.554, 1202.862 539.144, 1200.250 538.336 C 1194.929 536.692, 1175.911 535.369, 1174.750 536.562 M 1885.500 542.411 C 1883.850 543.134, 1881.263 544.228, 1879.750 544.842 C 1877.021 545.949, 1877 546.029, 1877 555.479 C 1877 561.076, 1876.588 565.052, 1876 565.125 C 1875.450 565.194, 1874.662 565.340, 1874.250 565.450 C 1873.838 565.560, 1871.416 565.996, 1868.869 566.421 C 1864.978 567.068, 1864.317 567.496, 1864.735 569.096 C 1865.154 570.696, 1866.173 571, 1871.117 571 L 1877 571 1877.125 594 C 1877.194 606.650, 1877.327 617.337, 1877.420 617.750 C 1877.514 618.163, 1877.922 620.075, 1878.326 622 C 1879.103 625.692, 1882.428 630.133, 1885.605 631.722 C 1889.223 633.532, 1896.614 633.240, 1900.653 631.128 C 1905.387 628.654, 1911 623.403, 1911 621.449 C 1911 620.652, 1911.477 620, 1912.059 620 C 1912.641 620, 1912.840 619.550, 1912.500 619 C 1911.414 617.242, 1909.466 617.915, 1906.090 621.216 C 1903.382 623.864, 1902 624.438, 1898.263 624.466 C 1894.429 624.495, 1893.396 624.062, 1891.612 621.679 C 1889.601 618.993, 1889.500 617.720, 1889.500 595.179 L 1889.500 571.500 1900.250 571.216 L 1911 570.932 1911 568 L 1911 565.068 1900.250 564.784 L 1889.500 564.500 1889 552.798 L 1888.500 541.095 1885.500 542.411 M 1088.460 549.707 C 1088.027 550.693, 1087.627 551.725, 1087.571 552 C 1087.515 552.275, 1087.113 553.061, 1086.678 553.746 C 1086.243 554.432, 1085.697 556.007, 1085.464 557.246 C 1085.232 558.486, 1084.592 560.400, 1084.041 561.500 C 1082.939 563.704, 1080.868 569.212, 1080.845 570 C 1080.837 570.275, 1080.401 571.017, 1079.877 571.648 C 1079.353 572.279, 1078.726 573.854, 1078.483 575.148 C 1078.240 576.442, 1077.592 578.400, 1077.041 579.500 C 1075.728 582.126, 1073.760 587.174, 1073.435 588.750 C 1073.237 589.707, 1076.771 590, 1088.500 590 C 1100.207 590, 1103.772 589.705, 1103.607 588.750 C 1103.154 586.132, 1100.697 579.447, 1099.747 578.250 C 1099.202 577.563, 1099.090 577, 1099.500 577 C 1099.910 577, 1099.798 576.438, 1099.253 575.750 C 1098.273 574.515, 1096.112 568.469, 1095.479 565.190 C 1095.300 564.261, 1095.062 563.388, 1094.952 563.250 C 1094.841 563.112, 1094.675 562.663, 1094.582 562.250 C 1094.200 560.539, 1091.693 553.425, 1091.147 552.500 C 1090.822 551.950, 1090.465 550.896, 1090.353 550.158 C 1090.022 547.968, 1089.299 547.796, 1088.460 549.707 M 277.402 553.218 C 276.356 555.537, 275.493 557.675, 275.485 557.968 C 275.476 558.260, 275.108 559.070, 274.665 559.766 C 274.223 560.463, 273.650 562.201, 273.391 563.628 C 273.132 565.056, 271.806 568.423, 270.443 571.112 C 269.081 573.800, 268.254 576, 268.606 576 C 268.957 576, 268.717 576.636, 268.072 577.413 C 267.427 578.191, 266.670 580.089, 266.390 581.632 C 266.110 583.175, 265.528 584.902, 265.096 585.469 C 264.664 586.036, 264.030 587.288, 263.687 588.250 C 263.109 589.870, 264.252 590, 279.019 590 L 294.975 590 292.542 584.500 C 291.205 581.475, 290.365 579, 290.677 579 C 290.990 579, 290.627 578.256, 289.872 577.346 C 289.118 576.437, 288.644 575.649, 288.820 575.596 C 288.996 575.543, 288.647 574.201, 288.043 572.614 C 287.440 571.026, 286.833 569.001, 286.694 568.114 C 286.555 567.226, 286.091 565.938, 285.662 565.250 C 285.233 564.563, 285.128 564, 285.428 564 C 285.729 564, 284.880 561.525, 283.542 558.500 C 282.205 555.475, 281.365 553, 281.677 553 C 281.990 553, 281.744 552.396, 281.131 551.658 C 280.519 550.920, 280.313 550.020, 280.675 549.658 C 281.037 549.296, 280.877 549, 280.319 549 C 279.760 549, 278.448 550.898, 277.402 553.218 M 1580.842 565.054 C 1576.026 566.684, 1566.292 574.408, 1566.102 576.750 C 1566.046 577.438, 1565.580 578, 1565.067 578 C 1564.279 578, 1563.099 580.342, 1562.424 583.250 C 1562.328 583.663, 1562.138 584.225, 1562 584.500 C 1561.862 584.775, 1561.638 585.450, 1561.500 586 C 1561.362 586.550, 1561.159 587.112, 1561.048 587.250 C 1560.091 588.437, 1559.581 603.383, 1560.340 608 C 1561.120 612.744, 1562.219 616, 1563.041 616 C 1563.494 616, 1564.176 616.978, 1564.555 618.173 C 1566.313 623.712, 1573.208 629.491, 1579.479 630.681 C 1580.567 630.888, 1581.894 631.494, 1582.429 632.029 C 1583.722 633.322, 1593.624 633.269, 1598.007 631.945 C 1599.928 631.365, 1602.367 630.701, 1603.427 630.469 C 1604.486 630.237, 1605.717 629.474, 1606.161 628.773 C 1606.606 628.073, 1606.976 627.774, 1606.985 628.109 C 1607.009 629.082, 1616 620.067, 1616 619.069 C 1616 618.573, 1616.510 617.997, 1617.133 617.789 C 1617.824 617.559, 1617.989 616.541, 1617.556 615.176 C 1616.878 613.039, 1616.603 613.162, 1611.381 617.934 C 1603.483 625.153, 1594.836 626.925, 1586.339 623.067 C 1582.055 621.122, 1577.308 617.077, 1577.750 615.750 C 1577.888 615.337, 1577.580 615, 1577.067 615 C 1575.515 615, 1573.934 609.128, 1572.559 598.250 L 1572.275 596 1595.266 596 L 1618.258 596 1617.602 591.250 C 1616.881 586.020, 1616.236 582.500, 1616 582.500 C 1615.916 582.500, 1615.702 581.755, 1615.526 580.844 C 1615.016 578.218, 1613.818 576.501, 1608.794 571.201 C 1604.648 566.828, 1603.279 566.055, 1597.294 564.706 C 1589.186 562.879, 1587.136 562.923, 1580.842 565.054 M 1657.811 563.510 C 1657.640 563.674, 1655.925 563.941, 1654 564.102 C 1652.075 564.264, 1649.938 564.812, 1649.250 565.320 C 1648.563 565.829, 1648 565.953, 1648 565.597 C 1648 564.100, 1641.728 568.367, 1637.048 573.048 C 1628.699 581.396, 1627.581 584.460, 1627.581 599 C 1627.581 609.981, 1627.888 611.950, 1630.339 616.688 C 1631.959 619.821, 1640.990 629.662, 1641.015 628.321 C 1641.024 627.870, 1641.398 628.079, 1641.846 628.786 C 1642.295 629.493, 1643.962 630.307, 1645.550 630.595 C 1647.138 630.883, 1648.902 631.483, 1649.469 631.929 C 1650.961 633.102, 1661.930 633.191, 1665.823 632.062 C 1669.492 630.997, 1680 624.355, 1680 623.100 C 1680 622.663, 1680.913 621.254, 1682.028 619.967 C 1683.817 617.905, 1683.882 617.454, 1682.581 616.152 C 1681.279 614.851, 1680.773 615.031, 1678.302 617.674 C 1675.600 620.564, 1665.815 625, 1662.141 625 C 1658.412 625, 1651.162 621.787, 1648.072 618.766 C 1645.295 616.051, 1642.001 611.086, 1641.940 609.524 C 1641.930 609.251, 1641.342 607.334, 1640.635 605.264 C 1639.419 601.707, 1639.245 590.018, 1640.339 585.367 C 1641.084 582.197, 1644.625 575.858, 1647.314 572.880 C 1651.878 567.827, 1660.636 566.775, 1668.143 570.378 L 1671.787 572.127 1669.340 574.768 C 1665.459 578.955, 1666.996 585.417, 1672.329 587.339 C 1677.522 589.210, 1682.538 583.780, 1681.657 577.242 C 1681.383 575.213, 1680.674 573.391, 1680.080 573.193 C 1679.486 572.995, 1679 572.233, 1679 571.498 C 1679 569.763, 1672.896 566.012, 1668.189 564.855 C 1663.929 563.807, 1658.266 563.073, 1657.811 563.510 M 1978.312 564.716 C 1976.216 565.424, 1973.399 566.565, 1972.052 567.252 C 1969.377 568.616, 1960.356 577, 1961.563 577 C 1961.974 577, 1961.598 577.788, 1960.727 578.750 C 1955.816 584.181, 1953.698 604.802, 1957.340 611.740 C 1958.275 613.521, 1958.966 615.256, 1958.875 615.594 C 1958.784 615.933, 1959.236 616.950, 1959.879 617.855 C 1960.522 618.760, 1961.940 620.978, 1963.030 622.784 C 1964.120 624.590, 1965.796 626.357, 1966.756 626.711 C 1967.715 627.065, 1968.757 627.734, 1969.072 628.198 C 1969.387 628.663, 1972.087 629.944, 1975.072 631.047 C 1981.212 633.314, 1990.598 633.497, 1995.668 631.450 C 1997.411 630.746, 1999.034 630.368, 1999.276 630.609 C 1999.517 630.851, 2000.284 630.362, 2000.980 629.524 C 2001.676 628.686, 2002.584 628, 2002.999 628 C 2004.311 628, 2011.456 620.616, 2012.938 617.730 C 2014.010 615.641, 2014.077 614.677, 2013.208 613.808 C 2012.340 612.940, 2011.528 613.330, 2009.904 615.395 C 2008.123 617.659, 2000.830 623.115, 1999 623.553 C 1998.725 623.619, 1997.696 624.026, 1996.714 624.457 C 1995.113 625.160, 1987.495 624.776, 1982.670 623.749 C 1981.664 623.535, 1979.189 621.794, 1977.170 619.882 C 1973.800 616.689, 1972.943 615.358, 1969.997 608.750 C 1969.445 607.513, 1968.869 604.138, 1968.716 601.250 L 1968.438 596 1991.319 596 L 2014.199 596 2013.569 591.250 C 2012.866 585.947, 2012.271 582.626, 2011.958 582.250 C 2011.844 582.112, 2011.672 581.663, 2011.576 581.250 C 2010.864 578.186, 2009.694 576, 2008.766 576 C 2008.161 576, 2007.933 575.734, 2008.258 575.409 C 2008.927 574.739, 2003.409 569.131, 1999.850 566.864 C 1997.352 565.273, 1987.963 563.129, 1984.312 563.316 C 1983.109 563.378, 1980.409 564.008, 1978.312 564.716 M 2043 563.730 C 2042.175 563.966, 2040.825 564.416, 2040 564.730 C 2039.175 565.045, 2037.870 565.429, 2037.100 565.585 C 2036.330 565.740, 2035.430 566.234, 2035.100 566.684 C 2034.770 567.133, 2033.600 567.995, 2032.500 568.601 C 2029.108 570.468, 2024.880 579.891, 2025.365 584.500 C 2025.993 590.463, 2026.346 591.435, 2029.051 594.649 C 2031.094 597.077, 2039.351 602.055, 2042.250 602.607 C 2042.662 602.686, 2043.112 602.840, 2043.250 602.949 C 2043.388 603.059, 2044.451 603.328, 2045.614 603.547 C 2046.776 603.766, 2049.026 604.477, 2050.614 605.127 C 2052.201 605.776, 2054.018 606.417, 2054.651 606.551 C 2056.745 606.993, 2061.931 611.302, 2061.402 612.159 C 2061.116 612.622, 2061.299 613, 2061.809 613 C 2062.907 613, 2062.659 619.639, 2061.454 622.500 C 2060.507 624.748, 2058 627.558, 2058 626.371 C 2058 625.947, 2057.460 626.140, 2056.800 626.800 C 2054.390 629.210, 2041.036 627.477, 2041.008 624.750 C 2041.004 624.337, 2040.310 624, 2039.466 624 C 2038.623 624, 2037.003 622.425, 2035.867 620.500 C 2034.732 618.575, 2033.507 617, 2033.145 617 C 2032.784 617, 2031.891 615.650, 2031.160 614 C 2030.213 611.861, 2029.139 611, 2027.416 611 C 2025.008 611, 2025 611.035, 2025 622 C 2025 632.291, 2025.127 633, 2026.977 633 C 2028.064 633, 2029.696 631.867, 2030.603 630.483 C 2031.896 628.509, 2032.550 628.212, 2033.626 629.105 C 2034.382 629.732, 2035 629.949, 2035 629.587 C 2035 629.226, 2036.013 629.486, 2037.250 630.167 C 2040.696 632.061, 2042.022 632.323, 2048.500 632.386 C 2056.596 632.465, 2059.352 631.681, 2064.046 627.963 C 2069.506 623.639, 2070.228 622.155, 2071.649 612.321 C 2072.481 606.557, 2071.628 603.954, 2067.521 599.725 C 2063.695 595.785, 2059.285 593.437, 2052 591.463 C 2051.725 591.388, 2050.600 590.968, 2049.500 590.529 C 2037.303 585.660, 2035.033 583.634, 2035.436 577.977 C 2035.889 571.616, 2042.924 567.040, 2050.217 568.363 C 2053.531 568.964, 2057.749 571.911, 2058.513 574.158 C 2058.823 575.069, 2059.763 576.079, 2060.601 576.401 C 2061.440 576.722, 2061.847 577.439, 2061.504 577.993 C 2061.162 578.547, 2061.306 579, 2061.824 579 C 2062.343 579, 2063.002 579.900, 2063.290 581 C 2063.643 582.351, 2064.654 583, 2066.406 583 L 2069 583 2069 573 C 2069 562.335, 2068.205 560.906, 2064.529 564.968 C 2063.230 566.404, 2062.283 566.687, 2061.029 566.015 C 2057.731 564.250, 2046.266 562.797, 2043 563.730 M 1691.750 564.816 C 1689.585 565.066, 1689 565.654, 1689 567.582 C 1689 569.609, 1689.475 570.017, 1691.750 569.944 C 1694.925 569.843, 1697.008 570.249, 1698.682 571.295 C 1699.530 571.825, 1699.892 578.523, 1699.963 595.049 C 1700.063 618.147, 1700.500 624, 1702.125 624 C 1702.606 624, 1702.888 624.338, 1702.750 624.752 C 1702.229 626.319, 1709.397 631.984, 1712.680 632.600 C 1720 633.973, 1732.424 630.370, 1740.504 624.531 C 1742.437 623.134, 1742.495 623.241, 1742.153 627.541 L 1741.799 632 1753.399 632 L 1765 632 1765 629.456 C 1765 627.964, 1764.483 627.008, 1763.750 627.145 C 1761.657 627.534, 1755.547 625.820, 1754.765 624.624 C 1754.361 624.006, 1754.024 610.046, 1754.015 593.603 L 1754 563.707 1746.349 564.353 C 1742.141 564.709, 1736.935 565, 1734.780 565 C 1731.288 565, 1730.896 565.245, 1731.180 567.250 C 1731.400 568.795, 1732.284 569.593, 1734 569.797 C 1735.375 569.960, 1737.737 570.577, 1739.250 571.168 L 1742 572.243 1742 595.596 L 1742 618.949 1738.750 620.670 C 1734.195 623.082, 1733.266 623.295, 1726.500 623.478 C 1722.525 623.586, 1719.487 623.082, 1717.500 621.985 C 1715.850 621.074, 1714.689 620.142, 1714.919 619.914 C 1715.149 619.686, 1714.715 618.375, 1713.954 617 C 1712.112 613.671, 1712.266 616.064, 1712.125 588.471 L 1712 563.942 1703.250 564.221 C 1698.438 564.374, 1693.263 564.642, 1691.750 564.816 M 1775.250 564.813 C 1772.534 565.075, 1772 565.537, 1772 567.626 C 1772 569.425, 1772.491 570.063, 1773.750 569.904 C 1777.070 569.483, 1780.809 571.162, 1781.392 573.335 C 1782.370 576.981, 1782.037 623.393, 1781.021 625 C 1780.003 626.611, 1779.750 626.685, 1774.639 626.875 C 1771.615 626.987, 1771.325 627.251, 1771.755 629.500 L 1772.233 632 1789.617 632 L 1807 632 1807 629.500 C 1807 627.223, 1806.618 627, 1802.723 627 C 1800.370 627, 1797.477 626.322, 1796.294 625.494 C 1794.212 624.035, 1794.140 623.298, 1794.039 602.389 L 1793.934 580.791 1796.558 578.359 C 1800.385 574.812, 1803.143 573.180, 1806.250 572.624 C 1808.724 572.182, 1809 572.420, 1809 574.994 C 1809 578.636, 1813.087 582, 1817.512 582 C 1821.662 582, 1823.191 580.091, 1823.746 574.217 C 1824.352 567.803, 1821.249 564.703, 1813.884 564.365 C 1807.824 564.087, 1803.508 566.215, 1797.869 572.262 L 1794 576.412 1794 570.221 L 1794 564.030 1786.250 564.265 C 1781.987 564.394, 1777.037 564.641, 1775.250 564.813 M 1833.689 564.814 C 1830.416 565.084, 1829.922 565.437, 1830.189 567.314 C 1830.433 569.029, 1831.230 569.536, 1833.891 569.669 C 1835.755 569.761, 1837.661 570.436, 1838.125 571.169 C 1838.590 571.901, 1839.008 572.050, 1839.055 571.500 C 1839.102 570.950, 1839.527 571.400, 1840 572.500 C 1841.111 575.085, 1841.234 623.082, 1840.135 624.816 C 1839.247 626.217, 1837.205 626.800, 1832.750 626.923 C 1830.504 626.986, 1830 627.458, 1830 629.500 L 1830 632 1847.070 632 L 1864.139 632 1863.820 629.750 C 1863.561 627.933, 1862.686 627.391, 1859.269 626.935 C 1855.038 626.371, 1853.610 625.639, 1853.375 623.917 C 1853.306 623.413, 1853.194 609.752, 1853.125 593.561 L 1853 564.121 1845.250 564.311 C 1840.987 564.415, 1835.785 564.641, 1833.689 564.814 M 1927.186 564.745 C 1919.266 565.067, 1918.887 565.188, 1919.186 567.291 C 1919.382 568.670, 1920.252 569.550, 1921.500 569.632 C 1929.524 570.164, 1929.468 569.967, 1929.737 598.427 C 1929.867 612.217, 1929.642 624.015, 1929.237 624.645 C 1928.832 625.274, 1926.475 626.187, 1924 626.672 C 1920.447 627.370, 1919.433 628.023, 1919.180 629.778 C 1918.861 631.997, 1918.883 632, 1935.314 632 L 1951.767 632 1952.245 629.500 C 1952.678 627.234, 1952.408 627, 1949.361 627 C 1947.513 627, 1945.844 627.112, 1945.654 627.250 C 1945.463 627.388, 1944.563 626.882, 1943.654 626.128 C 1942.182 624.906, 1942 621.415, 1942 594.378 L 1942 564 1938.750 564.204 C 1936.963 564.315, 1931.759 564.559, 1927.186 564.745 M 1581.818 570.710 C 1578.161 573.539, 1575.270 577.863, 1574.603 581.500 C 1574.401 582.600, 1573.913 585.444, 1573.518 587.820 L 1572.800 592.141 1588.118 591.519 C 1596.543 591.177, 1603.641 590.692, 1603.892 590.441 C 1604.143 590.190, 1604.301 587.483, 1604.244 584.424 C 1603.998 571.288, 1591.193 563.458, 1581.818 570.710 M 1980 568.722 C 1977.765 569.578, 1973.691 574.095, 1972.084 577.500 C 1970.444 580.974, 1970.446 580.970, 1969.186 587.325 L 1968.230 592.150 1981.865 591.588 C 1989.364 591.279, 1996.627 591.021, 1998.004 591.013 C 2000.403 591.001, 2000.497 590.770, 2000.256 585.440 C 2000.119 582.382, 1999.458 578.894, 1998.788 577.690 C 1998.119 576.485, 1997.555 575.257, 1997.535 574.961 C 1997.516 574.664, 1996.097 573.050, 1994.383 571.374 C 1991.811 568.860, 1990.410 568.311, 1986.383 568.237 C 1983.697 568.188, 1980.825 568.406, 1980 568.722" stroke="none" fill="#1c346c" fill-rule="evenodd"/></svg>