<svg width="255" height="78" viewBox="0 0 255 78" fill="none" xmlns="http://www.w3.org/2000/svg">
<path d="M16.266 48.6724H6.66699V24.7432H0.12793V16.9523H6.66673V11.4086C6.66673 4.8392 9.55885 0.127686 19.1319 0.127686C21.1566 0.127686 24.3354 0.535787 24.3354 0.535787V7.77004H20.9967C17.5948 7.77004 16.2666 8.80482 16.2666 11.6656V16.9523H24.208L23.5008 24.7432H16.2663L16.266 48.6724ZM38.2913 16.3297C38.1515 16.3297 38.0075 16.3348 37.8651 16.3384C28.9643 16.3384 24.892 23.0336 24.892 32.5376C24.892 44.5102 30.1744 49.3019 37.9347 49.3019C42.3746 49.3019 45.2917 47.4331 47.0647 43.9457V48.6758H56.1948V16.9556H47.0647V21.8338C45.617 18.6953 42.6184 16.3669 38.2913 16.3297ZM40.6128 23.8251C44.3512 23.8251 46.595 26.4327 46.595 30.868L46.6037 35.3982C46.6037 38.3876 44.7504 41.885 40.6128 41.885C34.2518 41.885 34.4217 35.0166 34.4217 32.729C34.4217 25.0339 37.8109 23.8251 40.6128 23.8251ZM59.882 32.8174C59.882 28.9628 59.6976 16.3504 76.1296 16.3504C82.7258 16.3504 85.4801 18.4477 85.4801 18.4477L83.2663 25.3138C83.2663 25.3138 80.5156 23.7991 76.9313 23.7991C72.3406 23.7991 69.4113 26.4604 69.4113 31.1429L69.4163 34.5005C69.4163 38.9998 72.2427 42.0032 76.9408 42.0032C80.2061 42.0032 83.2156 40.4742 83.2156 40.4742L85.4238 47.197C85.4238 47.197 82.9054 49.3075 76.1758 49.3075C60.5298 49.3075 59.8822 37.9917 59.8822 32.8174H59.882ZM139.013 16.3384C147.914 16.3384 152.051 23.0336 152.051 32.5376C152.051 44.5102 146.768 49.3019 139.008 49.3019C134.568 49.3019 131.286 47.4334 129.513 43.9457V48.6758L120.497 48.6722V1.09215L130.069 0.257351V21.404C131.451 17.7043 135.991 16.3384 139.013 16.3384H139.013ZM136.33 23.8251C132.591 23.8251 130.069 26.4327 130.069 30.868L130.06 35.3982C130.055 38.3876 131.807 41.885 136.33 41.885C142.691 41.885 142.521 35.0166 142.521 32.729C142.521 25.0339 139.132 23.8251 136.33 23.8251ZM102.088 16.3646C91.9924 16.3646 86.6626 21.8689 86.6626 31.6506V33.468C86.6626 46.1637 94.1473 49.4324 103.07 49.4324C111.744 49.4324 115.67 47.0064 115.67 47.0064L113.879 40.5461C113.879 40.5461 109.261 42.5109 104.218 42.5109C98.9907 42.5109 96.7426 41.1786 96.1664 36.155H116.435V30.9722C116.435 20.3616 110.453 16.3644 102.088 16.3644L102.088 16.3646ZM102.331 22.8336C105.826 22.8336 108.09 24.9766 107.966 29.9464H96.184C96.3883 24.7157 98.8302 22.8339 102.331 22.8339V22.8336ZM171.136 16.3211C160.769 16.3211 155.311 22.1634 155.311 32.6332C155.311 46.9983 164.719 49.3106 171.154 49.3106C180.573 49.3106 186.84 44.2394 186.84 32.7636C186.84 20.8194 179.794 16.3211 171.136 16.3211V16.3211ZM171.006 23.8511C175.565 23.8511 177.371 27.2629 177.371 31.1465V34.4854C177.371 39.1901 174.843 41.9113 170.989 41.9113C167.383 41.9113 164.85 39.3658 164.85 34.4854V31.1465C164.85 25.9415 167.865 23.8511 171.006 23.8511V23.8511ZM205.909 16.3211C195.541 16.3211 190.083 22.1634 190.083 32.6332C190.083 46.9983 199.492 49.3106 205.926 49.3106C215.345 49.3106 221.612 44.2394 221.612 32.7636C221.612 20.8194 214.566 16.3211 205.909 16.3211V16.3211ZM205.778 23.8511C210.337 23.8511 212.143 27.2629 212.143 31.1465V34.4854C212.143 39.1901 209.615 41.9113 205.761 41.9113C202.156 41.9113 199.622 39.3658 199.622 34.4854V31.1465C199.622 25.9415 202.637 23.8511 205.778 23.8511V23.8511ZM225.229 48.6724V1.09215L234.829 0.257351V32.1487L244.353 16.9523H254.491L244.555 32.6913L254.873 48.6724H244.707L234.829 33.1549V48.6724H225.229Z" fill="#1877F2"/>
</svg>
