<svg width="192" height="78" viewBox="0 0 192 78" fill="none" xmlns="http://www.w3.org/2000/svg">
<path d="M81.7791 33.3337C81.7791 42.356 74.7209 49.0044 66.059 49.0044C57.397 49.0044 50.3389 42.356 50.3389 33.3337C50.3389 24.2479 57.397 17.6631 66.059 17.6631C74.7209 17.6631 81.7791 24.2479 81.7791 33.3337ZM74.8976 33.3337C74.8976 27.6957 70.8068 23.8381 66.059 23.8381C61.3111 23.8381 57.2204 27.6957 57.2204 33.3337C57.2204 38.9153 61.3111 42.8294 66.059 42.8294C70.8068 42.8294 74.8976 38.9082 74.8976 33.3337Z" fill="#EA4335"/>
<path d="M115.694 33.3337C115.694 42.356 108.635 49.0044 99.9735 49.0044C91.3116 49.0044 84.2534 42.356 84.2534 33.3337C84.2534 24.2549 91.3116 17.6631 99.9735 17.6631C108.635 17.6631 115.694 24.2479 115.694 33.3337ZM108.812 33.3337C108.812 27.6957 104.721 23.8381 99.9735 23.8381C95.2257 23.8381 91.1349 27.6957 91.1349 33.3337C91.1349 38.9153 95.2257 42.8294 99.9735 42.8294C104.721 42.8294 108.812 38.9082 108.812 33.3337Z" fill="#FBBC05"/>
<path d="M148.193 18.6098V46.7435C148.193 58.3163 141.368 63.043 133.3 63.043C125.705 63.043 121.133 57.9631 119.409 53.8087L125.401 51.3147C126.468 53.8653 129.082 56.875 133.293 56.875C138.457 56.875 141.658 53.6886 141.658 47.6903V45.4365H141.418C139.877 47.337 136.91 48.9973 133.165 48.9973C125.33 48.9973 118.152 42.1723 118.152 33.3903C118.152 24.5446 125.33 17.6631 133.165 17.6631C136.903 17.6631 139.87 19.3234 141.418 21.1674H141.658V18.6169H148.193V18.6098ZM142.145 33.3903C142.145 27.8723 138.464 23.8381 133.78 23.8381C129.032 23.8381 125.055 27.8723 125.055 33.3903C125.055 38.8517 129.032 42.8294 133.78 42.8294C138.464 42.8294 142.145 38.8517 142.145 33.3903Z" fill="#4285F4"/>
<path d="M158.969 2.11963V48.0435H152.257V2.11963H158.969Z" fill="#34A853"/>
<path d="M185.123 38.4911L190.464 42.052C188.74 44.6025 184.586 48.9971 177.407 48.9971C168.505 48.9971 161.857 42.1155 161.857 33.3264C161.857 24.0074 168.562 17.6558 176.637 17.6558C184.769 17.6558 188.747 24.1275 190.047 27.6248L190.761 29.4052L169.812 38.0813C171.416 41.2253 173.91 42.8291 177.407 42.8291C180.912 42.8291 183.342 41.1052 185.123 38.4911ZM168.682 32.853L182.685 27.0384C181.915 25.0813 179.598 23.7177 176.871 23.7177C173.373 23.7177 168.505 26.8052 168.682 32.853V32.853Z" fill="#EA4335"/>
<path d="M24.9327 29.2568V22.6084H47.3365C47.5555 23.7671 47.6686 25.1378 47.6686 26.6215C47.6686 31.6095 46.305 37.7774 41.9104 42.172C37.636 46.6231 32.1746 48.997 24.9398 48.997C11.53 48.997 0.253906 38.0742 0.253906 24.6644C0.253906 11.2546 11.53 0.331787 24.9398 0.331787C32.3583 0.331787 37.643 3.24266 41.6137 7.03668L36.9224 11.728C34.0751 9.05733 30.2175 6.98016 24.9327 6.98016C15.1403 6.98016 7.48162 14.872 7.48162 24.6644C7.48162 34.4568 15.1403 42.3486 24.9327 42.3486C31.2843 42.3486 34.9017 39.7981 37.2191 37.4807C39.0985 35.6014 40.3349 32.9166 40.8224 29.2497L24.9327 29.2568V29.2568Z" fill="#4285F4"/>
</svg>
