<svg version="1.1" id="Layer_1" xmlns="http://www.w3.org/2000/svg" xmlns:xlink="http://www.w3.org/1999/xlink" x="0px" y="0px"
	 width="270" viewBox="50 25 722 286" enable-background="new 0 0 722 286" xml:space="preserve">
<path fill="#FEFEFE" opacity="1.000000" stroke="none" 
	d="
M473.000000,287.000000 
	C315.333374,287.000000 158.166748,287.000000 1.000084,287.000000 
	C1.000056,191.666733 1.000056,96.333450 1.000028,1.000136 
	C241.666550,1.000090 482.333099,1.000090 722.999756,1.000045 
	C722.999817,96.333191 722.999817,191.666382 722.999878,286.999786 
	C639.833313,287.000000 556.666687,287.000000 473.000000,287.000000 
M310.406464,219.236984 
	C310.410828,218.942062 310.415161,218.647141 310.419525,218.352219 
	C310.285248,218.573807 310.150970,218.795380 309.470673,218.997147 
	C309.259613,219.276245 309.048553,219.555344 307.995789,219.894165 
	C300.527069,220.559982 298.295135,218.369049 299.508423,211.321609 
	C303.224091,211.490417 306.969391,211.660568 310.627472,211.826752 
	C311.899872,207.350540 310.653198,204.361465 306.693481,203.079971 
	C302.195770,201.624344 297.573486,203.578888 295.539215,207.363831 
	C292.910095,212.255585 293.777863,218.167160 297.606140,221.444244 
	C300.825745,224.200302 305.537109,223.838394 310.087585,220.020462 
	C310.137848,219.891052 310.253479,219.744583 310.225067,219.635727 
	C310.162750,219.397369 310.027405,219.178085 310.406464,219.236984 
M401.456665,222.934662 
	C401.728485,222.795731 402.000305,222.656815 402.272125,222.517868 
	C401.889557,222.298096 401.507019,222.078323 400.622772,221.181961 
	C400.403656,216.921295 399.899048,212.643433 400.153656,208.411270 
	C400.222656,207.263977 402.560394,205.454681 403.903961,205.411362 
	C405.198547,205.369614 407.610901,207.133667 407.699768,208.250214 
	C408.084229,213.080215 407.797058,217.963669 407.754059,222.841034 
	C409.522949,222.841034 412.312988,222.841034 415.278595,222.841034 
	C411.246368,219.196701 413.316437,214.640259 413.039642,210.572021 
	C412.574219,203.730789 408.664368,201.128784 402.345001,203.808716 
	C401.639038,204.108124 400.771057,204.272232 400.020752,204.173981 
	C397.797028,203.882751 395.594604,203.428848 393.274353,203.019226 
	C395.502197,210.175339 395.998840,215.986481 393.183685,222.176514 
	C393.780792,222.397614 394.377869,222.618729 395.807281,222.983551 
	C397.210754,222.935974 398.614227,222.888397 400.509918,222.956650 
	C400.672455,222.912064 400.834991,222.867477 401.456665,222.934662 
M487.298706,220.993790 
	C486.702820,221.503998 486.106934,222.014221 484.949524,223.005234 
	C486.502258,222.918686 487.257141,222.876602 488.750610,222.964676 
	C489.496704,222.921707 490.242828,222.878754 491.754486,222.991150 
	C492.704742,222.922852 493.654999,222.854553 494.831879,222.769974 
	C492.518829,219.982208 491.287445,209.840820 493.113800,207.565948 
	C494.043060,206.408508 495.817230,205.380341 497.238251,205.341263 
	C498.366791,205.310226 500.495667,206.831665 500.533264,207.732590 
	C500.742462,212.744629 500.449158,217.777618 500.326355,222.860046 
	C501.920441,222.860046 504.722015,222.860046 507.071350,222.860046 
	C506.602081,220.833160 505.960205,218.898209 505.747925,216.917221 
	C505.518616,214.777405 505.797760,212.588150 505.668121,210.431686 
	C505.258453,203.617111 501.576508,201.286530 495.326721,203.515274 
	C494.087616,203.957184 492.447235,203.273804 490.194611,202.972229 
	C488.809204,203.214050 487.423798,203.455856 487.290192,203.479187 
	C487.510773,209.718613 487.706177,215.246048 487.298706,220.993790 
M566.215759,163.942642 
	C564.517639,164.230972 562.819580,164.519287 562.134399,164.635620 
	C562.134399,171.554428 562.134399,177.697403 562.134399,183.775543 
	C564.495178,183.775543 567.238037,183.775543 569.156067,183.775543 
	C567.311401,178.053116 567.428833,172.393295 569.840271,166.907593 
	C572.490784,165.799652 575.326660,165.996735 575.698730,169.061111 
	C576.284851,173.887939 575.854614,178.838135 575.854614,183.771271 
	C577.322754,183.771271 580.189636,183.771271 582.518433,183.771271 
	C581.952759,181.914856 581.155396,180.220474 580.968079,178.461105 
	C580.706665,176.006195 581.406616,173.361481 580.763123,171.058411 
	C580.071472,168.583115 578.762939,165.120422 576.879639,164.446320 
	C574.767151,163.690216 571.709534,165.574554 568.385254,166.223190 
	C568.194641,165.810989 568.004028,165.398788 567.879150,164.467026 
	C567.588806,164.347198 567.298462,164.227386 566.215759,163.942642 
M322.337372,204.364487 
	C319.765259,203.851974 317.193176,203.339462 314.140594,202.731216 
	C316.758423,210.331879 316.447418,216.522903 314.775787,222.854446 
	C317.076599,222.854446 319.860626,222.854446 322.739319,222.854446 
	C319.352844,217.531387 320.170929,207.868408 324.899536,205.096527 
	C326.237274,206.116638 328.661621,207.073364 328.725464,208.167801 
	C329.008911,213.027069 328.615692,217.925842 328.466125,222.845078 
	C330.405853,222.845078 333.198303,222.845078 334.561829,222.845078 
	C334.359772,218.703735 334.153564,214.643768 333.965424,210.582962 
	C333.634277,203.434830 329.561462,201.050613 322.337372,204.364487 
M628.169006,165.714951 
	C626.040588,162.178528 623.613586,164.138214 621.027649,165.083176 
	C624.166138,169.075790 624.253296,179.450012 621.476990,183.657104 
	C624.654907,183.657104 627.916382,183.657104 631.228882,183.657104 
	C629.979065,182.321442 628.100159,181.240891 628.088318,180.140335 
	C628.037598,175.393890 628.533997,170.641586 629.226196,165.697662 
	C629.574890,165.590500 629.923645,165.483337 629.482788,165.618805 
	C629.776550,165.453690 629.341370,165.698288 628.169006,165.714951 
M379.625916,166.956848 
	C381.652435,167.362427 384.399139,167.089798 385.554077,168.316162 
	C387.886383,170.792755 386.688629,180.758820 384.216461,183.819473 
	C387.319763,183.819473 390.287109,183.819473 392.529877,183.819473 
	C392.017426,181.738358 391.283783,179.602219 391.010559,177.408722 
	C390.745392,175.279648 391.394287,172.969406 390.837982,170.961411 
	C390.182800,168.596558 389.203705,165.436584 387.389496,164.488800 
	C384.784515,163.127899 381.178162,162.997040 378.250366,166.013748 
	C378.250366,162.065140 378.250366,158.116531 378.250366,153.536926 
	C375.294128,154.272903 373.198303,154.794662 370.901245,155.366531 
	C374.076904,159.494049 374.247955,179.165329 371.389923,183.863190 
	C374.408661,183.863190 377.352783,183.863190 379.883423,183.863190 
	C376.559692,178.203583 377.834442,172.334488 379.625916,166.956848 
M425.371765,182.623825 
	C428.083130,183.170105 430.794495,183.716400 433.186340,184.198303 
	C432.226379,181.432922 431.300995,179.658981 431.041779,177.792542 
	C430.724670,175.508972 431.325317,173.073624 430.864227,170.841232 
	C430.406097,168.623123 429.624146,165.365051 428.087433,164.728699 
	C425.609161,163.702454 422.395111,164.452972 419.491882,164.452972 
	C419.491882,164.885864 419.491882,165.318741 419.491882,165.751633 
	C426.125214,166.151993 426.683655,166.672455 426.432709,172.345383 
	C423.984344,173.113373 421.255829,173.496063 419.080933,174.801331 
	C417.343079,175.844315 415.703339,177.841705 415.146454,179.745041 
	C414.844696,180.776413 416.852234,183.632645 417.899200,183.675354 
	C420.234222,183.770538 422.620178,182.616043 424.921448,181.989502 
	C424.921448,181.989502 424.888794,182.047577 425.371765,182.623825 
M333.609894,182.141068 
	C335.970215,184.639816 338.565094,184.701035 340.704895,183.549667 
	C339.840149,181.261307 338.858185,179.496536 338.548157,177.620728 
	C338.200073,175.514481 338.527374,173.305038 338.437408,171.145645 
	C338.312225,168.140762 338.358978,164.766632 334.488220,164.078964 
	C330.422211,163.356598 326.499268,163.934265 323.807770,167.620972 
	C323.406158,168.171127 323.158691,169.241150 323.429626,169.766571 
	C323.733032,170.355042 324.776794,170.997238 325.373169,170.893845 
	C326.201935,170.750153 327.350677,170.070419 327.567902,169.372742 
	C327.851013,168.463562 327.355774,167.312042 327.192169,166.243286 
	C333.972839,165.718536 334.446503,166.227280 333.410126,172.636841 
	C331.526550,173.113037 329.371643,173.187592 327.790436,174.178055 
	C325.868103,175.382187 323.935730,177.122055 322.989685,179.099869 
	C322.517365,180.087372 324.204926,183.428955 324.959717,183.443680 
	C327.603302,183.495316 330.266052,182.563034 332.859344,182.026230 
	C332.859344,182.026230 332.830841,182.085632 333.609894,182.141068 
M474.429321,221.682358 
	C477.162354,222.208878 479.895386,222.735413 482.400085,223.217957 
	C481.399384,220.208374 480.470001,218.187042 480.098419,216.067886 
	C479.758850,214.131454 479.987000,212.088425 480.029449,210.093735 
	C480.094940,207.016190 480.238647,203.746506 476.256744,203.062363 
	C472.179779,202.361893 468.248871,202.924835 465.553589,206.565918 
	C465.100372,207.178146 465.128174,208.486237 465.469666,209.225220 
	C465.689911,209.701904 467.043335,210.097916 467.607788,209.860809 
	C468.316650,209.563019 468.958466,208.655319 469.222626,207.873444 
	C469.496277,207.063568 469.283569,206.089340 469.283569,205.204269 
	C475.558258,204.880630 476.264587,205.648499 475.343872,211.316574 
	C472.507568,212.310394 469.506287,212.912766 467.040588,214.402008 
	C465.661438,215.235016 464.470276,217.552979 464.502319,219.175995 
	C464.527802,220.466095 466.484650,222.701096 467.679901,222.766556 
	C469.740356,222.879379 471.875305,221.631714 473.914581,220.979980 
	C473.914581,220.979980 473.874207,221.036026 474.429321,221.682358 
M141.992233,146.760651 
	C146.258240,130.349335 156.459503,118.376083 170.127106,108.939461 
	C171.697861,107.854942 172.894608,106.228691 174.958481,104.157402 
	C172.966507,104.053261 172.178696,103.760895 171.695023,104.025162 
	C166.092651,107.086166 160.536255,110.231308 154.845337,113.422737 
	C155.047653,112.715080 155.183792,111.769730 155.574463,110.944939 
	C159.585632,102.476456 166.619522,97.704651 175.505524,96.072090 
	C182.083542,94.863571 188.872620,94.803864 195.591461,94.230347 
	C194.182159,114.747787 180.318817,124.684700 162.055283,125.762451 
	C157.839539,126.011223 155.780640,127.559624 154.135849,130.987793 
	C149.974167,139.661774 148.183517,148.928391 148.067627,158.379623 
	C147.877747,173.866211 150.798950,188.934052 155.756088,203.602753 
	C159.431381,214.478378 164.255081,224.687897 172.212982,232.969101 
	C217.081757,218.869965 244.208069,175.815186 235.702835,129.293762 
	C226.598312,79.494469 180.210815,46.976948 129.763718,56.257446 
	C79.942131,65.422867 49.242409,110.972260 56.253357,158.837601 
	C60.645081,188.820877 76.684990,211.841629 103.753044,225.930847 
	C122.211189,235.538513 121.599831,237.349945 131.866974,215.514572 
	C138.444901,201.525116 138.714233,186.021515 139.974014,170.867798 
	C140.618729,163.112732 141.299194,155.360641 141.992233,146.760651 
M381.014374,135.701843 
	C397.000793,128.228958 405.069458,113.146553 401.261932,97.853981 
	C396.901154,80.339157 383.189575,70.747452 364.203125,71.930061 
	C343.996216,73.188690 329.452606,93.481102 334.730530,113.052490 
	C340.101379,132.968475 359.396851,142.665680 381.014374,135.701843 
M437.860229,71.929115 
	C436.407043,72.244545 434.950195,72.544075 433.501251,72.877884 
	C419.633301,76.072746 410.790527,84.868423 408.285248,98.551865 
	C405.858734,111.804977 409.786346,123.553185 421.329834,131.835144 
	C432.450165,139.813492 449.001831,140.111725 460.640289,132.511353 
	C472.291595,124.902603 478.130493,110.643951 474.726807,96.923500 
	C471.280914,83.033035 459.059387,70.828300 437.860229,71.929115 
M311.897156,122.517677 
	C311.897156,127.264137 311.897156,132.010605 311.897156,136.597839 
	C317.013763,136.597839 321.406342,136.597839 325.601929,136.597839 
	C325.601929,115.173508 325.601929,94.123375 325.601929,73.316376 
	C320.820801,73.316376 316.417358,73.316376 311.708313,73.316376 
	C311.708313,81.644341 311.708313,89.585182 311.708313,97.689072 
	C303.012695,97.689072 294.644073,97.689072 285.802979,97.689072 
	C285.802979,89.304337 285.802979,81.231560 285.802979,73.269714 
	C280.920380,73.269714 276.522705,73.269714 272.256104,73.269714 
	C272.256104,94.654518 272.256104,115.695663 272.256104,136.601379 
	C277.006866,136.601379 281.398834,136.601379 286.109894,136.601379 
	C286.109894,127.966431 286.109894,119.696884 286.109894,111.302765 
	C294.814148,111.302765 303.183624,111.302765 311.897125,111.302765 
	C311.897125,114.925163 311.897125,118.226128 311.897156,122.517677 
M483.925171,108.499992 
	C483.925171,117.913391 483.925171,127.326790 483.925171,136.580444 
	C489.002075,136.580444 493.388367,136.580444 498.078430,136.580444 
	C498.078430,130.250702 498.078430,124.309204 498.078430,118.420425 
	C504.311249,117.905418 510.268738,117.733475 516.121582,116.860260 
	C526.993286,115.238258 534.300842,106.606857 534.683350,95.523285 
	C535.025879,85.594429 528.483398,75.642784 518.706299,74.276093 
	C507.340485,72.687309 495.711243,72.982979 483.925140,72.448479 
	C483.925140,84.896751 483.925140,96.198364 483.925171,108.499992 
M542.898865,130.423737 
	C542.898865,132.516403 542.898865,134.609070 542.898865,136.601501 
	C547.951294,136.601501 552.340088,136.601501 556.935852,136.601501 
	C556.935852,133.245102 556.935852,130.259399 556.935852,127.273712 
	C556.935852,124.195923 556.935852,121.118134 556.935852,118.437614 
	C563.200134,117.895851 568.691650,117.696762 574.093689,116.895180 
	C584.691101,115.322708 592.480347,107.288651 592.848816,98.001732 
	C593.393372,84.276756 588.259460,75.830406 575.792603,74.154709 
	C565.109436,72.718758 554.080200,73.857376 543.102783,73.857376 
	C543.105347,73.847748 542.951599,74.156120 542.951172,74.464706 
	C542.925720,92.789131 542.912842,111.113564 542.898865,130.423737 
M273.110748,157.950104 
	C272.616547,158.001038 272.122345,158.051987 271.605835,158.105225 
	C275.183075,162.307327 274.925232,179.634949 271.346252,183.597778 
	C274.741760,183.597778 278.218872,183.597778 282.595520,183.597778 
	C276.801575,180.222672 279.656799,175.833435 279.218506,172.071259 
	C283.669403,172.071259 287.719025,172.071259 292.620331,172.071259 
	C291.871918,176.382324 291.214874,180.167160 290.614532,183.625153 
	C293.236084,183.625153 296.877441,183.625153 301.091919,183.625153 
	C295.527069,180.203796 295.406525,161.795883 300.524597,158.085907 
	C296.727020,158.085907 293.129456,158.085907 290.845245,158.085907 
	C291.333893,161.569641 291.830627,165.111252 292.344086,168.771988 
	C287.307037,168.771988 283.254517,168.771988 278.432770,168.771988 
	C279.109955,164.855408 279.702515,161.428223 280.305298,157.941895 
	C278.932526,157.941895 276.443573,157.941895 273.110748,157.950104 
M533.489441,179.941269 
	C537.097473,183.827759 541.641235,184.629501 546.666138,184.049469 
	C552.360229,183.392181 557.292847,178.709976 557.945740,173.206360 
	C558.795349,166.044266 555.866638,160.385864 550.140137,158.125488 
	C543.912720,155.667435 537.494812,157.086563 533.367371,161.834274 
	C529.356018,166.448486 529.235535,172.517670 533.489441,179.941269 
M438.298553,220.934692 
	C437.691650,218.139648 437.084747,215.344604 436.551758,212.889954 
	C440.022003,212.509232 442.721832,212.606842 445.161194,211.857086 
	C449.263306,210.596268 451.388153,207.462997 450.887665,203.138855 
	C450.380890,198.760635 447.196014,197.115601 443.196411,196.987747 
	C438.651550,196.842453 434.098480,196.954178 429.111145,196.954178 
	C433.095947,200.900192 432.911163,218.696518 429.359283,222.583618 
	C433.069641,222.583618 436.833038,222.583618 441.858459,222.583618 
	C440.177734,221.638962 439.652863,221.343948 438.298553,220.934692 
M284.128723,196.959946 
	C279.932404,196.959946 275.736053,196.959946 271.020203,196.959946 
	C275.193451,200.869598 274.981354,218.848129 271.233673,222.617767 
	C275.029114,222.617767 278.792236,222.617767 282.555328,222.617767 
	C276.549194,220.498596 279.490173,215.981628 279.169495,212.339890 
	C287.153809,213.334030 292.229645,210.556519 292.966095,204.999191 
	C293.547150,200.614471 290.838684,197.871643 284.128723,196.959946 
M377.958771,202.950867 
	C377.190613,203.205612 376.375366,203.367676 375.661865,203.730042 
	C370.806946,206.195755 368.812561,211.050781 370.486603,216.216354 
	C372.303497,221.822723 376.315308,224.086319 382.536285,223.015182 
	C387.104523,222.228638 390.067535,218.217407 390.056519,212.834641 
	C390.042572,206.019043 386.567993,202.968170 377.958771,202.950867 
M500.790833,166.657120 
	C499.840790,166.005875 498.976013,165.101379 497.925751,164.747772 
	C493.675323,163.316757 489.312561,163.012695 485.980530,166.518158 
	C482.643616,170.028748 482.023224,174.388565 484.100769,178.884872 
	C486.000122,182.995453 489.450073,184.265305 493.800629,184.272308 
	C501.613708,184.284897 506.154907,175.005463 500.790833,166.657120 
M659.597168,184.251953 
	C669.327454,185.092407 672.265442,173.547882 668.453247,167.974396 
	C665.826965,164.134613 660.642334,162.648376 655.991943,164.365814 
	C651.839600,165.899338 649.284851,170.391830 649.805115,175.245071 
	C650.344910,180.279510 653.411682,183.302612 659.597168,184.251953 
M614.786194,165.852509 
	C609.491821,162.258347 604.967468,163.130905 601.891663,167.736221 
	C602.985107,167.318588 604.686768,166.429428 606.496399,166.032883 
	C609.293274,165.419983 610.849182,166.891098 611.454895,169.598740 
	C612.105347,172.506485 610.218323,172.785507 608.107422,173.247849 
	C606.190491,173.667755 603.986389,174.124619 602.625122,175.356583 
	C601.249695,176.601257 599.794189,179.042557 600.145447,180.545624 
	C600.490967,182.024292 602.964050,183.805008 604.673340,184.005280 
	C608.671021,184.473663 612.770874,184.095520 616.828003,184.003326 
	C617.422241,183.989838 618.009338,183.665176 617.804932,183.727722 
	C617.097168,181.214828 616.242737,179.105255 615.947571,176.920120 
	C615.487549,173.514420 615.407227,170.057465 614.786194,165.852509 
M460.615906,184.257004 
	C463.164978,183.409149 465.714081,182.561279 468.263153,181.713425 
	C468.107056,181.288452 467.950958,180.863495 467.794861,180.438538 
	C459.085663,182.255234 456.361481,180.311340 457.039337,172.580627 
	C460.913452,172.580627 464.807770,172.580627 468.629364,172.580627 
	C469.705505,168.328064 468.501892,165.295822 464.473602,164.090912 
	C458.736938,162.375046 453.266174,165.811188 452.017456,171.605453 
	C450.693665,177.747940 453.937836,182.931610 460.615906,184.257004 
M303.497406,169.180832 
	C303.315735,171.953705 302.211670,175.125961 303.194031,177.394836 
	C304.332916,180.025238 306.955750,182.640472 309.581970,183.817795 
	C312.058563,184.928055 315.731537,185.082489 317.420441,181.091003 
	C308.745758,181.252472 306.479034,179.193115 307.603119,172.244156 
	C310.373474,172.425583 313.160217,172.679199 315.952393,172.774231 
	C320.087280,172.914948 320.919312,171.553192 319.166016,167.705627 
	C316.554077,161.973846 308.296387,162.413971 303.497406,169.180832 
M362.226929,161.243393 
	C362.141937,158.742706 361.337280,158.037582 359.608124,160.297409 
	C358.163269,162.185654 356.859283,164.181671 355.758057,165.751877 
	C356.273804,167.546356 357.057404,169.336166 357.256165,171.188721 
	C357.539032,173.825363 357.042297,176.577530 357.552032,179.146744 
	C357.893219,180.866196 359.062836,183.133865 360.475372,183.750473 
	C362.302643,184.548080 364.741394,183.944977 366.916840,183.944977 
	C366.882507,183.462280 366.848145,182.979584 366.813812,182.496887 
	C361.811890,180.772507 361.063782,177.996979 362.750519,167.427231 
	C364.492920,167.060272 366.235321,166.693314 368.207855,166.277893 
	C366.492432,163.625977 361.760651,166.883652 362.226929,161.243393 
M505.937103,166.667404 
	C506.619598,167.066971 507.891937,167.461639 507.895264,167.866806 
	C507.938965,173.146423 507.802795,178.427551 507.712097,183.697357 
	C509.656738,183.697357 512.952698,183.697357 516.083740,183.697357 
	C510.087830,178.971283 514.354187,172.709396 512.837036,167.480179 
	C514.919556,167.045914 516.453674,166.725983 517.987854,166.406067 
	C517.927307,166.041901 517.866821,165.677734 517.806274,165.313568 
	C516.257263,165.041824 514.708252,164.770096 512.772095,164.430435 
	C513.101135,161.164093 513.405640,158.141861 513.710083,155.119629 
	C513.346436,154.898315 512.982788,154.677002 512.619080,154.455688 
	C511.354553,156.487808 510.058655,158.501282 508.835114,160.557785 
	C507.810913,162.279221 506.871246,164.050949 505.937103,166.667404 
M594.970154,181.887772 
	C593.942322,180.909500 592.125488,180.003555 592.027954,178.939972 
	C591.671143,175.047516 591.886719,171.102585 591.886719,167.332794 
	C594.133423,167.000168 595.778625,166.756592 597.423889,166.513031 
	C597.412598,166.158157 597.401367,165.803284 597.390076,165.448410 
	C595.595093,165.120758 593.800110,164.793121 592.127930,164.487900 
	C591.882446,162.492523 591.672974,160.789932 591.341919,158.098526 
	C588.819763,161.322769 586.922546,163.748077 585.457886,165.620468 
	C586.020813,167.434296 586.718506,168.805847 586.827515,170.222702 
	C587.030518,172.863037 586.500122,175.609085 587.017944,178.160278 
	C587.431641,180.198242 588.588623,183.208008 590.057983,183.649719 
	C592.345947,184.337524 595.178589,183.213455 597.780334,182.857269 
	C597.659607,182.293472 597.538940,181.729675 597.418213,181.165863 
	C596.856567,181.368881 596.294922,181.571899 594.970154,181.887772 
M396.775024,179.310806 
	C398.216583,183.218857 401.313080,184.491028 405.100800,184.118179 
	C406.814301,183.949509 408.450012,182.989944 409.775848,182.513275 
	C406.532471,180.850357 402.564484,180.111603 401.695312,178.059998 
	C400.458893,175.141617 401.134277,171.189346 401.772247,167.826645 
	C401.985260,166.703995 404.590698,166.035248 406.102478,165.159027 
	C406.597778,166.399124 406.921265,167.752625 407.641663,168.844131 
	C408.238922,169.749130 409.303986,170.345398 410.161774,171.078461 
	C410.768982,170.284134 412.020599,169.305054 411.856323,168.731918 
	C411.447815,167.307114 410.707855,165.558655 409.545013,164.840744 
	C404.308868,161.608047 396.505341,165.569534 395.961182,171.686279 
	C395.758545,173.964035 396.191498,176.298355 396.775024,179.310806 
M444.515442,165.739471 
	C441.777771,165.045441 439.058868,161.783783 436.279938,165.671402 
	C439.713531,169.193039 439.775208,179.476776 436.399658,183.678040 
	C439.685760,183.678040 442.971863,183.678040 445.161743,183.678040 
	C444.418701,181.529465 443.464020,179.466095 443.031342,177.298553 
	C442.681580,175.546219 443.010010,173.666733 442.950165,171.846512 
	C442.843689,168.608047 444.163086,167.355118 447.511627,167.911575 
	C448.451965,168.067825 449.622375,166.839630 450.687225,166.246460 
	C449.656006,165.479538 448.716095,164.420242 447.558319,164.058640 
	C446.895294,163.851578 445.878052,164.778625 444.515442,165.739471 
M458.989288,210.457397 
	C458.989288,204.701889 458.989288,198.946381 458.989288,192.791779 
	C456.631927,193.304184 454.420807,193.784821 452.103485,194.288544 
	C455.755798,198.037567 456.165588,218.191849 452.944244,222.680420 
	C455.657227,222.680420 458.490845,222.680420 459.835754,222.680420 
	C459.543701,218.799118 459.266479,215.115585 458.989288,210.457397 
M341.003265,217.409500 
	C340.412994,217.237747 339.822723,217.065994 339.232452,216.894257 
	C339.232452,218.837936 339.232452,220.781631 339.232452,223.099243 
	C342.507294,223.099243 345.315765,223.712128 347.654755,222.926773 
	C349.991028,222.142349 353.150543,220.228867 353.552338,218.308823 
	C353.926147,216.522522 351.620453,213.089294 349.645721,212.132248 
	C345.953674,210.342941 342.990143,208.738892 343.180817,203.568344 
	C341.519012,204.839142 339.830994,206.290375 339.885254,207.673264 
	C339.957397,209.512222 341.033905,211.634415 342.339813,213.005371 
	C343.487976,214.210785 345.904297,214.189316 347.097565,215.376221 
	C348.209564,216.482346 348.447937,218.466766 349.070892,220.064560 
	C347.357300,220.509857 345.577240,221.445679 343.953857,221.225616 
	C342.895813,221.082184 342.065491,219.258636 341.003265,217.409500 
M345.951630,175.322937 
	C345.461884,178.194031 344.972137,181.065140 344.492401,183.877502 
	C346.653442,183.877502 349.459473,183.877502 351.300018,183.877502 
	C348.319885,174.190933 350.867920,164.056061 349.772705,153.881454 
	C347.548004,154.366348 345.432587,154.827438 344.196045,155.096970 
	C344.849487,157.640457 345.744232,159.764328 345.877960,161.935120 
	C346.132324,166.064026 345.951630,170.219742 345.951630,175.322937 
M366.301514,221.574280 
	C365.852081,220.099899 365.069794,218.637741 365.015106,217.148849 
	C364.845764,212.536545 364.953247,207.914047 364.953247,202.709915 
	C362.123566,203.086563 359.803955,203.395309 356.938690,203.776688 
	C360.961975,207.888412 360.930420,218.964172 356.870758,223.509567 
	C360.727875,222.932922 363.832550,222.468765 366.301514,221.574280 
M644.904541,166.810150 
	C643.748230,161.037109 640.633850,164.701508 638.901978,164.897797 
	C640.543823,171.482544 641.073181,177.611664 638.618469,183.884613 
	C641.450012,183.884613 644.256836,183.884613 645.640137,183.884613 
	C645.393127,178.455795 645.149475,173.100693 644.904541,166.810150 
M318.816711,180.465393 
	C318.616272,180.379700 318.415833,180.294006 318.215393,180.208313 
	C318.268890,180.426346 318.322357,180.644379 318.816711,180.465393 
z"/>
<path fill="#148C35" opacity="1.000000" stroke="none" 
	d="
M141.977875,147.183929 
	C141.299194,155.360641 140.618729,163.112732 139.974014,170.867798 
	C138.714233,186.021515 138.444901,201.525116 131.866974,215.514572 
	C121.599831,237.349945 122.211189,235.538513 103.753044,225.930847 
	C76.684990,211.841629 60.645081,188.820877 56.253357,158.837601 
	C49.242409,110.972260 79.942131,65.422867 129.763718,56.257446 
	C180.210815,46.976948 226.598312,79.494469 235.702835,129.293762 
	C244.208069,175.815186 217.081757,218.869965 172.212982,232.969101 
	C164.255081,224.687897 159.431381,214.478378 155.756088,203.602753 
	C150.798950,188.934052 147.877747,173.866211 148.067627,158.379623 
	C148.183517,148.928391 149.974167,139.661774 154.135849,130.987793 
	C155.780640,127.559624 157.839539,126.011223 162.055283,125.762451 
	C180.318817,124.684700 194.182159,114.747787 195.591461,94.230347 
	C188.872620,94.803864 182.083542,94.863571 175.505524,96.072090 
	C166.619522,97.704651 159.585632,102.476456 155.574463,110.944939 
	C155.183792,111.769730 155.047653,112.715080 154.845337,113.422737 
	C160.536255,110.231308 166.092651,107.086166 171.695023,104.025162 
	C172.178696,103.760895 172.966507,104.053261 174.958481,104.157402 
	C172.894608,106.228691 171.697861,107.854942 170.127106,108.939461 
	C156.459503,118.376083 146.258240,130.349335 141.977875,147.183929 
M103.654228,122.633705 
	C110.187302,134.439331 121.810059,136.650467 133.608353,138.849670 
	C133.807724,116.276245 122.543762,109.699974 99.986320,107.938934 
	C101.099541,112.743820 102.169968,117.363968 103.654228,122.633705 
M131.456573,101.865654 
	C134.656540,105.637383 137.856506,109.409111 141.177124,113.323059 
	C150.633713,99.096062 148.331665,89.894310 132.811600,78.065666 
	C127.539291,85.453590 126.574577,93.119492 131.456573,101.865654 
M189.091537,183.876160 
	C189.401215,183.543640 190.033066,183.133698 189.974426,182.889648 
	C186.847519,169.876511 174.413879,163.756088 162.355453,169.250610 
	C168.617188,182.414948 177.092468,187.229980 189.091537,183.876160 
M116.155838,151.827011 
	C117.045776,151.100769 117.935722,150.374542 118.838989,149.637421 
	C110.478256,141.273621 101.016624,138.899338 87.214287,151.463470 
	C97.248367,159.976196 104.333107,160.136551 116.155838,151.827011 
M178.899612,144.986511 
	C179.361328,141.023834 179.823044,137.061172 180.319626,132.799286 
	C162.352737,136.843842 156.982986,147.289398 161.435181,158.149139 
	C168.539032,155.901260 174.824066,152.567978 178.899612,144.986511 
M129.824295,160.947556 
	C129.539978,160.589020 129.239777,159.905563 128.973602,159.918564 
	C115.962952,160.553879 107.657478,171.830170 110.711983,184.646912 
	C124.811172,181.260025 131.371262,172.393463 129.824295,160.947556 
M185.078705,159.971054 
	C187.900681,159.971863 190.725098,160.049118 193.544205,159.959442 
	C202.707794,159.667999 209.342072,153.459930 210.473740,143.966217 
	C208.625168,143.966217 206.796066,143.850632 204.986664,143.990311 
	C201.227249,144.280563 197.281097,144.089264 193.768570,145.212204 
	C187.589142,147.187775 182.918243,155.021484 185.078705,159.971054 
z"/>
<path fill="#494A4C" opacity="1.000000" stroke="none" 
	d="
M380.635437,135.816986 
	C359.396851,142.665680 340.101379,132.968475 334.730530,113.052490 
	C329.452606,93.481102 343.996216,73.188690 364.203125,71.930061 
	C383.189575,70.747452 396.901154,80.339157 401.261932,97.853981 
	C405.069458,113.146553 397.000793,128.228958 380.635437,135.816986 
M385.122772,95.626465 
	C379.304657,85.424164 368.524811,81.916550 358.537292,86.975945 
	C349.504181,91.551857 345.691467,103.686974 350.158295,113.644547 
	C354.378418,123.052200 365.338654,127.492851 375.143372,123.767548 
	C385.346832,119.890739 389.674683,108.499702 385.122772,95.626465 
z"/>
<path fill="#494A4C" opacity="1.000000" stroke="none" 
	d="
M438.316284,71.926598 
	C459.059387,70.828300 471.280914,83.033035 474.726807,96.923500 
	C478.130493,110.643951 472.291595,124.902603 460.640289,132.511353 
	C449.001831,140.111725 432.450165,139.813492 421.329834,131.835144 
	C409.786346,123.553185 405.858734,111.804977 408.285248,98.551865 
	C410.790527,84.868423 419.633301,76.072746 433.501251,72.877884 
	C434.950195,72.544075 436.407043,72.244545 438.316284,71.926598 
M429.689240,120.926620 
	C430.254486,121.275787 430.814514,121.633797 431.385803,121.972794 
	C438.969971,126.472900 447.938263,125.873703 453.935394,120.469063 
	C461.045868,114.061043 462.946747,104.242180 458.753754,95.580276 
	C455.097748,88.027695 446.506226,83.424538 438.110840,85.045792 
	C430.955536,86.427567 425.765045,90.584328 423.525421,97.739777 
	C420.817993,106.389915 422.618835,114.032234 429.689240,120.926620 
z"/>
<path fill="#47484A" opacity="1.000000" stroke="none" 
	d="
M311.897156,122.022385 
	C311.897125,118.226128 311.897125,114.925163 311.897125,111.302765 
	C303.183624,111.302765 294.814148,111.302765 286.109894,111.302765 
	C286.109894,119.696884 286.109894,127.966431 286.109894,136.601379 
	C281.398834,136.601379 277.006866,136.601379 272.256104,136.601379 
	C272.256104,115.695663 272.256104,94.654518 272.256104,73.269714 
	C276.522705,73.269714 280.920380,73.269714 285.802979,73.269714 
	C285.802979,81.231560 285.802979,89.304337 285.802979,97.689072 
	C294.644073,97.689072 303.012695,97.689072 311.708313,97.689072 
	C311.708313,89.585182 311.708313,81.644341 311.708313,73.316376 
	C316.417358,73.316376 320.820801,73.316376 325.601929,73.316376 
	C325.601929,94.123375 325.601929,115.173508 325.601929,136.597839 
	C321.406342,136.597839 317.013763,136.597839 311.897156,136.597839 
	C311.897156,132.010605 311.897156,127.264137 311.897156,122.022385 
z"/>
<path fill="#48494B" opacity="1.000000" stroke="none" 
	d="
M483.925171,107.999985 
	C483.925140,96.198364 483.925140,84.896751 483.925140,72.448479 
	C495.711243,72.982979 507.340485,72.687309 518.706299,74.276093 
	C528.483398,75.642784 535.025879,85.594429 534.683350,95.523285 
	C534.300842,106.606857 526.993286,115.238258 516.121582,116.860260 
	C510.268738,117.733475 504.311249,117.905418 498.078430,118.420425 
	C498.078430,124.309204 498.078430,130.250702 498.078430,136.580444 
	C493.388367,136.580444 489.002075,136.580444 483.925171,136.580444 
	C483.925171,127.326790 483.925171,117.913391 483.925171,107.999985 
M497.928619,90.604195 
	C497.928619,95.325958 497.928619,100.047722 497.928619,104.935661 
	C499.527039,104.935661 500.343842,104.936020 501.160645,104.935608 
	C504.309570,104.934006 507.460846,105.009186 510.606903,104.913689 
	C516.413818,104.737419 520.075928,100.888161 520.031799,95.135239 
	C519.987793,89.402901 516.712158,86.120323 510.736023,85.942375 
	C507.589661,85.848679 504.421875,86.108482 501.294586,85.843948 
	C498.194672,85.581734 497.588013,87.072044 497.928619,90.604195 
z"/>
<path fill="#48494B" opacity="1.000000" stroke="none" 
	d="
M542.898804,129.930878 
	C542.912842,111.113564 542.925720,92.789131 542.951172,74.464706 
	C542.951599,74.156120 543.105347,73.847748 543.102783,73.857376 
	C554.080200,73.857376 565.109436,72.718758 575.792603,74.154709 
	C588.259460,75.830406 593.393372,84.276756 592.848816,98.001732 
	C592.480347,107.288651 584.691101,115.322708 574.093689,116.895180 
	C568.691650,117.696762 563.200134,117.895851 556.935852,118.437614 
	C556.935852,121.118134 556.935852,124.195923 556.935852,127.273712 
	C556.935852,130.259399 556.935852,133.245102 556.935852,136.601501 
	C552.340088,136.601501 547.951294,136.601501 542.898865,136.601501 
	C542.898865,134.609070 542.898865,132.516403 542.898804,129.930878 
M556.927124,93.534416 
	C556.927124,97.277908 556.927124,101.021408 556.927124,104.925705 
	C561.862427,104.925705 566.023560,105.094490 570.165161,104.881294 
	C574.918091,104.636612 578.497803,100.884903 578.835999,96.215034 
	C579.186401,91.377243 576.345825,86.695473 571.862305,86.186401 
	C567.010315,85.635483 562.047363,86.061623 556.927124,86.061623 
	C556.927124,88.588982 556.927124,90.572174 556.927124,93.534416 
z"/>
<path fill="#505153" opacity="1.000000" stroke="none" 
	d="
M273.532684,157.945999 
	C276.443573,157.941895 278.932526,157.941895 280.305298,157.941895 
	C279.702515,161.428223 279.109955,164.855408 278.432770,168.771988 
	C283.254517,168.771988 287.307037,168.771988 292.344086,168.771988 
	C291.830627,165.111252 291.333893,161.569641 290.845245,158.085907 
	C293.129456,158.085907 296.727020,158.085907 300.524597,158.085907 
	C295.406525,161.795883 295.527069,180.203796 301.091919,183.625153 
	C296.877441,183.625153 293.236084,183.625153 290.614532,183.625153 
	C291.214874,180.167160 291.871918,176.382324 292.620331,172.071259 
	C287.719025,172.071259 283.669403,172.071259 279.218506,172.071259 
	C279.656799,175.833435 276.801575,180.222672 282.595520,183.597778 
	C278.218872,183.597778 274.741760,183.597778 271.346252,183.597778 
	C274.925232,179.634949 275.183075,162.307327 271.605835,158.105225 
	C272.122345,158.051987 272.616547,158.001038 273.532684,157.945999 
z"/>
<path fill="#515253" opacity="1.000000" stroke="none" 
	d="
M533.254578,179.644821 
	C529.235535,172.517670 529.356018,166.448486 533.367371,161.834274 
	C537.494812,157.086563 543.912720,155.667435 550.140137,158.125488 
	C555.866638,160.385864 558.795349,166.044266 557.945740,173.206360 
	C557.292847,178.709976 552.360229,183.392181 546.666138,184.049469 
	C541.641235,184.629501 537.097473,183.827759 533.254578,179.644821 
M535.950684,170.511841 
	C536.503601,173.221542 536.589722,176.144196 537.708191,178.595917 
	C539.929871,183.465912 545.561584,184.383560 549.256592,180.852737 
	C553.528320,176.770844 553.525757,164.631943 549.110657,160.726990 
	C548.091492,159.825592 546.559143,159.187683 545.198120,159.044510 
	C539.396057,158.434174 536.629822,161.695831 535.950684,170.511841 
z"/>
<path fill="#4E4F51" opacity="1.000000" stroke="none" 
	d="
M438.713257,220.991821 
	C439.652863,221.343948 440.177734,221.638962 441.858459,222.583618 
	C436.833038,222.583618 433.069641,222.583618 429.359283,222.583618 
	C432.911163,218.696518 433.095947,200.900192 429.111145,196.954178 
	C434.098480,196.954178 438.651550,196.842453 443.196411,196.987747 
	C447.196014,197.115601 450.380890,198.760635 450.887665,203.138855 
	C451.388153,207.462997 449.263306,210.596268 445.161194,211.857086 
	C442.721832,212.606842 440.022003,212.509232 436.551758,212.889954 
	C437.084747,215.344604 437.691650,218.139648 438.713257,220.991821 
M436.934814,204.594147 
	C436.934814,206.673706 436.934814,208.753250 436.934814,210.823593 
	C443.536133,210.822983 445.857697,209.019257 445.924713,204.334671 
	C445.980438,200.435989 443.648438,198.073242 439.874634,198.195053 
	C435.729431,198.328827 437.229248,201.482788 436.934814,204.594147 
z"/>
<path fill="#4C4D4F" opacity="1.000000" stroke="none" 
	d="
M284.575928,196.957748 
	C290.838684,197.871643 293.547150,200.614471 292.966095,204.999191 
	C292.229645,210.556519 287.153809,213.334030 279.169495,212.339890 
	C279.490173,215.981628 276.549194,220.498596 282.555328,222.617767 
	C278.792236,222.617767 275.029114,222.617767 271.233673,222.617767 
	C274.981354,218.848129 275.193451,200.869598 271.020203,196.959946 
	C275.736053,196.959946 279.932404,196.959946 284.575928,196.957748 
M281.404968,198.198669 
	C280.597351,199.028717 279.165833,199.807678 279.092926,200.697906 
	C278.817108,204.065384 278.982056,207.468948 278.982056,210.920151 
	C283.851776,211.055344 287.260864,210.076981 287.945953,205.218674 
	C288.558319,200.875977 286.290527,198.773895 281.404968,198.198669 
z"/>
<path fill="#545557" opacity="1.000000" stroke="none" 
	d="
M400.017700,222.840836 
	C398.614227,222.888397 397.210754,222.935974 395.229279,222.690796 
	C394.332611,222.224991 394.013977,222.051941 393.695312,221.878906 
	C395.998840,215.986481 395.502197,210.175339 393.274353,203.019226 
	C395.594604,203.428848 397.797028,203.882751 400.020752,204.173981 
	C400.771057,204.272232 401.639038,204.108124 402.345001,203.808716 
	C408.664368,201.128784 412.574219,203.730789 413.039642,210.572021 
	C413.316437,214.640259 411.246368,219.196701 415.278595,222.841034 
	C412.312988,222.841034 409.522949,222.841034 407.754059,222.841034 
	C407.797058,217.963669 408.084229,213.080215 407.699768,208.250214 
	C407.610901,207.133667 405.198547,205.369614 403.903961,205.411362 
	C402.560394,205.454681 400.222656,207.263977 400.153656,208.411270 
	C399.899048,212.643433 400.403656,216.921295 400.817505,221.588928 
	C401.012207,221.995895 400.902039,222.134903 400.710785,222.187073 
	C400.281769,222.380936 400.114502,222.581467 400.017700,222.840836 
z"/>
<path fill="#525355" opacity="1.000000" stroke="none" 
	d="
M378.379761,202.951187 
	C386.567993,202.968170 390.042572,206.019043 390.056519,212.834641 
	C390.067535,218.217407 387.104523,222.228638 382.536285,223.015182 
	C376.315308,224.086319 372.303497,221.822723 370.486603,216.216354 
	C368.812561,211.050781 370.806946,206.195755 375.661865,203.730042 
	C376.375366,203.367676 377.190613,203.205612 378.379761,202.951187 
M380.412048,204.020645 
	C374.979889,205.983246 372.926239,212.688339 376.188263,218.794174 
	C376.920959,220.165573 378.812653,221.725708 380.173859,221.728561 
	C381.564514,221.731476 383.452484,220.218674 384.260010,218.857559 
	C386.774353,214.619659 385.099060,207.470871 380.412048,204.020645 
z"/>
<path fill="#535456" opacity="1.000000" stroke="none" 
	d="
M501.011169,166.971909 
	C506.154907,175.005463 501.613708,184.284897 493.800629,184.272308 
	C489.450073,184.265305 486.000122,182.995453 484.100769,178.884872 
	C482.023224,174.388565 482.643616,170.028748 485.980530,166.518158 
	C489.312561,163.012695 493.675323,163.316757 497.925751,164.747772 
	C498.976013,165.101379 499.840790,166.005875 501.011169,166.971909 
M491.909546,165.276169 
	C487.511719,168.830933 486.301666,177.229370 490.129578,181.111206 
	C491.220215,182.217209 494.729492,182.545090 495.945282,181.639603 
	C500.922241,177.932907 498.597412,167.104645 491.909546,165.276169 
z"/>
<path fill="#545557" opacity="1.000000" stroke="none" 
	d="
M659.225342,184.208282 
	C653.411682,183.302612 650.344910,180.279510 649.805115,175.245071 
	C649.284851,170.391830 651.839600,165.899338 655.991943,164.365814 
	C660.642334,162.648376 665.826965,164.134613 668.453247,167.974396 
	C672.265442,173.547882 669.327454,185.092407 659.225342,184.208282 
M663.077087,181.470978 
	C663.566406,177.356232 664.712952,173.182114 664.348267,169.144501 
	C664.024963,165.566147 660.218628,164.159714 657.691406,165.831818 
	C653.664856,168.495956 653.737671,179.939636 657.984070,182.219803 
	C659.110413,182.824585 660.953369,182.094757 663.077087,181.470978 
z"/>
<path fill="#535456" opacity="1.000000" stroke="none" 
	d="
M473.978973,220.954926 
	C471.875305,221.631714 469.740356,222.879379 467.679901,222.766556 
	C466.484650,222.701096 464.527802,220.466095 464.502319,219.175995 
	C464.470276,217.552979 465.661438,215.235016 467.040588,214.402008 
	C469.506287,212.912766 472.507568,212.310394 475.343872,211.316574 
	C476.264587,205.648499 475.558258,204.880630 469.283569,205.204269 
	C469.283569,206.089340 469.496277,207.063568 469.222626,207.873444 
	C468.958466,208.655319 468.316650,209.563019 467.607788,209.860809 
	C467.043335,210.097916 465.689911,209.701904 465.469666,209.225220 
	C465.128174,208.486237 465.100372,207.178146 465.553589,206.565918 
	C468.248871,202.924835 472.179779,202.361893 476.256744,203.062363 
	C480.238647,203.746506 480.094940,207.016190 480.029449,210.093735 
	C479.987000,212.088425 479.758850,214.131454 480.098419,216.067886 
	C480.470001,218.187042 481.399384,220.208374 482.400085,223.217957 
	C479.895386,222.735413 477.162354,222.208878 474.283508,220.994415 
	C474.917755,218.048386 475.697845,215.790283 476.477936,213.532196 
	C475.844940,213.101334 475.211945,212.670471 474.578949,212.239609 
	C472.610413,214.194168 470.641876,216.148743 468.673309,218.103302 
	C470.441864,219.053833 472.210419,220.004379 473.978973,220.954926 
z"/>
<path fill="#4E4F51" opacity="1.000000" stroke="none" 
	d="
M332.921539,182.004425 
	C330.266052,182.563034 327.603302,183.495316 324.959717,183.443680 
	C324.204926,183.428955 322.517365,180.087372 322.989685,179.099869 
	C323.935730,177.122055 325.868103,175.382187 327.790436,174.178055 
	C329.371643,173.187592 331.526550,173.113037 333.410126,172.636841 
	C334.446503,166.227280 333.972839,165.718536 327.192169,166.243286 
	C327.355774,167.312042 327.851013,168.463562 327.567902,169.372742 
	C327.350677,170.070419 326.201935,170.750153 325.373169,170.893845 
	C324.776794,170.997238 323.733032,170.355042 323.429626,169.766571 
	C323.158691,169.241150 323.406158,168.171127 323.807770,167.620972 
	C326.499268,163.934265 330.422211,163.356598 334.488220,164.078964 
	C338.358978,164.766632 338.312225,168.140762 338.437408,171.145645 
	C338.527374,173.305038 338.200073,175.514481 338.548157,177.620728 
	C338.858185,179.496536 339.840149,181.261307 340.704895,183.549667 
	C338.565094,184.701035 335.970215,184.639816 333.207581,181.684998 
	C333.327545,178.977631 333.849854,176.726364 334.372131,174.475082 
	C333.810608,174.089035 333.249084,173.702988 332.687561,173.316940 
	C330.781799,175.253845 327.565582,176.999283 327.248688,179.168320 
	C326.628052,183.416443 330.889252,181.145920 332.921539,182.004425 
z"/>
<path fill="#555658" opacity="1.000000" stroke="none" 
	d="
M614.976074,166.237366 
	C615.407227,170.057465 615.487549,173.514420 615.947571,176.920120 
	C616.242737,179.105255 617.097168,181.214828 617.804932,183.727722 
	C618.009338,183.665176 617.422241,183.989838 616.828003,184.003326 
	C612.770874,184.095520 608.671021,184.473663 604.673340,184.005280 
	C602.964050,183.805008 600.490967,182.024292 600.145447,180.545624 
	C599.794189,179.042557 601.249695,176.601257 602.625122,175.356583 
	C603.986389,174.124619 606.190491,173.667755 608.107422,173.247849 
	C610.218323,172.785507 612.105347,172.506485 611.454895,169.598740 
	C610.849182,166.891098 609.293274,165.419983 606.496399,166.032883 
	C604.686768,166.429428 602.985107,167.318588 601.891663,167.736221 
	C604.967468,163.130905 609.491821,162.258347 614.976074,166.237366 
M611.748779,176.588409 
	C610.254211,171.244537 607.600403,175.692657 605.713135,176.157181 
	C604.977295,176.338287 604.053162,179.222672 604.559998,180.085388 
	C605.160950,181.108322 607.676514,182.108780 608.532227,181.631302 
	C609.953003,180.838455 610.711365,178.858536 611.748779,176.588409 
z"/>
<path fill="#545557" opacity="1.000000" stroke="none" 
	d="
M460.246399,184.210373 
	C453.937836,182.931610 450.693665,177.747940 452.017456,171.605453 
	C453.266174,165.811188 458.736938,162.375046 464.473602,164.090912 
	C468.501892,165.295822 469.705505,168.328064 468.629364,172.580627 
	C464.807770,172.580627 460.913452,172.580627 457.039337,172.580627 
	C456.361481,180.311340 459.085663,182.255234 467.794861,180.438538 
	C467.950958,180.863495 468.107056,181.288452 468.263153,181.713425 
	C465.714081,182.561279 463.164978,183.409149 460.246399,184.210373 
M462.257935,165.264832 
	C458.688934,165.295975 457.027161,167.103485 457.041016,170.621872 
	C459.749420,170.621872 462.254333,170.621872 465.932373,170.621872 
	C464.602081,168.450974 463.754852,167.068390 462.257935,165.264832 
z"/>
<path fill="#525355" opacity="1.000000" stroke="none" 
	d="
M424.985382,181.970734 
	C422.620178,182.616043 420.234222,183.770538 417.899200,183.675354 
	C416.852234,183.632645 414.844696,180.776413 415.146454,179.745041 
	C415.703339,177.841705 417.343079,175.844315 419.080933,174.801331 
	C421.255829,173.496063 423.984344,173.113373 426.432709,172.345383 
	C426.683655,166.672455 426.125214,166.151993 419.491882,165.751633 
	C419.491882,165.318741 419.491882,164.885864 419.491882,164.452972 
	C422.395111,164.452972 425.609161,163.702454 428.087433,164.728699 
	C429.624146,165.365051 430.406097,168.623123 430.864227,170.841232 
	C431.325317,173.073624 430.724670,175.508972 431.041779,177.792542 
	C431.300995,179.658981 432.226379,181.432922 433.186340,184.198303 
	C430.794495,183.716400 428.083130,183.170105 425.212524,181.959869 
	C425.830505,179.045410 426.607788,176.794937 427.385071,174.544449 
	C426.757446,174.113297 426.129791,173.682129 425.502167,173.250961 
	C423.363525,175.145737 419.824951,176.784836 419.421051,178.996445 
	C418.844849,182.151520 422.517548,181.933411 424.985382,181.970734 
z"/>
<path fill="#525355" opacity="1.000000" stroke="none" 
	d="
M309.713074,220.514221 
	C305.537109,223.838394 300.825745,224.200302 297.606140,221.444244 
	C293.777863,218.167160 292.910095,212.255585 295.539215,207.363831 
	C297.573486,203.578888 302.195770,201.624344 306.693481,203.079971 
	C310.653198,204.361465 311.899872,207.350540 310.627472,211.826752 
	C306.969391,211.660568 303.224091,211.490417 299.508423,211.321609 
	C298.295135,218.369049 300.527069,220.559982 308.626343,220.046082 
	C309.408966,220.303406 309.561005,220.408813 309.713074,220.514221 
M305.650940,205.075760 
	C301.392548,203.768402 299.711334,205.040375 299.503235,209.683273 
	C301.928955,209.683273 304.352020,209.683273 307.255432,209.683273 
	C306.842712,208.074081 306.529510,206.853012 305.650940,205.075760 
z"/>
<path fill="#545557" opacity="1.000000" stroke="none" 
	d="
M303.691650,168.850433 
	C308.296387,162.413971 316.554077,161.973846 319.166016,167.705627 
	C320.919312,171.553192 320.087280,172.914948 315.952393,172.774231 
	C313.160217,172.679199 310.373474,172.425583 307.603119,172.244156 
	C306.479034,179.193115 308.745758,181.252472 317.420441,181.091003 
	C315.731537,185.082489 312.058563,184.928055 309.581970,183.817795 
	C306.955750,182.640472 304.332916,180.025238 303.194031,177.394836 
	C302.211670,175.125961 303.315735,171.953705 303.691650,168.850433 
M307.886383,168.512115 
	C308.070709,169.322906 308.197357,170.816238 308.448456,170.837479 
	C310.639008,171.022720 312.851868,170.944473 316.773773,170.944473 
	C314.889374,168.190552 314.077179,165.787354 312.899994,165.592804 
	C311.446533,165.352646 309.689667,166.948700 307.886383,168.512115 
z"/>
<path fill="#5A5B5C" opacity="1.000000" stroke="none" 
	d="
M379.026398,166.471481 
	C377.834442,172.334488 376.559692,178.203583 379.883423,183.863190 
	C377.352783,183.863190 374.408661,183.863190 371.389923,183.863190 
	C374.247955,179.165329 374.076904,159.494049 370.901245,155.366531 
	C373.198303,154.794662 375.294128,154.272903 378.250366,153.536926 
	C378.250366,158.116531 378.250366,162.065140 378.663696,166.262100 
	C379.077026,166.510452 379.026398,166.471481 379.026398,166.471481 
z"/>
<path fill="#57585A" opacity="1.000000" stroke="none" 
	d="
M490.991882,203.109360 
	C492.447235,203.273804 494.087616,203.957184 495.326721,203.515274 
	C501.576508,201.286530 505.258453,203.617111 505.668121,210.431686 
	C505.797760,212.588150 505.518616,214.777405 505.747925,216.917221 
	C505.960205,218.898209 506.602081,220.833160 507.071350,222.860046 
	C504.722015,222.860046 501.920441,222.860046 500.326355,222.860046 
	C500.449158,217.777618 500.742462,212.744629 500.533264,207.732590 
	C500.495667,206.831665 498.366791,205.310226 497.238251,205.341263 
	C495.817230,205.380341 494.043060,206.408508 493.113800,207.565948 
	C491.287445,209.840820 492.518829,219.982208 494.831879,222.769974 
	C493.654999,222.854553 492.704742,222.922852 491.379669,222.455917 
	C491.000519,215.650238 490.996185,209.379807 490.991882,203.109360 
z"/>
<path fill="#545557" opacity="1.000000" stroke="none" 
	d="
M362.229584,161.661316 
	C361.760651,166.883652 366.492432,163.625977 368.207855,166.277893 
	C366.235321,166.693314 364.492920,167.060272 362.751404,167.428040 
	C361.063782,177.996979 361.811890,180.772507 366.813812,182.496887 
	C366.848145,182.979584 366.882507,183.462280 366.916840,183.944977 
	C364.741394,183.944977 362.302643,184.548080 360.475372,183.750473 
	C359.062836,183.133865 357.893219,180.866196 357.552032,179.146744 
	C357.042297,176.577530 357.539032,173.825363 357.256165,171.188721 
	C357.057404,169.336166 356.273804,167.546356 355.758057,165.751877 
	C356.859283,164.181671 358.163269,162.185654 359.608124,160.297409 
	C361.337280,158.037582 362.141937,158.742706 362.229584,161.661316 
z"/>
<path fill="#555658" opacity="1.000000" stroke="none" 
	d="
M505.915588,166.233887 
	C506.871246,164.050949 507.810913,162.279221 508.835114,160.557785 
	C510.058655,158.501282 511.354553,156.487808 512.619080,154.455688 
	C512.982788,154.677002 513.346436,154.898315 513.710083,155.119629 
	C513.405640,158.141861 513.101135,161.164093 512.772095,164.430435 
	C514.708252,164.770096 516.257263,165.041824 517.806274,165.313568 
	C517.866821,165.677734 517.927307,166.041901 517.987854,166.406067 
	C516.453674,166.725983 514.919556,167.045914 512.837036,167.480179 
	C514.354187,172.709396 510.087830,178.971283 516.083740,183.697357 
	C512.952698,183.697357 509.656738,183.697357 507.712097,183.697357 
	C507.802795,178.427551 507.938965,173.146423 507.895264,167.866806 
	C507.891937,167.461639 506.619598,167.066971 505.915588,166.233887 
z"/>
<path fill="#555658" opacity="1.000000" stroke="none" 
	d="
M595.351746,181.831329 
	C596.294922,181.571899 596.856567,181.368881 597.418213,181.165863 
	C597.538940,181.729675 597.659607,182.293472 597.780334,182.857269 
	C595.178589,183.213455 592.345947,184.337524 590.057983,183.649719 
	C588.588623,183.208008 587.431641,180.198242 587.017944,178.160278 
	C586.500122,175.609085 587.030518,172.863037 586.827515,170.222702 
	C586.718506,168.805847 586.020813,167.434296 585.457886,165.620468 
	C586.922546,163.748077 588.819763,161.322769 591.341919,158.098526 
	C591.672974,160.789932 591.882446,162.492523 592.127930,164.487900 
	C593.800110,164.793121 595.595093,165.120758 597.390076,165.448410 
	C597.401367,165.803284 597.412598,166.158157 597.423889,166.513031 
	C595.778625,166.756592 594.133423,167.000168 591.886719,167.332794 
	C591.886719,171.102585 591.671143,175.047516 592.027954,178.939972 
	C592.125488,180.003555 593.942322,180.909500 595.351746,181.831329 
z"/>
<path fill="#515253" opacity="1.000000" stroke="none" 
	d="
M396.554810,178.958832 
	C396.191498,176.298355 395.758545,173.964035 395.961182,171.686279 
	C396.505341,165.569534 404.308868,161.608047 409.545013,164.840744 
	C410.707855,165.558655 411.447815,167.307114 411.856323,168.731918 
	C412.020599,169.305054 410.768982,170.284134 410.161774,171.078461 
	C409.303986,170.345398 408.238922,169.749130 407.641663,168.844131 
	C406.921265,167.752625 406.597778,166.399124 406.102478,165.159027 
	C404.590698,166.035248 401.985260,166.703995 401.772247,167.826645 
	C401.134277,171.189346 400.458893,175.141617 401.695312,178.059998 
	C402.564484,180.111603 406.532471,180.850357 409.775848,182.513275 
	C408.450012,182.989944 406.814301,183.949509 405.100800,184.118179 
	C401.313080,184.491028 398.216583,183.218857 396.554810,178.958832 
z"/>
<path fill="#505153" opacity="1.000000" stroke="none" 
	d="
M444.767883,165.467285 
	C445.878052,164.778625 446.895294,163.851578 447.558319,164.058640 
	C448.716095,164.420242 449.656006,165.479538 450.687225,166.246460 
	C449.622375,166.839630 448.451965,168.067825 447.511627,167.911575 
	C444.163086,167.355118 442.843689,168.608047 442.950165,171.846512 
	C443.010010,173.666733 442.681580,175.546219 443.031342,177.298553 
	C443.464020,179.466095 444.418701,181.529465 445.161743,183.678040 
	C442.971863,183.678040 439.685760,183.678040 436.397583,183.677399 
	C439.775208,179.476776 439.713531,169.193039 436.279938,165.671402 
	C439.058868,161.783783 441.777771,165.045441 444.767883,165.467285 
z"/>
<path fill="#4E4F51" opacity="1.000000" stroke="none" 
	d="
M458.989288,210.944733 
	C459.266479,215.115585 459.543701,218.799118 459.835754,222.680420 
	C458.490845,222.680420 455.657227,222.680420 452.944244,222.680420 
	C456.165588,218.191849 455.755798,198.037567 452.103485,194.288544 
	C454.420807,193.784821 456.631927,193.304184 458.989288,192.791779 
	C458.989288,198.946381 458.989288,204.701889 458.989288,210.944733 
z"/>
<path fill="#535456" opacity="1.000000" stroke="none" 
	d="
M341.068237,217.798615 
	C342.065491,219.258636 342.895813,221.082184 343.953857,221.225616 
	C345.577240,221.445679 347.357300,220.509857 349.070892,220.064560 
	C348.447937,218.466766 348.209564,216.482346 347.097565,215.376221 
	C345.904297,214.189316 343.487976,214.210785 342.339813,213.005371 
	C341.033905,211.634415 339.957397,209.512222 339.885254,207.673264 
	C339.830994,206.290375 341.519012,204.839142 343.180817,203.568344 
	C342.990143,208.738892 345.953674,210.342941 349.645721,212.132248 
	C351.620453,213.089294 353.926147,216.522522 353.552338,218.308823 
	C353.150543,220.228867 349.991028,222.142349 347.654755,222.926773 
	C345.315765,223.712128 342.507294,223.099243 339.232452,223.099243 
	C339.232452,220.781631 339.232452,218.837936 339.232452,216.894257 
	C339.822723,217.065994 340.412994,217.237747 341.068237,217.798615 
z"/>
<path fill="#4C4D4F" opacity="1.000000" stroke="none" 
	d="
M345.951630,174.843628 
	C345.951630,170.219742 346.132324,166.064026 345.877960,161.935120 
	C345.744232,159.764328 344.849487,157.640457 344.196045,155.096970 
	C345.432587,154.827438 347.548004,154.366348 349.772705,153.881454 
	C350.867920,164.056061 348.319885,174.190933 351.300018,183.877502 
	C349.459473,183.877502 346.653442,183.877502 344.492401,183.877502 
	C344.972137,181.065140 345.461884,178.194031 345.951630,174.843628 
z"/>
<path fill="#58595B" opacity="1.000000" stroke="none" 
	d="
M569.063171,166.310043 
	C571.709534,165.574554 574.767151,163.690216 576.879639,164.446320 
	C578.762939,165.120422 580.071472,168.583115 580.763123,171.058411 
	C581.406616,173.361481 580.706665,176.006195 580.968079,178.461105 
	C581.155396,180.220474 581.952759,181.914856 582.518433,183.771271 
	C580.189636,183.771271 577.322754,183.771271 575.854614,183.771271 
	C575.854614,178.838135 576.284851,173.887939 575.698730,169.061111 
	C575.326660,165.996735 572.490784,165.799652 569.421082,166.692474 
	C569.001892,166.477341 569.063171,166.310043 569.063171,166.310043 
z"/>
<path fill="#4E4F51" opacity="1.000000" stroke="none" 
	d="
M379.326172,166.714172 
	C379.026398,166.471481 379.077026,166.510452 379.074280,166.479004 
	C381.178162,162.997040 384.784515,163.127899 387.389496,164.488800 
	C389.203705,165.436584 390.182800,168.596558 390.837982,170.961411 
	C391.394287,172.969406 390.745392,175.279648 391.010559,177.408722 
	C391.283783,179.602219 392.017426,181.738358 392.529877,183.819473 
	C390.287109,183.819473 387.319763,183.819473 384.216461,183.819473 
	C386.688629,180.758820 387.886383,170.792755 385.554077,168.316162 
	C384.399139,167.089798 381.652435,167.362427 379.326172,166.714172 
z"/>
<path fill="#5D5E60" opacity="1.000000" stroke="none" 
	d="
M628.831299,165.891418 
	C628.533997,170.641586 628.037598,175.393890 628.088318,180.140335 
	C628.100159,181.240891 629.979065,182.321442 631.228882,183.657104 
	C627.916382,183.657104 624.654907,183.657104 621.476990,183.657104 
	C624.253296,179.450012 624.166138,169.075790 621.027649,165.083176 
	C623.613586,164.138214 626.040588,162.178528 628.522827,165.811829 
	C628.876648,165.908707 628.831299,165.891418 628.831299,165.891418 
z"/>
<path fill="#535456" opacity="1.000000" stroke="none" 
	d="
M324.138306,205.063248 
	C320.170929,207.868408 319.352844,217.531387 322.739319,222.854446 
	C319.860626,222.854446 317.076599,222.854446 314.775787,222.854446 
	C316.447418,216.522903 316.758423,210.331879 314.140594,202.731216 
	C317.193176,203.339462 319.765259,203.851974 322.822876,204.476044 
	C323.543732,204.818176 323.820404,204.976715 324.138306,205.063248 
z"/>
<path fill="#505153" opacity="1.000000" stroke="none" 
	d="
M324.518921,205.079895 
	C323.820404,204.976715 323.543732,204.818176 323.170563,204.389740 
	C329.561462,201.050613 333.634277,203.434830 333.965424,210.582962 
	C334.153564,214.643768 334.359772,218.703735 334.561829,222.845078 
	C333.198303,222.845078 330.405853,222.845078 328.466125,222.845078 
	C328.615692,217.925842 329.008911,213.027069 328.725464,208.167801 
	C328.661621,207.073364 326.237274,206.116638 324.518921,205.079895 
z"/>
<path fill="#4E4F51" opacity="1.000000" stroke="none" 
	d="
M366.619385,221.789444 
	C363.832550,222.468765 360.727875,222.932922 356.870758,223.509567 
	C360.930420,218.964172 360.961975,207.888412 356.938690,203.776688 
	C359.803955,203.395309 362.123566,203.086563 364.953247,202.709915 
	C364.953247,207.914047 364.845764,212.536545 365.015106,217.148849 
	C365.069794,218.637741 365.852081,220.099899 366.619385,221.789444 
z"/>
<path fill="#5A5B5C" opacity="1.000000" stroke="none" 
	d="
M644.905151,167.277878 
	C645.149475,173.100693 645.393127,178.455795 645.640137,183.884613 
	C644.256836,183.884613 641.450012,183.884613 638.618469,183.884613 
	C641.073181,177.611664 640.543823,171.482544 638.901978,164.897797 
	C640.633850,164.701508 643.748230,161.037109 644.905151,167.277878 
z"/>
<path fill="#535456" opacity="1.000000" stroke="none" 
	d="
M568.724243,166.266617 
	C569.063171,166.310043 569.001892,166.477341 568.983765,166.563171 
	C567.428833,172.393295 567.311401,178.053116 569.156067,183.775543 
	C567.238037,183.775543 564.495178,183.775543 562.134399,183.775543 
	C562.134399,177.697403 562.134399,171.554428 562.134399,164.635620 
	C562.819580,164.519287 564.517639,164.230972 566.699951,164.210114 
	C567.341003,164.712646 567.550781,164.882309 567.813416,164.986572 
	C568.004028,165.398788 568.194641,165.810989 568.724243,166.266617 
z"/>
<path fill="#4C4D4F" opacity="1.000000" stroke="none" 
	d="
M490.593262,203.040802 
	C490.996185,209.379807 491.000519,215.650238 490.996887,222.378235 
	C490.242828,222.878754 489.496704,222.921707 488.370422,222.555695 
	C487.960663,221.688965 487.931122,221.231232 487.901581,220.773483 
	C487.706177,215.246048 487.510773,209.718613 487.290192,203.479187 
	C487.423798,203.455856 488.809204,203.214050 490.593262,203.040802 
z"/>
<path fill="#57585A" opacity="1.000000" stroke="none" 
	d="
M487.600159,220.883636 
	C487.931122,221.231232 487.960663,221.688965 488.001160,222.490616 
	C487.257141,222.876602 486.502258,222.918686 484.949524,223.005234 
	C486.106934,222.014221 486.702820,221.503998 487.600159,220.883636 
z"/>
<path fill="#5D5E60" opacity="1.000000" stroke="none" 
	d="
M628.891418,165.925797 
	C629.341370,165.698288 629.776550,165.453690 629.482788,165.618805 
	C629.923645,165.483337 629.574890,165.590500 629.028748,165.794540 
	C628.831299,165.891418 628.876648,165.908707 628.891418,165.925797 
z"/>
<path fill="#525355" opacity="1.000000" stroke="none" 
	d="
M393.439514,222.027710 
	C394.013977,222.051941 394.332611,222.224991 394.813110,222.618927 
	C394.377869,222.618729 393.780792,222.397614 393.439514,222.027710 
z"/>
<path fill="#545557" opacity="1.000000" stroke="none" 
	d="
M401.068329,221.927216 
	C401.507019,222.078323 401.889557,222.298096 402.272125,222.517883 
	C402.000305,222.656815 401.728485,222.795731 401.212280,222.705536 
	C400.967926,222.476395 400.902039,222.134903 400.902039,222.134903 
	C400.902039,222.134903 401.012207,221.995895 401.068329,221.927216 
z"/>
<path fill="#545557" opacity="1.000000" stroke="none" 
	d="
M318.596283,180.663910 
	C318.322357,180.644379 318.268890,180.426346 318.215393,180.208313 
	C318.415833,180.294006 318.616272,180.379700 318.596283,180.663910 
z"/>
<path fill="#525355" opacity="1.000000" stroke="none" 
	d="
M310.016663,219.016953 
	C310.150970,218.795380 310.285248,218.573807 310.419495,218.352219 
	C310.415161,218.647141 310.410828,218.942062 310.189087,219.108719 
	C309.971741,218.980453 310.016663,219.016953 310.016663,219.016953 
z"/>
<path fill="#525355" opacity="1.000000" stroke="none" 
	d="
M309.946838,218.965729 
	C310.027405,219.178085 310.162750,219.397369 310.225067,219.635727 
	C310.253479,219.744583 310.137848,219.891052 309.900330,220.267334 
	C309.561005,220.408813 309.408966,220.303406 309.047180,220.016235 
	C309.048553,219.555344 309.259613,219.276245 309.743652,219.007050 
	C310.016663,219.016953 309.971741,218.980453 309.946838,218.965729 
z"/>
<path fill="#58595B" opacity="1.000000" stroke="none" 
	d="
M567.846313,164.726807 
	C567.550781,164.882309 567.341003,164.712646 567.096069,164.292587 
	C567.298462,164.227386 567.588806,164.347198 567.846313,164.726807 
z"/>
<path fill="#525355" opacity="1.000000" stroke="none" 
	d="
M400.710785,222.187073 
	C400.902039,222.134903 400.967926,222.476395 400.982727,222.649658 
	C400.834991,222.867477 400.672455,222.912064 400.263794,222.898743 
	C400.114502,222.581467 400.281769,222.380936 400.710785,222.187073 
z"/>
<path fill="#FBFDFC" opacity="1.000000" stroke="none" 
	d="
M103.447311,122.308914 
	C102.169968,117.363968 101.099541,112.743820 99.986320,107.938934 
	C122.543762,109.699974 133.807724,116.276245 133.608353,138.849670 
	C121.810059,136.650467 110.187302,134.439331 103.447311,122.308914 
z"/>
<path fill="#FAFCFB" opacity="1.000000" stroke="none" 
	d="
M131.257538,101.544167 
	C126.574577,93.119492 127.539291,85.453590 132.811600,78.065666 
	C148.331665,89.894310 150.633713,99.096062 141.177124,113.323059 
	C137.856506,109.409111 134.656540,105.637383 131.257538,101.544167 
z"/>
<path fill="#FAFDFB" opacity="1.000000" stroke="none" 
	d="
M188.680542,183.924622 
	C177.092468,187.229980 168.617188,182.414948 162.355453,169.250610 
	C174.413879,163.756088 186.847519,169.876511 189.974426,182.889648 
	C190.033066,183.133698 189.401215,183.543640 188.680542,183.924622 
z"/>
<path fill="#FAFDFB" opacity="1.000000" stroke="none" 
	d="
M115.828323,151.965363 
	C104.333107,160.136551 97.248367,159.976196 87.214287,151.463470 
	C101.016624,138.899338 110.478256,141.273621 118.838989,149.637421 
	C117.935722,150.374542 117.045776,151.100769 115.828323,151.965363 
z"/>
<path fill="#FAFDFB" opacity="1.000000" stroke="none" 
	d="
M178.751434,145.352844 
	C174.824066,152.567978 168.539032,155.901260 161.435181,158.149139 
	C156.982986,147.289398 162.352737,136.843842 180.319626,132.799286 
	C179.823044,137.061172 179.361328,141.023834 178.751434,145.352844 
z"/>
<path fill="#FAFDFB" opacity="1.000000" stroke="none" 
	d="
M129.878784,161.382889 
	C131.371262,172.393463 124.811172,181.260025 110.711983,184.646912 
	C107.657478,171.830170 115.962952,160.553879 128.973602,159.918564 
	C129.239777,159.905563 129.539978,160.589020 129.878784,161.382889 
z"/>
<path fill="#FBFDFC" opacity="1.000000" stroke="none" 
	d="
M184.648224,159.960724 
	C182.918243,155.021484 187.589142,147.187775 193.768570,145.212204 
	C197.281097,144.089264 201.227249,144.280563 204.986664,143.990311 
	C206.796066,143.850632 208.625168,143.966217 210.473740,143.966217 
	C209.342072,153.459930 202.707794,159.667999 193.544205,159.959442 
	C190.725098,160.049118 187.900681,159.971863 184.648224,159.960724 
z"/>
<path fill="#FDFDFD" opacity="1.000000" stroke="none" 
	d="
M385.357666,95.945770 
	C389.674683,108.499702 385.346832,119.890739 375.143372,123.767548 
	C365.338654,127.492851 354.378418,123.052200 350.158295,113.644547 
	C345.691467,103.686974 349.504181,91.551857 358.537292,86.975945 
	C368.524811,81.916550 379.304657,85.424164 385.357666,95.945770 
z"/>
<path fill="#FDFDFD" opacity="1.000000" stroke="none" 
	d="
M429.398804,120.700012 
	C422.618835,114.032234 420.817993,106.389915 423.525421,97.739777 
	C425.765045,90.584328 430.955536,86.427567 438.110840,85.045792 
	C446.506226,83.424538 455.097748,88.027695 458.753754,95.580276 
	C462.946747,104.242180 461.045868,114.061043 453.935394,120.469063 
	C447.938263,125.873703 438.969971,126.472900 431.385803,121.972794 
	C430.814514,121.633797 430.254486,121.275787 429.398804,120.700012 
z"/>
<path fill="#FCFCFC" opacity="1.000000" stroke="none" 
	d="
M497.928711,90.118073 
	C497.588013,87.072044 498.194672,85.581734 501.294586,85.843948 
	C504.421875,86.108482 507.589661,85.848679 510.736023,85.942375 
	C516.712158,86.120323 519.987793,89.402901 520.031799,95.135239 
	C520.075928,100.888161 516.413818,104.737419 510.606903,104.913689 
	C507.460846,105.009186 504.309570,104.934006 501.160645,104.935608 
	C500.343842,104.936020 499.527039,104.935661 497.928619,104.935661 
	C497.928619,100.047722 497.928619,95.325958 497.928711,90.118073 
z"/>
<path fill="#FCFCFC" opacity="1.000000" stroke="none" 
	d="
M556.927124,93.044891 
	C556.927124,90.572174 556.927124,88.588982 556.927124,86.061623 
	C562.047363,86.061623 567.010315,85.635483 571.862305,86.186401 
	C576.345825,86.695473 579.186401,91.377243 578.835999,96.215034 
	C578.497803,100.884903 574.918091,104.636612 570.165161,104.881294 
	C566.023560,105.094490 561.862427,104.925705 556.927124,104.925705 
	C556.927124,101.021408 556.927124,97.277908 556.927124,93.044891 
z"/>
<path fill="#FBFBFB" opacity="1.000000" stroke="none" 
	d="
M535.950806,170.078522 
	C536.629822,161.695831 539.396057,158.434174 545.198120,159.044510 
	C546.559143,159.187683 548.091492,159.825592 549.110657,160.726990 
	C553.525757,164.631943 553.528320,176.770844 549.256592,180.852737 
	C545.561584,184.383560 539.929871,183.465912 537.708191,178.595917 
	C536.589722,176.144196 536.503601,173.221542 535.950806,170.078522 
z"/>
<path fill="#F8F8F9" opacity="1.000000" stroke="none" 
	d="
M436.934814,204.135895 
	C437.229248,201.482788 435.729431,198.328827 439.874634,198.195053 
	C443.648438,198.073242 445.980438,200.435989 445.924713,204.334671 
	C445.857697,209.019257 443.536133,210.822983 436.934814,210.823593 
	C436.934814,208.753250 436.934814,206.673706 436.934814,204.135895 
z"/>
<path fill="#F9F9F9" opacity="1.000000" stroke="none" 
	d="
M281.814026,198.193039 
	C286.290527,198.773895 288.558319,200.875977 287.945953,205.218674 
	C287.260864,210.076981 283.851776,211.055344 278.982056,210.920151 
	C278.982056,207.468948 278.817108,204.065384 279.092926,200.697906 
	C279.165833,199.807678 280.597351,199.028717 281.814026,198.193039 
z"/>
<path fill="#F9F9F9" opacity="1.000000" stroke="none" 
	d="
M380.797729,204.098114 
	C385.099060,207.470871 386.774353,214.619659 384.260010,218.857559 
	C383.452484,220.218674 381.564514,221.731476 380.173859,221.728561 
	C378.812653,221.725708 376.920959,220.165573 376.188263,218.794174 
	C372.926239,212.688339 374.979889,205.983246 380.797729,204.098114 
z"/>
<path fill="#F8F8F9" opacity="1.000000" stroke="none" 
	d="
M492.282715,165.155380 
	C498.597412,167.104645 500.922241,177.932907 495.945282,181.639603 
	C494.729492,182.545090 491.220215,182.217209 490.129578,181.111206 
	C486.301666,177.229370 487.511719,168.830933 492.282715,165.155380 
z"/>
<path fill="#F7F7F7" opacity="1.000000" stroke="none" 
	d="
M662.772217,181.724365 
	C660.953369,182.094757 659.110413,182.824585 657.984070,182.219803 
	C653.737671,179.939636 653.664856,168.495956 657.691406,165.831818 
	C660.218628,164.159714 664.024963,165.566147 664.348267,169.144501 
	C664.712952,173.182114 663.566406,177.356232 662.772217,181.724365 
z"/>
<path fill="#F4F4F4" opacity="1.000000" stroke="none" 
	d="
M473.946777,220.967453 
	C472.210419,220.004379 470.441864,219.053833 468.673309,218.103302 
	C470.641876,216.148743 472.610413,214.194168 474.578949,212.239609 
	C475.211945,212.670471 475.844940,213.101334 476.477936,213.532196 
	C475.697845,215.790283 474.917755,218.048386 474.005920,220.671249 
	C473.874207,221.036026 473.914581,220.979980 473.946777,220.967453 
z"/>
<path fill="#F8F8F9" opacity="1.000000" stroke="none" 
	d="
M332.890442,182.015320 
	C330.889252,181.145920 326.628052,183.416443 327.248688,179.168320 
	C327.565582,176.999283 330.781799,175.253845 332.687561,173.316940 
	C333.249084,173.702988 333.810608,174.089035 334.372131,174.475082 
	C333.849854,176.726364 333.327545,178.977631 332.818054,181.657272 
	C332.830841,182.085632 332.859344,182.026230 332.890442,182.015320 
z"/>
<path fill="#EDEDED" opacity="1.000000" stroke="none" 
	d="
M611.748779,176.983521 
	C610.711365,178.858536 609.953003,180.838455 608.532227,181.631302 
	C607.676514,182.108780 605.160950,181.108322 604.559998,180.085388 
	C604.053162,179.222672 604.977295,176.338287 605.713135,176.157181 
	C607.600403,175.692657 610.254211,171.244537 611.748779,176.983521 
z"/>
<path fill="#F4F4F4" opacity="1.000000" stroke="none" 
	d="
M462.582764,165.475311 
	C463.754852,167.068390 464.602081,168.450974 465.932373,170.621872 
	C462.254333,170.621872 459.749420,170.621872 457.041016,170.621872 
	C457.027161,167.103485 458.688934,165.295975 462.582764,165.475311 
z"/>
<path fill="#F4F4F4" opacity="1.000000" stroke="none" 
	d="
M424.953430,181.980118 
	C422.517548,181.933411 418.844849,182.151520 419.421051,178.996445 
	C419.824951,176.784836 423.363525,175.145737 425.502167,173.250961 
	C426.129791,173.682129 426.757446,174.113297 427.385071,174.544449 
	C426.607788,176.794937 425.830505,179.045410 424.971008,181.671738 
	C424.888794,182.047577 424.921448,181.989502 424.953430,181.980118 
z"/>
<path fill="#F7F7F7" opacity="1.000000" stroke="none" 
	d="
M305.933655,205.353851 
	C306.529510,206.853012 306.842712,208.074081 307.255432,209.683273 
	C304.352020,209.683273 301.928955,209.683273 299.503235,209.683273 
	C299.711334,205.040375 301.392548,203.768402 305.933655,205.353851 
z"/>
<path fill="#F8F8F9" opacity="1.000000" stroke="none" 
	d="
M307.975159,168.131714 
	C309.689667,166.948700 311.446533,165.352646 312.899994,165.592804 
	C314.077179,165.787354 314.889374,168.190552 316.773773,170.944473 
	C312.851868,170.944473 310.639008,171.022720 308.448456,170.837479 
	C308.197357,170.816238 308.070709,169.322906 307.975159,168.131714 
z"/>
</svg>