<svg xmlns="http://www.w3.org/2000/svg" width="150" height="80" viewBox="0 0 3600 2062" version="1.1"><path d="M 587.939 574.365 C 581.527 576.094, 577.548 579.250, 574.836 584.757 L 572.500 589.500 572.233 1028 C 572.047 1332.937, 572.287 1468.023, 573.021 1471.500 C 574.509 1478.543, 577.997 1483.329, 583.684 1486.129 L 588.500 1488.500 684.500 1488.777 C 749.896 1488.965, 782.094 1488.713, 785.500 1487.984 C 792.610 1486.463, 796.619 1483.379, 799.777 1477 L 802.500 1471.500 803 1312.427 L 803.500 1153.353 806.259 1149.185 C 809.608 1144.124, 814.970 1140.447, 821 1139.074 C 827.341 1137.630, 1086.111 1137.616, 1092.840 1139.059 C 1098.361 1140.243, 1104.985 1145.251, 1107.776 1150.350 C 1109.381 1153.283, 1109.534 1164.412, 1110 1312 L 1110.500 1470.500 1113.436 1475.801 C 1117.026 1482.280, 1122.615 1486.561, 1129.393 1488.021 C 1132.965 1488.790, 1163.056 1489.028, 1229.500 1488.811 L 1324.500 1488.500 1328.500 1486.342 C 1333.736 1483.516, 1337.408 1479.548, 1339.919 1474 L 1341.956 1469.500 1341.956 1031 L 1341.956 592.500 1339.919 588 C 1337.408 582.452, 1333.736 578.484, 1328.500 575.658 L 1324.500 573.500 1229 573.213 C 1162.644 573.013, 1132.159 573.257, 1129.107 574.013 C 1122.531 575.641, 1116.837 580.060, 1113.462 586.152 L 1110.500 591.500 1110 745.500 C 1109.520 893.398, 1109.426 899.639, 1107.633 903 C 1105.010 907.917, 1102.135 910.853, 1097.500 913.347 L 1093.500 915.500 956 915.500 C 823.682 915.500, 818.368 915.430, 815 913.633 C 810.417 911.188, 807.197 908.201, 805.155 904.500 C 803.641 901.756, 803.457 888.238, 803 746 L 802.500 590.500 799.777 585 C 796.702 578.789, 792.688 575.607, 786 574.078 C 779.072 572.494, 593.882 572.762, 587.939 574.365 M 1530.807 574.576 C 1524.232 576.609, 1519.574 581.328, 1517.608 587.948 C 1516.141 592.887, 1516 631.811, 1516 1031 C 1516 1517.815, 1515.382 1475.852, 1522.652 1482.708 C 1529.513 1489.179, 1526.435 1489, 1631 1489 C 1715.043 1489, 1726.245 1488.820, 1731.068 1487.391 C 1737.933 1485.359, 1743.240 1480.075, 1744.853 1473.670 C 1745.685 1470.364, 1746 1434.677, 1746 1343.557 C 1746 1218.976, 1746.016 1217.984, 1748.017 1215.983 C 1750.012 1213.988, 1750.956 1213.969, 1831.490 1214.233 C 1911.430 1214.495, 1912.982 1214.537, 1914.941 1216.500 C 1916.039 1217.600, 1948.403 1274.975, 1986.860 1344 C 2035.942 1432.094, 2058.146 1471.022, 2061.354 1474.606 C 2066.589 1480.455, 2076.730 1486.201, 2084.799 1487.890 C 2092.114 1489.422, 2301.861 1489.444, 2307.373 1487.914 C 2314.663 1485.889, 2317.957 1479.807, 2315.549 1472.818 C 2314.852 1470.793, 2282.042 1413.368, 2242.640 1345.208 C 2203.238 1277.048, 2171 1220.597, 2171 1219.763 C 2171 1217.511, 2172.559 1216.644, 2183 1213.090 C 2205.715 1205.359, 2221.977 1195.147, 2239.575 1177.564 C 2263.101 1154.058, 2277.121 1127.513, 2282.656 1096 C 2284.404 1086.045, 2284.500 1075.724, 2284.500 897 L 2284.500 708.500 2282.190 698 C 2274.583 663.423, 2256.511 632.171, 2232.016 611.236 C 2211.560 593.753, 2186.487 581.362, 2160.300 575.796 L 2149.500 573.500 1842.500 573.312 C 1576.627 573.150, 1534.871 573.319, 1530.807 574.576 M 2407 574.956 C 2400.388 577.228, 2395.705 582.143, 2394.108 588.484 C 2393.337 591.546, 2393 620.762, 2393 684.475 C 2393 784.196, 2392.716 779.006, 2398.593 786.711 C 2399.985 788.536, 2403.459 791.260, 2406.312 792.765 L 2411.500 795.500 2512 796 C 2603.200 796.454, 2612.778 796.654, 2615.500 798.161 C 2618.929 800.059, 2623.120 804.342, 2625.128 808 C 2626.280 810.099, 2626.580 863.326, 2627 1140 C 2627.477 1454.589, 2627.581 1469.681, 2629.301 1473.500 C 2631.565 1478.531, 2636.326 1483.541, 2641.500 1486.338 L 2645.500 1488.500 2743.578 1488.500 L 2841.657 1488.500 2846.552 1485.474 C 2849.586 1483.598, 2852.598 1480.586, 2854.474 1477.552 L 2857.500 1472.657 2858 1142.579 L 2858.500 812.500 2860.706 808.376 C 2863.041 804.010, 2867.702 799.562, 2871.944 797.652 C 2873.793 796.818, 2902.291 796.362, 2975 796 L 3075.500 795.500 3080.870 792.526 C 3086.771 789.257, 3090.520 785.006, 3092.573 779.252 C 3093.654 776.225, 3093.921 757.809, 3093.956 683.929 L 3094 592.359 3091.250 586.936 C 3088.185 580.894, 3082.108 575.680, 3076.225 574.046 C 3073.693 573.342, 2966.841 573.020, 2742.500 573.038 C 2421.512 573.065, 2412.350 573.117, 2407 574.956 M 1738.667 786.667 C 1738.300 787.033, 1738 837.208, 1738 898.167 L 1738 1009 1895.500 1009 L 2053 1009 2053 897.500 L 2053 786 1896.167 786 C 1809.908 786, 1739.033 786.300, 1738.667 786.667" stroke="none" fill="#fcfbfb" fill-rule="evenodd"/><path d="M 571.500 0.497 C 570.950 0.684, 568.700 1.126, 566.500 1.480 C 562.769 2.081, 543.661 20.959, 282.746 281.812 C 128.882 435.640, 2.319 562.918, 1.496 564.651 C 0.172 567.440, 0.001 652.741, 0.009 1306.151 L 0.019 2044.500 3.029 2049.749 C 6.665 2056.088, 11.734 2059.649, 19.043 2060.999 C 22.697 2061.673, 521.467 2061.923, 1528.500 2061.753 C 2924.175 2061.518, 3032.752 2061.381, 3036 2059.849 C 3040.403 2057.772, 3597.463 1500.518, 3598.654 1497 C 3599.122 1495.616, 3599.760 1617.087, 3600.083 1769 C 3600.404 1919.975, 3600.547 1587.740, 3600.402 1030.701 L 3600.138 17.902 3597.215 12.701 C 3593.604 6.275, 3588.166 2.326, 3581.114 1.007 C 3576.181 0.085, 574.215 -0.424, 571.500 0.497 M 0.497 1306 C 0.497 1712.725, 0.611 1879.112, 0.750 1675.750 C 0.889 1472.387, 0.889 1139.612, 0.750 936.250 C 0.611 732.887, 0.497 899.275, 0.497 1306 M 587.939 574.365 C 581.527 576.094, 577.548 579.250, 574.836 584.757 L 572.500 589.500 572.233 1028 C 572.047 1332.937, 572.287 1468.023, 573.021 1471.500 C 574.509 1478.543, 577.997 1483.329, 583.684 1486.129 L 588.500 1488.500 684.500 1488.777 C 749.896 1488.965, 782.094 1488.713, 785.500 1487.984 C 792.610 1486.463, 796.619 1483.379, 799.777 1477 L 802.500 1471.500 803 1312.427 L 803.500 1153.353 806.259 1149.185 C 809.608 1144.124, 814.970 1140.447, 821 1139.074 C 827.341 1137.630, 1086.111 1137.616, 1092.840 1139.059 C 1098.361 1140.243, 1104.985 1145.251, 1107.776 1150.350 C 1109.381 1153.283, 1109.534 1164.412, 1110 1312 L 1110.500 1470.500 1113.436 1475.801 C 1117.026 1482.280, 1122.615 1486.561, 1129.393 1488.021 C 1132.965 1488.790, 1163.056 1489.028, 1229.500 1488.811 L 1324.500 1488.500 1328.500 1486.342 C 1333.736 1483.516, 1337.408 1479.548, 1339.919 1474 L 1341.956 1469.500 1341.956 1031 L 1341.956 592.500 1339.919 588 C 1337.408 582.452, 1333.736 578.484, 1328.500 575.658 L 1324.500 573.500 1229 573.213 C 1162.644 573.013, 1132.159 573.257, 1129.107 574.013 C 1122.531 575.641, 1116.837 580.060, 1113.462 586.152 L 1110.500 591.500 1110 745.500 C 1109.520 893.398, 1109.426 899.639, 1107.633 903 C 1105.010 907.917, 1102.135 910.853, 1097.500 913.347 L 1093.500 915.500 956 915.500 C 823.682 915.500, 818.368 915.430, 815 913.633 C 810.417 911.188, 807.197 908.201, 805.155 904.500 C 803.641 901.756, 803.457 888.238, 803 746 L 802.500 590.500 799.777 585 C 796.702 578.789, 792.688 575.607, 786 574.078 C 779.072 572.494, 593.882 572.762, 587.939 574.365 M 1530.807 574.576 C 1524.232 576.609, 1519.574 581.328, 1517.608 587.948 C 1516.141 592.887, 1516 631.811, 1516 1031 C 1516 1517.815, 1515.382 1475.852, 1522.652 1482.708 C 1529.513 1489.179, 1526.435 1489, 1631 1489 C 1715.043 1489, 1726.245 1488.820, 1731.068 1487.391 C 1737.933 1485.359, 1743.240 1480.075, 1744.853 1473.670 C 1745.685 1470.364, 1746 1434.677, 1746 1343.557 C 1746 1218.976, 1746.016 1217.984, 1748.017 1215.983 C 1750.012 1213.988, 1750.956 1213.969, 1831.490 1214.233 C 1911.430 1214.495, 1912.982 1214.537, 1914.941 1216.500 C 1916.039 1217.600, 1948.403 1274.975, 1986.860 1344 C 2035.942 1432.094, 2058.146 1471.022, 2061.354 1474.606 C 2066.589 1480.455, 2076.730 1486.201, 2084.799 1487.890 C 2092.114 1489.422, 2301.861 1489.444, 2307.373 1487.914 C 2314.663 1485.889, 2317.957 1479.807, 2315.549 1472.818 C 2314.852 1470.793, 2282.042 1413.368, 2242.640 1345.208 C 2203.238 1277.048, 2171 1220.597, 2171 1219.763 C 2171 1217.511, 2172.559 1216.644, 2183 1213.090 C 2205.715 1205.359, 2221.977 1195.147, 2239.575 1177.564 C 2263.101 1154.058, 2277.121 1127.513, 2282.656 1096 C 2284.404 1086.045, 2284.500 1075.724, 2284.500 897 L 2284.500 708.500 2282.190 698 C 2274.583 663.423, 2256.511 632.171, 2232.016 611.236 C 2211.560 593.753, 2186.487 581.362, 2160.300 575.796 L 2149.500 573.500 1842.500 573.312 C 1576.627 573.150, 1534.871 573.319, 1530.807 574.576 M 2407 574.956 C 2400.388 577.228, 2395.705 582.143, 2394.108 588.484 C 2393.337 591.546, 2393 620.762, 2393 684.475 C 2393 784.196, 2392.716 779.006, 2398.593 786.711 C 2399.985 788.536, 2403.459 791.260, 2406.312 792.765 L 2411.500 795.500 2512 796 C 2603.200 796.454, 2612.778 796.654, 2615.500 798.161 C 2618.929 800.059, 2623.120 804.342, 2625.128 808 C 2626.280 810.099, 2626.580 863.326, 2627 1140 C 2627.477 1454.589, 2627.581 1469.681, 2629.301 1473.500 C 2631.565 1478.531, 2636.326 1483.541, 2641.500 1486.338 L 2645.500 1488.500 2743.578 1488.500 L 2841.657 1488.500 2846.552 1485.474 C 2849.586 1483.598, 2852.598 1480.586, 2854.474 1477.552 L 2857.500 1472.657 2858 1142.579 L 2858.500 812.500 2860.706 808.376 C 2863.041 804.010, 2867.702 799.562, 2871.944 797.652 C 2873.793 796.818, 2902.291 796.362, 2975 796 L 3075.500 795.500 3080.870 792.526 C 3086.771 789.257, 3090.520 785.006, 3092.573 779.252 C 3093.654 776.225, 3093.921 757.809, 3093.956 683.929 L 3094 592.359 3091.250 586.936 C 3088.185 580.894, 3082.108 575.680, 3076.225 574.046 C 3073.693 573.342, 2966.841 573.020, 2742.500 573.038 C 2421.512 573.065, 2412.350 573.117, 2407 574.956 M 1738.667 786.667 C 1738.300 787.033, 1738 837.208, 1738 898.167 L 1738 1009 1895.500 1009 L 2053 1009 2053 897.500 L 2053 786 1896.167 786 C 1809.908 786, 1739.033 786.300, 1738.667 786.667" stroke="none" fill="#fc9c3c" fill-rule="evenodd"/></svg>