<svg version="1.1" id="Layer_1" xmlns="http://www.w3.org/2000/svg" xmlns:xlink="http://www.w3.org/1999/xlink" x="0px" y="0px"
	 width="250" viewBox="0 0 1238 322" enable-background="new 0 0 1238 322" xml:space="preserve">
<path fill="#FFFFFF" opacity="1.000000" stroke="none" 
	d="
M1239.000000,109.000000 
	C1239.000000,180.309906 1239.000000,251.619812 1239.000000,323.000000 
	C884.973145,323.000000 530.946289,323.000000 176.624237,322.603485 
	C192.004074,321.401520 207.007782,317.632233 221.596893,311.998779 
	C239.768890,304.981842 256.123383,294.873322 270.493591,281.850708 
	C288.085907,265.908112 301.833832,247.079590 311.052063,225.012955 
	C318.823792,206.409119 323.259888,187.070633 323.840393,167.002670 
	C324.109741,157.691956 322.806732,148.319427 321.972076,138.996780 
	C320.589661,123.556351 315.773315,109.037460 309.477325,94.989845 
	C298.064972,69.526611 280.519897,48.986179 258.542206,32.048737 
	C255.334000,29.576275 252.488098,29.998808 250.109192,33.574539 
	C247.970673,36.788940 246.396378,40.470554 243.855835,43.302559 
	C240.640625,46.886635 242.271088,48.964199 244.976196,51.518505 
	C253.565598,59.629089 262.691223,67.298630 270.388336,76.195251 
	C280.026581,87.335564 287.158386,100.216431 292.086639,114.257790 
	C298.852264,133.534119 302.949951,153.142273 299.939697,173.639465 
	C298.649811,182.422806 297.047394,191.193237 294.973022,199.821930 
	C289.695679,221.773727 277.930847,240.221771 262.812286,256.588531 
	C249.728577,270.752441 234.053879,281.403473 216.299271,288.970795 
	C200.156906,295.850952 183.284454,299.473297 165.780655,299.925385 
	C160.206833,300.069305 154.609344,299.349030 149.024368,298.997284 
	C134.661102,298.092590 120.992340,294.337006 107.954247,288.421478 
	C89.089134,279.862091 71.991203,268.682983 58.949085,252.303802 
	C52.509968,244.217087 46.239632,235.832626 41.156429,226.866562 
	C32.821079,212.164185 27.738369,196.230545 25.902481,179.263992 
	C24.065636,162.288574 24.423233,145.492813 28.583540,128.907883 
	C32.943703,111.526230 40.468647,95.610603 50.951504,81.015266 
	C63.284660,63.843750 78.941696,50.551105 97.286270,40.324451 
	C114.187416,30.902473 132.463440,25.530197 151.663605,24.131899 
	C170.897278,22.731163 189.891693,24.779346 208.137482,31.607412 
	C211.107986,32.719048 212.893509,31.524065 213.967712,28.850161 
	C215.582001,24.831919 217.304779,20.843737 218.643799,16.732803 
	C219.678223,13.557042 219.599503,10.354503 215.531647,9.234615 
	C208.857880,7.397318 202.163498,5.617304 195.425034,4.038370 
	C190.326004,2.843576 185.144699,1.999920 180.000000,1.000000 
	C533.000000,1.000000 886.000000,1.000000 1239.000000,1.000000 
	C1239.000000,34.104477 1239.000000,67.092529 1238.656738,100.442368 
	C1237.952637,100.082008 1237.620850,99.343651 1237.226807,98.640259 
	C1233.514893,92.015068 1225.653687,90.070168 1218.268188,93.940285 
	C1212.305664,97.064758 1210.388184,104.742111 1213.685059,111.253487 
	C1216.544556,116.901138 1221.115234,118.283516 1227.078247,118.112450 
	C1233.537964,117.927124 1236.187256,113.539970 1239.000000,109.000000 
M252.534927,110.028099 
	C252.903839,110.748550 253.251938,111.480553 253.644669,112.187775 
	C265.516205,133.565216 269.128174,156.549332 264.799561,180.322540 
	C260.707428,202.796997 249.934387,221.953491 232.934586,237.752121 
	C214.002777,255.346252 191.621643,264.159943 166.285950,265.883881 
	C154.000305,266.719849 141.768143,264.533936 130.215775,260.506409 
	C106.771339,252.332916 87.887573,238.028580 74.850609,216.523758 
	C73.470314,214.246918 71.547150,213.018082 68.613159,214.755112 
	C64.598969,217.131668 60.476665,219.391083 56.203194,221.245560 
	C52.041725,223.051376 52.359592,225.714615 54.301670,228.662354 
	C63.582291,242.748856 74.762871,255.091385 88.501099,264.975922 
	C111.380737,281.437592 137.057816,289.280212 165.130203,288.866028 
	C172.895447,288.751434 180.699081,287.352081 188.377380,285.951660 
	C212.649628,281.524780 233.445175,270.009949 251.148132,253.174561 
	C264.841370,240.152359 274.821747,224.352081 281.646454,206.710281 
	C287.396332,191.846893 289.443665,176.204056 289.867371,160.401367 
	C290.023254,154.586700 288.658447,148.732620 288.004578,142.894577 
	C286.496582,129.430130 282.341827,116.697250 276.173187,104.770676 
	C268.019287,89.005707 257.325836,75.202316 243.445282,63.786381 
	C223.042938,47.006676 199.647247,37.645214 173.654419,35.198051 
	C160.429565,33.952969 147.049026,34.781208 133.925323,37.957989 
	C102.980209,45.448692 77.829620,61.878815 59.293808,87.598305 
	C46.884056,104.817535 38.957447,124.141838 36.890560,145.654175 
	C35.592567,159.163803 35.216908,172.562485 38.137146,185.864471 
	C38.412113,187.116989 40.807049,188.985031 41.906933,188.792435 
	C47.284958,187.850708 52.613823,186.485306 57.825127,184.841827 
	C59.025146,184.463394 60.632000,182.261246 60.464272,181.134689 
	C58.492878,167.893768 58.142822,154.783508 60.921978,141.543320 
	C67.841278,108.579025 86.618164,84.522980 116.106323,69.150093 
	C136.548447,58.493114 158.460541,55.406013 181.450806,59.895412 
	C212.479797,65.954567 235.748795,82.624603 252.534927,110.028099 
M252.996872,140.636719 
	C252.407394,138.630096 251.818085,136.623428 251.228424,134.616852 
	C246.153488,117.347069 236.475571,103.219292 222.963226,91.324501 
	C207.353882,77.583794 188.988098,70.613419 168.726578,69.283745 
	C158.926422,68.640594 148.712860,70.035789 139.066559,72.201195 
	C119.330811,76.631462 103.174736,87.748985 90.529579,103.238930 
	C79.565643,116.669449 72.879784,132.189972 70.793671,149.817032 
	C68.824570,166.455490 70.529045,182.331879 77.002174,197.648483 
	C87.179947,221.730911 104.632767,238.537216 128.826324,248.372406 
	C139.797165,252.832306 151.404572,254.540512 163.059799,254.788025 
	C170.114136,254.937851 177.287476,253.363770 184.276199,251.926422 
	C199.492706,248.796921 212.597656,241.358032 224.259323,231.238037 
	C226.880386,228.963516 226.647125,226.806641 224.109375,224.627380 
	C221.370911,222.275726 218.662476,219.887604 215.985352,217.466293 
	C210.862442,212.832947 209.919525,212.886658 204.454880,217.027161 
	C191.176010,227.088455 176.359848,231.870026 159.504700,231.125504 
	C144.114868,230.445724 130.979233,225.038315 119.008835,215.612411 
	C103.264923,203.215179 95.147102,186.752029 93.148766,167.312363 
	C91.829544,154.479019 94.757195,142.276428 100.690269,130.527603 
	C114.469948,103.240738 145.021713,87.577782 174.697083,93.167778 
	C197.301544,97.425812 214.300705,110.447952 224.858887,130.869980 
	C233.521042,147.624634 234.240570,165.405014 228.981720,183.519012 
	C228.398529,185.527832 228.548355,189.122772 229.789276,190.034607 
	C233.778107,192.965714 238.352325,195.166351 242.872040,197.282959 
	C245.418854,198.475662 248.136597,199.314682 249.116577,194.851273 
	C250.560715,188.273773 253.186295,181.911118 254.173370,175.287766 
	C255.850525,164.034042 255.846008,152.679352 252.996872,140.636719 
M764.030518,114.720955 
	C762.919189,118.051201 761.793762,121.376801 760.699463,124.712616 
	C758.205200,132.316071 762.435791,147.675186 770.106384,152.374725 
	C775.934204,155.945297 782.472107,158.467072 788.896729,160.926117 
	C797.252258,164.124298 806.078369,166.202423 814.195557,169.880280 
	C821.069763,172.994980 820.406677,182.124420 813.466248,186.102783 
	C805.090088,190.904160 796.354614,189.604019 787.825195,187.228058 
	C781.369629,185.429794 775.225464,182.513885 768.559814,179.947952 
	C765.105713,185.711426 761.582275,191.590637 758.029053,197.519592 
	C760.174011,198.756821 762.048340,200.053162 764.089966,200.981522 
	C780.545227,208.463684 797.895874,211.668564 815.534180,207.755676 
	C833.374207,203.798050 843.056396,194.576752 842.734375,175.706497 
	C842.446045,158.813248 834.427185,151.760254 817.055786,146.033463 
	C808.368652,143.169586 799.520630,140.792969 790.836731,137.919815 
	C786.634277,136.529388 783.649719,133.198685 784.183044,128.765747 
	C784.740417,124.132729 787.403259,119.773415 792.531433,119.141273 
	C798.651672,118.386833 805.001343,117.940636 811.069946,118.740059 
	C817.654175,119.607407 824.029480,122.061531 830.783813,123.902191 
	C832.859314,119.218468 834.820312,114.462776 837.068970,109.847252 
	C838.339844,107.238647 838.312378,106.227882 835.151428,104.840416 
	C821.158020,98.698128 806.627380,96.353050 791.552246,98.082336 
	C780.301208,99.372955 770.738586,104.115479 764.030518,114.720955 
M1002.681702,207.004456 
	C1020.686890,211.795776 1037.423218,209.085861 1052.814087,198.433517 
	C1050.150269,194.107803 1047.590942,189.606583 1044.621216,185.394608 
	C1043.956909,184.452240 1041.266113,183.708313 1040.506714,184.256454 
	C1033.957031,188.983475 1026.632080,189.868332 1018.812378,190.138412 
	C1009.626526,190.455688 1001.817322,183.510849 1001.143921,174.000000 
	C1009.945618,174.000000 1018.721802,174.000000 1027.498047,174.000000 
	C1036.283203,174.000000 1045.068237,174.000000 1055.000000,174.000000 
	C1055.000000,167.222717 1055.250244,160.977554 1054.939941,154.760406 
	C1054.497681,145.901993 1051.413696,137.519897 1044.937744,131.755402 
	C1030.163208,118.604225 1008.117432,118.744942 992.780396,130.061310 
	C977.000366,141.704422 974.360168,158.742966 977.519775,176.999451 
	C980.015747,191.421051 988.612610,201.152145 1002.681702,207.004456 
M709.963135,188.651947 
	C709.148560,187.439072 708.561462,185.914886 707.452698,185.104630 
	C706.430542,184.357712 704.309326,183.646698 703.595764,184.172699 
	C696.468750,189.426422 688.395630,190.373642 679.928284,190.012207 
	C671.466431,189.651016 664.792786,182.792404 664.438354,173.876495 
	C681.893799,173.876495 699.338135,173.876495 716.993958,173.876495 
	C716.993958,165.216629 718.031982,156.751404 716.739380,148.658417 
	C715.002625,137.784805 708.444885,129.729187 697.885254,125.383682 
	C689.834778,122.070717 681.663330,121.231659 673.083862,122.954315 
	C659.066711,125.768791 648.677795,133.107697 643.040649,146.445847 
	C639.646301,154.477264 639.347595,162.879272 639.874939,171.566299 
	C640.893250,188.342148 650.768311,202.376450 665.851562,206.894638 
	C683.674744,212.233551 700.453552,209.031448 716.028748,198.305237 
	C714.007568,195.292419 712.025085,192.337280 709.963135,188.651947 
M1134.490845,191.985489 
	C1132.572388,189.006241 1130.653931,186.026993 1128.761353,183.087982 
	C1121.162476,187.513153 1113.513672,190.067764 1104.701660,190.213608 
	C1095.515259,190.365662 1087.971924,183.584671 1087.137939,173.944824 
	C1104.738037,173.944824 1122.302734,173.944824 1139.999634,173.944824 
	C1139.999634,165.442795 1140.868896,157.334854 1139.780884,149.498657 
	C1138.406494,139.599792 1132.890503,131.764450 1123.727661,126.967735 
	C1115.256836,122.533302 1106.515381,121.369987 1096.907104,122.825752 
	C1083.390503,124.873657 1073.593872,131.805862 1067.372314,143.446152 
	C1062.472412,152.613754 1061.689941,162.599091 1062.762085,173.173691 
	C1064.228149,187.634628 1074.348999,202.723999 1088.411011,206.880249 
	C1103.332275,211.290451 1117.990234,209.907776 1131.945801,202.578232 
	C1139.012085,198.866943 1139.068848,198.975113 1134.490845,191.985489 
M469.345581,203.039886 
	C475.625519,209.561310 483.748596,209.223145 491.796204,208.979446 
	C500.343781,208.720596 506.801758,203.779495 512.908875,198.869385 
	C520.061340,208.147156 529.834534,207.847412 539.796021,208.022614 
	C539.796021,202.166351 539.796021,196.734299 539.796021,191.276077 
	C534.938416,190.925659 532.843262,188.548813 532.931641,183.606735 
	C533.143066,171.789780 533.257202,159.959122 532.919617,148.148041 
	C532.643860,138.502151 528.852905,130.603043 519.586670,126.213608 
	C509.442932,121.408508 498.738098,121.190262 488.163666,123.536736 
	C479.864807,125.378273 471.888641,128.674118 463.954529,131.263382 
	C466.433136,136.903351 468.459137,141.285660 470.285889,145.749542 
	C471.524292,148.775818 473.022980,149.664795 476.268402,148.057983 
	C480.708282,145.859818 485.335205,143.881317 490.081665,142.489975 
	C504.671631,138.213181 512.301331,143.949844 509.642792,155.995010 
	C499.410065,158.421844 489.190765,159.827179 479.738586,163.312805 
	C463.317383,169.368362 455.685852,188.182465 469.345581,203.039886 
M603.000000,181.500000 
	C603.000000,189.924759 603.000000,198.349503 603.000000,206.700409 
	C611.320862,206.700409 619.052368,206.700409 627.000000,206.700409 
	C627.000000,197.431702 627.124451,188.458923 626.969604,179.490982 
	C626.758362,167.255905 626.945740,154.969421 625.850098,142.805145 
	C624.413574,126.856995 610.132202,119.752731 595.702881,122.913078 
	C588.834412,124.417427 582.403931,127.921356 575.694031,130.551239 
	C575.448547,129.157013 575.011536,126.674965 574.593445,124.300461 
	C567.357056,124.300461 560.284790,124.300461 553.286987,124.300461 
	C553.286987,151.985413 553.286987,179.368942 553.286987,206.706024 
	C560.975708,206.706024 568.374268,206.706024 576.000000,206.706024 
	C576.000000,189.951462 576.518433,173.466187 575.770447,157.038589 
	C575.422241,149.392151 578.883240,145.204681 584.623230,142.226120 
	C594.430847,137.136841 604.263977,140.877441 603.173889,152.543335 
	C602.310120,161.786926 603.000000,171.175690 603.000000,181.500000 
M399.576385,184.052032 
	C397.233063,183.030426 396.492798,177.777512 392.590240,181.030548 
	C387.808014,185.016861 383.330353,189.368591 377.821228,194.380966 
	C381.859680,197.679581 385.208405,200.870148 388.992126,203.413605 
	C397.732361,209.288956 407.785400,210.007004 417.745453,208.850876 
	C429.217346,207.519241 439.085968,202.466354 443.798981,191.210342 
	C446.116699,185.674927 447.699799,179.415054 447.815582,173.448135 
	C448.267426,150.157776 448.003967,126.853462 447.990417,103.554352 
	C447.989594,102.116714 447.850708,100.679153 447.778229,99.282684 
	C439.708008,99.282684 431.979706,99.282684 424.000122,99.282684 
	C424.000122,100.537254 424.000092,101.510345 424.000092,102.483429 
	C424.000061,125.116859 424.191162,147.753006 423.869690,170.381866 
	C423.786102,176.265976 423.026978,182.631790 416.837524,186.005600 
	C411.030975,189.170715 405.367096,188.684341 399.576385,184.052032 
M878.973206,208.998276 
	C890.170166,209.554382 901.039917,208.868088 910.472412,200.583603 
	C907.741028,195.932343 905.029114,191.314255 902.249817,186.581482 
	C900.802551,187.221191 899.934937,187.625992 899.051208,187.992004 
	C888.940186,192.180023 882.992493,191.197220 882.999268,177.782578 
	C883.003113,170.124313 883.000000,162.466064 883.000000,154.807800 
	C883.000000,150.226883 883.000000,145.645966 883.000000,140.676147 
	C889.799805,140.676147 895.873535,140.676147 901.796875,140.676147 
	C901.796875,134.973389 901.796875,129.691147 901.796875,123.997902 
	C895.535645,123.997902 889.460266,123.997902 882.983276,123.997902 
	C882.983276,117.186996 882.983276,110.778397 882.983276,104.223831 
	C875.167236,104.223831 867.771118,104.223831 859.957642,104.223831 
	C859.957642,110.841324 859.957642,117.249947 859.957642,124.059311 
	C855.479004,124.059311 851.398743,124.059311 847.247070,124.059311 
	C847.247070,129.880341 847.247070,135.279434 847.247070,141.093475 
	C851.556274,141.093475 855.636353,141.093475 860.000000,141.093475 
	C860.000000,155.130188 859.921875,168.750198 860.020752,182.368912 
	C860.131592,197.620300 864.513367,205.318649 878.973206,208.998276 
M1161.725464,104.006294 
	C1161.150269,105.273705 1160.124878,106.525002 1160.078857,107.811333 
	C1159.890137,113.082649 1160.000000,118.364647 1160.000000,124.047775 
	C1155.489258,124.047775 1151.410400,124.047775 1147.238892,124.047775 
	C1147.238892,129.865509 1147.238892,135.263199 1147.238892,141.075317 
	C1151.539185,141.075317 1155.618042,141.075317 1160.000000,141.075317 
	C1160.000000,156.934265 1159.973389,172.377625 1160.009399,187.820847 
	C1160.033203,198.064194 1165.994507,205.776657 1176.209839,207.942505 
	C1180.800415,208.915848 1185.709106,209.314896 1190.362671,208.854889 
	C1197.765625,208.123138 1204.569702,205.369461 1210.135620,200.359238 
	C1208.640259,197.833878 1207.490234,195.705109 1206.166504,193.690414 
	C1201.785278,187.022141 1201.761353,187.037857 1194.093506,189.436249 
	C1188.003296,191.341187 1183.238281,188.965378 1183.108154,183.206482 
	C1182.793335,169.279495 1183.005981,155.340591 1183.005981,140.992310 
	C1189.137451,140.992310 1194.878906,140.992310 1200.781128,140.992310 
	C1200.781128,135.177368 1200.781128,129.780884 1200.781128,123.967918 
	C1194.837402,123.967918 1189.096069,123.967918 1182.957153,123.967918 
	C1182.957153,117.158821 1182.957153,110.752220 1182.957153,104.000542 
	C1175.927979,104.000542 1169.308960,104.000542 1161.725464,104.006294 
M920.000000,188.499451 
	C920.000000,194.594009 920.000000,200.688568 920.000000,206.693939 
	C927.998047,206.693939 935.398315,206.693939 943.000000,206.693939 
	C943.000000,192.251190 943.000000,178.113510 943.000000,163.975815 
	C943.000000,154.841415 948.503845,146.437408 957.333801,144.223358 
	C962.078369,143.033691 967.366516,144.011917 973.116028,144.011917 
	C974.095886,137.813385 975.223022,130.683197 976.355591,123.518585 
	C962.104431,119.719795 950.754333,122.704735 942.463806,135.198792 
	C941.915283,131.052750 941.458862,127.603401 941.022156,124.302429 
	C933.692871,124.302429 926.950378,124.302429 920.000000,124.302429 
	C920.000000,145.569275 920.000000,166.534424 920.000000,188.499451 
z"/>
<path fill="#231F20" opacity="1.000000" stroke="none" 
	d="
M179.531342,1.000000 
	C185.144699,1.999920 190.326004,2.843576 195.425034,4.038370 
	C202.163498,5.617304 208.857880,7.397318 215.531647,9.234615 
	C219.599503,10.354503 219.678223,13.557042 218.643799,16.732803 
	C217.304779,20.843737 215.582001,24.831919 213.967712,28.850161 
	C212.893509,31.524065 211.107986,32.719048 208.137482,31.607412 
	C189.891693,24.779346 170.897278,22.731163 151.663605,24.131899 
	C132.463440,25.530197 114.187416,30.902473 97.286270,40.324451 
	C78.941696,50.551105 63.284660,63.843750 50.951504,81.015266 
	C40.468647,95.610603 32.943703,111.526230 28.583540,128.907883 
	C24.423233,145.492813 24.065636,162.288574 25.902481,179.263992 
	C27.738369,196.230545 32.821079,212.164185 41.156429,226.866562 
	C46.239632,235.832626 52.509968,244.217087 58.949085,252.303802 
	C71.991203,268.682983 89.089134,279.862091 107.954247,288.421478 
	C120.992340,294.337006 134.661102,298.092590 149.024368,298.997284 
	C154.609344,299.349030 160.206833,300.069305 165.780655,299.925385 
	C183.284454,299.473297 200.156906,295.850952 216.299271,288.970795 
	C234.053879,281.403473 249.728577,270.752441 262.812286,256.588531 
	C277.930847,240.221771 289.695679,221.773727 294.973022,199.821930 
	C297.047394,191.193237 298.649811,182.422806 299.939697,173.639465 
	C302.949951,153.142273 298.852264,133.534119 292.086639,114.257790 
	C287.158386,100.216431 280.026581,87.335564 270.388336,76.195251 
	C262.691223,67.298630 253.565598,59.629089 244.976196,51.518505 
	C242.271088,48.964199 240.640625,46.886635 243.855835,43.302559 
	C246.396378,40.470554 247.970673,36.788940 250.109192,33.574539 
	C252.488098,29.998808 255.334000,29.576275 258.542206,32.048737 
	C280.519897,48.986179 298.064972,69.526611 309.477325,94.989845 
	C315.773315,109.037460 320.589661,123.556351 321.972076,138.996780 
	C322.806732,148.319427 324.109741,157.691956 323.840393,167.002670 
	C323.259888,187.070633 318.823792,206.409119 311.052063,225.012955 
	C301.833832,247.079590 288.085907,265.908112 270.493591,281.850708 
	C256.123383,294.873322 239.768890,304.981842 221.596893,311.998779 
	C207.007782,317.632233 192.004074,321.401520 176.164520,322.603485 
	C167.312439,323.000000 158.624863,323.000000 149.304138,322.603455 
	C145.096451,321.805481 141.518143,321.434998 137.948090,320.997253 
	C122.110062,319.055267 107.094131,314.185608 92.831039,307.271881 
	C70.387268,296.392822 51.207588,281.350311 35.874657,261.455231 
	C17.929205,238.170273 6.550713,212.246780 2.930476,182.988663 
	C2.799365,181.929047 1.666176,180.993408 1.000000,180.000000 
	C1.000000,179.555557 1.000000,179.111099 1.394225,178.171921 
	C1.525634,174.451462 1.262817,171.225723 1.000000,168.000000 
	C1.000000,164.307098 1.000000,160.614182 1.394225,156.299225 
	C1.525634,152.451462 1.262817,149.225723 1.000000,146.000000 
	C1.000000,145.555557 1.000000,145.111099 1.382244,144.211868 
	C2.173102,143.078064 2.803537,142.445312 2.956351,141.712921 
	C4.667730,133.510880 5.991814,125.215065 8.021445,117.094780 
	C14.319631,91.896599 27.396046,70.349075 45.072323,51.662289 
	C52.245789,44.078743 60.345638,37.213543 68.725060,30.961069 
	C87.037346,17.296988 107.627403,8.414786 130.089813,4.003009 
	C135.385529,2.962896 140.696213,1.998973 146.000000,0.999999 
	C157.020889,1.000000 168.041794,1.000000 179.531342,1.000000 
z"/>
<path fill="#FFFFFF" opacity="1.000000" stroke="none" 
	d="
M1.000000,180.468658 
	C1.666176,180.993408 2.799365,181.929047 2.930476,182.988663 
	C6.550713,212.246780 17.929205,238.170273 35.874657,261.455231 
	C51.207588,281.350311 70.387268,296.392822 92.831039,307.271881 
	C107.094131,314.185608 122.110062,319.055267 137.948090,320.997253 
	C141.518143,321.434998 145.096451,321.805481 148.835480,322.603455 
	C99.740921,323.000000 50.481846,323.000000 1.000000,323.000000 
	C1.000000,275.645996 1.000000,228.291656 1.000000,180.468658 
z"/>
<path fill="#FFFFFF" opacity="1.000000" stroke="none" 
	d="
M145.531342,0.999999 
	C140.696213,1.998973 135.385529,2.962896 130.089813,4.003009 
	C107.627403,8.414786 87.037346,17.296988 68.725060,30.961069 
	C60.345638,37.213543 52.245789,44.078743 45.072323,51.662289 
	C27.396046,70.349075 14.319631,91.896599 8.021445,117.094780 
	C5.991814,125.215065 4.667730,133.510880 2.956351,141.712921 
	C2.803537,142.445312 2.173102,143.078064 1.382244,143.878540 
	C1.000000,96.405830 1.000000,48.811657 1.000000,1.000000 
	C49.020676,1.000000 97.041679,1.000000 145.531342,0.999999 
z"/>
<path fill="#231F20" opacity="1.000000" stroke="none" 
	d="
M1239.000000,108.555832 
	C1236.187256,113.539970 1233.537964,117.927124 1227.078247,118.112450 
	C1221.115234,118.283516 1216.544556,116.901138 1213.685059,111.253487 
	C1210.388184,104.742111 1212.305664,97.064758 1218.268188,93.940285 
	C1225.653687,90.070168 1233.514893,92.015068 1237.226807,98.640259 
	C1237.620850,99.343651 1237.952637,100.082008 1238.656738,100.902069 
	C1239.000000,103.370560 1239.000000,105.741112 1239.000000,108.555832 
M1231.116821,97.690018 
	C1227.371948,95.260849 1223.727661,95.125015 1220.042603,97.719856 
	C1223.838989,98.193581 1227.380859,98.635567 1231.000977,99.819115 
	C1231.283691,101.032982 1231.800659,102.247139 1231.799194,103.460663 
	C1231.796265,105.863739 1231.506836,108.266464 1231.335815,110.669342 
	C1231.843750,110.677330 1232.351562,110.685318 1232.859497,110.693306 
	C1236.026611,106.235031 1234.850098,102.152519 1231.116821,97.690018 
M1226.997925,109.427612 
	C1226.352661,108.527000 1225.707275,107.626381 1224.368774,105.758347 
	C1224.079712,108.701942 1223.926147,110.265526 1223.766235,111.893517 
	C1222.948486,111.937813 1222.306885,111.940689 1221.674316,112.017738 
	C1221.230469,112.071777 1220.799072,112.226921 1220.362061,112.336929 
	C1220.414185,112.827713 1220.466187,113.318504 1220.518311,113.809296 
	C1223.901733,113.809296 1227.285156,113.809296 1230.668579,113.809296 
	C1230.654175,113.434380 1230.639771,113.059464 1230.625366,112.684547 
	C1229.428589,111.861786 1228.231689,111.039032 1226.997925,109.427612 
M1217.528931,110.004562 
	C1218.348877,109.793137 1219.871826,109.612938 1219.882812,109.365570 
	C1220.038330,105.864037 1219.988647,102.353401 1219.988647,97.541206 
	C1216.501343,101.851067 1215.473999,105.285797 1217.528931,110.004562 
z"/>
<path fill="#FFFFFF" opacity="1.000000" stroke="none" 
	d="
M1.000000,146.454102 
	C1.262817,149.225723 1.525634,152.451462 1.394225,155.838593 
	C1.000000,152.969406 1.000000,149.938812 1.000000,146.454102 
z"/>
<path fill="#FFFFFF" opacity="1.000000" stroke="none" 
	d="
M1.000000,168.454102 
	C1.262817,171.225723 1.525634,174.451462 1.394225,177.838593 
	C1.000000,174.969406 1.000000,171.938812 1.000000,168.454102 
z"/>
<path fill="#231F20" opacity="1.000000" stroke="none" 
	d="
M252.292145,109.736794 
	C235.748795,82.624603 212.479797,65.954567 181.450806,59.895412 
	C158.460541,55.406013 136.548447,58.493114 116.106323,69.150093 
	C86.618164,84.522980 67.841278,108.579025 60.921978,141.543320 
	C58.142822,154.783508 58.492878,167.893768 60.464272,181.134689 
	C60.632000,182.261246 59.025146,184.463394 57.825127,184.841827 
	C52.613823,186.485306 47.284958,187.850708 41.906933,188.792435 
	C40.807049,188.985031 38.412113,187.116989 38.137146,185.864471 
	C35.216908,172.562485 35.592567,159.163803 36.890560,145.654175 
	C38.957447,124.141838 46.884056,104.817535 59.293808,87.598305 
	C77.829620,61.878815 102.980209,45.448692 133.925323,37.957989 
	C147.049026,34.781208 160.429565,33.952969 173.654419,35.198051 
	C199.647247,37.645214 223.042938,47.006676 243.445282,63.786381 
	C257.325836,75.202316 268.019287,89.005707 276.173187,104.770676 
	C282.341827,116.697250 286.496582,129.430130 288.004578,142.894577 
	C288.658447,148.732620 290.023254,154.586700 289.867371,160.401367 
	C289.443665,176.204056 287.396332,191.846893 281.646454,206.710281 
	C274.821747,224.352081 264.841370,240.152359 251.148132,253.174561 
	C233.445175,270.009949 212.649628,281.524780 188.377380,285.951660 
	C180.699081,287.352081 172.895447,288.751434 165.130203,288.866028 
	C137.057816,289.280212 111.380737,281.437592 88.501099,264.975922 
	C74.762871,255.091385 63.582291,242.748856 54.301670,228.662354 
	C52.359592,225.714615 52.041725,223.051376 56.203194,221.245560 
	C60.476665,219.391083 64.598969,217.131668 68.613159,214.755112 
	C71.547150,213.018082 73.470314,214.246918 74.850609,216.523758 
	C87.887573,238.028580 106.771339,252.332916 130.215775,260.506409 
	C141.768143,264.533936 154.000305,266.719849 166.285950,265.883881 
	C191.621643,264.159943 214.002777,255.346252 232.934586,237.752121 
	C249.934387,221.953491 260.707428,202.796997 264.799561,180.322540 
	C269.128174,156.549332 265.516205,133.565216 253.644669,112.187775 
	C253.251938,111.480553 252.903839,110.748550 252.292145,109.736794 
z"/>
<path fill="#231F20" opacity="1.000000" stroke="none" 
	d="
M253.001068,141.070511 
	C255.846008,152.679352 255.850525,164.034042 254.173370,175.287766 
	C253.186295,181.911118 250.560715,188.273773 249.116577,194.851273 
	C248.136597,199.314682 245.418854,198.475662 242.872040,197.282959 
	C238.352325,195.166351 233.778107,192.965714 229.789276,190.034607 
	C228.548355,189.122772 228.398529,185.527832 228.981720,183.519012 
	C234.240570,165.405014 233.521042,147.624634 224.858887,130.869980 
	C214.300705,110.447952 197.301544,97.425812 174.697083,93.167778 
	C145.021713,87.577782 114.469948,103.240738 100.690269,130.527603 
	C94.757195,142.276428 91.829544,154.479019 93.148766,167.312363 
	C95.147102,186.752029 103.264923,203.215179 119.008835,215.612411 
	C130.979233,225.038315 144.114868,230.445724 159.504700,231.125504 
	C176.359848,231.870026 191.176010,227.088455 204.454880,217.027161 
	C209.919525,212.886658 210.862442,212.832947 215.985352,217.466293 
	C218.662476,219.887604 221.370911,222.275726 224.109375,224.627380 
	C226.647125,226.806641 226.880386,228.963516 224.259323,231.238037 
	C212.597656,241.358032 199.492706,248.796921 184.276199,251.926422 
	C177.287476,253.363770 170.114136,254.937851 163.059799,254.788025 
	C151.404572,254.540512 139.797165,252.832306 128.826324,248.372406 
	C104.632767,238.537216 87.179947,221.730911 77.002174,197.648483 
	C70.529045,182.331879 68.824570,166.455490 70.793671,149.817032 
	C72.879784,132.189972 79.565643,116.669449 90.529579,103.238930 
	C103.174736,87.748985 119.330811,76.631462 139.066559,72.201195 
	C148.712860,70.035789 158.926422,68.640594 168.726578,69.283745 
	C188.988098,70.613419 207.353882,77.583794 222.963226,91.324501 
	C236.475571,103.219292 246.153488,117.347069 251.228424,134.616852 
	C251.818085,136.623428 252.407394,138.630096 253.001068,141.070511 
z"/>
<path fill="#231F20" opacity="1.000000" stroke="none" 
	d="
M764.225342,114.393936 
	C770.738586,104.115479 780.301208,99.372955 791.552246,98.082336 
	C806.627380,96.353050 821.158020,98.698128 835.151428,104.840416 
	C838.312378,106.227882 838.339844,107.238647 837.068970,109.847252 
	C834.820312,114.462776 832.859314,119.218468 830.783813,123.902191 
	C824.029480,122.061531 817.654175,119.607407 811.069946,118.740059 
	C805.001343,117.940636 798.651672,118.386833 792.531433,119.141273 
	C787.403259,119.773415 784.740417,124.132729 784.183044,128.765747 
	C783.649719,133.198685 786.634277,136.529388 790.836731,137.919815 
	C799.520630,140.792969 808.368652,143.169586 817.055786,146.033463 
	C834.427185,151.760254 842.446045,158.813248 842.734375,175.706497 
	C843.056396,194.576752 833.374207,203.798050 815.534180,207.755676 
	C797.895874,211.668564 780.545227,208.463684 764.089966,200.981522 
	C762.048340,200.053162 760.174011,198.756821 758.029053,197.519592 
	C761.582275,191.590637 765.105713,185.711426 768.559814,179.947952 
	C775.225464,182.513885 781.369629,185.429794 787.825195,187.228058 
	C796.354614,189.604019 805.090088,190.904160 813.466248,186.102783 
	C820.406677,182.124420 821.069763,172.994980 814.195557,169.880280 
	C806.078369,166.202423 797.252258,164.124298 788.896729,160.926117 
	C782.472107,158.467072 775.934204,155.945297 770.106384,152.374725 
	C762.435791,147.675186 758.205200,132.316071 760.699463,124.712616 
	C761.793762,121.376801 762.919189,118.051201 764.225342,114.393936 
z"/>
<path fill="#231F20" opacity="1.000000" stroke="none" 
	d="
M1002.273193,206.987534 
	C988.612610,201.152145 980.015747,191.421051 977.519775,176.999451 
	C974.360168,158.742966 977.000366,141.704422 992.780396,130.061310 
	C1008.117432,118.744942 1030.163208,118.604225 1044.937744,131.755402 
	C1051.413696,137.519897 1054.497681,145.901993 1054.939941,154.760406 
	C1055.250244,160.977554 1055.000000,167.222717 1055.000000,174.000000 
	C1045.068237,174.000000 1036.283203,174.000000 1027.498047,174.000000 
	C1018.721802,174.000000 1009.945618,174.000000 1001.143921,174.000000 
	C1001.817322,183.510849 1009.626526,190.455688 1018.812378,190.138412 
	C1026.632080,189.868332 1033.957031,188.983475 1040.506714,184.256454 
	C1041.266113,183.708313 1043.956909,184.452240 1044.621216,185.394608 
	C1047.590942,189.606583 1050.150269,194.107803 1052.814087,198.433517 
	C1037.423218,209.085861 1020.686890,211.795776 1002.273193,206.987534 
M1027.945801,142.443314 
	C1013.516846,134.541550 1003.048096,144.699738 1001.161987,156.760986 
	C1011.755310,156.760986 1022.315002,156.760986 1034.299316,156.760986 
	C1032.164185,151.705154 1030.327271,147.355301 1027.945801,142.443314 
z"/>
<path fill="#231F20" opacity="1.000000" stroke="none" 
	d="
M710.002869,189.017044 
	C712.025085,192.337280 714.007568,195.292419 716.028748,198.305237 
	C700.453552,209.031448 683.674744,212.233551 665.851562,206.894638 
	C650.768311,202.376450 640.893250,188.342148 639.874939,171.566299 
	C639.347595,162.879272 639.646301,154.477264 643.040649,146.445847 
	C648.677795,133.107697 659.066711,125.768791 673.083862,122.954315 
	C681.663330,121.231659 689.834778,122.070717 697.885254,125.383682 
	C708.444885,129.729187 715.002625,137.784805 716.739380,148.658417 
	C718.031982,156.751404 716.993958,165.216629 716.993958,173.876495 
	C699.338135,173.876495 681.893799,173.876495 664.438354,173.876495 
	C664.792786,182.792404 671.466431,189.651016 679.928284,190.012207 
	C688.395630,190.373642 696.468750,189.426422 703.595764,184.172699 
	C704.309326,183.646698 706.430542,184.357712 707.452698,185.104630 
	C708.561462,185.914886 709.148560,187.439072 710.002869,189.017044 
M692.277100,157.000000 
	C693.409973,157.000000 694.542786,157.000000 695.658936,157.000000 
	C696.058777,146.960938 691.579163,140.304367 682.319397,139.632095 
	C673.581482,138.997726 666.216919,145.699402 664.429565,157.000000 
	C673.416138,157.000000 682.370178,157.000000 692.277100,157.000000 
z"/>
<path fill="#231F20" opacity="1.000000" stroke="none" 
	d="
M1134.752197,192.253387 
	C1139.068848,198.975113 1139.012085,198.866943 1131.945801,202.578232 
	C1117.990234,209.907776 1103.332275,211.290451 1088.411011,206.880249 
	C1074.348999,202.723999 1064.228149,187.634628 1062.762085,173.173691 
	C1061.689941,162.599091 1062.472412,152.613754 1067.372314,143.446152 
	C1073.593872,131.805862 1083.390503,124.873657 1096.907104,122.825752 
	C1106.515381,121.369987 1115.256836,122.533302 1123.727661,126.967735 
	C1132.890503,131.764450 1138.406494,139.599792 1139.780884,149.498657 
	C1140.868896,157.334854 1139.999634,165.442795 1139.999634,173.944824 
	C1122.302734,173.944824 1104.738037,173.944824 1087.137939,173.944824 
	C1087.971924,183.584671 1095.515259,190.365662 1104.701660,190.213608 
	C1113.513672,190.067764 1121.162476,187.513153 1128.761353,183.087982 
	C1130.653931,186.026993 1132.572388,189.006241 1134.752197,192.253387 
M1091.725586,157.000000 
	C1100.689453,157.000000 1109.653198,157.000000 1118.611816,157.000000 
	C1118.692871,147.438736 1114.705933,140.054718 1105.016235,139.619812 
	C1096.051025,139.217453 1087.801636,146.738724 1087.329834,157.000000 
	C1088.491699,157.000000 1089.640991,157.000000 1091.725586,157.000000 
z"/>
<path fill="#231F20" opacity="1.000000" stroke="none" 
	d="
M468.972412,202.997650 
	C455.685852,188.182465 463.317383,169.368362 479.738586,163.312805 
	C489.190765,159.827179 499.410065,158.421844 509.642792,155.995010 
	C512.301331,143.949844 504.671631,138.213181 490.081665,142.489975 
	C485.335205,143.881317 480.708282,145.859818 476.268402,148.057983 
	C473.022980,149.664795 471.524292,148.775818 470.285889,145.749542 
	C468.459137,141.285660 466.433136,136.903351 463.954529,131.263382 
	C471.888641,128.674118 479.864807,125.378273 488.163666,123.536736 
	C498.738098,121.190262 509.442932,121.408508 519.586670,126.213608 
	C528.852905,130.603043 532.643860,138.502151 532.919617,148.148041 
	C533.257202,159.959122 533.143066,171.789780 532.931641,183.606735 
	C532.843262,188.548813 534.938416,190.925659 539.796021,191.276077 
	C539.796021,196.734299 539.796021,202.166351 539.796021,208.022614 
	C529.834534,207.847412 520.061340,208.147156 512.908875,198.869385 
	C506.801758,203.779495 500.343781,208.720596 491.796204,208.979446 
	C483.748596,209.223145 475.625519,209.561310 468.972412,202.997650 
M506.008636,188.489807 
	C513.559937,184.049133 508.400909,177.027588 510.264496,171.021072 
	C501.669037,170.871201 494.063568,171.959213 488.699371,178.120560 
	C486.781769,180.323090 485.640289,184.829651 486.578613,187.393906 
	C487.382202,189.589859 491.620239,191.618073 494.415741,191.725113 
	C498.048248,191.864197 501.756317,190.028458 506.008636,188.489807 
z"/>
<path fill="#231F20" opacity="1.000000" stroke="none" 
	d="
M603.000000,181.000000 
	C603.000000,171.175690 602.310120,161.786926 603.173889,152.543335 
	C604.263977,140.877441 594.430847,137.136841 584.623230,142.226120 
	C578.883240,145.204681 575.422241,149.392151 575.770447,157.038589 
	C576.518433,173.466187 576.000000,189.951462 576.000000,206.706024 
	C568.374268,206.706024 560.975708,206.706024 553.286987,206.706024 
	C553.286987,179.368942 553.286987,151.985413 553.286987,124.300461 
	C560.284790,124.300461 567.357056,124.300461 574.593445,124.300461 
	C575.011536,126.674965 575.448547,129.157013 575.694031,130.551239 
	C582.403931,127.921356 588.834412,124.417427 595.702881,122.913078 
	C610.132202,119.752731 624.413574,126.856995 625.850098,142.805145 
	C626.945740,154.969421 626.758362,167.255905 626.969604,179.490982 
	C627.124451,188.458923 627.000000,197.431702 627.000000,206.700409 
	C619.052368,206.700409 611.320862,206.700409 603.000000,206.700409 
	C603.000000,198.349503 603.000000,189.924759 603.000000,181.000000 
z"/>
<path fill="#231F20" opacity="1.000000" stroke="none" 
	d="
M399.828430,184.333557 
	C405.367096,188.684341 411.030975,189.170715 416.837524,186.005600 
	C423.026978,182.631790 423.786102,176.265976 423.869690,170.381866 
	C424.191162,147.753006 424.000061,125.116859 424.000092,102.483429 
	C424.000092,101.510345 424.000122,100.537254 424.000122,99.282684 
	C431.979706,99.282684 439.708008,99.282684 447.778229,99.282684 
	C447.850708,100.679153 447.989594,102.116714 447.990417,103.554352 
	C448.003967,126.853462 448.267426,150.157776 447.815582,173.448135 
	C447.699799,179.415054 446.116699,185.674927 443.798981,191.210342 
	C439.085968,202.466354 429.217346,207.519241 417.745453,208.850876 
	C407.785400,210.007004 397.732361,209.288956 388.992126,203.413605 
	C385.208405,200.870148 381.859680,197.679581 377.821228,194.380966 
	C383.330353,189.368591 387.808014,185.016861 392.590240,181.030548 
	C396.492798,177.777512 397.233063,183.030426 399.828430,184.333557 
z"/>
<path fill="#231F20" opacity="1.000000" stroke="none" 
	d="
M878.526184,208.988403 
	C864.513367,205.318649 860.131592,197.620300 860.020752,182.368912 
	C859.921875,168.750198 860.000000,155.130188 860.000000,141.093475 
	C855.636353,141.093475 851.556274,141.093475 847.247070,141.093475 
	C847.247070,135.279434 847.247070,129.880341 847.247070,124.059311 
	C851.398743,124.059311 855.479004,124.059311 859.957642,124.059311 
	C859.957642,117.249947 859.957642,110.841324 859.957642,104.223831 
	C867.771118,104.223831 875.167236,104.223831 882.983276,104.223831 
	C882.983276,110.778397 882.983276,117.186996 882.983276,123.997902 
	C889.460266,123.997902 895.535645,123.997902 901.796875,123.997902 
	C901.796875,129.691147 901.796875,134.973389 901.796875,140.676147 
	C895.873535,140.676147 889.799805,140.676147 883.000000,140.676147 
	C883.000000,145.645966 883.000000,150.226883 883.000000,154.807800 
	C883.000000,162.466064 883.003113,170.124313 882.999268,177.782578 
	C882.992493,191.197220 888.940186,192.180023 899.051208,187.992004 
	C899.934937,187.625992 900.802551,187.221191 902.249817,186.581482 
	C905.029114,191.314255 907.741028,195.932343 910.472412,200.583603 
	C901.039917,208.868088 890.170166,209.554382 878.526184,208.988403 
z"/>
<path fill="#231F20" opacity="1.000000" stroke="none" 
	d="
M1162.207764,104.003418 
	C1169.308960,104.000542 1175.927979,104.000542 1182.957153,104.000542 
	C1182.957153,110.752220 1182.957153,117.158821 1182.957153,123.967918 
	C1189.096069,123.967918 1194.837402,123.967918 1200.781128,123.967918 
	C1200.781128,129.780884 1200.781128,135.177368 1200.781128,140.992310 
	C1194.878906,140.992310 1189.137451,140.992310 1183.005981,140.992310 
	C1183.005981,155.340591 1182.793335,169.279495 1183.108154,183.206482 
	C1183.238281,188.965378 1188.003296,191.341187 1194.093506,189.436249 
	C1201.761353,187.037857 1201.785278,187.022141 1206.166504,193.690414 
	C1207.490234,195.705109 1208.640259,197.833878 1210.135620,200.359238 
	C1204.569702,205.369461 1197.765625,208.123138 1190.362671,208.854889 
	C1185.709106,209.314896 1180.800415,208.915848 1176.209839,207.942505 
	C1165.994507,205.776657 1160.033203,198.064194 1160.009399,187.820847 
	C1159.973389,172.377625 1160.000000,156.934265 1160.000000,141.075317 
	C1155.618042,141.075317 1151.539185,141.075317 1147.238892,141.075317 
	C1147.238892,135.263199 1147.238892,129.865509 1147.238892,124.047775 
	C1151.410400,124.047775 1155.489258,124.047775 1160.000000,124.047775 
	C1160.000000,118.364647 1159.890137,113.082649 1160.078857,107.811333 
	C1160.124878,106.525002 1161.150269,105.273705 1162.207764,104.003418 
z"/>
<path fill="#231F20" opacity="1.000000" stroke="none" 
	d="
M920.000000,187.999512 
	C920.000000,166.534424 920.000000,145.569275 920.000000,124.302429 
	C926.950378,124.302429 933.692871,124.302429 941.022156,124.302429 
	C941.458862,127.603401 941.915283,131.052750 942.463806,135.198792 
	C950.754333,122.704735 962.104431,119.719795 976.355591,123.518585 
	C975.223022,130.683197 974.095886,137.813385 973.116028,144.011917 
	C967.366516,144.011917 962.078369,143.033691 957.333801,144.223358 
	C948.503845,146.437408 943.000000,154.841415 943.000000,163.975815 
	C943.000000,178.113510 943.000000,192.251190 943.000000,206.693939 
	C935.398315,206.693939 927.998047,206.693939 920.000000,206.693939 
	C920.000000,200.688568 920.000000,194.594009 920.000000,187.999512 
z"/>
<path fill="#FFFFFF" opacity="1.000000" stroke="none" 
	d="
M1227.016357,109.821945 
	C1228.231689,111.039032 1229.428589,111.861786 1230.625366,112.684547 
	C1230.639771,113.059464 1230.654175,113.434380 1230.668579,113.809296 
	C1227.285156,113.809296 1223.901733,113.809296 1220.518311,113.809296 
	C1220.466187,113.318504 1220.414185,112.827713 1220.362061,112.336929 
	C1220.799072,112.226921 1221.230469,112.071777 1221.674316,112.017738 
	C1222.306885,111.940689 1222.948486,111.937813 1223.766235,111.893517 
	C1223.926147,110.265526 1224.079712,108.701942 1224.368774,105.758347 
	C1225.707275,107.626381 1226.352661,108.527000 1227.016357,109.821945 
z"/>
<path fill="#FFFFFF" opacity="1.000000" stroke="none" 
	d="
M1217.291260,109.664833 
	C1215.473999,105.285797 1216.501343,101.851067 1219.988647,97.541206 
	C1219.988647,102.353401 1220.038330,105.864037 1219.882812,109.365570 
	C1219.871826,109.612938 1218.348877,109.793137 1217.291260,109.664833 
z"/>
<path fill="#FFFFFF" opacity="1.000000" stroke="none" 
	d="
M1231.609375,98.248589 
	C1234.850098,102.152519 1236.026611,106.235031 1232.859497,110.693306 
	C1232.351562,110.685318 1231.843750,110.677330 1231.335815,110.669342 
	C1231.506836,108.266464 1231.796265,105.863739 1231.799194,103.460663 
	C1231.800659,102.247139 1231.283691,101.032982 1231.142212,99.248260 
	C1231.392090,98.534454 1231.500732,98.391518 1231.609375,98.248589 
z"/>
<path fill="#FFFFFF" opacity="1.000000" stroke="none" 
	d="
M1231.103149,98.877472 
	C1227.380859,98.635567 1223.838989,98.193581 1220.042603,97.719856 
	C1223.727661,95.125015 1227.371948,95.260849 1231.363037,97.969299 
	C1231.500732,98.391518 1231.392090,98.534454 1231.103149,98.877472 
z"/>
<path fill="#FFFFFF" opacity="1.000000" stroke="none" 
	d="
M1028.218018,142.724380 
	C1030.327271,147.355301 1032.164185,151.705154 1034.299316,156.760986 
	C1022.315002,156.760986 1011.755310,156.760986 1001.161987,156.760986 
	C1003.048096,144.699738 1013.516846,134.541550 1028.218018,142.724380 
z"/>
<path fill="#FFFFFF" opacity="1.000000" stroke="none" 
	d="
M691.800659,157.000000 
	C682.370178,157.000000 673.416138,157.000000 664.429565,157.000000 
	C666.216919,145.699402 673.581482,138.997726 682.319397,139.632095 
	C691.579163,140.304367 696.058777,146.960938 695.658936,157.000000 
	C694.542786,157.000000 693.409973,157.000000 691.800659,157.000000 
z"/>
<path fill="#FFFFFF" opacity="1.000000" stroke="none" 
	d="
M1091.257935,157.000000 
	C1089.640991,157.000000 1088.491699,157.000000 1087.329834,157.000000 
	C1087.801636,146.738724 1096.051025,139.217453 1105.016235,139.619812 
	C1114.705933,140.054718 1118.692871,147.438736 1118.611816,157.000000 
	C1109.653198,157.000000 1100.689453,157.000000 1091.257935,157.000000 
z"/>
<path fill="#FFFFFF" opacity="1.000000" stroke="none" 
	d="
M505.720276,188.766251 
	C501.756317,190.028458 498.048248,191.864197 494.415741,191.725113 
	C491.620239,191.618073 487.382202,189.589859 486.578613,187.393906 
	C485.640289,184.829651 486.781769,180.323090 488.699371,178.120560 
	C494.063568,171.959213 501.669037,170.871201 510.264496,171.021072 
	C508.400909,177.027588 513.559937,184.049133 505.720276,188.766251 
z"/>
</svg>