<svg version="1.1" id="Layer_1" xmlns="http://www.w3.org/2000/svg" xmlns:xlink="http://www.w3.org/1999/xlink" x="0px" y="0px"
	 width="250" viewBox="0 400 2000 1000" enable-background="new 0 0 2000 1545" xml:space="preserve">
<path fill="#FFFFFF" opacity="1.000000" stroke="none" 
	d="
M2001.000000,823.000000 
	C2001.000000,1063.986572 2001.000000,1304.973022 2001.000000,1545.979736 
	C1334.384033,1545.979736 667.768188,1545.979736 1.076120,1545.979736 
	C1.076120,1031.079590 1.076120,516.159058 1.076120,1.119310 
	C667.549805,1.119310 1334.099731,1.119310 2001.000000,1.119310 
	C2001.000000,266.368134 2001.000000,531.736450 2000.621582,797.372925 
	C1997.837891,786.439026 1996.385498,774.923279 1992.823608,764.101990 
	C1985.978882,743.307617 1973.043213,727.122070 1952.296387,718.558105 
	C1913.557495,702.567139 1858.804932,712.184875 1836.006714,765.941162 
	C1823.980347,794.298401 1824.105469,823.404541 1833.300171,852.432373 
	C1839.352905,871.541138 1850.428589,887.408630 1867.656128,898.270142 
	C1903.735840,921.017273 1955.823853,913.745850 1985.952393,881.866638 
	C1989.199829,878.430603 1992.083252,874.650635 1995.230103,870.917786 
	C1986.144165,862.454285 1977.648071,854.540344 1969.109009,846.586426 
	C1947.221436,877.812927 1916.374878,879.544434 1899.122803,871.059814 
	C1881.639648,862.461609 1868.231323,839.820740 1871.175903,823.000000 
	C1914.421021,823.000000 1957.710571,823.000000 2001.000000,823.000000 
M787.377075,747.029297 
	C768.998413,716.306946 750.163025,685.843567 732.510071,654.709717 
	C726.971924,644.942261 721.086182,640.274719 709.720825,641.896057 
	C702.371521,642.944519 694.751099,642.093201 687.252197,642.093201 
	C683.298340,642.093201 679.344482,642.093140 675.196838,642.093140 
	C675.196838,730.670349 675.196838,818.697083 675.196838,906.820251 
	C690.433289,906.820251 705.363403,906.820251 721.003052,906.820251 
	C721.003052,844.526855 721.003052,782.450134 721.003052,720.373413 
	C721.320923,720.326111 721.638794,720.278748 721.956726,720.231384 
	C748.630859,764.281250 775.305054,808.331055 802.268860,852.859192 
	C829.203064,808.226318 855.680664,764.350098 882.158203,720.473877 
	C882.590332,720.642456 883.022400,720.811096 883.454468,720.979675 
	C883.454468,782.880981 883.454468,844.782349 883.454468,906.815918 
	C899.015503,906.815918 914.107849,906.815918 929.329529,906.815918 
	C929.329529,818.541077 929.329529,730.491333 929.329529,642.092834 
	C914.515015,642.092834 900.038391,642.223328 885.567200,641.998779 
	C882.060364,641.944397 880.251160,643.184692 878.532776,646.086426 
	C855.710449,684.626770 832.776489,723.101074 809.851624,761.580627 
	C807.699829,765.192505 805.420715,768.728516 802.881897,772.812622 
	C797.534058,763.902161 792.654175,755.771484 787.377075,747.029297 
M208.535660,892.783325 
	C209.293289,890.713257 210.711349,888.643982 210.713699,886.573059 
	C210.822693,790.101929 210.809799,693.630737 210.792969,597.159485 
	C210.792770,595.964050 210.560059,594.768616 210.416351,593.385498 
	C209.666550,593.774780 209.315872,593.864380 209.095245,594.084412 
	C188.215088,614.905579 167.303131,635.695496 146.567703,656.659912 
	C145.180511,658.062378 144.551926,660.791687 144.549789,662.904846 
	C144.453094,759.209412 144.464523,855.514038 144.480103,951.818665 
	C144.480316,953.060242 144.696152,954.301758 144.911758,956.625732 
	C166.411911,935.043457 187.202774,914.173157 208.535660,892.783325 
M1079.570679,892.687134 
	C1079.570679,897.323669 1079.570679,901.960205 1079.570679,906.755737 
	C1093.903076,906.755737 1107.804077,906.755737 1122.088501,906.755737 
	C1122.088501,904.882996 1122.088501,903.256897 1122.088501,901.630737 
	C1122.088501,881.973755 1122.094116,862.316711 1122.087036,842.659729 
	C1122.078247,818.338440 1122.323975,794.013306 1121.973633,769.696899 
	C1121.582764,742.571045 1107.304321,722.967468 1081.346680,715.681641 
	C1054.385864,708.114136 1027.880371,710.570618 1002.780701,723.629639 
	C993.241516,728.592590 985.063477,735.303284 978.333130,744.303955 
	C986.270264,753.708008 994.051086,762.926880 1002.089722,772.451233 
	C1010.826355,760.759644 1021.723022,752.787231 1034.985107,748.348572 
	C1046.388550,744.531921 1057.903198,744.051880 1068.992432,749.627258 
	C1077.899170,754.105469 1082.048462,761.844177 1080.726196,770.776428 
	C1079.353638,780.048523 1073.749146,785.504028 1063.219849,787.124207 
	C1054.996948,788.389526 1046.671753,788.979797 1038.434570,790.165344 
	C1019.156555,792.940125 1000.558899,797.721802 984.487427,809.489929 
	C954.467468,831.471741 954.966675,878.815857 985.439697,900.162109 
	C1011.882202,918.685181 1051.524658,914.362000 1075.161255,890.297974 
	C1076.343506,889.094421 1076.924927,887.300720 1077.786133,885.781738 
	C1078.380981,886.286682 1078.975830,886.791687 1079.570679,887.296631 
	C1079.570679,888.780457 1079.570679,890.264221 1079.570679,892.687134 
M277.022675,879.500000 
	C277.022675,904.842834 277.022675,930.185730 277.022675,956.161316 
	C278.339417,955.279480 278.810242,955.063232 279.153931,954.719727 
	C299.781067,934.106140 320.436859,913.520630 340.930084,892.774536 
	C342.339935,891.347229 343.187683,888.714111 343.190002,886.640503 
	C343.298126,790.149780 343.284698,693.658875 343.264954,597.168030 
	C343.264709,595.979004 343.001160,594.789917 342.770569,592.840637 
	C321.568268,614.069458 301.020264,634.731140 280.326965,655.246155 
	C277.862213,657.689697 276.946808,660.093079 276.951324,663.520447 
	C277.045898,735.180176 277.022675,806.840088 277.022675,879.500000 
M78.128967,785.500000 
	C78.128967,721.513306 78.128967,657.526611 78.128967,592.580627 
	C76.377998,594.234070 75.523804,595.002075 74.712212,595.812744 
	C54.914913,615.587036 35.162533,635.406677 15.276824,655.091675 
	C12.830490,657.513306 11.852562,659.913452 11.855836,663.359436 
	C11.946863,759.147766 11.929297,854.936218 11.929693,950.724609 
	C11.929700,952.301453 11.929693,953.878357 11.929693,956.422302 
	C13.425977,955.067505 14.153494,954.463684 14.819362,953.798157 
	C34.845562,933.780090 54.827702,913.717651 74.938171,893.784668 
	C77.259689,891.483643 78.204704,889.205994 78.194229,885.953186 
	C78.087486,852.802368 78.128975,819.651123 78.128967,785.500000 
M1508.002319,830.500000 
	C1508.002319,792.434753 1508.002319,754.369446 1508.002319,716.372314 
	C1493.553711,716.372314 1479.819702,716.372314 1465.815674,716.372314 
	C1465.815674,718.475464 1465.815796,720.295044 1465.815796,722.114624 
	C1465.815796,763.431702 1465.830444,804.748840 1465.769287,846.065857 
	C1465.766602,847.959961 1465.726074,850.442932 1464.615356,851.654053 
	C1454.900513,862.246521 1443.916748,871.061340 1429.294800,873.791321 
	C1410.829590,877.238708 1397.767700,868.595032 1393.996948,850.270386 
	C1392.932983,845.099121 1392.625000,839.696350 1392.609009,834.397766 
	C1392.495361,796.912903 1392.547974,759.427429 1392.547485,721.942200 
	C1392.547363,720.145081 1392.547485,718.348022 1392.547485,716.465088 
	C1378.224121,716.465088 1364.377563,716.465088 1350.457642,716.465088 
	C1350.457642,762.976624 1349.606201,809.128296 1350.702271,855.233643 
	C1351.753662,899.464600 1385.997925,914.017456 1416.009033,911.107971 
	C1433.316528,909.430115 1447.514160,901.132507 1460.460571,890.178223 
	C1461.497559,889.300842 1462.607178,888.509033 1464.531494,887.021729 
	C1464.531494,894.366821 1464.531494,900.606079 1464.531494,906.723511 
	C1479.288208,906.723511 1493.535645,906.723511 1508.002319,906.723511 
	C1508.002319,881.437927 1508.002319,856.468994 1508.002319,830.500000 
M1234.700317,749.894226 
	C1236.128052,749.444336 1237.543457,748.949829 1238.985352,748.551453 
	C1256.228394,743.787659 1270.170532,751.961731 1273.947510,769.422607 
	C1275.027954,774.417297 1275.329224,779.661438 1275.343750,784.793030 
	C1275.454224,823.616028 1275.404541,862.439514 1275.404785,901.262817 
	C1275.404785,903.056335 1275.404785,904.849915 1275.404785,906.839661 
	C1289.634277,906.839661 1303.391968,906.839661 1317.432617,906.839661 
	C1317.510742,905.215210 1317.642212,903.753296 1317.642578,902.291382 
	C1317.652466,859.135864 1317.671143,815.980286 1317.614136,772.824829 
	C1317.608521,768.502563 1317.291870,764.164185 1316.844604,759.861816 
	C1314.343384,735.794495 1299.853882,718.300598 1277.999268,713.339355 
	C1263.968506,710.154053 1250.196411,711.821289 1236.721680,716.618774 
	C1224.073486,721.121948 1212.901855,728.146545 1201.880859,737.479004 
	C1201.880859,729.798096 1201.880859,723.113159 1201.880859,716.325195 
	C1187.548706,716.325195 1173.808960,716.325195 1159.993896,716.325195 
	C1159.993896,779.972473 1159.993896,843.381470 1159.993896,906.766724 
	C1174.016602,906.766724 1187.778809,906.766724 1201.917114,906.766724 
	C1201.917114,904.703735 1201.917114,902.909302 1201.917114,901.114868 
	C1201.917358,858.959045 1201.960571,816.803101 1201.838623,774.647644 
	C1201.828491,771.141541 1202.558350,768.430969 1205.584717,766.651978 
	C1215.015503,761.108154 1224.483154,755.626892 1234.700317,749.894226 
M1754.899292,633.398560 
	C1745.460815,643.268860 1739.750122,655.040894 1738.949463,668.606140 
	C1738.145996,682.219788 1738.469482,695.900085 1738.307251,709.551331 
	C1738.282593,711.632751 1738.303833,713.714722 1738.303833,716.218506 
	C1729.421997,716.218506 1721.185547,716.218506 1713.005249,716.218506 
	C1713.005249,728.043213 1713.005249,739.426575 1713.005249,751.173096 
	C1721.491455,751.173096 1729.602051,751.173096 1738.258545,751.173096 
	C1738.258545,803.239502 1738.258545,854.938354 1738.258545,906.783691 
	C1752.539673,906.783691 1766.265137,906.783691 1780.497559,906.783691 
	C1780.497559,854.825623 1780.497559,803.121582 1780.497559,751.073364 
	C1788.808716,751.073364 1796.615356,751.132629 1804.420654,751.052734 
	C1809.717041,750.998474 1816.478027,752.664001 1819.894165,750.047913 
	C1823.311035,747.431396 1823.429199,740.460022 1824.908203,735.372864 
	C1826.734863,729.089905 1828.473633,722.781494 1830.433472,715.834839 
	C1813.219727,715.834839 1796.835327,715.834839 1780.315918,715.834839 
	C1780.315918,702.866272 1779.948120,690.364807 1780.403809,677.893372 
	C1781.051025,660.185669 1794.488525,649.905457 1811.727783,653.713257 
	C1817.301270,654.944336 1822.662476,657.136963 1828.310181,658.950562 
	C1832.594604,648.377625 1836.887085,637.784729 1841.320068,626.845093 
	C1830.717041,621.479492 1819.729126,618.526001 1808.235962,617.435730 
	C1788.596313,615.572632 1770.334473,618.601196 1754.899292,633.398560 
M1596.521240,727.500305 
	C1596.521240,690.146667 1596.521240,652.793030 1596.521240,615.439453 
	C1595.897827,615.072449 1595.274414,614.705505 1594.651001,614.338501 
	C1582.410278,627.030334 1570.251465,639.803040 1557.861938,652.347961 
	C1555.287231,654.955078 1554.351685,657.531128 1554.355713,661.123352 
	C1554.445923,741.250244 1554.424805,821.377258 1554.424683,901.504211 
	C1554.424683,903.273193 1554.424805,905.042175 1554.424805,906.696899 
	C1568.789185,906.696899 1582.516357,906.696899 1596.521118,906.696899 
	C1596.521118,847.069153 1596.521118,787.784729 1596.521240,727.500305 
M1682.342896,907.038696 
	C1683.779907,906.943848 1685.216919,906.849060 1686.550415,906.761047 
	C1686.550415,843.033447 1686.550415,779.681763 1686.550415,716.336792 
	C1671.923584,716.336792 1657.666870,716.336792 1643.259155,716.336792 
	C1643.259155,779.950134 1643.259155,843.315369 1643.259155,907.039185 
	C1656.123291,907.039185 1668.746826,907.039185 1682.342896,907.038696 
M1677.783691,633.666931 
	C1663.101807,626.266785 1646.230835,632.059692 1640.100342,646.606018 
	C1634.024170,661.023621 1641.655884,677.631897 1656.612305,682.539062 
	C1669.596680,686.799194 1683.006592,680.884460 1689.114136,668.203491 
	C1695.078979,655.818970 1690.881104,642.377808 1677.783691,633.666931 
z"/>
<path fill="#030303" opacity="1.000000" stroke="none" 
	d="
M2001.000000,822.531372 
	C1957.710571,823.000000 1914.421021,823.000000 1871.175903,823.000000 
	C1868.231323,839.820740 1881.639648,862.461609 1899.122803,871.059814 
	C1916.374878,879.544434 1947.221436,877.812927 1969.109009,846.586426 
	C1977.648071,854.540344 1986.144165,862.454285 1995.230103,870.917786 
	C1992.083252,874.650635 1989.199829,878.430603 1985.952393,881.866638 
	C1955.823853,913.745850 1903.735840,921.017273 1867.656128,898.270142 
	C1850.428589,887.408630 1839.352905,871.541138 1833.300171,852.432373 
	C1824.105469,823.404541 1823.980347,794.298401 1836.006714,765.941162 
	C1858.804932,712.184875 1913.557495,702.567139 1952.296387,718.558105 
	C1973.043213,727.122070 1985.978882,743.307617 1992.823608,764.101990 
	C1996.385498,774.923279 1997.837891,786.439026 2000.621582,797.820557 
	C2001.000000,806.020935 2001.000000,814.041809 2001.000000,822.531372 
M1946.581177,759.947998 
	C1933.532715,745.360779 1915.899536,741.733459 1899.196167,749.492004 
	C1882.549194,757.224365 1870.504761,778.550720 1872.574463,790.544189 
	C1900.472778,790.544189 1928.374146,790.544189 1956.631104,790.544189 
	C1956.535034,779.315857 1953.569580,769.362671 1946.581177,759.947998 
z"/>
<path fill="#030303" opacity="1.000000" stroke="none" 
	d="
M787.575684,747.335083 
	C792.654175,755.771484 797.534058,763.902161 802.881897,772.812622 
	C805.420715,768.728516 807.699829,765.192505 809.851624,761.580627 
	C832.776489,723.101074 855.710449,684.626770 878.532776,646.086426 
	C880.251160,643.184692 882.060364,641.944397 885.567200,641.998779 
	C900.038391,642.223328 914.515015,642.092834 929.329529,642.092834 
	C929.329529,730.491333 929.329529,818.541077 929.329529,906.815918 
	C914.107849,906.815918 899.015503,906.815918 883.454468,906.815918 
	C883.454468,844.782349 883.454468,782.880981 883.454468,720.979675 
	C883.022400,720.811096 882.590332,720.642456 882.158203,720.473877 
	C855.680664,764.350098 829.203064,808.226318 802.268860,852.859192 
	C775.305054,808.331055 748.630859,764.281250 721.956726,720.231384 
	C721.638794,720.278748 721.320923,720.326111 721.003052,720.373413 
	C721.003052,782.450134 721.003052,844.526855 721.003052,906.820251 
	C705.363403,906.820251 690.433289,906.820251 675.196838,906.820251 
	C675.196838,818.697083 675.196838,730.670349 675.196838,642.093140 
	C679.344482,642.093140 683.298340,642.093201 687.252197,642.093201 
	C694.751099,642.093201 702.371521,642.944519 709.720825,641.896057 
	C721.086182,640.274719 726.971924,644.942261 732.510071,654.709717 
	C750.163025,685.843567 768.998413,716.306946 787.575684,747.335083 
z"/>
<path fill="#02AD5C" opacity="1.000000" stroke="none" 
	d="
M208.264648,893.043091 
	C187.202774,914.173157 166.411911,935.043457 144.911758,956.625732 
	C144.696152,954.301758 144.480316,953.060242 144.480103,951.818665 
	C144.464523,855.514038 144.453094,759.209412 144.549789,662.904846 
	C144.551926,660.791687 145.180511,658.062378 146.567703,656.659912 
	C167.303131,635.695496 188.215088,614.905579 209.095245,594.084412 
	C209.315872,593.864380 209.666550,593.774780 210.416351,593.385498 
	C210.560059,594.768616 210.792770,595.964050 210.792969,597.159485 
	C210.809799,693.630737 210.822693,790.101929 210.713699,886.573059 
	C210.711349,888.643982 209.293289,890.713257 208.264648,893.043091 
z"/>
<path fill="#020202" opacity="1.000000" stroke="none" 
	d="
M1079.570679,892.217590 
	C1079.570679,890.264221 1079.570679,888.780457 1079.570679,887.296631 
	C1078.975830,886.791687 1078.380981,886.286682 1077.786133,885.781738 
	C1076.924927,887.300720 1076.343506,889.094421 1075.161255,890.297974 
	C1051.524658,914.362000 1011.882202,918.685181 985.439697,900.162109 
	C954.966675,878.815857 954.467468,831.471741 984.487427,809.489929 
	C1000.558899,797.721802 1019.156555,792.940125 1038.434570,790.165344 
	C1046.671753,788.979797 1054.996948,788.389526 1063.219849,787.124207 
	C1073.749146,785.504028 1079.353638,780.048523 1080.726196,770.776428 
	C1082.048462,761.844177 1077.899170,754.105469 1068.992432,749.627258 
	C1057.903198,744.051880 1046.388550,744.531921 1034.985107,748.348572 
	C1021.723022,752.787231 1010.826355,760.759644 1002.089722,772.451233 
	C994.051086,762.926880 986.270264,753.708008 978.333130,744.303955 
	C985.063477,735.303284 993.241516,728.592590 1002.780701,723.629639 
	C1027.880371,710.570618 1054.385864,708.114136 1081.346680,715.681641 
	C1107.304321,722.967468 1121.582764,742.571045 1121.973633,769.696899 
	C1122.323975,794.013306 1122.078247,818.338440 1122.087036,842.659729 
	C1122.094116,862.316711 1122.088501,881.973755 1122.088501,901.630737 
	C1122.088501,903.256897 1122.088501,904.882996 1122.088501,906.755737 
	C1107.804077,906.755737 1093.903076,906.755737 1079.570679,906.755737 
	C1079.570679,901.960205 1079.570679,897.323669 1079.570679,892.217590 
M1036.183228,877.685486 
	C1053.881714,875.992737 1067.177124,866.586792 1078.363037,853.535645 
	C1079.079712,852.699463 1079.841553,851.534485 1079.850830,850.515747 
	C1079.955811,839.079773 1079.917236,827.642456 1079.917236,815.666931 
	C1069.560181,816.885254 1059.814697,817.829285 1050.137451,819.241638 
	C1043.731689,820.176514 1037.101562,820.963379 1031.156494,823.302551 
	C1024.162476,826.054321 1016.885376,829.379456 1011.348572,834.282654 
	C998.388184,845.759705 1001.766907,866.607422 1017.520508,873.795044 
	C1022.914673,876.256226 1029.337769,876.462158 1036.183228,877.685486 
z"/>
<path fill="#01AC5C" opacity="1.000000" stroke="none" 
	d="
M277.022675,879.000000 
	C277.022675,806.840088 277.045898,735.180176 276.951324,663.520447 
	C276.946808,660.093079 277.862213,657.689697 280.326965,655.246155 
	C301.020264,634.731140 321.568268,614.069458 342.770569,592.840637 
	C343.001160,594.789917 343.264709,595.979004 343.264954,597.168030 
	C343.284698,693.658875 343.298126,790.149780 343.190002,886.640503 
	C343.187683,888.714111 342.339935,891.347229 340.930084,892.774536 
	C320.436859,913.520630 299.781067,934.106140 279.153931,954.719727 
	C278.810242,955.063232 278.339417,955.279480 277.022675,956.161316 
	C277.022675,930.185730 277.022675,904.842834 277.022675,879.000000 
z"/>
<path fill="#01AC5C" opacity="1.000000" stroke="none" 
	d="
M78.128983,786.000000 
	C78.128975,819.651123 78.087486,852.802368 78.194229,885.953186 
	C78.204704,889.205994 77.259689,891.483643 74.938171,893.784668 
	C54.827702,913.717651 34.845562,933.780090 14.819362,953.798157 
	C14.153494,954.463684 13.425977,955.067505 11.929693,956.422302 
	C11.929693,953.878357 11.929700,952.301453 11.929693,950.724609 
	C11.929297,854.936218 11.946863,759.147766 11.855836,663.359436 
	C11.852562,659.913452 12.830490,657.513306 15.276824,655.091675 
	C35.162533,635.406677 54.914913,615.587036 74.712212,595.812744 
	C75.523804,595.002075 76.377998,594.234070 78.128967,592.580627 
	C78.128967,657.526611 78.128967,721.513306 78.128983,786.000000 
z"/>
<path fill="#030303" opacity="1.000000" stroke="none" 
	d="
M1508.002319,831.000000 
	C1508.002319,856.468994 1508.002319,881.437927 1508.002319,906.723511 
	C1493.535645,906.723511 1479.288208,906.723511 1464.531494,906.723511 
	C1464.531494,900.606079 1464.531494,894.366821 1464.531494,887.021729 
	C1462.607178,888.509033 1461.497559,889.300842 1460.460571,890.178223 
	C1447.514160,901.132507 1433.316528,909.430115 1416.009033,911.107971 
	C1385.997925,914.017456 1351.753662,899.464600 1350.702271,855.233643 
	C1349.606201,809.128296 1350.457642,762.976624 1350.457642,716.465088 
	C1364.377563,716.465088 1378.224121,716.465088 1392.547485,716.465088 
	C1392.547485,718.348022 1392.547363,720.145081 1392.547485,721.942200 
	C1392.547974,759.427429 1392.495361,796.912903 1392.609009,834.397766 
	C1392.625000,839.696350 1392.932983,845.099121 1393.996948,850.270386 
	C1397.767700,868.595032 1410.829590,877.238708 1429.294800,873.791321 
	C1443.916748,871.061340 1454.900513,862.246521 1464.615356,851.654053 
	C1465.726074,850.442932 1465.766602,847.959961 1465.769287,846.065857 
	C1465.830444,804.748840 1465.815796,763.431702 1465.815796,722.114624 
	C1465.815796,720.295044 1465.815674,718.475464 1465.815674,716.372314 
	C1479.819702,716.372314 1493.553711,716.372314 1508.002319,716.372314 
	C1508.002319,754.369446 1508.002319,792.434753 1508.002319,831.000000 
z"/>
<path fill="#030303" opacity="1.000000" stroke="none" 
	d="
M1234.318359,750.007812 
	C1224.483154,755.626892 1215.015503,761.108154 1205.584717,766.651978 
	C1202.558350,768.430969 1201.828491,771.141541 1201.838623,774.647644 
	C1201.960571,816.803101 1201.917358,858.959045 1201.917114,901.114868 
	C1201.917114,902.909302 1201.917114,904.703735 1201.917114,906.766724 
	C1187.778809,906.766724 1174.016602,906.766724 1159.993896,906.766724 
	C1159.993896,843.381470 1159.993896,779.972473 1159.993896,716.325195 
	C1173.808960,716.325195 1187.548706,716.325195 1201.880859,716.325195 
	C1201.880859,723.113159 1201.880859,729.798096 1201.880859,737.479004 
	C1212.901855,728.146545 1224.073486,721.121948 1236.721680,716.618774 
	C1250.196411,711.821289 1263.968506,710.154053 1277.999268,713.339355 
	C1299.853882,718.300598 1314.343384,735.794495 1316.844604,759.861816 
	C1317.291870,764.164185 1317.608521,768.502563 1317.614136,772.824829 
	C1317.671143,815.980286 1317.652466,859.135864 1317.642578,902.291382 
	C1317.642212,903.753296 1317.510742,905.215210 1317.432617,906.839661 
	C1303.391968,906.839661 1289.634277,906.839661 1275.404785,906.839661 
	C1275.404785,904.849915 1275.404785,903.056335 1275.404785,901.262817 
	C1275.404541,862.439514 1275.454224,823.616028 1275.343750,784.793030 
	C1275.329224,779.661438 1275.027954,774.417297 1273.947510,769.422607 
	C1270.170532,751.961731 1256.228394,743.787659 1238.985352,748.551453 
	C1237.543457,748.949829 1236.128052,749.444336 1234.318359,750.007812 
z"/>
<path fill="#030303" opacity="1.000000" stroke="none" 
	d="
M1755.149170,633.148804 
	C1770.334473,618.601196 1788.596313,615.572632 1808.235962,617.435730 
	C1819.729126,618.526001 1830.717041,621.479492 1841.320068,626.845093 
	C1836.887085,637.784729 1832.594604,648.377625 1828.310181,658.950562 
	C1822.662476,657.136963 1817.301270,654.944336 1811.727783,653.713257 
	C1794.488525,649.905457 1781.051025,660.185669 1780.403809,677.893372 
	C1779.948120,690.364807 1780.315918,702.866272 1780.315918,715.834839 
	C1796.835327,715.834839 1813.219727,715.834839 1830.433472,715.834839 
	C1828.473633,722.781494 1826.734863,729.089905 1824.908203,735.372864 
	C1823.429199,740.460022 1823.311035,747.431396 1819.894165,750.047913 
	C1816.478027,752.664001 1809.717041,750.998474 1804.420654,751.052734 
	C1796.615356,751.132629 1788.808716,751.073364 1780.497559,751.073364 
	C1780.497559,803.121582 1780.497559,854.825623 1780.497559,906.783691 
	C1766.265137,906.783691 1752.539673,906.783691 1738.258545,906.783691 
	C1738.258545,854.938354 1738.258545,803.239502 1738.258545,751.173096 
	C1729.602051,751.173096 1721.491455,751.173096 1713.005249,751.173096 
	C1713.005249,739.426575 1713.005249,728.043213 1713.005249,716.218506 
	C1721.185547,716.218506 1729.421997,716.218506 1738.303833,716.218506 
	C1738.303833,713.714722 1738.282593,711.632751 1738.307251,709.551331 
	C1738.469482,695.900085 1738.145996,682.219788 1738.949463,668.606140 
	C1739.750122,655.040894 1745.460815,643.268860 1755.149170,633.148804 
z"/>
<path fill="#030303" opacity="1.000000" stroke="none" 
	d="
M1596.521240,728.000366 
	C1596.521118,787.784729 1596.521118,847.069153 1596.521118,906.696899 
	C1582.516357,906.696899 1568.789185,906.696899 1554.424805,906.696899 
	C1554.424805,905.042175 1554.424683,903.273193 1554.424683,901.504211 
	C1554.424805,821.377258 1554.445923,741.250244 1554.355713,661.123352 
	C1554.351685,657.531128 1555.287231,654.955078 1557.861938,652.347961 
	C1570.251465,639.803040 1582.410278,627.030334 1594.651001,614.338501 
	C1595.274414,614.705505 1595.897827,615.072449 1596.521240,615.439453 
	C1596.521240,652.793030 1596.521240,690.146667 1596.521240,728.000366 
z"/>
<path fill="#020202" opacity="1.000000" stroke="none" 
	d="
M1681.856689,907.038940 
	C1668.746826,907.039185 1656.123291,907.039185 1643.259155,907.039185 
	C1643.259155,843.315369 1643.259155,779.950134 1643.259155,716.336792 
	C1657.666870,716.336792 1671.923584,716.336792 1686.550415,716.336792 
	C1686.550415,779.681763 1686.550415,843.033447 1686.550415,906.761047 
	C1685.216919,906.849060 1683.779907,906.943848 1681.856689,907.038940 
z"/>
<path fill="#040404" opacity="1.000000" stroke="none" 
	d="
M1678.109863,633.839844 
	C1690.881104,642.377808 1695.078979,655.818970 1689.114136,668.203491 
	C1683.006592,680.884460 1669.596680,686.799194 1656.612305,682.539062 
	C1641.655884,677.631897 1634.024170,661.023621 1640.100342,646.606018 
	C1646.230835,632.059692 1663.101807,626.266785 1678.109863,633.839844 
z"/>
<path fill="#FBFBFB" opacity="1.000000" stroke="none" 
	d="
M1946.795898,760.238281 
	C1953.569580,769.362671 1956.535034,779.315857 1956.631104,790.544189 
	C1928.374146,790.544189 1900.472778,790.544189 1872.574463,790.544189 
	C1870.504761,778.550720 1882.549194,757.224365 1899.196167,749.492004 
	C1915.899536,741.733459 1933.532715,745.360779 1946.795898,760.238281 
z"/>
<path fill="#FCFCFC" opacity="1.000000" stroke="none" 
	d="
M1035.737061,877.692017 
	C1029.337769,876.462158 1022.914673,876.256226 1017.520508,873.795044 
	C1001.766907,866.607422 998.388184,845.759705 1011.348572,834.282654 
	C1016.885376,829.379456 1024.162476,826.054321 1031.156494,823.302551 
	C1037.101562,820.963379 1043.731689,820.176514 1050.137451,819.241638 
	C1059.814697,817.829285 1069.560181,816.885254 1079.917236,815.666931 
	C1079.917236,827.642456 1079.955811,839.079773 1079.850830,850.515747 
	C1079.841553,851.534485 1079.079712,852.699463 1078.363037,853.535645 
	C1067.177124,866.586792 1053.881714,875.992737 1035.737061,877.692017 
z"/>
</svg>