<svg xmlns="http://www.w3.org/2000/svg" width="250" height="50" viewBox="0 0 6000 1209" version="1.1"><path d="M 2202.667 38.667 C 2202.300 39.033, 2202 297.783, 2202 613.667 L 2202 1188 2295 1188 L 2388 1188 2388 748.303 L 2388 308.605 2464.414 446.053 C 2506.442 521.649, 2582.613 658.650, 2633.683 750.500 L 2726.537 917.500 2813.831 917.500 L 2901.125 917.500 3069.812 614.129 L 3238.500 310.758 3238.751 749.379 L 3239.002 1188 3332.502 1188 L 3426.002 1188 3425.751 613.250 L 3425.500 38.500 3314.093 38.500 L 3202.687 38.500 3009.593 387.695 C 2903.392 579.752, 2816.218 736.577, 2815.873 736.195 C 2815.528 735.813, 2728.945 579.350, 2623.466 388.500 C 2517.987 197.650, 2431.012 40.712, 2430.188 39.750 C 2428.778 38.103, 2422.087 38, 2316.012 38 C 2254.039 38, 2203.033 38.300, 2202.667 38.667 M 4628.667 80.667 C 4628.300 81.033, 4628 137.621, 4628 206.417 L 4628 331.500 4543 331.239 L 4458 330.978 4458 407.489 L 4458 484 4542.955 484 L 4627.909 484 4628.280 704.750 C 4628.676 940.525, 4628.527 933.040, 4633.528 969 C 4637.174 995.216, 4644.315 1024.369, 4652.597 1046.849 C 4658.168 1061.970, 4671.022 1087.346, 4679.775 1100.500 C 4716.201 1155.245, 4771.841 1188.959, 4846.435 1201.485 C 4871.965 1205.772, 4882.679 1206.501, 4920 1206.490 C 4963.339 1206.478, 4985.289 1204.531, 5022.500 1197.399 C 5037.354 1194.552, 5063.645 1188.210, 5066.250 1186.846 C 5067.893 1185.986, 5068 1181.338, 5068 1110.835 L 5068 1035.740 5063.750 1036.274 C 5061.413 1036.568, 5050.050 1038.186, 5038.500 1039.869 C 5006.788 1044.490, 4999.925 1045.065, 4968.969 1045.694 C 4949.853 1046.082, 4936.488 1045.875, 4928.469 1045.068 C 4856.107 1037.778, 4823.321 1004.383, 4812.065 926.500 C 4808.320 900.586, 4808.029 882.949, 4808.015 680.750 L 4808 484 4938.006 484 L 5068.012 484 5067.756 407.750 L 5067.500 331.500 4937.750 331.246 L 4808 330.993 4808 205.496 L 4808 80 4718.667 80 C 4669.533 80, 4629.033 80.300, 4628.667 80.667 M 3980.500 311.706 C 3955.883 313.053, 3922.983 318.048, 3898.855 324.101 C 3746.517 362.317, 3633.554 485.752, 3600.550 650.057 C 3589.392 705.605, 3586.954 773.603, 3594.057 831.155 C 3604.749 917.786, 3635.601 992.990, 3686.789 1057.191 C 3700.019 1073.785, 3729.624 1103.502, 3745.500 1116.125 C 3813.393 1170.104, 3884.880 1198.036, 3978.500 1207.165 C 3998.011 1209.068, 4055.123 1208.776, 4078 1206.657 C 4194.536 1195.862, 4290.171 1155.978, 4374.286 1083.094 C 4379.669 1078.430, 4383.944 1074.077, 4383.786 1073.422 C 4383.477 1072.133, 4286.827 953.186, 4286 953.077 C 4285.725 953.041, 4281.675 956.451, 4277 960.655 C 4231.688 1001.404, 4182.826 1028.249, 4131 1040.866 C 4085.484 1051.947, 4025.125 1055.007, 3982.500 1048.395 C 3910.889 1037.286, 3852.122 998.621, 3814.423 937.809 C 3797.157 909.957, 3780.867 865.368, 3775.494 831.250 L 3774.824 827 4089.412 827 L 4404 827 4404 785.580 C 4404 744.056, 4403.257 726.020, 4400.433 699 C 4385.499 556.117, 4326.511 443.602, 4231.165 376.130 C 4168.964 332.114, 4094.273 310.429, 4007.500 311.193 C 3995.950 311.295, 3983.800 311.526, 3980.500 311.706 M 5523.500 311.679 C 5520.750 311.854, 5511.757 312.698, 5503.516 313.554 C 5360.629 328.400, 5243.139 421.271, 5186.682 564 C 5169.182 608.240, 5158.995 653.629, 5153.802 710.500 C 5152.166 728.426, 5152.173 790.943, 5153.814 809 C 5160.113 878.307, 5174.523 933.468, 5200.444 987.500 C 5254.285 1099.729, 5346.587 1176.020, 5458 1200.380 C 5506.627 1211.012, 5567.320 1211.599, 5617 1201.918 C 5701.887 1185.377, 5769.038 1142.900, 5821.694 1072.437 L 5823.889 1069.500 5823.944 1128.750 L 5824 1188 5912 1188 L 6000 1188 6000 759.500 L 6000 331 5912.009 331 L 5824.017 331 5823.759 385.612 L 5823.500 440.224 5816.548 431.362 C 5807.072 419.281, 5779.802 392.088, 5767 381.953 C 5743.205 363.115, 5707.982 343.209, 5680.500 333.067 C 5649.470 321.615, 5617.244 314.798, 5581.050 312.029 C 5568.813 311.093, 5535.851 310.892, 5523.500 311.679 M 3985 468.598 C 3949.898 472.685, 3929.562 478.520, 3903 492.127 C 3882.054 502.857, 3865.490 515.412, 3847.476 534.211 C 3818.890 564.042, 3798.272 600.784, 3785.123 645.325 C 3781.610 657.227, 3775 686.280, 3775 689.822 C 3775 690.722, 3828.047 691, 4000 691 L 4225 691 4225 688.720 C 4225 687.466, 4224.310 680.868, 4223.467 674.057 C 4215.527 609.925, 4192.895 560.254, 4154.860 523.485 C 4124.766 494.392, 4089.458 477.352, 4045 470.468 C 4034.991 468.918, 3993.388 467.621, 3985 468.598 M 5568 475.043 C 5489.501 479.334, 5427.030 513.971, 5384.673 576.685 C 5350.856 626.757, 5334.110 694.314, 5336.354 771.624 C 5338.982 862.137, 5363.334 929.338, 5411.455 978.868 C 5430.594 998.566, 5447.037 1010.591, 5470.500 1022.047 C 5491.466 1032.285, 5511.029 1038.259, 5537.677 1042.562 C 5550.881 1044.695, 5591.902 1045.607, 5607.237 1044.110 C 5699.695 1035.082, 5774.864 983.832, 5813.812 903.267 L 5819.500 891.500 5819.500 759.931 L 5819.500 628.363 5810.856 610.931 C 5797.502 584, 5784.022 564.947, 5764.537 545.463 C 5728.267 509.192, 5683.413 486.388, 5631.903 478.030 C 5620.834 476.234, 5590.532 473.787, 5584 474.161 C 5582.625 474.240, 5575.425 474.637, 5568 475.043" stroke="none" fill="#1c2c34" fill-rule="evenodd"/><path d="M 487.272 1.557 C 364.546 14.948, 250.147 94.235, 160.267 228.196 C 78.494 350.072, 24.138 507.248, 6.094 674 C 1.410 717.279, 0.534 735.295, 0.525 788.500 C 0.515 842.165, 1.117 853.006, 6.105 889 C 28.391 1049.847, 110.401 1160.350, 233.947 1196.005 C 263.399 1204.504, 287.473 1207.976, 322.137 1208.724 C 368.574 1209.726, 405.421 1204.375, 440.640 1191.515 C 456.113 1185.864, 485.202 1170.980, 500 1161.140 C 568.838 1115.368, 636.569 1035.598, 719.181 903 C 750.211 853.195, 759.327 837.447, 853.479 671 C 884.123 616.825, 909.505 572.169, 909.883 571.765 C 910.261 571.361, 912.992 574.961, 915.952 579.765 C 932.706 606.953, 958.538 650.005, 1011.746 739.413 C 1103.351 893.342, 1131.592 938.354, 1172.191 995.128 C 1272.378 1135.230, 1349.367 1192.116, 1458.500 1206.678 C 1477.426 1209.203, 1532.533 1209.210, 1549.500 1206.689 C 1587.768 1201.004, 1613.779 1192.963, 1643.500 1177.629 C 1687.116 1155.126, 1722.748 1121.543, 1751.271 1076.054 C 1810.417 981.727, 1831.459 844.340, 1813.921 667 C 1795.330 479.020, 1727.566 300.029, 1628.222 176.500 C 1607.548 150.793, 1573.130 115.190, 1551.500 97.135 C 1487.910 44.056, 1424.022 13.822, 1352.500 2.962 C 1334.550 0.237, 1297.666 -0.786, 1279.369 0.934 C 1166.062 11.587, 1062.737 85.339, 946.541 238.500 C 941.117 245.650, 936.145 252.090, 935.494 252.810 C 934.547 253.856, 931.917 251.137, 922.436 239.310 C 872.831 177.428, 817.389 121.661, 770.500 86.482 C 701.996 35.087, 637.521 8.793, 562 1.451 C 543.962 -0.303, 503.792 -0.246, 487.272 1.557 M 1282.500 157.161 C 1202.308 161.238, 1128.157 222.235, 1036.697 359.359 L 1024.118 378.217 1035.896 395.859 C 1070.335 447.442, 1093.303 484.403, 1161.508 598 C 1234.342 719.306, 1274.828 784.293, 1316.995 847.581 C 1391.645 959.622, 1429.414 997.093, 1479.170 1008.480 C 1497.518 1012.679, 1524.765 1012.278, 1543.471 1007.532 C 1598.331 993.616, 1631.092 944.452, 1641.972 859.715 C 1648.813 806.442, 1645.205 709.983, 1633.400 630.500 C 1601.018 412.479, 1507.871 240.983, 1389.009 180.543 C 1353.357 162.414, 1320.605 155.224, 1282.500 157.161 M 504 199.049 C 468.447 203.477, 434.365 218.903, 401 245.667 C 390.380 254.186, 366.807 277.583, 356.838 289.500 C 277.848 383.923, 221.561 532.179, 203.078 694.500 C 200.858 713.994, 199.012 740.803, 198.012 768.081 C 195.334 841.065, 203.586 894.540, 224.002 936.500 C 246.282 982.291, 280.220 1006.943, 326.577 1011.007 C 339.007 1012.096, 358.277 1010.966, 370.266 1008.444 C 415.822 998.861, 456.397 965.190, 512.994 890 C 547.608 844.015, 581.591 793.493, 645.503 693 C 693.458 617.598, 802.265 448.765, 814.082 431.421 L 816.861 427.341 803.653 408.921 C 778.893 374.388, 754.371 343.042, 732.918 318.500 C 719.244 302.858, 690.924 274.247, 678.500 263.523 C 636.490 227.263, 595.975 206.979, 552.831 200.608 C 539.460 198.634, 513.887 197.817, 504 199.049" stroke="none" fill="#0477f0" fill-rule="evenodd"/></svg>