<svg xmlns="http://www.w3.org/2000/svg" width="260" height="50" viewBox="0 0 517 97" version="1.1"><path d="M 0 48.502 L 0 97.004 258.750 96.752 L 517.500 96.500 517.760 48.250 L 518.019 -0 259.010 -0 L 0 0 0 48.502 M 0.463 49 C 0.463 75.675, 0.592 86.588, 0.749 73.250 C 0.907 59.913, 0.907 38.088, 0.749 24.750 C 0.592 11.413, 0.463 22.325, 0.463 49 M 282.199 33.750 C 282.471 63.395, 282.671 66.753, 284.309 69.164 C 287.651 74.086, 297.906 76.886, 307.387 75.465 L 312 74.773 312 67.886 L 312 61 307.655 61 C 300.342 61, 299.900 59.864, 300.223 41.892 L 300.500 26.500 306.139 26.203 C 311.755 25.908, 311.794 25.884, 315.389 20.469 C 317.375 17.478, 319 14.799, 319 14.515 C 319 14.232, 314.950 14, 310 14 L 301 14 301 7.500 L 301 1 291.449 1 L 281.899 1 282.199 33.750 M 449 7.500 C 449 12.538, 448.671 14, 447.537 14 C 446.733 14, 444.241 16.700, 442 20 L 437.925 26 443.463 26 L 449 26 449 44.684 C 449 61.459, 449.209 63.800, 451.044 67.591 C 452.346 70.280, 454.253 72.356, 456.294 73.304 C 460.650 75.330, 468.799 76.303, 474.387 75.465 L 479 74.773 479 67.886 L 479 61 475.434 61 C 468.067 61, 468 60.837, 468 42.965 L 468 27 474 27 L 480 27 480 20.500 L 480 14 474 14 L 468 14 468 7.500 L 468 1 458.500 1 L 449 1 449 7.500 M 25.500 13.345 C 8.794 17.698, 1.297 28.463, 2.180 46.831 C 2.527 54.040, 3.088 56.402, 5.515 60.856 C 11.270 71.418, 20.647 76.245, 35.500 76.292 C 55.564 76.355, 67.586 65.904, 68.787 47.354 C 69.849 30.953, 62.695 19.124, 48.805 14.313 C 42.853 12.251, 31.506 11.780, 25.500 13.345 M 104.143 13.493 C 101.747 14.240, 98.709 15.864, 97.393 17.100 L 95 19.349 95 16.674 L 95 14 85.500 14 L 76 14 76 54.500 L 76 95 85.500 95 L 95 95 95 82.345 C 95 70.375, 95.095 69.773, 96.750 71.224 C 102.772 76.505, 114.403 77.701, 122.538 73.877 C 132.949 68.983, 138.698 56.670, 137.740 41.319 C 136.818 26.536, 130.360 16.718, 119.386 13.416 C 113.655 11.691, 109.858 11.710, 104.143 13.493 M 167 13.363 C 160.502 15.260, 156.983 17.326, 152.860 21.668 C 146.294 28.581, 143.333 37.954, 144.333 48.661 C 145.467 60.808, 150.942 68.880, 161.223 73.561 C 166.737 76.072, 168.654 76.417, 177 76.399 C 185.211 76.381, 187.314 76.006, 192.500 73.633 C 195.800 72.122, 199.778 69.675, 201.339 68.193 C 204.488 65.206, 207.335 60.351, 206.618 59.192 C 206.364 58.779, 203.411 57.130, 200.057 55.527 L 193.959 52.613 192.395 54.846 C 190.049 58.196, 186.779 61.083, 184.185 62.096 C 180.618 63.489, 173.226 63.168, 169.960 61.479 C 166.874 59.884, 163 53.516, 163 50.040 C 163 48.047, 163.519 48, 185.645 48 L 208.290 48 207.703 41.250 C 206.104 22.868, 196.663 13.289, 179.304 12.434 C 174.646 12.205, 169.686 12.579, 167 13.363 M 244.248 13.819 C 241.359 14.850, 238.096 16.508, 236.998 17.502 C 235.048 19.266, 235 19.246, 235 16.655 L 235 14 226 14 L 217 14 217 44.500 L 217 75 226 75 L 235 75 235.006 55.750 C 235.013 29.374, 235.860 27, 245.260 27 C 248.557 27, 250.193 27.577, 251.826 29.314 C 253.920 31.544, 254 32.426, 254 53.314 L 254 75 263.561 75 L 273.123 75 272.811 49.250 C 272.530 26.003, 272.314 23.193, 270.590 20.344 C 266.328 13.302, 254.146 10.285, 244.248 13.819 M 336.500 14.024 C 328.484 16.579, 323.761 20.708, 319.912 28.527 C 313.537 41.478, 315.092 57.437, 323.659 66.966 C 329.664 73.644, 336.011 76, 348 76 C 360.427 76, 366.332 73.692, 372.976 66.237 C 375.739 63.137, 378 60.236, 378 59.791 C 378 59.346, 375.072 57.537, 371.492 55.772 L 364.985 52.563 361.902 56.302 C 358.118 60.894, 354.223 63, 349.518 63 C 341.814 63, 336.466 58.646, 335.293 51.419 L 334.738 48 357.514 48 L 380.290 48 379.687 40.806 C 378.893 31.337, 374.461 22.071, 368.744 17.929 C 360.487 11.949, 347.826 10.415, 336.500 14.024 M 377.734 15.250 C 383.055 22.046, 397 42.095, 397 42.949 C 397 43.553, 392.500 50.776, 387 59 C 381.500 67.224, 377 74.188, 377 74.476 C 377 74.764, 381.613 74.990, 387.250 74.977 L 397.500 74.955 402.756 66.977 C 405.646 62.590, 408.346 59.016, 408.756 59.036 C 409.165 59.055, 411.975 62.649, 415 67.022 L 420.500 74.973 431.199 74.987 L 441.898 75 430.400 59.031 L 418.901 43.062 427.594 29.781 C 432.375 22.477, 436.728 15.938, 437.266 15.250 C 438.036 14.267, 435.977 14, 427.629 14 L 417.013 14 412.756 20.479 C 410.415 24.043, 408.249 26.968, 407.943 26.979 C 407.636 26.991, 405.238 24.075, 402.613 20.500 L 397.840 14 387.298 14 C 379.008 14, 376.964 14.267, 377.734 15.250 M 491 15 C 491 15.550, 491.900 16, 493 16 C 494.758 16, 495 16.667, 495 21.500 C 495 24.525, 495.450 27, 496 27 C 496.554 27, 497 24.365, 497 21.094 C 497 15.680, 497.167 15.231, 499 15.710 C 500.118 16.003, 501 15.741, 501 15.117 C 501 14.443, 499.015 14, 496 14 C 493.250 14, 491 14.450, 491 15 M 502 20.427 C 502 27.965, 503.724 29.380, 504.222 22.250 L 504.553 17.500 505.895 22.250 C 506.634 24.863, 507.788 27, 508.460 27 C 509.133 27, 510.311 25.087, 511.079 22.750 L 512.475 18.500 512.795 22.750 C 513.299 29.442, 515 27.707, 515 20.500 C 515 15.342, 514.685 14, 513.475 14 C 512.637 14, 511.505 15.238, 510.959 16.750 C 508.438 23.747, 508.419 23.757, 506.826 18.977 C 505.971 16.410, 504.623 14.362, 503.667 14.177 C 502.247 13.901, 502 14.828, 502 20.427 M 172.643 24.992 C 168.132 26.401, 163 32.233, 163 35.950 C 163 37.297, 187.643 37.387, 188.473 36.044 C 189.436 34.485, 186.356 28.280, 183.781 26.592 C 180.633 24.529, 176.174 23.889, 172.643 24.992 M 344.643 24.992 C 340.132 26.401, 335 32.233, 335 35.950 C 335 36.627, 339.449 37, 347.531 37 C 361.454 37, 362.370 36.550, 359.552 31.100 C 356.763 25.708, 350.528 23.153, 344.643 24.992 M 104.021 27.105 C 97.791 29.619, 94.750 35.012, 94.750 43.548 C 94.750 51.483, 96.383 56.303, 100.143 59.467 C 103.685 62.447, 110.252 62.913, 113.791 60.434 C 121.991 54.690, 122.554 33.869, 114.649 28.690 C 111.517 26.637, 106.889 25.947, 104.021 27.105 M 26.898 29.273 C 17.939 35.267, 18.633 55.656, 27.960 60.479 C 32.056 62.598, 39.805 62.416, 43.580 60.114 C 50.125 56.123, 52.683 43.196, 48.597 34.766 C 44.910 27.159, 34.135 24.432, 26.898 29.273" stroke="none" fill="#f9f9f9" fill-rule="evenodd"/><path d="M 282.199 33.750 C 282.471 63.395, 282.671 66.753, 284.309 69.164 C 287.651 74.086, 297.906 76.886, 307.387 75.465 L 312 74.773 312 67.886 L 312 61 307.655 61 C 300.342 61, 299.900 59.864, 300.223 41.892 L 300.500 26.500 306.139 26.203 C 311.755 25.908, 311.794 25.884, 315.389 20.469 C 317.375 17.478, 319 14.799, 319 14.515 C 319 14.232, 314.950 14, 310 14 L 301 14 301 7.500 L 301 1 291.449 1 L 281.899 1 282.199 33.750 M 449 7.500 C 449 12.538, 448.671 14, 447.537 14 C 446.733 14, 444.241 16.700, 442 20 L 437.925 26 443.463 26 L 449 26 449 44.684 C 449 61.459, 449.209 63.800, 451.044 67.591 C 452.346 70.280, 454.253 72.356, 456.294 73.304 C 460.650 75.330, 468.799 76.303, 474.387 75.465 L 479 74.773 479 67.886 L 479 61 475.434 61 C 468.067 61, 468 60.837, 468 42.965 L 468 27 474 27 L 480 27 480 20.500 L 480 14 474 14 L 468 14 468 7.500 L 468 1 458.500 1 L 449 1 449 7.500 M 25.500 13.345 C 8.794 17.698, 1.297 28.463, 2.180 46.831 C 2.527 54.040, 3.088 56.402, 5.515 60.856 C 11.270 71.418, 20.647 76.245, 35.500 76.292 C 55.564 76.355, 67.586 65.904, 68.787 47.354 C 69.849 30.953, 62.695 19.124, 48.805 14.313 C 42.853 12.251, 31.506 11.780, 25.500 13.345 M 104.143 13.493 C 101.747 14.240, 98.709 15.864, 97.393 17.100 L 95 19.349 95 16.674 L 95 14 85.500 14 L 76 14 76 54.500 L 76 95 85.500 95 L 95 95 95 82.345 C 95 70.375, 95.095 69.773, 96.750 71.224 C 102.772 76.505, 114.403 77.701, 122.538 73.877 C 132.949 68.983, 138.698 56.670, 137.740 41.319 C 136.818 26.536, 130.360 16.718, 119.386 13.416 C 113.655 11.691, 109.858 11.710, 104.143 13.493 M 167 13.363 C 160.502 15.260, 156.983 17.326, 152.860 21.668 C 146.294 28.581, 143.333 37.954, 144.333 48.661 C 145.467 60.808, 150.942 68.880, 161.223 73.561 C 166.737 76.072, 168.654 76.417, 177 76.399 C 185.211 76.381, 187.314 76.006, 192.500 73.633 C 195.800 72.122, 199.778 69.675, 201.339 68.193 C 204.488 65.206, 207.335 60.351, 206.618 59.192 C 206.364 58.779, 203.411 57.130, 200.057 55.527 L 193.959 52.613 192.395 54.846 C 190.049 58.196, 186.779 61.083, 184.185 62.096 C 180.618 63.489, 173.226 63.168, 169.960 61.479 C 166.874 59.884, 163 53.516, 163 50.040 C 163 48.047, 163.519 48, 185.645 48 L 208.290 48 207.703 41.250 C 206.104 22.868, 196.663 13.289, 179.304 12.434 C 174.646 12.205, 169.686 12.579, 167 13.363 M 244.248 13.819 C 241.359 14.850, 238.096 16.508, 236.998 17.502 C 235.048 19.266, 235 19.246, 235 16.655 L 235 14 226 14 L 217 14 217 44.500 L 217 75 226 75 L 235 75 235.006 55.750 C 235.013 29.374, 235.860 27, 245.260 27 C 248.557 27, 250.193 27.577, 251.826 29.314 C 253.920 31.544, 254 32.426, 254 53.314 L 254 75 263.561 75 L 273.123 75 272.811 49.250 C 272.530 26.003, 272.314 23.193, 270.590 20.344 C 266.328 13.302, 254.146 10.285, 244.248 13.819 M 336.500 14.024 C 328.484 16.579, 323.761 20.708, 319.912 28.527 C 313.537 41.478, 315.092 57.437, 323.659 66.966 C 329.664 73.644, 336.011 76, 348 76 C 360.427 76, 366.332 73.692, 372.976 66.237 C 375.739 63.137, 378 60.236, 378 59.791 C 378 59.346, 375.072 57.537, 371.492 55.772 L 364.985 52.563 361.902 56.302 C 358.118 60.894, 354.223 63, 349.518 63 C 341.814 63, 336.466 58.646, 335.293 51.419 L 334.738 48 357.514 48 L 380.290 48 379.687 40.806 C 378.893 31.337, 374.461 22.071, 368.744 17.929 C 360.487 11.949, 347.826 10.415, 336.500 14.024 M 377.734 15.250 C 383.055 22.046, 397 42.095, 397 42.949 C 397 43.553, 392.500 50.776, 387 59 C 381.500 67.224, 377 74.188, 377 74.476 C 377 74.764, 381.613 74.990, 387.250 74.977 L 397.500 74.955 402.756 66.977 C 405.646 62.590, 408.346 59.016, 408.756 59.036 C 409.165 59.055, 411.975 62.649, 415 67.022 L 420.500 74.973 431.199 74.987 L 441.898 75 430.400 59.031 L 418.901 43.062 427.594 29.781 C 432.375 22.477, 436.728 15.938, 437.266 15.250 C 438.036 14.267, 435.977 14, 427.629 14 L 417.013 14 412.756 20.479 C 410.415 24.043, 408.249 26.968, 407.943 26.979 C 407.636 26.991, 405.238 24.075, 402.613 20.500 L 397.840 14 387.298 14 C 379.008 14, 376.964 14.267, 377.734 15.250 M 491 15 C 491 15.550, 491.900 16, 493 16 C 494.758 16, 495 16.667, 495 21.500 C 495 24.525, 495.450 27, 496 27 C 496.554 27, 497 24.365, 497 21.094 C 497 15.680, 497.167 15.231, 499 15.710 C 500.118 16.003, 501 15.741, 501 15.117 C 501 14.443, 499.015 14, 496 14 C 493.250 14, 491 14.450, 491 15 M 502 20.427 C 502 27.965, 503.724 29.380, 504.222 22.250 L 504.553 17.500 505.895 22.250 C 506.634 24.863, 507.788 27, 508.460 27 C 509.133 27, 510.311 25.087, 511.079 22.750 L 512.475 18.500 512.795 22.750 C 513.299 29.442, 515 27.707, 515 20.500 C 515 15.342, 514.685 14, 513.475 14 C 512.637 14, 511.505 15.238, 510.959 16.750 C 508.438 23.747, 508.419 23.757, 506.826 18.977 C 505.971 16.410, 504.623 14.362, 503.667 14.177 C 502.247 13.901, 502 14.828, 502 20.427 M 172.643 24.992 C 168.132 26.401, 163 32.233, 163 35.950 C 163 37.297, 187.643 37.387, 188.473 36.044 C 189.436 34.485, 186.356 28.280, 183.781 26.592 C 180.633 24.529, 176.174 23.889, 172.643 24.992 M 344.643 24.992 C 340.132 26.401, 335 32.233, 335 35.950 C 335 36.627, 339.449 37, 347.531 37 C 361.454 37, 362.370 36.550, 359.552 31.100 C 356.763 25.708, 350.528 23.153, 344.643 24.992 M 104.021 27.105 C 97.791 29.619, 94.750 35.012, 94.750 43.548 C 94.750 51.483, 96.383 56.303, 100.143 59.467 C 103.685 62.447, 110.252 62.913, 113.791 60.434 C 121.991 54.690, 122.554 33.869, 114.649 28.690 C 111.517 26.637, 106.889 25.947, 104.021 27.105 M 26.898 29.273 C 17.939 35.267, 18.633 55.656, 27.960 60.479 C 32.056 62.598, 39.805 62.416, 43.580 60.114 C 50.125 56.123, 52.683 43.196, 48.597 34.766 C 44.910 27.159, 34.135 24.432, 26.898 29.273" stroke="none" fill="#070707" fill-rule="evenodd"/></svg>