<svg xmlns="http://www.w3.org/2000/svg" width="260" height="70" viewBox="0 0 2905 805" version="1.1">
<path d="M 1187.797 236.057 C 1194.896 240.128, 1200.308 245.721, 1203.919 252.718 C 1205.561 255.898, 1206.925 258.145, 1206.952 257.710 C 1207.039 256.273, 1202.781 248.560, 1199.828 244.807 C 1196.920 241.111, 1185.776 232.992, 1183.636 233.009 C 1183.011 233.015, 1184.884 234.386, 1187.797 236.057 M 1524 404.500 L 1524 573 1559.750 572.763 L 1595.500 572.526 1560.250 572.250 L 1525 571.974 1525 404.500 L 1525 237.026 1560.250 236.750 L 1595.500 236.474 1559.750 236.237 L 1524 236 1524 404.500 M 2353 404.500 L 2353 573 2389.750 572.763 L 2426.500 572.526 2390.250 572.250 L 2354 571.975 2354 404.500 L 2354 237.025 2390.250 236.750 L 2426.500 236.474 2389.750 236.237 L 2353 236 2353 404.500 M 288.334 248.229 C 280.041 253.764, 266.898 266.146, 263.099 272 C 261.042 275.171, 261.135 275.124, 264.086 271.500 C 270.284 263.890, 280.774 254.296, 288.621 249.059 C 297.103 243.398, 297.638 243, 296.750 243 C 296.430 243, 292.642 245.353, 288.334 248.229 M 1030 270.743 L 1066 271.025 1066 307.012 L 1066 343 1082.500 343 L 1099 343 1099 375 L 1099 407 1082.500 407 L 1066 407 1066 489.488 L 1066 571.975 1029.750 572.250 L 993.500 572.526 1030.250 572.763 L 1067 573 1067 490.500 L 1067 408 1083.500 408 L 1100 408 1100 375 L 1100 342 1083.513 342 L 1067.025 342 1066.763 306.250 L 1066.500 270.500 1030.250 270.481 L 994 270.462 1030 270.743 M 422.394 305.250 C 419.302 311.438, 416.644 316.641, 416.489 316.813 C 416.334 316.985, 412.570 315.298, 408.126 313.063 C 403.681 310.828, 399.697 309.023, 399.272 309.050 C 398.391 309.108, 415.106 317.873, 416.242 317.950 C 416.651 317.977, 419.692 312.600, 423 306 C 426.308 299.400, 428.791 294, 428.516 294 C 428.241 294, 425.486 299.063, 422.394 305.250 M 969.299 342.745 C 974.139 342.929, 981.789 342.928, 986.299 342.743 C 990.810 342.558, 986.850 342.408, 977.500 342.409 C 968.150 342.410, 964.460 342.562, 969.299 342.745 M 1132 457.500 L 1132 573 1168.500 573 L 1205 573 1205 457.500 L 1205 342 1168.500 342 L 1132 342 1132 457.500 M 1416 353.703 L 1416 365.406 1412.250 361.868 C 1408.085 357.940, 1400.317 351.747, 1398 350.508 C 1395.767 349.315, 1397.604 350.942, 1405 356.711 C 1408.575 359.500, 1412.357 362.730, 1413.405 363.890 C 1414.453 365.051, 1415.690 366, 1416.155 366 C 1416.620 366, 1417 360.825, 1417 354.500 L 1417 343 1452 343 L 1487 343 1487 457.500 L 1487 572 1452 572 L 1417 572 1417 560.500 C 1417 554.175, 1416.742 549, 1416.426 549 C 1416.111 549, 1412.878 551.523, 1409.243 554.607 C 1405.609 557.690, 1400.917 561.350, 1398.817 562.740 C 1396.718 564.129, 1395 565.475, 1395 565.731 C 1395 566.648, 1401.418 562.107, 1408.644 556.076 L 1416 549.938 1416 561.469 L 1416 573 1452 573 L 1488 573 1488 457.500 L 1488 342 1452 342 L 1416 342 1416 353.703 M 2018.750 342.750 L 2054 343.026 2054 457.500 L 2054 571.974 2018.750 572.250 L 1983.500 572.526 2019.250 572.763 L 2055 573 2055 457.500 L 2055 342 2019.250 342.237 L 1983.500 342.474 2018.750 342.750 M 2124.727 342.750 L 2160.954 343.025 2161.227 360.742 L 2161.500 378.460 2166.191 371.883 C 2171.262 364.774, 2179.121 356.314, 2185.500 351.099 C 2189.089 348.164, 2189.141 348.064, 2186 350.127 C 2180.962 353.438, 2172.094 362.493, 2166.677 369.860 L 2162 376.220 2162 359.110 L 2162 342 2125.250 342.237 L 2088.500 342.474 2124.727 342.750 M 2490.099 344.250 C 2488.754 346.440, 2488.769 346.453, 2490.687 344.750 C 2492.496 343.144, 2496.035 343, 2533.829 343 C 2556.473 343, 2575 343.262, 2575 343.583 C 2575 344.104, 2561.437 363.389, 2555.191 371.750 C 2553.855 373.538, 2553.016 375, 2553.326 375 C 2553.814 375, 2574.387 346.676, 2576.388 343.250 C 2576.967 342.258, 2568.277 342, 2534.300 342 L 2491.481 342 2490.099 344.250 M 1133 457.500 L 1133 572 1168.500 572 L 1204 572 1204 457.500 L 1204 343 1168.500 343 L 1133 343 1133 457.500 M 1712.384 349.239 C 1713.421 349.933, 1717.485 352.564, 1721.415 355.087 C 1725.346 357.610, 1732.148 362.709, 1736.531 366.418 C 1743.664 372.455, 1743.871 372.569, 1738.500 367.502 C 1731.557 360.951, 1720.274 352.676, 1714.500 349.901 C 1712.300 348.843, 1711.348 348.546, 1712.384 349.239 M 1861.441 351.573 C 1853.849 356.140, 1846.938 361.426, 1840 367.974 C 1836.126 371.630, 1836.856 371.170, 1842.469 366.419 C 1849.232 360.695, 1854.423 357.016, 1866.616 349.309 C 1867.652 348.654, 1868.249 348.091, 1867.941 348.059 C 1867.634 348.026, 1864.709 349.608, 1861.441 351.573 M 2276 348.311 C 2276 348.544, 2277.912 349.998, 2280.250 351.542 C 2290.480 358.299, 2300.451 369.732, 2307.200 382.442 C 2311.452 390.451, 2312.371 390.665, 2308.381 382.717 C 2304.120 374.232, 2297.610 365.765, 2289.688 358.405 C 2283.178 352.357, 2276 347.063, 2276 348.311 M 1288.668 355.016 C 1275.569 363.777, 1260.219 379.722, 1253.547 391.500 C 1251.860 394.478, 1251.861 394.481, 1253.674 392.015 C 1267.848 372.730, 1275.680 364.694, 1288.907 355.868 C 1297.096 350.403, 1297.635 350, 1296.750 350 C 1296.430 350, 1292.793 352.257, 1288.668 355.016 M 674.985 354.674 C 686.360 363.034, 693.096 368.445, 696.475 371.937 L 700.450 376.045 676.747 399.747 L 653.045 423.450 648.772 419.491 L 644.500 415.533 648.756 420.008 L 653.012 424.483 677.234 400.261 L 701.455 376.040 696.978 371.453 C 692.261 366.621, 680.571 357.420, 675.500 354.547 C 672.522 352.860, 672.519 352.861, 674.985 354.674 M 752.281 359.909 C 744.067 366.098, 731.118 379.028, 727.152 385 C 725.056 388.157, 725.153 388.108, 728.143 384.500 C 735.225 375.953, 744.797 366.606, 751.987 361.218 C 761.085 354.400, 761.571 354, 760.762 354 C 760.410 354, 756.594 356.659, 752.281 359.909 M 2455.943 392.250 C 2449.203 401.738, 2443.253 410.063, 2442.721 410.750 C 2442.190 411.438, 2441.990 412, 2442.278 412 C 2442.566 412, 2448.316 404.238, 2455.057 394.750 C 2461.797 385.262, 2467.747 376.938, 2468.279 376.250 C 2468.810 375.563, 2469.010 375, 2468.722 375 C 2468.434 375, 2462.684 382.762, 2455.943 392.250 M 2523.365 416.250 C 2515.810 426.837, 2508.533 436.962, 2507.195 438.750 C 2505.857 440.538, 2505.018 442, 2505.330 442 C 2505.642 442, 2512.079 433.337, 2519.635 422.750 C 2527.190 412.163, 2534.467 402.038, 2535.805 400.250 C 2537.143 398.462, 2537.982 397, 2537.670 397 C 2537.358 397, 2530.921 405.663, 2523.365 416.250 M 1377.058 406.197 C 1386.560 409.567, 1394.456 414.660, 1400.784 421.500 C 1403.837 424.800, 1405.357 426.077, 1404.161 424.337 C 1398.557 416.182, 1382.944 405.880, 1374 404.437 C 1371.868 404.092, 1373.063 404.781, 1377.058 406.197 M 969.299 407.745 C 974.139 407.929, 981.789 407.928, 986.299 407.743 C 990.810 407.558, 986.850 407.408, 977.500 407.409 C 968.150 407.410, 964.460 407.562, 969.299 407.745 M 1332.405 410.849 C 1324.790 415.813, 1315.956 425.181, 1312.549 431.903 C 1311.073 434.816, 1310.018 437.351, 1310.204 437.537 C 1310.390 437.723, 1311.991 435.081, 1313.762 431.665 C 1317.588 424.287, 1326.209 415.487, 1334.441 410.558 C 1337.709 408.601, 1339.916 407, 1339.346 407 C 1338.776 407, 1335.653 408.732, 1332.405 410.849 M 2181.371 410.838 C 2171.760 417.050, 2163.909 427.923, 2162.481 437 C 2162.118 439.307, 2162.586 438.544, 2163.853 434.762 C 2167.545 423.747, 2173.272 416.673, 2183.441 410.567 C 2186.709 408.605, 2188.916 407, 2188.346 407 C 2187.776 407, 2184.638 408.727, 2181.371 410.838 M 583.405 411.876 C 580.157 414.008, 575.405 417.946, 572.844 420.626 C 568.201 425.486, 562 434.499, 562 436.387 C 562 436.934, 563.601 434.709, 565.559 431.441 C 570.242 423.622, 577.716 416.128, 585.310 411.635 C 588.689 409.636, 590.972 408, 590.382 408 C 589.793 408, 586.653 409.744, 583.405 411.876 M 2319 498 L 2319 572 2283.507 572 L 2248.015 572 2247.750 507.750 L 2247.485 443.500 2247.243 508.250 L 2247 573 2283.500 573 L 2320 573 2320 498.500 C 2320 457.525, 2319.775 424, 2319.500 424 C 2319.225 424, 2319 457.300, 2319 498 M 2161 506.488 L 2161 571.975 2124.750 572.250 L 2088.500 572.526 2125.250 572.763 L 2162 573 2162 507 C 2162 470.700, 2161.775 441, 2161.500 441 C 2161.225 441, 2161 470.469, 2161 506.488 M 1310.470 478.500 C 1311.789 482.706, 1317.605 491.165, 1322.450 495.924 C 1327.314 500.700, 1338.255 508.028, 1340.441 507.973 C 1341.024 507.959, 1338.800 506.506, 1335.500 504.745 C 1327.898 500.689, 1317.434 490.274, 1313.149 482.500 C 1311.331 479.200, 1310.125 477.400, 1310.470 478.500 M 259.453 489.750 C 255.761 496.212, 252.547 501.837, 252.311 502.250 C 252.075 502.663, 252.096 503, 252.357 503 C 252.619 503, 255.855 497.712, 259.548 491.250 C 263.241 484.788, 266.453 479.288, 266.687 479.028 C 266.920 478.769, 269.336 479.807, 272.055 481.336 C 274.775 482.865, 277 483.907, 277 483.653 C 277 482.981, 268.325 478, 267.155 478 C 266.612 478, 263.146 483.288, 259.453 489.750 M 651.476 491.038 C 651.018 491.780, 651.094 492.060, 651.659 491.711 C 652.192 491.381, 663.399 501.917, 676.564 515.124 L 700.500 539.136 694 545.105 C 688.519 550.138, 683.117 554.077, 668.414 563.761 C 667.361 564.454, 668.300 564.157, 670.500 563.099 C 676.288 560.317, 687.499 552.108, 695 545.162 L 701.500 539.142 676.881 514.454 C 659.865 497.392, 652.019 490.160, 651.476 491.038 M 713.023 505.283 C 712.937 508.181, 726.842 530.753, 731.025 534.505 C 732.248 535.602, 730.798 533.234, 727.803 529.242 C 724.807 525.250, 720.262 518.050, 717.701 513.242 C 715.141 508.434, 713.036 504.852, 713.023 505.283 M 1754.896 526.750 C 1749.312 535.436, 1731.436 553.312, 1722.750 558.896 C 1719.037 561.282, 1716 563.434, 1716 563.676 C 1716 564.242, 1717.171 563.545, 1724.498 558.620 C 1732.150 553.477, 1746.505 539.659, 1751.909 532.236 C 1757.065 525.153, 1760.352 520, 1759.716 520 C 1759.451 520, 1757.282 523.038, 1754.896 526.750 M 1820.860 523.250 C 1830.616 538.670, 1846.954 554.706, 1861.750 563.385 C 1862.438 563.788, 1863 563.919, 1863 563.676 C 1863 563.434, 1859.963 561.282, 1856.250 558.896 C 1847.564 553.312, 1829.688 535.436, 1824.104 526.750 C 1821.718 523.038, 1819.549 520, 1819.284 520 C 1819.020 520, 1819.729 521.462, 1820.860 523.250 M 2597.175 531.750 L 2597.349 536.500 2597.732 532.250 L 2598.115 528 2615.500 528 L 2632.885 528 2633.268 532.250 L 2633.651 536.500 2633.825 531.750 L 2634 527 2615.500 527 L 2597 527 2597.175 531.750 M 2641 550 L 2641 573 2645.469 573 L 2649.938 573 2650.219 560.961 L 2650.500 548.922 2655.018 556.711 C 2659.093 563.736, 2659.865 564.532, 2662.895 564.823 C 2664.743 565, 2666.635 564.765, 2667.101 564.299 C 2667.567 563.833, 2666.213 563.618, 2664.093 563.820 L 2660.238 564.187 2655.369 555.600 C 2652.691 550.877, 2650.162 547.010, 2649.750 547.007 C 2649.338 547.003, 2649 552.625, 2649 559.500 L 2649 572 2645.500 572 L 2642 572 2642 549.895 L 2642 527.790 2645.916 528.163 C 2648.070 528.369, 2649.618 528.191, 2649.357 527.768 C 2649.096 527.346, 2647.109 527, 2644.941 527 L 2641 527 2641 550 M 2677.643 527.768 C 2677.382 528.191, 2678.930 528.369, 2681.084 528.163 L 2685 527.790 2685 549.895 L 2685 572 2681.030 572 L 2677.060 572 2676.780 559.377 L 2676.500 546.754 2674.186 550.877 C 2672.913 553.145, 2672.111 555, 2672.404 555 C 2672.697 555, 2673.607 553.763, 2674.428 552.250 C 2675.823 549.678, 2675.923 550.260, 2675.960 561.250 L 2676 573 2681 573 L 2686 573 2686 550 L 2686 527 2682.059 527 C 2679.891 527, 2677.904 527.346, 2677.643 527.768 M 515.764 537.638 C 523.217 546.369, 538.136 558.183, 547 562.374 C 548.925 563.284, 549.639 563.460, 548.586 562.764 C 547.533 562.069, 542.583 558.812, 537.586 555.527 C 532.544 552.212, 524.500 545.536, 519.512 540.527 C 512.582 533.567, 511.723 532.906, 515.764 537.638 M 2611.226 554.250 L 2611 573 2616 573 L 2621 573 2620.774 554.250 L 2620.548 535.500 2620.251 553.750 L 2619.955 572 2616 572 L 2612.045 572 2611.749 553.750 L 2611.452 535.500 2611.226 554.250 M 2574.901 562.540 C 2577.871 566.368, 2580.746 570.072, 2581.291 570.771 C 2582.089 571.796, 2574.035 571.990, 2539.735 571.771 C 2516.335 571.622, 2497.399 571.837, 2497.654 572.250 C 2498.216 573.158, 2583 573.269, 2583 572.362 C 2583 571.468, 2571.881 557.044, 2570.573 556.240 C 2569.983 555.877, 2571.930 558.713, 2574.901 562.540" stroke="none" fill="#ec0c1c" fill-rule="evenodd"/><path d="M 334.500 232.145 C 325.437 233.300, 310.935 237.169, 303.738 240.352 C 290.167 246.354, 275.006 258.213, 265.388 270.351 C 257.585 280.196, 248.818 297.520, 246.081 308.500 C 236.629 346.417, 246.933 380.561, 274.898 403.983 C 289.372 416.106, 302.528 422.508, 338.912 435.138 C 369.346 445.702, 381.687 455.142, 383.634 469.346 C 385.539 483.246, 376.131 497.313, 361.500 502.442 C 353.855 505.122, 334.519 505.692, 323.939 503.548 C 310.575 500.840, 289.813 491.882, 270.315 480.412 C 268.563 479.381, 266.932 478.754, 266.691 479.019 C 266.450 479.283, 258.362 493.225, 248.719 510 C 228.439 545.275, 228.984 540.545, 244.043 550.575 C 274.260 570.700, 313.604 580.651, 349 577.121 C 407.185 571.318, 448.074 541.478, 459.040 496.818 C 461.704 485.968, 462.689 465.182, 461.071 453.935 C 455.175 412.948, 430.011 390.044, 368.687 369.850 C 346.017 362.385, 338.450 358.909, 331.440 352.738 C 324.554 346.677, 321.774 341.153, 321.213 332.420 C 320.795 325.899, 321.050 324.418, 323.431 319.551 C 334.567 296.790, 370.300 294.113, 408.353 313.189 C 412.673 315.355, 416.331 316.985, 416.482 316.813 C 416.634 316.641, 423.594 303.125, 431.949 286.778 L 447.140 257.056 443.820 254.968 C 437.775 251.167, 416.607 241.250, 410 239.123 C 388.790 232.297, 356.627 229.325, 334.500 232.145 M 1158.746 232.022 C 1143.496 235.875, 1131.274 249.478, 1129.158 264.954 C 1126.131 287.084, 1140.348 306.498, 1162.339 310.265 C 1179.417 313.191, 1196.826 303.978, 1204.413 288 C 1207.283 281.958, 1207.500 280.725, 1207.495 270.500 C 1207.490 259.999, 1207.340 259.212, 1204.180 253.149 C 1199.996 245.122, 1193.665 238.945, 1185.507 234.929 C 1180.243 232.337, 1177.666 231.724, 1170.812 231.430 C 1166.240 231.234, 1160.811 231.500, 1158.746 232.022 M 1525 404.500 L 1525 572 1560 572 L 1595 572 1595 560.500 C 1595 554.175, 1595.372 549, 1595.826 549 C 1596.280 549, 1597.742 550.163, 1599.076 551.583 C 1603.740 556.554, 1615.570 564.913, 1623.663 568.958 C 1648.870 581.555, 1682.282 580.511, 1710.500 566.246 C 1731.436 555.661, 1752.192 534.509, 1763.236 512.500 C 1777.513 484.050, 1780.122 449.812, 1770.324 419.500 C 1756.533 376.836, 1720.110 344.754, 1677.761 337.969 C 1668.116 336.424, 1647.809 337.232, 1639.500 339.492 C 1626.835 342.937, 1613.838 350.454, 1598.750 363.061 L 1595 366.194 1595 301.597 L 1595 237 1560 237 L 1525 237 1525 404.500 M 2354 404.500 L 2354 572 2389.990 572 L 2425.980 572 2426.240 524.998 L 2426.500 477.996 2462.500 524.984 L 2498.500 571.971 2540.372 571.985 C 2573.736 571.997, 2582.043 571.746, 2581.250 570.750 C 2566.347 552.022, 2494.667 458.184, 2494.667 457.402 C 2494.667 456.796, 2512.742 431.070, 2534.833 400.233 C 2556.925 369.395, 2575 343.898, 2575 343.571 C 2575 343.245, 2556.227 343.095, 2533.283 343.239 L 2491.566 343.500 2459.033 389.183 L 2426.500 434.866 2426.245 335.933 L 2425.990 237 2389.995 237 L 2354 237 2354 404.500 M 994 307 L 994 343 977.500 343 L 961 343 961 375 L 961 407 977.500 407 L 994 407 994 489.500 L 994 572 1030 572 L 1066 572 1066 489.500 L 1066 407 1082.500 407 L 1099 407 1099 375 L 1099 343 1082.500 343 L 1066 343 1066 307 L 1066 271 1030 271 L 994 271 994 307 M 594.500 337.689 C 530.917 345.930, 486.970 394.786, 487.006 457.192 C 487.040 517.244, 525.094 562.727, 586.125 575.664 C 597.860 578.151, 623.370 578.148, 634.796 575.658 C 657.352 570.742, 677.283 560.456, 694 545.105 L 700.500 539.136 676.518 515.078 L 652.535 491.020 650.242 493.950 C 646.913 498.203, 635.517 505.457, 628 508.106 C 618.773 511.358, 604.193 511.386, 594.810 508.170 C 563.551 497.455, 549.183 462.898, 563.611 433.131 C 567.217 425.692, 579.666 413.220, 587 409.701 C 607.811 399.712, 630.247 402.881, 647.481 418.241 L 653.177 423.318 676.813 399.681 L 700.450 376.045 696.475 371.933 C 681.070 355.997, 655.140 342.650, 631.615 338.548 C 623.492 337.131, 602.541 336.646, 594.500 337.689 M 803.922 338.552 C 745.779 349.081, 703.980 398.976, 704.004 457.822 C 704.015 483.781, 712.533 508.887, 728.588 530.279 C 754.605 564.944, 798.965 583.044, 842.004 576.555 C 891.170 569.144, 929.535 533.976, 941.760 485.112 C 944.088 475.807, 944.418 472.468, 944.443 458 C 944.463 445.594, 944.011 439.391, 942.621 433 C 931.950 383.960, 893.587 347.088, 844.290 338.491 C 833.833 336.668, 814.163 336.697, 803.922 338.552 M 1328.013 339.133 C 1283.059 348.565, 1247.808 385.488, 1237.404 434.040 C 1234.967 445.415, 1234.934 468.127, 1237.338 480.275 C 1246.431 526.236, 1280.176 563.122, 1323.723 574.701 C 1332.212 576.958, 1335.541 577.305, 1349 577.330 C 1363.025 577.357, 1365.337 577.104, 1373.297 574.671 C 1387.615 570.294, 1397.558 564.674, 1410.136 553.850 C 1413.235 551.183, 1416.048 549, 1416.386 549 C 1416.724 549, 1417 554.175, 1417 560.500 L 1417 572 1452 572 L 1487 572 1487 457.500 L 1487 343 1452 343 L 1417 343 1417 354.500 C 1417 360.825, 1416.735 366, 1416.410 366 C 1416.086 366, 1413.273 363.714, 1410.160 360.921 C 1387.215 340.330, 1358.545 332.726, 1328.013 339.133 M 1897.625 338.495 C 1850.288 348.308, 1813.641 386.643, 1804.545 435.860 C 1802.291 448.056, 1802.507 468.765, 1805.016 481.077 C 1810.089 505.970, 1820.913 526.095, 1838.909 544.091 C 1852.853 558.035, 1864.895 565.739, 1882.387 571.907 C 1907.344 580.707, 1933.982 579.630, 1955.337 568.958 C 1963.430 564.913, 1975.260 556.554, 1979.924 551.583 C 1981.258 550.163, 1982.720 549, 1983.174 549 C 1983.628 549, 1984 554.175, 1984 560.500 L 1984 572 2019 572 L 2054 572 2054 457.500 L 2054 343 2019 343 L 1984 343 1984 354.597 L 1984 366.194 1980.250 363.061 C 1965.189 350.477, 1952.243 342.983, 1939.500 339.471 C 1931.144 337.168, 1906.766 336.600, 1897.625 338.495 M 2216 337.621 C 2210.115 338.750, 2200.100 342.367, 2195 345.205 C 2183.520 351.595, 2175.756 359.037, 2163.306 375.583 L 2161.111 378.500 2161.056 360.750 L 2161 343 2125 343 L 2089 343 2089 457.500 L 2089 572 2124.967 572 L 2160.933 572 2161.217 504.750 C 2161.499 437.692, 2161.506 437.484, 2163.743 432 C 2168.284 420.865, 2178 411.171, 2189 406.800 C 2193.313 405.087, 2196.659 404.603, 2204.500 404.557 C 2213.983 404.503, 2214.891 404.687, 2222.065 408.113 C 2235.398 414.481, 2244.734 426.603, 2247.007 440.500 C 2247.574 443.968, 2247.991 472.985, 2247.994 509.250 L 2248 572 2283.500 572 L 2319 572 2319 497.631 C 2319 418.541, 2318.835 415.290, 2313.983 399 C 2306.805 374.900, 2289.689 354.535, 2268.561 344.955 C 2257.163 339.787, 2247.854 337.858, 2232.500 337.484 C 2224.800 337.296, 2217.375 337.358, 2216 337.621 M 1133 457.500 L 1133 572 1168.500 572 L 1204 572 1204 457.500 L 1204 343 1168.500 343 L 1133 343 1133 457.500 M 1347 404.591 C 1337.895 407.008, 1331.077 410.933, 1323.532 418.099 C 1316.014 425.241, 1312.241 431.082, 1308.928 440.707 C 1299.465 468.198, 1315.364 499.406, 1343.810 509.174 C 1353.254 512.418, 1368.717 512.389, 1378 509.110 C 1395.396 502.967, 1409.047 488.433, 1413.508 471.307 C 1415.777 462.597, 1415.417 448.876, 1412.713 440.942 C 1406.532 422.812, 1392.173 409.145, 1374.458 404.531 C 1367.160 402.630, 1354.282 402.659, 1347 404.591 M 1637.206 404.557 C 1627.484 407.173, 1620.829 411.123, 1612.914 418.975 C 1604.256 427.563, 1599.840 435.454, 1597.511 446.500 C 1595.663 455.263, 1595.655 459.709, 1597.473 468.287 C 1601.468 487.140, 1615.445 502.867, 1633.810 509.174 C 1643.704 512.572, 1658.754 512.423, 1668.716 508.828 C 1685.536 502.759, 1698.297 489.229, 1703.388 472.068 C 1705.508 464.926, 1705.507 450.071, 1703.388 442.932 C 1697.824 424.192, 1682.713 409.286, 1664.458 404.531 C 1657.208 402.643, 1644.272 402.655, 1637.206 404.557 M 1914.112 404.581 C 1896.186 409.402, 1881.107 424.422, 1875.612 442.932 C 1873.493 450.071, 1873.492 464.926, 1875.612 472.068 C 1880.703 489.229, 1893.464 502.759, 1910.284 508.828 C 1920.281 512.435, 1935.292 512.573, 1945.266 509.149 C 1963.473 502.899, 1977.556 487.029, 1981.527 468.287 C 1983.345 459.709, 1983.337 455.263, 1981.489 446.500 C 1979.160 435.454, 1974.744 427.563, 1966.086 418.975 C 1958.024 410.978, 1951.460 407.136, 1941.369 404.508 C 1934.165 402.631, 1921.232 402.666, 1914.112 404.581 M 811.124 405.578 C 787.688 411.881, 770.951 433.709, 771.015 457.886 C 771.104 491.774, 804.067 517.447, 836.846 509.158 C 860.305 503.226, 876.056 484.463, 877.670 460.527 C 879.365 435.403, 862.175 411.969, 837.297 405.489 C 830.171 403.633, 818.203 403.674, 811.124 405.578 M 2598 532 L 2598 536 2605 536 L 2612 536 2612 554 L 2612 572 2616 572 L 2620 572 2620 554 L 2620 536 2626.500 536 L 2633 536 2633 532 L 2633 528 2615.500 528 L 2598 528 2598 532 M 2642 550 L 2642 572 2645.500 572 L 2649 572 2649 559.500 C 2649 552.625, 2649.338 547.003, 2649.750 547.007 C 2650.162 547.010, 2652.667 550.835, 2655.316 555.507 C 2659.853 563.510, 2660.324 564, 2663.474 564 C 2666.631 564, 2667.083 563.523, 2671.658 555.368 L 2676.500 546.735 2676.780 559.368 L 2677.060 572 2681.030 572 L 2685 572 2685 550 L 2685 528 2681.621 528 C 2678.346 528, 2678.027 528.378, 2671.260 540.250 C 2667.420 546.987, 2663.895 552.442, 2663.427 552.371 C 2662.958 552.300, 2659.466 546.788, 2655.667 540.121 C 2648.975 528.381, 2648.652 528, 2645.379 528 L 2642 528 2642 550" stroke="none" fill="#ec141c" fill-rule="evenodd"/>
</svg>
