<?xml version="1.0" standalone="no"?>
<!DOCTYPE svg PUBLIC "-//W3C//DTD SVG 20010904//EN"
 "http://www.w3.org/TR/2001/REC-SVG-20010904/DTD/svg10.dtd">
<svg version="1.0" xmlns="http://www.w3.org/2000/svg"
 width="200" height="55" viewBox="0 0 1300.000000 450.000000"
 preserveAspectRatio="xMidYMid meet">

<g transform="translate(-100,400.000000) scale(0.100000,-0.090000)"
fill="#000000" stroke="none">
<path d="M5586 4164 c-140 -34 -263 -130 -323 -252 -37 -73 -38 -80 -38 -182
0 -97 2 -110 31 -171 60 -125 182 -219 340 -259 94 -24 162 -25 257 -4 154 34
286 133 348 261 32 64 34 74 34 173 0 98 -2 110 -32 173 -59 125 -190 228
-334 262 -79 18 -205 18 -283 -1z"/>
<path d="M9870 2080 l0 -2010 409 0 409 0 5 1053 c5 1106 6 1122 52 1296 64
245 249 432 481 487 91 21 255 14 337 -15 173 -61 248 -143 297 -323 36 -133
40 -279 40 -1405 l0 -1093 405 0 405 0 0 1034 c0 644 -4 1072 -10 1135 -45
438 -305 727 -751 835 -163 39 -276 49 -496 43 -170 -4 -212 -8 -298 -30 -152
-40 -294 -101 -405 -176 l-45 -31 -3 605 -2 605 -415 0 -415 0 0 -2010z"/>
<path d="M4162 3042 c-130 -214 -281 -400 -482 -596 l-138 -133 53 -59 c233
-263 475 -653 591 -953 l28 -73 13 28 c134 306 193 419 310 599 87 133 216
304 292 387 l62 67 -159 158 c-204 203 -332 363 -462 576 -29 48 -54 87 -54
87 -1 -1 -25 -40 -54 -88z"/>
<path d="M7778 3064 c-154 -19 -359 -71 -477 -122 -152 -66 -246 -128 -346
-227 -73 -73 -99 -107 -137 -181 -65 -128 -82 -213 -75 -373 16 -361 180 -584
546 -742 118 -51 261 -98 483 -159 258 -71 357 -105 484 -165 166 -78 261
-158 300 -252 70 -166 -1 -395 -155 -501 -114 -78 -218 -106 -396 -106 -184 0
-326 34 -458 111 -81 47 -184 152 -225 230 -62 117 -87 278 -62 403 5 25 5 49
1 53 -15 15 -185 20 -242 7 -176 -41 -278 -153 -287 -315 -7 -128 36 -231 142
-343 362 -384 1346 -481 1931 -190 111 56 222 137 303 222 64 68 90 106 130
188 69 140 87 226 86 403 -1 171 -24 279 -86 399 -76 146 -223 269 -431 358
-127 56 -532 188 -772 253 -361 98 -450 134 -535 217 -69 68 -93 136 -88 248
5 110 36 181 112 255 159 155 442 188 674 78 80 -38 163 -123 190 -196 26 -69
29 -174 7 -237 l-15 -42 35 -33 c168 -154 559 -153 695 1 97 111 104 256 18
384 -187 281 -775 443 -1350 374z"/>
<path d="M110 3033 c0 -5 49 -152 109 -328 60 -176 139 -405 174 -510 36 -104
99 -289 140 -410 42 -121 132 -384 200 -585 69 -201 183 -536 255 -745 l130
-380 408 0 408 0 27 110 c40 164 166 681 295 1210 63 259 117 477 120 485 6
15 12 -1 117 -305 31 -88 128 -369 217 -625 89 -256 194 -558 233 -673 l71
-207 407 0 406 0 -68 198 c-37 108 -169 494 -294 857 -352 1025 -451 1313
-532 1550 -41 121 -86 253 -100 293 l-25 72 -404 0 c-222 0 -404 -2 -404 -4 0
-3 15 -58 34 -124 159 -552 148 -1130 -35 -1807 -40 -148 -182 -589 -197 -612
-6 -10 -169 466 -684 2010 l-180 537 -414 0 c-228 0 -414 -3 -414 -7z"/>
<path d="M5330 1934 c0 -605 -3 -1271 -7 -1481 l-6 -383 406 0 407 0 0 1481
c0 1407 -1 1481 -17 1474 -66 -25 -203 -58 -285 -67 -146 -17 -275 1 -480 69
-17 5 -18 -51 -18 -1093z"/>
</g>
</svg>
