<svg width="150" height="78" viewBox="0 0 150 78" fill="none" xmlns="http://www.w3.org/2000/svg">
<path fill-rule="evenodd" clip-rule="evenodd" d="M127.02 0.817522C125.588 0.819172 124.155 0.813772 122.724 0.821122C121.159 0.919733 119.746 2.18761 119.499 3.73804C117.385 18.1535 115.275 32.5689 113.163 46.9844C112.876 48.7271 114.322 49.4216 115.869 49.4291C117.149 49.4283 118.427 49.4291 119.706 49.4291C121.504 49.4805 123.025 48.0641 123.265 46.3131C123.895 42.0165 124.524 37.7185 125.154 33.4219C125.502 30.9201 126.219 28.6206 128.186 26.8804C130.105 25.1998 132.448 24.3179 135.013 24.6286C137.858 24.9833 139.001 26.9549 139.141 29.6455C139.218 31.1902 138.971 32.6038 138.758 34.1186C138.125 38.4932 137.494 42.8668 136.861 47.2405C136.549 48.7462 138.445 49.4074 139.643 49.3842H143.629C145.043 49.3378 146.347 48.3309 146.812 47.005C146.948 46.6379 146.975 46.2444 147.04 45.8616C147.826 40.7719 148.61 35.6824 149.396 30.5936C150.104 25.8412 149.202 21.3743 145.25 18.3687C143.049 16.6982 140.452 16.1005 137.724 16.1328C133.621 16.1734 130.303 17.2562 127.137 19.9601C127.957 14.2763 128.779 8.5924 129.6 2.90776C129.702 2.24648 129.364 1.70687 128.819 1.34308C128.289 0.991728 127.65 0.836536 127.02 0.817476V0.817522ZM80.6076 2.30208C80.3903 2.29863 80.1669 2.30628 79.9388 2.32637C76.8379 2.60563 74.3499 5.29009 74.1717 8.38598C74.0226 10.9565 75.7931 13.0445 78.362 13.2657C81.4753 13.5334 84.4461 11.3537 85.1257 8.30586C85.8699 4.9754 83.8679 2.35265 80.6076 2.30209V2.30208ZM4.23495 2.8471C2.94775 2.77813 1.97978 4.36003 1.69555 5.49333C1.31685 6.9841 0.93642 8.47444 0.559378 9.96521C0.162447 11.6482 0.998437 13.518 2.48093 14.3897C2.79996 14.5812 3.15354 14.6995 3.49328 14.8462C7.45182 16.477 11.4104 18.1093 15.3697 19.7392C14.7681 24.0773 14.164 28.415 13.5599 32.7531C13.4687 33.3721 13.3931 33.9944 13.3608 34.62C12.8926 43.3019 19.4647 49.6405 28.0886 49.3769C32.1283 49.2535 35.7289 47.7721 38.8604 45.2207C42.5256 48.9546 47.552 50.0389 52.5613 49.0553C59.7583 47.6441 66.0062 41.4268 67.453 34.2522C67.6179 33.4393 67.7206 32.6145 67.8342 31.7941C68.4316 27.4577 69.0284 23.1219 69.6258 18.7864C69.6938 18.3654 69.5717 17.9259 69.309 17.5919C68.714 16.8279 67.633 16.5255 66.704 16.5189C65.2158 16.5197 63.7274 16.5176 62.2382 16.5201C60.6207 16.5698 59.1273 17.7692 58.6889 19.3205C58.6044 19.6072 58.577 19.9068 58.5347 20.2018C57.987 24.1785 57.4397 28.1549 56.8912 32.1316C56.4396 35.1852 55.0208 37.8368 51.6449 38.4061C48.3244 38.9754 45.6432 36.6096 46.0368 33.2569C46.3873 30.6905 46.7387 28.1249 47.0892 25.5585C47.1199 25.2909 47.1862 25.0255 47.1572 24.7562C47.1141 23.9772 46.7343 23.2185 46.1145 22.7412C45.5974 22.3343 44.9338 22.132 44.2791 22.1403C42.94 22.1411 41.5991 22.1395 40.26 22.1403C40.0006 22.1419 39.7397 22.1305 39.4819 22.167C37.9812 22.3584 36.6536 23.5142 36.2567 24.9735C36.2103 25.2013 36.1892 25.4334 36.1535 25.6629C35.8204 28.0138 35.4913 30.3642 35.1582 32.7143C34.8515 35.1712 33.4364 37.1938 31.0929 38.1087C30.0165 38.5271 28.8039 38.6178 27.6844 38.3187C25.3144 37.6756 24.049 35.332 24.4227 32.9413C25.2282 27.1539 26.0337 21.368 26.8383 15.5806C27.1482 13.6879 26.095 11.7455 24.2819 11.0577C17.7893 8.36621 11.2989 5.67045 4.80548 2.98309C4.6096 2.8997 4.41885 2.85698 4.23496 2.84713L4.23495 2.8471ZM101.807 15.4094C99.7948 15.4109 97.7789 15.7246 95.8659 16.3246C91.053 17.8129 86.9023 21.4685 86.3189 26.685C86.0222 29.3367 86.6274 31.7372 88.777 33.4401C90.5089 34.8298 92.9718 35.7885 95.0551 36.4299C96.777 36.9627 100.807 37.8274 101.606 39.5568C101.815 40.0076 101.742 40.5366 101.542 40.9758C100.727 42.74 98.0354 42.8381 96.3806 42.7602C94.3355 42.6624 92.3137 42.1311 90.4849 41.2113C89.5079 40.7365 88.5026 40.1202 87.5388 39.5956C86.7251 39.1796 85.6419 39.4162 85.0759 40.1322C84.2132 41.2683 83.3534 42.4058 82.4916 43.5419C82.3399 43.7424 82.1741 43.9394 82.0813 44.1755C81.8625 44.691 81.9543 45.3202 82.3131 45.7511C82.9603 46.5897 85.8692 48.1624 86.8578 48.6074C88.018 49.1302 89.2291 49.5316 90.463 49.8382C94.6014 50.8707 99.1806 50.8902 103.149 49.1839C107.916 47.1347 111.089 43.1461 111.263 37.8683C111.327 35.8919 110.915 33.9184 109.473 32.469C108.384 31.3561 105.991 30.2597 104.494 29.7815C103.157 29.349 101.802 28.9759 100.449 28.598C99.3797 28.2898 95.998 27.5244 95.7154 26.1521C95.6002 25.5844 95.7639 24.9619 96.1633 24.5376C98.0577 22.4933 103.326 23.5035 105.512 24.5012C106.396 24.8882 107.582 25.819 108.422 25.9591C109.334 26.1182 109.959 25.5105 110.476 24.8484C111.048 24.1208 111.619 23.3938 112.19 22.6671C112.985 21.7149 113.056 20.262 112.422 19.2088C112.086 18.6826 111.841 18.4704 111.323 18.1224C108.5 16.2708 105.16 15.4068 101.807 15.4094V15.4094ZM76.7221 16.5104C76.5443 16.5112 76.3673 16.5161 76.1904 16.5334C74.8529 16.6867 73.6601 17.6925 73.2723 18.9794C73.1728 19.2967 73.1476 19.6312 73.0963 19.9577C71.811 29.1029 70.5247 38.2484 69.2386 47.3935C69.145 48.0763 69.5979 48.6419 70.1672 48.9642C70.7241 49.2775 71.3739 49.3992 72.0086 49.3842H75.9051C77.3346 49.3304 78.6498 48.2772 79.0576 46.914C79.1263 46.6903 79.1575 46.4582 79.1899 46.227C80.4859 37.0073 81.783 27.7876 83.0791 18.5679C83.1189 18.3234 83.0954 18.0691 83.0026 17.8396C82.696 17.0764 81.8284 16.6909 81.0677 16.565C80.7197 16.5078 80.3654 16.5116 80.0141 16.5116H77.255C77.0772 16.5132 76.8998 16.5095 76.7221 16.5103L76.7221 16.5104Z" fill="#2EB7EB"/>
</svg>
