<svg width="115" height="78" viewBox="0 0 115 78" fill="none" xmlns="http://www.w3.org/2000/svg">
<path d="M112.757 31.3074C112.024 30.7533 111.903 30.6685 107.497 29.2173C111.313 28.2788 111.477 28.1789 112.154 27.7341C113.686 26.6957 114.504 24.9731 114.385 23.1073L114.37 22.9038C114.059 19.9091 110.201 14.259 107.604 12.9906C105.891 12.1727 103.986 12.2877 102.486 13.2959C101.779 13.7633 101.685 13.8274 98.7841 17.787C98.5014 13.1602 97.9567 5.00166 97.8229 4.23839L97.7947 4.06312L97.7513 3.8935C97.2556 2.10122 95.8497 0.755588 93.9877 0.288199C90.8799 -0.486386 82.661 1.82983 80.456 4.10269C79.1613 5.45398 78.6637 7.27265 79.1104 8.97824L79.2009 9.31748L79.3535 9.63221C79.5646 10.0676 80.1206 10.9891 84.8906 18.473L86.6489 21.2434C82.3784 19.4964 82.2087 19.4907 81.3248 19.4832C79.6419 19.4097 77.9551 20.3105 76.9393 21.9012L76.9205 21.9313C76.3965 22.7756 76.0724 23.9234 75.8707 25.1258C74.4949 23.2713 72.4237 21.7843 69.2839 21.1681C67.0582 20.7214 64.97 20.9909 63.0024 21.7862C61.2007 20.6366 58.7243 20.5028 56.6531 21.6844C56.0142 22.0482 55.5355 22.4816 55.1605 22.9434V20.4029L54.9626 18.8933L54.9023 18.6219C54.4858 16.9842 53.2495 15.6027 51.5948 14.9243L51.5797 14.9167C49.7629 14.1836 47.7256 14.3589 45.9974 15.3935C44.1561 16.481 43.2119 18.2864 43.2119 20.7553V25.9362C42.556 24.9147 41.7457 24.0289 40.7864 23.3015C38.2007 21.3414 34.7329 20.6799 30.7639 21.3923C28.4628 21.7919 26.5385 22.7964 25.0139 24.2702C24.9894 24.223 24.9649 24.1646 24.9404 24.1175C24.1658 22.7304 22.9087 21.7768 21.2993 21.3546C18.6118 20.6177 15.2006 21.5318 13.7928 26.3376C13.7928 26.3376 13.5647 27.1141 13.2519 28.1751C12.6356 27.0443 11.0374 23.9554 10.9715 23.8631C9.53162 21.6807 6.64813 20.7346 4.06995 21.7598C1.57847 22.6984 0.136719 24.8902 0.136719 27.4665C0.136719 28.2788 0.278063 29.125 0.573951 29.9844L0.647454 30.1936C0.647454 30.1936 5.76612 40.6194 7.24744 43.6367C4.86715 44.2642 3.17098 46.0396 2.89582 48.4745C2.86755 48.7063 2.85247 48.94 2.85247 49.1699C2.85247 50.7191 3.49514 52.1985 4.67492 53.2841C6.46532 54.9369 9.24704 55.4835 12.5131 54.8144C16.0619 54.1171 18.1029 51.978 19.5334 47.4417L21.7101 40.6024C22.4187 43.4821 23.7078 45.363 24.931 46.5691C26.6893 48.3087 29.9102 50.2329 35.2418 49.5129C39.2033 48.9589 41.9454 47.1854 43.4268 45.101L43.5229 45.6042C43.945 47.0912 45.0928 48.4123 46.6344 49.1153C48.2458 49.8616 50.1115 49.8484 51.7474 49.0814C52.6011 48.7101 53.3248 48.124 53.8883 47.3908V49.5469C53.8883 53.1107 55.9501 54.626 57.1789 55.214C58.7827 56.0206 60.7032 56.0847 62.3749 55.3591C63.9542 54.675 65.1264 53.3727 65.5863 51.7915L65.6579 51.5483L65.8727 50.0783C65.8727 50.0783 65.8727 49.5111 65.8727 49.447C68.0156 49.6656 70.2526 49.3169 72.2221 48.2955C73.0928 47.8432 73.8542 47.2985 74.5345 46.6728H75.9819C76.7697 47.0874 77.6649 47.3456 78.6279 47.3456C79.5948 47.3456 80.4881 47.0874 81.274 46.6728H85.471C88.2509 48.237 92.3141 49.4225 94.489 49.0493C96.3623 48.7176 97.838 47.5115 98.4618 45.8209L98.4939 45.7361C98.7577 44.9672 98.801 44.824 98.8199 40.4799C101.202 44.3283 101.326 44.4301 101.996 44.9578C103.433 46.0791 105.324 46.326 107.069 45.6231C109.871 44.4979 114.153 39.0551 114.583 36.068C114.619 35.8079 114.64 35.544 114.64 35.2858C114.64 33.7216 113.965 32.2723 112.757 31.3074ZM69.2688 21.1643C69.2745 21.1681 69.2783 21.1681 69.2839 21.1681C69.2877 21.1718 69.2915 21.1718 69.2971 21.1718L69.2688 21.1643ZM107.073 45.6231H107.069C107.063 45.6231 107.061 45.6287 107.056 45.6306L107.073 45.6231Z" fill="white"/>
<path d="M112.757 31.3074C112.024 30.7533 111.903 30.6685 107.497 29.2173C111.313 28.2788 111.477 28.1789 112.154 27.7341C113.686 26.6957 114.504 24.9731 114.385 23.1073L114.37 22.9038C114.059 19.9091 110.201 14.259 107.604 12.9906C105.891 12.1727 103.986 12.2877 102.486 13.2959C101.779 13.7633 101.685 13.8274 98.7841 17.787C98.5014 13.1602 97.9567 5.00166 97.8229 4.23839L97.7947 4.06312L97.7513 3.8935C97.2556 2.10122 95.8497 0.755588 93.9877 0.288199C90.8799 -0.486386 82.661 1.82983 80.456 4.10269C79.1613 5.45398 78.6637 7.27265 79.1104 8.97824L79.2009 9.31748L79.3535 9.63221C79.5646 10.0676 80.1206 10.9891 84.8906 18.473L86.6489 21.2434C82.3784 19.4964 82.2087 19.4907 81.3248 19.4832C79.6419 19.4097 77.9551 20.3105 76.9393 21.9012L76.9205 21.9313C76.3965 22.7756 76.0724 23.9234 75.8707 25.1258C74.4949 23.2713 72.4237 21.7843 69.2839 21.1681C67.0582 20.7214 64.97 20.9909 63.0024 21.7862C61.2007 20.6366 58.7243 20.5028 56.6531 21.6844C56.0142 22.0482 55.5355 22.4816 55.1605 22.9434V20.4029L54.9626 18.8933L54.9023 18.6219C54.4858 16.9842 53.2495 15.6027 51.5948 14.9243L51.5797 14.9167C49.7629 14.1836 47.7256 14.3589 45.9974 15.3935C44.1561 16.481 43.2119 18.2864 43.2119 20.7553V25.9362C42.556 24.9147 41.7457 24.0289 40.7864 23.3015C38.2007 21.3414 34.7329 20.6799 30.7639 21.3923C28.4628 21.7919 26.5385 22.7964 25.0139 24.2702C24.9894 24.223 24.9649 24.1646 24.9404 24.1175C24.1658 22.7304 22.9087 21.7768 21.2993 21.3546C18.6118 20.6177 15.2006 21.5318 13.7928 26.3376C13.7928 26.3376 13.5647 27.1141 13.2519 28.1751C12.6356 27.0443 11.0374 23.9554 10.9715 23.8631C9.53162 21.6807 6.64813 20.7346 4.06995 21.7598C1.57847 22.6984 0.136719 24.8902 0.136719 27.4665C0.136719 28.2788 0.278063 29.125 0.573951 29.9844L0.647454 30.1936C0.647454 30.1936 5.76612 40.6194 7.24744 43.6367C4.86715 44.2642 3.17098 46.0396 2.89582 48.4745C2.86755 48.7063 2.85247 48.94 2.85247 49.1699C2.85247 50.7191 3.49514 52.1985 4.67492 53.2841C6.46532 54.9369 9.24704 55.4835 12.5131 54.8144C16.0619 54.1171 18.1029 51.978 19.5334 47.4417L21.7101 40.6024C22.4187 43.4821 23.7078 45.363 24.931 46.5691C26.6893 48.3087 29.9102 50.2329 35.2418 49.5129C39.2033 48.9589 41.9454 47.1854 43.4268 45.101L43.5229 45.6042C43.945 47.0912 45.0928 48.4123 46.6344 49.1153C48.2458 49.8616 50.1115 49.8484 51.7474 49.0814C52.6011 48.7101 53.3248 48.124 53.8883 47.3908V49.5469C53.8883 53.1107 55.9501 54.626 57.1789 55.214C58.7827 56.0206 60.7032 56.0847 62.3749 55.3591C63.9542 54.675 65.1264 53.3727 65.5863 51.7915L65.6579 51.5483L65.8727 50.0783C65.8727 50.0783 65.8727 49.5111 65.8727 49.447C68.0156 49.6656 70.2526 49.3169 72.2221 48.2955C73.0928 47.8432 73.8542 47.2985 74.5345 46.6728H75.9819C76.7697 47.0874 77.6649 47.3456 78.6279 47.3456C79.5948 47.3456 80.4881 47.0874 81.274 46.6728H85.471C88.2509 48.237 92.3141 49.4225 94.489 49.0493C96.3623 48.7176 97.838 47.5115 98.4618 45.8209L98.4939 45.7361C98.7577 44.9672 98.801 44.824 98.8199 40.4799C101.202 44.3283 101.326 44.4301 101.996 44.9578C103.433 46.0791 105.324 46.326 107.069 45.6231C109.871 44.4979 114.153 39.0551 114.583 36.068C114.619 35.8079 114.64 35.544 114.64 35.2858C114.64 33.7216 113.965 32.2723 112.757 31.3074Z" stroke="#BDBCBC" stroke-width="0.273272" stroke-linecap="round" stroke-linejoin="round"/>
<path d="M69.2686 21.1639C69.2763 21.1678 69.2782 21.1678 69.284 21.1678C69.2898 21.1716 69.2917 21.1716 69.2994 21.1716L69.2686 21.1639Z" stroke="#BDBCBC" stroke-width="0.273272" stroke-linecap="round" stroke-linejoin="round"/>
<path d="M107.073 45.6234H107.068C107.064 45.6234 107.062 45.6286 107.057 45.6304L107.073 45.6234Z" stroke="#BDBCBC" stroke-width="0.273272" stroke-linecap="round" stroke-linejoin="round"/>
<path d="M79.4217 25.273C78.7414 26.3623 78.4568 29.7848 78.6924 32.0596C78.7734 32.8097 78.9072 33.4354 79.1089 33.8066C79.3803 34.3249 79.8363 34.634 80.3565 34.651C80.6863 34.6679 80.8955 34.6133 87.1676 32.591C87.1676 32.591 89.9549 31.7053 89.97 31.6996C90.6598 31.5206 91.1309 30.8836 91.1762 30.0675C91.2214 29.2289 90.7861 28.492 90.0774 28.2244L88.1099 27.4215C81.3667 24.6398 81.067 24.5342 80.724 24.5305C80.2057 24.506 79.744 24.7717 79.4217 25.273Z" fill="#E9E9E9"/>
<path d="M94.497 45.9891C94.6082 45.6725 94.6195 45.4558 94.6364 38.8671C94.6364 38.8671 94.6534 35.9553 94.659 35.9233C94.7005 35.2147 94.2406 34.5626 93.483 34.2705C92.7047 33.9689 91.866 34.1536 91.393 34.7416C91.393 34.7416 90.021 36.37 90.0153 36.3718C85.2943 41.9221 85.0964 42.1746 84.9833 42.5063C84.9117 42.6986 84.8834 42.9021 84.9061 43.1094C84.9362 43.4015 85.0663 43.6974 85.2905 43.9613C86.3836 45.2673 91.6361 47.1991 93.3096 46.9126C93.892 46.8071 94.3179 46.4754 94.497 45.9891Z" fill="#E9E9E9"/>
<path d="M105.145 43.6952C106.732 43.0639 110.188 38.6689 110.429 36.9803C110.512 36.3904 110.329 35.8853 109.922 35.5592C109.66 35.3595 109.451 35.2822 103.188 33.2242C103.188 33.2242 100.435 32.3158 100.405 32.3007C99.7358 32.0406 98.9782 32.28 98.4674 32.9113C97.936 33.5578 97.853 34.4077 98.2808 35.0542L99.3871 36.854C103.109 42.8999 103.39 43.3258 103.658 43.5369C104.072 43.8592 104.602 43.9176 105.145 43.6952Z" fill="#E9E9E9"/>
<path d="M101.913 28.1353C109.036 26.4128 109.31 26.3223 109.592 26.1376C110.024 25.8436 110.237 25.3612 110.201 24.7637C110.201 24.743 110.203 24.726 110.201 24.7053C110.016 22.9582 106.954 18.4069 105.444 17.6681C104.907 17.4137 104.372 17.4306 103.931 17.7246C103.656 17.9093 103.45 18.1732 99.6397 23.3936C99.6397 23.3936 97.9152 25.7418 97.8945 25.7626C97.4403 26.3129 97.4347 27.1063 97.8757 27.7867C98.3336 28.4896 99.1139 28.8326 99.8263 28.6348C99.8263 28.6348 99.7942 28.6838 99.7886 28.6951C100.137 28.5613 100.77 28.4067 101.913 28.1353Z" fill="#E9E9E9"/>
<path d="M94.7583 22.254C94.6339 19.4308 93.7877 6.86216 93.6878 6.28169C93.5427 5.75023 93.13 5.37518 92.5363 5.2263C90.7214 4.77399 83.769 6.72458 82.4818 8.05325C82.0709 8.48294 81.9164 9.0163 82.0389 9.48745C82.2406 9.90207 90.8514 23.4507 90.8514 23.4507C92.1255 25.5163 93.1639 25.194 93.5031 25.0884C93.8424 24.9829 94.8751 24.6606 94.7583 22.254Z" fill="#E9E9E9"/>
<path d="M79.9903 23.8482C79.3119 24.9356 79.0254 28.36 79.261 30.6328C79.3439 31.3829 79.4796 32.0086 79.6775 32.3818C79.9489 32.8982 80.405 33.2054 80.9251 33.2242C81.2587 33.2412 81.466 33.1846 87.7381 31.1681C87.7381 31.1681 90.5254 30.2785 90.5367 30.2729C91.2322 30.0957 91.6996 29.4568 91.7448 28.6408C91.79 27.804 91.3584 27.0652 90.6461 26.7976C90.6461 26.7976 88.6804 25.9966 88.6766 25.9966C81.9372 23.2168 81.6337 23.1075 81.2945 23.1037C80.7743 23.083 80.3126 23.345 79.9903 23.8482Z" fill="#BF2519"/>
<path d="M95.0678 44.5604C95.1771 44.2438 95.1903 44.0271 95.2091 37.4384C95.2091 37.4384 95.2242 34.5266 95.2261 34.4984C95.2713 33.7841 94.8096 33.1339 94.0539 32.8436C93.2755 32.544 92.4368 32.7287 91.9657 33.3148C91.9657 33.3148 90.5899 34.9469 90.5861 34.9469C85.8651 40.4934 85.6672 40.7497 85.5523 41.0776C85.4825 41.2698 85.4543 41.4772 85.4769 41.6826C85.5052 41.9766 85.639 42.2668 85.8595 42.5382C86.9544 43.8386 92.205 45.7704 93.8824 45.4839C94.4647 45.3783 94.8887 45.0504 95.0678 44.5604Z" fill="#BF2519"/>
<path d="M105.72 42.2665C107.303 41.6351 110.755 37.242 110.998 35.5515C111.083 34.9635 110.899 34.4565 110.493 34.1324C110.228 33.9326 110.026 33.8553 103.758 31.7973C103.758 31.7973 101.008 30.8889 100.972 30.872C100.307 30.6138 99.5474 30.8531 99.0366 31.4826C98.5052 32.129 98.426 32.9828 98.8501 33.6273L99.9563 35.429C103.677 41.4711 103.961 41.899 104.229 42.1082C104.643 42.4342 105.171 42.487 105.72 42.2665Z" fill="#BF2519"/>
<path d="M102.48 26.7107C109.604 24.9844 109.879 24.8939 110.16 24.7092C110.591 24.419 110.808 23.9328 110.77 23.341C110.77 23.3221 110.774 23.3014 110.77 23.2807C110.588 21.5317 107.523 16.9822 106.014 16.2435C105.478 15.9871 104.943 16.0041 104.498 16.3019C104.223 16.4809 104.022 16.7523 100.207 21.969C100.207 21.969 98.4846 24.3153 98.4638 24.338C98.0096 24.8901 98.0021 25.6817 98.4469 26.3602C98.9067 27.0631 99.6832 27.4061 100.396 27.2082C100.396 27.2082 100.367 27.2591 100.36 27.2686C100.71 27.1366 101.338 26.9821 102.48 26.7107Z" fill="#BF2519"/>
<path d="M95.3303 20.8289C95.2078 18.0057 94.3578 5.43518 94.2579 4.85283C94.1147 4.32513 93.702 3.94821 93.1102 3.79932C91.2915 3.34889 84.341 5.29572 83.0538 6.62438C82.6392 7.05597 82.4865 7.58743 82.6109 8.05859C82.8144 8.4751 91.4253 22.0237 91.4253 22.0237C92.6975 24.0874 93.7359 23.767 94.077 23.6596C94.4144 23.5559 95.4471 23.2355 95.3303 20.8289Z" fill="#BF2519"/>
<path d="M7.12458 50.6251C8.02166 51.4563 9.7216 51.6918 11.7872 51.2716C13.7227 50.889 14.9232 50.0239 16.0785 46.3508L21.8323 28.2734C22.13 27.3141 22.1074 26.4811 21.7663 25.8629C21.4893 25.3654 21.0275 25.0281 20.3754 24.8547C19.3502 24.5739 18.0705 24.6021 17.2639 27.3575L14.2447 37.6117C14.2447 37.6117 8.09516 25.9949 8.0914 25.993C7.70316 25.2165 6.56484 24.6605 5.40579 25.1204C3.89432 25.6952 3.39112 27.054 3.9942 28.8049C3.9942 28.8049 11.4743 44.027 11.4913 44.0685C11.4913 44.0685 11.6948 44.6113 11.6948 44.6999C11.6948 44.6999 11.7627 45.1126 11.7627 45.1277C11.7476 45.7138 11.5516 46.2076 11.201 46.5374C10.8562 46.8615 10.3775 47.0311 9.81772 47.0085C9.81772 47.0085 8.65113 46.9821 8.56255 46.9821C7.36393 47.1291 6.61007 47.817 6.48946 48.88C6.40465 49.5641 6.62515 50.1653 7.12458 50.6251Z" fill="#231F20"/>
<path d="M36.5983 33.4841H28.5886C28.3719 33.3258 28.2664 33.06 28.4284 32.261C28.5302 31.8407 28.6395 31.4638 28.9599 30.9361C29.0636 30.7777 29.171 30.6157 29.2746 30.4536C29.8608 29.7129 30.6542 29.238 31.5569 29.0269C34.3726 28.339 36.3364 29.7695 36.6549 32.2101C36.8075 33.2749 36.7076 33.4841 36.5983 33.4841ZM41.521 32.0894C41.2628 29.4773 40.2545 27.4382 38.6017 26.1887C36.8414 24.8525 34.35 24.4265 31.4005 24.9542C27.7029 25.595 25.4828 28.2373 24.9739 32.6058C24.3482 37.8282 25.2076 41.7633 27.4673 43.989C29.171 45.672 31.6907 46.341 34.7552 45.9264C39.1256 45.312 41.0913 42.9129 41.0913 41.3958C41.0913 40.2801 40.4166 39.4018 39.4253 39.268C38.858 39.1549 38.3793 39.268 37.3201 40.216C35.7936 41.5465 34.0239 42.0818 32.4559 41.6841C31.261 41.3807 30.3281 40.5571 29.906 39.4282C29.906 39.4282 29.7175 38.6819 29.7288 38.7648C29.6007 38.092 29.5423 37.4248 29.9569 37.1535L30.0681 37.0781H39.6684C40.5542 37.0781 41.0027 36.9631 41.2609 36.6842C41.7886 36.0981 41.7471 34.4245 41.521 32.0894" fill="#231F20"/>
<path d="M50.2248 18.275C49.4653 17.9659 48.6078 18.0488 47.8558 18.4974C47.1321 18.9252 46.8306 19.5773 46.8306 20.7552V43.6459C46.8306 43.6459 46.9568 44.4638 46.97 44.4996C47.1321 45.0707 47.5543 45.5569 48.1404 45.8227C48.7906 46.1242 49.5407 46.1186 50.2116 45.8038C51.0465 45.442 51.5384 44.6071 51.5384 43.5724V20.6383C51.5384 20.6383 51.3933 19.5301 51.3933 19.5094C51.2595 18.9779 50.8203 18.5181 50.2248 18.275Z" fill="#231F20"/>
<path d="M68.3406 41.5259C65.1707 41.5259 64.6656 38.7121 64.5657 36.5882C64.56 36.5825 64.5242 35.3443 64.5242 35.3443C64.5242 35.3443 64.56 34.4246 64.56 34.3888C64.7655 30.7138 65.525 29.2645 67.4643 28.8612C68.7665 28.5596 69.7616 28.7066 70.5079 29.3078C71.6293 30.2106 72.1231 32.1216 72.0778 35.3104C72.0458 39.0438 71.3956 41.5259 68.3406 41.5259ZM68.5762 24.7187C66.4522 24.2853 64.6354 24.649 62.8884 25.8326C62.8884 25.8326 62.6924 25.9909 62.617 26.0361L62.4606 26.1152L61.9819 26.3301L61.8462 25.793L61.7312 25.5989L61.6916 25.4782L61.6784 25.4424C61.6784 25.4424 61.5616 25.286 61.5446 25.2615C61.0433 24.4813 59.6807 24.1232 58.4519 24.8243C57.8507 25.1654 57.5059 25.646 57.5059 27.0802V49.5469C57.5059 50.7776 57.8922 51.5427 58.7365 51.946C59.4489 52.3041 60.2499 52.3324 60.9378 52.0365C61.522 51.7802 61.9517 51.3279 62.1119 50.7776L62.2533 49.8145V45.9265L62.2118 45.3008L62.2288 45.1161L62.2533 45.0275L62.4851 44.2869L63.188 44.7543C63.188 44.7543 63.3652 44.8711 63.4406 44.9503L63.6516 45.0897C63.6535 45.0916 63.8967 45.233 63.8967 45.233C63.9004 45.233 64.1228 45.3423 64.1228 45.3423C66.0074 46.2318 68.5291 46.1282 70.5588 45.0822C73.1144 43.7479 74.3771 41.3808 74.6692 37.4061C75.2798 29.4624 73.4517 25.6667 68.5762 24.7187" fill="#231F20"/>
<path d="M78.4242 43.2842H78.6861C78.8991 43.2842 79.0989 43.2728 79.0989 43.0335C79.0989 42.8186 78.9161 42.796 78.7521 42.796H78.4242V43.2842ZM78.2093 42.6038H78.771C79.1385 42.6038 79.31 42.7376 79.31 43.0429C79.31 43.3181 79.1347 43.433 78.9048 43.4575L79.3477 44.1341H79.1158L78.6975 43.4764H78.4242V44.1341H78.2093V42.6038ZM78.705 44.4884C79.325 44.4884 79.8245 44.0003 79.8245 43.3539C79.8245 42.7188 79.325 42.2288 78.705 42.2288C78.0831 42.2288 77.5836 42.7188 77.5836 43.3671C77.5836 44.0003 78.0831 44.4884 78.705 44.4884V44.4884ZM78.705 42.0384C79.4287 42.0384 80.0374 42.6076 80.0374 43.3539C80.0374 44.1134 79.4287 44.6807 78.705 44.6807C77.9794 44.6807 77.3726 44.1134 77.3726 43.3671C77.3726 42.6076 77.9794 42.0384 78.705 42.0384Z" fill="#231F20"/>
</svg>
