<svg width="48" height="48" viewBox="0 0 48 48" fill="none" xmlns="http://www.w3.org/2000/svg">
<circle cx="24" cy="24" r="24" fill="#A34958"/>
<mask id="path-2-inside-1" fill="white">
<path fill-rule="evenodd" clip-rule="evenodd" d="M28 29.0645C30.9634 27.5918 33 24.5337 33 21C33 16.0294 28.9706 12 24 12C19.0294 12 15 16.0294 15 21C15 24.5337 17.0366 27.5918 20 29.0645V35C20 35.5523 20.4477 36 21 36H27C27.5523 36 28 35.5523 28 35V29.0645Z"/>
</mask>
<path d="M28 29.0645L27.1099 27.2735L26 27.825V29.0645H28ZM20 29.0645H22V27.825L20.8901 27.2735L20 29.0645ZM31 21C31 23.7455 29.4197 26.1256 27.1099 27.2735L28.8901 30.8555C32.5072 29.0579 35 25.3219 35 21H31ZM24 14C27.866 14 31 17.134 31 21H35C35 14.9249 30.0751 10 24 10V14ZM17 21C17 17.134 20.134 14 24 14V10C17.9249 10 13 14.9249 13 21H17ZM20.8901 27.2735C18.5803 26.1256 17 23.7455 17 21H13C13 25.3219 15.4928 29.0579 19.1099 30.8555L20.8901 27.2735ZM22 35V29.0645H18V35H22ZM21 34C21.5523 34 22 34.4477 22 35H18C18 36.6569 19.3431 38 21 38V34ZM27 34H21V38H27V34ZM26 35C26 34.4477 26.4477 34 27 34V38C28.6569 38 30 36.6569 30 35H26ZM26 29.0645V35H30V29.0645H26Z" fill="white" mask="url(#path-2-inside-1)"/>
<line x1="22" y1="31" x2="26" y2="31" stroke="white" stroke-width="2"/>
<path d="M24.8333 30V23.8C24.8333 23.3226 25.0089 22.8648 25.3215 22.5272C25.634 22.1896 26.058 22 26.5 22C26.942 22 27.366 22.1896 27.6785 22.5272C27.9911 22.8648 28.1667 23.3226 28.1667 23.8C28.1667 24.2774 27.9911 24.7352 27.6785 25.0728C27.366 25.4104 27.442 25.6 27 25.6C24.3965 25.6 24.2702 25.6 21.6667 25.6C21.2246 25.6 20.8007 25.4104 20.4882 25.0728C20.1756 24.7352 20 24.2774 20 23.8C20 23.3226 20.1756 22.8648 20.4882 22.5272C20.8007 22.1896 21.2246 22 21.6667 22C22.1087 22 22.5326 22.1896 22.8452 22.5272C23.1577 22.8648 23.3333 23.3226 23.3333 23.8V30" stroke="white" stroke-linecap="round" stroke-linejoin="round"/>
</svg>
