<svg width="65" height="65" viewBox="0 0 65 65" fill="none" xmlns="http://www.w3.org/2000/svg">
<ellipse cx="32.5" cy="32.5" rx="32.5" ry="32.5" fill="#AAB4C0"/>
<g clip-path="url(#clip0)">
<path d="M39.0513 48.8204V42.5193C39.1124 41.7429 39.0075 40.9624 38.7436 40.2297C38.4797 39.497 38.0629 38.8288 37.5208 38.2697C42.6334 37.6998 48.0065 35.7622 48.0065 26.8722C48.0061 24.599 47.1316 22.4129 45.5642 20.7664C46.3064 18.7776 46.2539 16.5793 45.4176 14.6281C45.4176 14.6281 43.4963 14.0582 39.0513 17.0378C35.3195 16.0264 31.3857 16.0264 27.6539 17.0378C23.2089 14.0582 21.2876 14.6281 21.2876 14.6281C20.4513 16.5793 20.3988 18.7776 21.1411 20.7664C19.5619 22.4251 18.6866 24.6309 18.6987 26.9211C18.6987 35.7459 24.0718 37.6835 29.1844 38.3185C28.6487 38.872 28.2356 39.5322 27.9719 40.2559C27.7082 40.9797 27.5998 41.7509 27.6539 42.5193V48.8204M27.6539 43.9358C19.5129 46.3781 19.5129 39.8653 16.2564 39.0512L27.6539 43.9358Z" stroke="white" stroke-width="3.25641" stroke-linecap="round" stroke-linejoin="round"/>
</g>
<defs>
<clipPath id="clip0">
<rect width="39.077" height="39.077" fill="white" transform="translate(13 13)"/>
</clipPath>
</defs>
</svg>
