<svg width="39" height="39" viewBox="0 0 39 39" fill="none" xmlns="http://www.w3.org/2000/svg">
<ellipse cx="19.7427" cy="19.4393" rx="19.2476" ry="19.4393" fill="#49657F"/>
<g clip-path="url(#clip0)">
<path d="M23.0381 16.4521C24.3612 16.4521 25.6302 16.983 26.5659 17.928C27.5015 18.8729 28.0271 20.1545 28.0271 21.4909V27.3695H24.7011V21.4909C24.7011 21.0455 24.5259 20.6182 24.214 20.3033C23.9021 19.9883 23.4791 19.8113 23.0381 19.8113C22.597 19.8113 22.174 19.9883 21.8621 20.3033C21.5502 20.6182 21.375 21.0455 21.375 21.4909V27.3695H18.049V21.4909C18.049 20.1545 18.5746 18.8729 19.5102 17.928C20.4459 16.983 21.7149 16.4521 23.0381 16.4521V16.4521Z" stroke="white" stroke-width="2" stroke-linecap="round" stroke-linejoin="round"/>
<path d="M14.723 17.291H11.3969V27.3685H14.723V17.291Z" stroke="white" stroke-width="2" stroke-linecap="round" stroke-linejoin="round"/>
<path d="M13.0599 14.7723C13.9784 14.7723 14.723 14.0203 14.723 13.0927C14.723 12.1651 13.9784 11.4131 13.0599 11.4131C12.1415 11.4131 11.3969 12.1651 11.3969 13.0927C11.3969 14.0203 12.1415 14.7723 13.0599 14.7723Z" stroke="white" stroke-width="2" stroke-linecap="round" stroke-linejoin="round"/>
</g>
<defs>
<clipPath id="clip0">
<rect width="19.9563" height="20.155" fill="white" transform="translate(9.73389 9.7334)"/>
</clipPath>
</defs>
</svg>
