<svg width="39" height="39" viewBox="0 0 39 39" fill="none" xmlns="http://www.w3.org/2000/svg">
<ellipse cx="19.7329" cy="19.4393" rx="19.2476" ry="19.4393" fill="#49657F"/>
<path d="M24.5881 9.72461H14.9389C12.2743 9.72461 10.1142 11.9062 10.1142 14.5973V24.3427C10.1142 27.0338 12.2743 29.2154 14.9389 29.2154H24.5881C27.2527 29.2154 29.4128 27.0338 29.4128 24.3427V14.5973C29.4128 11.9062 27.2527 9.72461 24.5881 9.72461Z" stroke="white" stroke-width="2" stroke-linecap="round" stroke-linejoin="round"/>
<path d="M23.6232 18.8557C23.7423 19.6667 23.6051 20.495 23.2312 21.2228C22.8573 21.9506 22.2657 22.5408 21.5405 22.9094C20.8153 23.278 19.9935 23.4064 19.192 23.2761C18.3905 23.1458 17.65 22.7636 17.076 22.1839C16.5019 21.6041 16.1235 20.8563 15.9945 20.0467C15.8655 19.2372 15.9926 18.4073 16.3576 17.6749C16.7226 16.9425 17.3069 16.345 18.0275 15.9674C18.7481 15.5897 19.5683 15.4512 20.3714 15.5715C21.1905 15.6941 21.9489 16.0797 22.5344 16.671C23.12 17.2624 23.5017 18.0283 23.6232 18.8557Z" stroke="white" stroke-width="2" stroke-linecap="round" stroke-linejoin="round"/>
<path d="M25.0706 14.1104H25.081" stroke="white" stroke-width="2" stroke-linecap="round" stroke-linejoin="round"/>
</svg>
