<svg width="66" height="65" viewBox="0 0 66 65" fill="none" xmlns="http://www.w3.org/2000/svg">
<ellipse cx="33.3" cy="32.5" rx="32.5" ry="32.5" fill="#AAB4C0"/>
<path d="M41.4982 16.2588H25.2051C20.7059 16.2588 17.0586 19.9061 17.0586 24.4053V40.6984C17.0586 45.1976 20.7059 48.8449 25.2051 48.8449H41.4982C45.9974 48.8449 49.6447 45.1976 49.6447 40.6984V24.4053C49.6447 19.9061 45.9974 16.2588 41.4982 16.2588Z" stroke="white" stroke-width="3.25861" stroke-linecap="round" stroke-linejoin="round"/>
<path d="M39.8689 31.5251C40.0699 32.8811 39.8383 34.266 39.207 35.4827C38.5756 36.6995 37.5767 37.6862 36.3522 38.3025C35.1278 38.9188 33.7401 39.1333 32.3867 38.9155C31.0333 38.6978 29.7831 38.0588 28.8138 37.0895C27.8445 36.1201 27.2055 34.8699 26.9877 33.5165C26.7699 32.1631 26.9844 30.7755 27.6007 29.551C28.217 28.3266 29.2037 27.3276 30.4205 26.6963C31.6373 26.0649 33.0221 25.8333 34.3781 26.0344C35.7613 26.2395 37.0418 26.884 38.0305 27.8727C39.0192 28.8615 39.6637 30.142 39.8689 31.5251Z" stroke="white" stroke-width="3.25861" stroke-linecap="round" stroke-linejoin="round"/>
<path d="M42.3128 23.5903H42.3291" stroke="white" stroke-width="3.25861" stroke-linecap="round" stroke-linejoin="round"/>
</svg>
