<svg width="41" height="40" viewBox="0 0 41 40" fill="none" xmlns="http://www.w3.org/2000/svg">
<ellipse cx="20.5242" cy="19.7383" rx="19.5437" ry="19.7383" fill="#49657F"/>
<path d="M29.3189 19.2453C29.3222 20.5479 29.0209 21.8328 28.4394 22.9955C27.7499 24.3888 26.69 25.5607 25.3783 26.38C24.0667 27.1992 22.555 27.6334 21.0128 27.634C19.7231 27.6374 18.4507 27.3331 17.2995 26.7458L11.7296 28.621L13.5862 22.9955C13.0047 21.8328 12.7034 20.5479 12.7067 19.2453C12.7073 17.6877 13.1373 16.161 13.9485 14.8363C14.7596 13.5115 15.92 12.441 17.2995 11.7447C18.4507 11.1574 19.7231 10.8531 21.0128 10.8565H21.5014C23.5382 10.97 25.462 11.8382 26.9044 13.295C28.3468 14.7518 29.2065 16.6947 29.3189 18.7518V19.2453Z" stroke="white" stroke-width="2" stroke-linecap="round" stroke-linejoin="round"/>
</svg>
