<svg width="66" height="65" viewBox="0 0 66 65" fill="none" xmlns="http://www.w3.org/2000/svg">
<ellipse cx="32.9" cy="32.5" rx="32.5" ry="32.5" fill="#AAB4C0"/>
<path d="M38.4645 26.832C40.6987 26.832 42.8414 27.7196 44.4213 29.2994C46.0011 30.8793 46.8886 33.022 46.8886 35.2562V45.0844H41.2725V35.2562C41.2725 34.5115 40.9767 33.7972 40.4501 33.2706C39.9234 32.744 39.2092 32.4481 38.4645 32.4481C37.7197 32.4481 37.0055 32.744 36.4789 33.2706C35.9522 33.7972 35.6564 34.5115 35.6564 35.2562V45.0844H30.0403V35.2562C30.0403 33.022 30.9278 30.8793 32.5077 29.2994C34.0875 27.7196 36.2302 26.832 38.4645 26.832V26.832Z" stroke="white" stroke-width="2.80806" stroke-linecap="round" stroke-linejoin="round"/>
<path d="M24.4242 28.2363H18.8081V45.0847H24.4242V28.2363Z" stroke="white" stroke-width="2.80806" stroke-linecap="round" stroke-linejoin="round"/>
<path d="M21.6162 24.0243C23.167 24.0243 24.4242 22.7671 24.4242 21.2163C24.4242 19.6654 23.167 18.4082 21.6162 18.4082C20.0653 18.4082 18.8081 19.6654 18.8081 21.2163C18.8081 22.7671 20.0653 24.0243 21.6162 24.0243Z" stroke="white" stroke-width="2.80806" stroke-linecap="round" stroke-linejoin="round"/>
</svg>
