<svg width="50" height="50" viewBox="0 0 50 50" fill="none" xmlns="http://www.w3.org/2000/svg">
<ellipse cx="25" cy="25" rx="25" ry="25" fill="#AAB4C0"/>
<path d="M31.3063 12.5066H18.7731C15.3122 12.5066 12.5066 15.3123 12.5066 18.7732V31.3063C12.5066 34.7672 15.3122 37.5728 18.7731 37.5728H31.3063C34.7672 37.5728 37.5728 34.7672 37.5728 31.3063V18.7732C37.5728 15.3123 34.7672 12.5066 31.3063 12.5066Z" stroke="white" stroke-width="2.50662" stroke-linecap="round" stroke-linejoin="round"/>
<path d="M30.053 24.2501C30.2076 25.2932 30.0295 26.3585 29.5438 27.2945C29.0582 28.2304 28.2897 28.9894 27.3478 29.4635C26.406 29.9376 25.3386 30.1026 24.2975 29.9351C23.2564 29.7676 22.2947 29.276 21.549 28.5304C20.8034 27.7848 20.3119 26.823 20.1444 25.782C19.9768 24.7409 20.1419 23.6735 20.6159 22.7316C21.09 21.7897 21.849 21.0213 22.785 20.5356C23.721 20.05 24.7862 19.8718 25.8293 20.0265C26.8933 20.1843 27.8783 20.68 28.6388 21.4406C29.3994 22.2012 29.8952 23.1862 30.053 24.2501Z" stroke="white" stroke-width="2.50662" stroke-linecap="round" stroke-linejoin="round"/>
<path d="M31.9329 18.1465H31.945" stroke="white" stroke-width="2.50662" stroke-linecap="round" stroke-linejoin="round"/>
</svg>
