<svg width="1013" height="622" viewBox="0 0 1013 622" fill="none" xmlns="http://www.w3.org/2000/svg">
<g filter="url(#filter0_d)">
<rect x="844" width="148" height="294" rx="10" fill="#C4C4C4"/>
<rect x="857" y="40" width="123" height="48" fill="white"/>
<rect x="857" y="100" width="123" height="48" fill="white"/>
<rect x="857" y="160" width="123" height="48" fill="white"/>
<ellipse cx="917.5" cy="257" rx="20.5" ry="21" fill="white"/>
<circle cx="880.5" cy="184.5" r="12.5" fill="#A29595"/>
<circle cx="879.5" cy="63.5" r="12.5" fill="#A29595"/>
<rect x="908" y="57" width="57" height="3" fill="#C4C4C4"/>
<rect x="908" y="188" width="57" height="3" fill="#C4C4C4"/>
<rect x="908" y="176" width="57" height="3" fill="#C4C4C4"/>
<rect x="869" y="112" width="96" height="3" fill="#C4C4C4"/>
<rect x="869" y="126" width="96" height="3" fill="#C4C4C4"/>
<rect x="908" y="69" width="57" height="3" fill="#C4C4C4"/>
<rect x="4" y="1" width="179" height="294" rx="10" fill="#EAEAEA"/>
<rect x="20" y="41" width="151" height="48" fill="white"/>
<rect x="20" y="101" width="151" height="48" fill="white"/>
<rect x="20" y="161" width="151" height="48" fill="white"/>
<ellipse cx="108.5" cy="258" rx="20.5" ry="21" fill="white"/>
<circle cx="47.5" cy="185.5" r="12.5" fill="#A29595"/>
<circle cx="46.5" cy="64.5" r="12.5" fill="#A29595"/>
<rect x="84" y="58" width="72" height="3" fill="#C4C4C4"/>
<rect x="84" y="189" width="72" height="3" fill="#C4C4C4"/>
<rect x="84" y="177" width="72" height="3" fill="#C4C4C4"/>
<rect x="35" y="113" width="121" height="3" fill="#C4C4C4"/>
<rect x="35" y="127" width="121" height="3" fill="#C4C4C4"/>
<rect x="84" y="70" width="72" height="3" fill="#C4C4C4"/>
<rect x="256" y="100" width="530" height="386" rx="10" fill="#C4C4C4"/>
<circle cx="280" cy="125" r="5" fill="white"/>
<circle cx="295" cy="125" r="5" fill="white"/>
<circle cx="311" cy="125" r="5" fill="white"/>
<rect x="256" y="145" width="530" height="341" fill="#EBEBEB"/>
<rect x="284" y="172" width="348" height="48" fill="white"/>
<rect x="649" y="172" width="118" height="92" fill="white"/>
<rect x="649" y="280" width="118" height="180" fill="white"/>
<rect x="284" y="232" width="348" height="48" fill="white"/>
<rect x="284" y="292" width="348" height="48" fill="white"/>
<rect x="284" y="352" width="348" height="48" fill="white"/>
<rect x="284" y="412" width="348" height="48" fill="white"/>
<circle cx="684" cy="210" r="22" fill="#A29595"/>
<rect x="662" y="289" width="36" height="23" fill="#C4C4C4"/>
<rect x="662" y="401" width="36" height="23" fill="#C4C4C4"/>
<rect x="662" y="428" width="36" height="23" fill="#C4C4C4"/>
<rect x="662" y="317" width="36" height="23" fill="#C4C4C4"/>
<rect x="662" y="345" width="36" height="23" fill="#C4C4C4"/>
<rect x="662" y="373" width="36" height="23" fill="#C4C4C4"/>
<rect x="21" y="366" width="138" height="105" rx="10" fill="#EEF0F3"/>
<path d="M72.2217 394.616L35.4899 434.948H103.11L72.2217 394.616Z" fill="white" stroke="#EEF0F3" stroke-width="11.8026"/>
<path d="M106.032 406.107L69.2998 446.44H136.92L106.032 406.107Z" fill="white" stroke="#EEF0F3" stroke-width="11.8026"/>
<ellipse cx="123.292" cy="399.01" rx="13.2825" ry="8.67489" fill="white"/>
<rect x="922" y="390" width="87" height="66" rx="10" fill="#EEF0F3"/>
<path d="M954.292 407.987L931.135 433.339H973.765L954.292 407.987Z" fill="white" stroke="#EEF0F3" stroke-width="11.8026"/>
<path d="M975.607 415.21L952.45 440.562H995.08L975.607 415.21Z" fill="white" stroke="#EEF0F3" stroke-width="11.8026"/>
<ellipse cx="986.489" cy="410.749" rx="8.37375" ry="5.45279" fill="white"/>
<mask id="path-54-inside-1" fill="white">
<rect x="365" y="460" width="200" height="152" rx="20"/>
</mask>
<rect x="365" y="460" width="200" height="152" rx="20" fill="white" stroke="#B0ACAC" stroke-width="70" mask="url(#path-54-inside-1)"/>
<path d="M604.173 572.109H581.893L592.378 596.449C600.603 597.935 603.681 596.758 607.449 592.392L604.173 572.109Z" fill="#915B3C"/>
<path d="M529.47 322.618L524.883 325.998L532.091 334.112C533.914 332.855 534.819 332.338 536.023 332.083C541.89 330.124 543.724 329.796 553.061 325.998L556.337 322.618C556.094 321.717 555.711 321.264 554.371 320.589H548.474C548.272 320.461 548.23 319.87 548.474 316.533C550.213 311.861 551.653 309.612 554.371 305.714C554.6 303.894 554.581 303.026 554.371 301.658C552.38 301.762 551.298 301.896 549.784 303.01L529.47 322.618Z" fill="#784931"/>
<path d="M581.238 448.377C558.129 437.906 539.472 432.165 502.604 422.008C534.42 434.889 551.518 442.619 577.961 459.195C580.486 476.171 579.306 484.504 572.064 497.058C558.897 501.437 552.148 503.732 544.542 505.172L581.238 575.489L606.794 572.108C600.715 524.344 595.94 496.203 581.238 448.377Z" fill="#3C5266"/>
<path d="M572.064 351.015L568.132 353.719L573.374 368.594C584.24 365.764 590.234 363.723 599.586 353.719C600.905 350.928 601.606 349.24 602.207 344.254C602.305 342.043 601.961 340.868 600.896 338.845C599.524 338.835 598.787 338.933 597.62 339.521L582.548 347.634H580.583C579.982 342.107 579.695 338.541 578.617 337.492C576.788 337.681 576.776 339.112 573.374 346.282L572.064 351.015Z" fill="#784931"/>
<path d="M435.109 497.735L451.491 490.973L460.665 511.257L441.662 512.609C438.916 510.408 437.573 508.864 435.764 505.172C434.93 502.276 434.891 500.646 435.109 497.735Z" fill="#915B3C"/>
<path d="M437.117 271.585C441.306 280.552 445.382 281.795 453.903 281.272L456.901 271.585C452.164 265.994 451.195 268.164 453.903 263.189C457.407 260.894 460.023 261.712 464.694 263.189C464.634 260.32 465.606 258.237 469.491 253.501C476.959 249.939 480.657 249.054 486.877 248.334V245.751C479.988 235.047 474.628 234.036 464.694 233.48C466.674 220.617 466.431 214.493 456.901 210.875H450.906L445.51 207C438.124 211.06 435.288 214.603 430.522 221.209C431.261 235.237 434.372 239.582 443.112 243.167C437.051 253.977 435.343 260.169 437.117 271.585Z" fill="#0D0C35"/>
<path d="M579.927 457.167C575.996 449.73 539.368 436.166 501.293 421.332L494.74 457.167L422.659 453.786C426.289 465.8 431.996 471.055 449.525 477.451L477.047 482.86C467.032 484.301 458.96 486.789 449.525 491.649L460.665 511.257C487.978 511.257 499.361 511.257 517.675 511.257C524.228 511.257 532.092 509.923 536.023 509.229C551.024 506.581 556.997 503.188 573.375 496.382C576.576 495.433 582.327 481.37 583.204 477.451C584.081 473.532 583.859 464.604 579.927 457.167Z" fill="#4F7698"/>
<path d="M524.228 322.618C506.536 331.477 496.85 335.918 483.6 334.788C486.397 356.784 487.82 362.711 490.153 364.538C508.196 359.77 517.302 354.27 532.747 342.225C533.268 332.916 531.323 328.654 524.228 322.618Z" fill="#C98989"/>
<path d="M587.728 612C585.874 603.295 585.749 598.87 589.694 593.068C598.624 597.108 602.862 597.128 607.387 588.336L607.591 588.428C619.716 593.937 626.576 597.053 636.875 602.534H646.704L648.67 605.239C649.084 608.309 649.135 609.837 648.67 612H587.728Z" fill="#E4E4E4"/>
<path d="M442.972 511.959C437.098 507.755 435.81 504.267 436.42 496.408C428.28 496.219 424.464 496.991 420.037 501.141L446.904 559.964L453.457 556.584L448.87 543.737C448.87 534.77 448.87 529.985 448.87 511.959H442.972Z" fill="#E4E4E4"/>
<path d="M456.078 273.26L447.559 293.544H461.32L467.218 284.078C474.407 290.773 477.905 291.444 483.6 289.487C491.579 287.572 489.685 272.256 486.877 246.215C477.059 247.694 471.593 248.547 467.218 253.653C464.55 257.384 463.532 259.374 463.942 262.442C463.942 262.442 456.078 257.033 452.146 262.442C448.215 267.851 456.078 273.26 456.078 273.26Z" fill="#784931"/>
<path d="M442.222 290.84H477.607C485.835 321.406 482.849 366.566 493.334 366.566H515.614C546.957 359.587 554.024 356.28 566.511 350.44L566.726 350.339C574.905 371.507 577.132 379.157 578.521 388.202C553.42 401.078 537.378 407.174 503.819 415.247C503.757 433.734 501.85 443.608 493.334 459.871C462.893 459.902 443.612 458.407 405.526 453.11C400.604 426.056 401.838 409.794 418.631 378.736L425.184 335.464L442.222 290.84Z" fill="#E7BEB2"/>
<path d="M306.112 365.224L316.965 356.645L321.434 361.924C331.103 364.911 336.162 368.39 344.802 375.571C346.06 376.416 349.139 378.81 345.056 378.422C339.119 377.857 331.636 374.899 327.18 375.782C327.181 379.554 327.18 381.138 327.18 383.701H325.265C322.099 379.981 319.033 375.993 313.773 369.183C311.237 366.69 309.558 365.839 306.112 365.224Z" fill="#EBC9A9"/>
<path d="M122.882 394.919V390.959L135.651 394.919C131.946 403.359 135.602 409.192 140.758 419.334C138.763 420.178 137.646 420.258 135.651 419.334C132.228 415.874 130.646 414.41 129.905 414.715C128.181 413.641 127.043 413.393 124.159 414.715C122.684 415.042 118.971 417.216 112.029 421.314C108.005 421.906 105.908 421.897 102.452 421.314C97.7766 420.032 95.8155 419.044 98.6219 414.715L122.882 394.919Z" fill="#EBC9A9"/>
<path d="M215.455 160C233.205 161.989 236.364 170.146 241.631 185.076C235.794 177.333 232.811 175.7 228.224 179.797C225.114 193.051 222.821 197.981 216.732 197.613C214.755 193.69 213.367 191.788 208.432 191.015C205.036 190.942 203.742 191.622 202.686 194.314C203.356 203.167 205.149 203.175 208.432 202.892C206.604 209.313 206.199 211.392 205.878 214.111C201.873 217.915 198.864 218.804 192.471 218.73C187.49 219.405 184.882 218.852 180.98 214.111C176.242 215.43 173.587 215.43 168.849 214.111C162.802 211.856 160.677 209.539 159.911 202.892C159.225 198.617 160.323 196.337 163.104 192.334C159.606 191.282 158.073 189.241 156.719 181.116C157.95 168.299 161.334 163.163 175.234 160C184.08 160.631 188.749 163.328 196.94 169.238C205.864 160.988 209.543 159.992 215.455 160Z" fill="#191847"/>
<path d="M206.517 212.131L203.325 220.709L217.37 227.308L219.924 218.07C226.36 221.936 230.285 223.489 238.438 224.009C242.957 219.484 245.639 217.421 241.63 185.735C237.163 179.402 234.603 176.261 228.862 179.137C224.627 193.478 222.006 198.169 216.732 198.273C213.57 193.834 211.802 191.226 208.432 191.674C206.262 191.438 205.155 192.082 203.325 194.314C202.892 200.592 204.165 202.443 208.432 203.552L206.517 212.131Z" fill="#EBC9A9"/>
<path d="M317.604 356.645C319.64 348.899 319.964 344.422 315.05 335.529C302.516 322.334 290.393 312.622 278.34 304.514C259.087 286.833 245.237 270.552 230.139 247.105C231.875 277.816 234.223 295.475 256.953 332.889L289.513 364.564C294.825 366.721 298.668 366.811 307.389 364.564L317.604 356.645Z" fill="#691313"/>
<path d="M251.845 369.183L241.631 377.102C235.903 418.421 232.859 442.897 225.67 472.785C221.468 481.571 218.756 485.121 213.54 489.942L232.054 590.244L300.366 583.645L251.845 369.183Z" fill="#647383"/>
<path d="M194.387 220.049L191.833 222.029V231.267C150.499 265.817 129.609 288.988 116.498 370.503C118.2 382.904 119.788 386.324 122.882 390.959L138.205 394.919C150.765 387.015 155.346 378.324 159.911 356.645C162.824 375.62 164.834 383.856 170.126 387.66C197.185 404.935 221.242 395.921 251.207 370.503C260.807 363.553 262.695 356.76 258.23 338.169C243.155 304.215 234.339 279.187 230.139 227.308C230.138 223.165 229.098 221.711 223.754 222.029L194.387 220.049Z" fill="#962020"/>
<path d="M168.849 441.77L172.042 389.64C200.068 397.982 214.931 389.425 241.631 377.102C235.884 416.073 236.573 439.492 225.031 478.064C200.281 516.557 177.696 537.779 141.397 579.026L97.9835 522.276L168.849 441.77Z" fill="#7B8C9F"/>
<path d="M115.221 543.392L104.368 530.195L90.3224 542.073C92.2552 550.49 95.559 550.826 101.176 551.971L115.221 543.392Z" fill="#EBC9A9"/>
<path d="M75 549.331C79.8906 543.003 82.6797 539.643 89.6839 541.413C93.936 551.25 97.2337 553.229 105.006 549.331C108.776 563.136 110.672 570.619 112.667 582.325C117.131 588.409 118.928 591.207 119.052 593.543C118.003 596.546 116.914 597.604 113.944 598.163L75 549.331Z" fill="#E4E4E4"/>
<path d="M295.259 584.305L280.575 586.285L283.129 595.523C288.487 599.874 291.854 597.624 297.812 594.203L295.259 584.305Z" fill="#EAC7A8"/>
<path d="M279.937 614C278.835 603.165 278.868 598.089 283.129 595.523C290.335 599.327 293.688 598.11 298.451 590.244L329.734 604.102C333.694 604.291 335.929 604.563 339.949 605.421C340.904 608.442 340.73 610.381 339.949 614H279.937Z" fill="#E4E4E4"/>
<path d="M712.813 300.996L714.1 287.552H705.092C694.91 279.854 680 276.124 680 276.124V279.485C687.498 285.34 690.421 288.137 691.581 291.585C691.454 293.322 689.938 294.364 685.791 296.29V298.307C691.561 299.031 697.098 298.836 707.666 298.307L712.813 300.996Z" fill="#784931"/>
<path d="M910.334 380.99H892.319C898.302 391.913 899.402 394.855 900.683 399.14C900.683 399.14 894.249 414.601 894.893 417.29C895.536 419.979 898.11 417.29 898.11 417.29L907.117 410.568C915.033 415.587 919.43 417.974 927.062 419.979C933.642 420.016 935.908 418.558 938 413.929L914.838 395.779L910.334 380.99Z" fill="#997659"/>
<path d="M853.072 341.329H781.012C796.602 396.68 807.472 428.149 820.259 465.018C846.927 521.45 857.146 544.055 876.234 586.018H901.327C885.783 542.146 876.53 515.269 858.219 459.64C856.789 442.133 855.293 396.168 853.072 341.329Z" fill="#2D2C6D"/>
<path d="M711.526 286.879C761.658 293.814 783.699 284.044 800.314 233.774C797.301 259.731 785.516 325.196 780.369 327.885C775.222 330.574 734.626 346.504 705.736 342.001C705.735 335.113 705.736 328.823 705.736 299.651H711.526V286.879Z" fill="#B2BBC1"/>
<path d="M836.344 342.001C841.461 322.747 840.275 305.982 839.561 278.14C845.988 306.1 849.198 321.06 851.786 342.001H836.344Z" fill="#B2BBC1"/>
<path d="M775.222 342.674C790.131 289.53 796.608 261.887 799.027 223.018L829.91 215.624C871.742 261.617 891.147 295.521 911.621 384.352H855.002C855.822 361.516 854.417 350.4 839.561 280.157C840.498 315.387 840.56 325.364 836.988 342.674H775.222Z" fill="#CCD2D6"/>
<path d="M901.97 585.346H877.521C866.555 596.888 856.015 600.522 836.988 606.857V611.563C861.605 611.857 875.34 611.972 892.963 606.857V611.563H901.97V585.346Z" fill="#191847"/>
<path d="M752.06 587.363L781.656 344.018L813.825 444.852L775.222 587.363H752.06Z" fill="#0F0E41"/>
<path d="M775.222 608.874V586.69H753.99L721.177 600.807C738.445 610.946 748.537 612.363 767.501 604.84V608.874H775.222Z" fill="#191847"/>
<path d="M793.88 214.279C784.294 207.624 785.871 194.874 791.95 167.896C803.141 181.476 808.001 189.656 815.112 204.868C806.801 212.057 802.144 215.647 793.88 214.279Z" fill="#B28B67"/>
<path d="M800.314 159.157C794.059 161.891 791.455 163.629 791.95 167.896C802.129 179.657 806.979 188.474 815.112 205.54C813.193 186.082 811.442 175.408 800.314 159.157Z" fill="#2C2C2C"/>
<path d="M814.469 204.868C810.557 207.782 810.038 211.961 807.392 221.002L830.554 215.624L852.429 241.84C852.859 233.351 851.562 226.702 845.995 210.918C849.351 200.974 850.117 194.887 848.569 182.685C837.299 161.412 824.547 147.68 799.027 159.157C807.308 165.595 809.392 177.026 814.429 204.65L814.469 204.868Z" fill="#8991DC"/>
</g>
<defs>
<filter id="filter0_d" x="0" y="0" width="1013" height="622" filterUnits="userSpaceOnUse" color-interpolation-filters="sRGB">
<feFlood flood-opacity="0" result="BackgroundImageFix"/>
<feColorMatrix in="SourceAlpha" type="matrix" values="0 0 0 0 0 0 0 0 0 0 0 0 0 0 0 0 0 0 127 0"/>
<feOffset dy="4"/>
<feGaussianBlur stdDeviation="2"/>
<feColorMatrix type="matrix" values="0 0 0 0 0 0 0 0 0 0 0 0 0 0 0 0 0 0 0.25 0"/>
<feBlend mode="normal" in2="BackgroundImageFix" result="effect1_dropShadow"/>
<feBlend mode="normal" in="SourceGraphic" in2="effect1_dropShadow" result="shape"/>
</filter>
</defs>
</svg>
