<svg width="50" height="50" viewBox="0 0 50 50" fill="none" xmlns="http://www.w3.org/2000/svg">
<ellipse cx="25" cy="25" rx="25" ry="25" fill="#AAB4C0"/>
<path d="M29.2803 20.6402C30.9989 20.6402 32.6472 21.3229 33.8625 22.5382C35.0777 23.7534 35.7604 25.4017 35.7604 27.1203V34.6805H31.4404V27.1203C31.4404 26.5475 31.2128 25.998 30.8077 25.593C30.4026 25.1879 29.8532 24.9603 29.2803 24.9603C28.7074 24.9603 28.158 25.1879 27.7529 25.593C27.3478 25.998 27.1203 26.5475 27.1203 27.1203V34.6805H22.8002V27.1203C22.8002 25.4017 23.4829 23.7534 24.6982 22.5382C25.9134 21.3229 27.5617 20.6402 29.2803 20.6402V20.6402Z" stroke="white" stroke-width="2.16004" stroke-linecap="round" stroke-linejoin="round"/>
<path d="M18.4801 21.7202H14.16V34.6805H18.4801V21.7202Z" stroke="white" stroke-width="2.16004" stroke-linecap="round" stroke-linejoin="round"/>
<path d="M16.3201 18.4801C17.513 18.4801 18.4801 17.5131 18.4801 16.3201C18.4801 15.1271 17.513 14.16 16.3201 14.16C15.1271 14.16 14.16 15.1271 14.16 16.3201C14.16 17.5131 15.1271 18.4801 16.3201 18.4801Z" stroke="white" stroke-width="2.16004" stroke-linecap="round" stroke-linejoin="round"/>
</svg>
