<svg width="18" height="18" viewBox="0 0 18 18" fill="none" xmlns="http://www.w3.org/2000/svg">
<path d="M7.49993 9.75022C7.82202 10.1808 8.23295 10.5371 8.70484 10.7949C9.17674 11.0527 9.69856 11.2061 10.2349 11.2445C10.7713 11.2829 11.3096 11.2055 11.8134 11.0176C12.3173 10.8296 12.7748 10.5355 13.1549 10.1552L15.4049 7.90522C16.088 7.19796 16.466 6.2507 16.4575 5.26746C16.4489 4.28423 16.0545 3.34368 15.3592 2.6484C14.664 1.95312 13.7234 1.55873 12.7402 1.55019C11.7569 1.54165 10.8097 1.91963 10.1024 2.60272L8.81243 3.88522" stroke="black" stroke-width="1.5" stroke-linecap="round" stroke-linejoin="round"/>
<path d="M10.4999 8.25041C10.1778 7.81982 9.76691 7.46353 9.29502 7.20571C8.82312 6.94789 8.3013 6.79458 7.76494 6.75616C7.22858 6.71775 6.69024 6.79514 6.18642 6.98308C5.6826 7.17102 5.22509 7.46511 4.84493 7.84541L2.59493 10.0954C1.91184 10.8027 1.53386 11.7499 1.5424 12.7332C1.55095 13.7164 1.94533 14.657 2.64061 15.3522C3.33589 16.0475 4.27644 16.4419 5.25967 16.4504C6.24291 16.459 7.19017 16.081 7.89743 15.3979L9.17993 14.1154" stroke="black" stroke-width="1.5" stroke-linecap="round" stroke-linejoin="round"/>
</svg>
